<svg xmlns="http://www.w3.org/2000/svg" width="1150" height="489" viewBox="0 0 1150 489">
    <defs>
        <filter id="m58gc8eo7a" x="580" y="35" width="200" height="415" filterUnits="userSpaceOnUse">
            <feOffset/>
            <feGaussianBlur stdDeviation="15" result="blur"/>
            <feFlood flood-color="#0f0" flood-opacity=".502"/>
            <feComposite operator="in" in2="blur"/>
            <feComposite in="SourceGraphic"/>
        </filter>
        <filter id="a4bzsngvcb" x="270" y="35" width="310" height="200" filterUnits="userSpaceOnUse">
            <feOffset/>
            <feGaussianBlur stdDeviation="15" result="blur-2"/>
            <feFlood flood-color="#00ffb4" flood-opacity=".502"/>
            <feComposite operator="in" in2="blur-2"/>
            <feComposite in="SourceGraphic"/>
        </filter>
        <filter id="j4j53zo6yc" x="270" y="250" width="310" height="200" filterUnits="userSpaceOnUse">
            <feOffset/>
            <feGaussianBlur stdDeviation="15" result="blur-3"/>
            <feFlood flood-color="#0ff" flood-opacity=".502"/>
            <feComposite operator="in" in2="blur-3"/>
            <feComposite in="SourceGraphic"/>
        </filter>
        <filter id="dhr5jx52zd" x="0" y="0" width="270" height="270" filterUnits="userSpaceOnUse">
            <feOffset/>
            <feGaussianBlur stdDeviation="15" result="blur-4"/>
            <feFlood flood-color="#00ffb4" flood-opacity=".502"/>
            <feComposite operator="in" in2="blur-4"/>
            <feComposite in="SourceGraphic"/>
        </filter>
        <filter id="iaoqosy6fe" x="0" y="219" width="270" height="270" filterUnits="userSpaceOnUse">
            <feOffset/>
            <feGaussianBlur stdDeviation="15" result="blur-5"/>
            <feFlood flood-color="#0ff" flood-opacity=".502"/>
            <feComposite operator="in" in2="blur-5"/>
            <feComposite in="SourceGraphic"/>
        </filter>
        <filter id="gqbn60bxff" x="740" y="40" width="410" height="410" filterUnits="userSpaceOnUse">
            <feOffset/>
            <feGaussianBlur stdDeviation="15" result="blur-6"/>
            <feFlood flood-color="#00c8b4" flood-opacity=".502"/>
            <feComposite operator="in" in2="blur-6"/>
            <feComposite in="SourceGraphic"/>
        </filter>
        <clipPath id="ixwig2mslg">
            <path data-name="사각형 3089" style="fill:none;stroke:#32dcff" d="M0 0h31.096v24H0z"/>
        </clipPath>
    </defs>
    <g data-name="그룹 7579">
        <g style="filter:url(#m58gc8eo7a)">
            <rect data-name="사각형 3103" width="110" height="325" rx="55" transform="translate(625 80)" style="fill:#78e600"/>
        </g>
        <g data-name="그룹 7487">
            <g style="filter:url(#a4bzsngvcb)">
                <rect data-name="사각형 3086" width="220" height="110" rx="55" transform="translate(315 80)" style="fill:#00f0b4"/>
            </g>
            <text transform="translate(425 144)" style="fill:#fff;font-size:20px;font-family:NotoSansKR-Bold,Noto Sans KR;font-weight:700"><tspan x="-18.64" y="0">PLC</tspan></text>
        </g>
        <text transform="translate(680 251)" style="fill:#fff;font-size:20px;font-family:NotoSansKR-Bold,Noto Sans KR;font-weight:700"><tspan x="-27.6" y="0">방화벽</tspan></text>
        <g style="filter:url(#j4j53zo6yc)">
            <rect data-name="사각형 3088" width="220" height="110" rx="55" transform="translate(315 295)" style="fill:#0dc8ff"/>
        </g>
        <text data-name="NB-IoT, LTE, Wi-SUN, Wi-Fi" transform="translate(425 347)" style="fill:#fff;font-size:20px;font-family:NotoSansKR-Bold,Noto Sans KR;font-weight:700"><tspan x="-57.44" y="0">NB-IoT, LTE,</tspan><tspan x="-67.12" y="24">Wi-SUN, Wi-Fi</tspan></text>
        <g style="filter:url(#dhr5jx52zd)">
            <circle data-name="타원 69" cx="90" cy="90" r="90" transform="translate(45 45)" style="fill:#1af0b4"/>
        </g>
        <g style="filter:url(#iaoqosy6fe)">
            <circle data-name="타원 101" cx="90" cy="90" r="90" transform="translate(45 264)" style="fill:#0dc8ff"/>
        </g>
        <text data-name="전기 계량기" transform="translate(135 133)" style="fill:#fff;font-size:20px;font-family:NotoSansKR-Bold,Noto Sans KR;font-weight:700"><tspan x="-18.4" y="0">전기</tspan><tspan x="-27.6" y="24">계량기</tspan></text>
        <text data-name="전기 계량기" transform="translate(135 353)" style="fill:#fff;font-size:20px;font-family:NotoSansKR-Bold,Noto Sans KR;font-weight:700"><tspan x="-18.4" y="0">전기</tspan><tspan x="-27.6" y="24">계량기</tspan></text>
        <g style="filter:url(#gqbn60bxff)">
            <circle data-name="타원 71" cx="160" cy="160" r="160" transform="translate(785 85)" style="fill:#00c8b4"/>
        </g>
        <text data-name="AIM 서버 Security 서버" transform="translate(945 242)" style="fill:#fff;font-size:20px;font-family:NotoSansKR-Bold,Noto Sans KR;font-weight:700"><tspan x="-38.92" y="0">AIM </tspan><tspan y="0">서버</tspan><tspan x="-61.7" y="24">Security </tspan><tspan y="24">서버</tspan></text>
        <g data-name="그룹 7482">
            <g data-name="그룹 7481" style="clip-path:url(#ixwig2mslg)" transform="translate(254 315)">
                <path data-name="선 4711" transform="translate(15.548 21.5)" style="stroke-width:5px;stroke-linecap:round;stroke-linejoin:round;fill:none;stroke:#32dcff" d="M0 0h0"/>
                <path data-name="패스 12749" d="M10.865 15.754a5.991 5.991 0 0 1 9.365 0" style="stroke-width:3px;stroke-linecap:round;stroke-linejoin:round;fill:none;stroke:#32dcff"/>
                <path data-name="패스 12750" d="M6.183 12.008a11.982 11.982 0 0 1 18.73 0" style="stroke-width:3px;stroke-linecap:round;stroke-linejoin:round;fill:none;stroke:#32dcff"/>
                <path data-name="패스 12751" d="M1.5 8.262a17.973 17.973 0 0 1 28.1 0" style="stroke-width:3px;stroke-linecap:round;stroke-linejoin:round;fill:none;stroke:#32dcff"/>
            </g>
        </g>
        <g data-name="그룹 7483">
            <g data-name="그룹 7481" style="clip-path:url(#ixwig2mslg)" transform="translate(564 315)">
                <path data-name="선 4711" transform="translate(15.548 21.5)" style="stroke-width:5px;stroke-linecap:round;stroke-linejoin:round;fill:none;stroke:#32dcff" d="M0 0h0"/>
                <path data-name="패스 12749" d="M10.865 15.754a5.991 5.991 0 0 1 9.365 0" style="stroke-width:3px;stroke-linecap:round;stroke-linejoin:round;fill:none;stroke:#32dcff"/>
                <path data-name="패스 12750" d="M6.183 12.008a11.982 11.982 0 0 1 18.73 0" style="stroke-width:3px;stroke-linecap:round;stroke-linejoin:round;fill:none;stroke:#32dcff"/>
                <path data-name="패스 12751" d="M1.5 8.262a17.973 17.973 0 0 1 28.1 0" style="stroke-width:3px;stroke-linecap:round;stroke-linejoin:round;fill:none;stroke:#32dcff"/>
            </g>
        </g>
        <path data-name="사각형 3099" transform="translate(225 136)" style="fill:#1af4c7" d="M0 0h90v1H0z"/>
        <path data-name="사각형 3101" transform="translate(225 354)" style="fill:#0dc8ff" d="M0 0h90v1H0z"/>
        <path data-name="사각형 3100" transform="translate(535 136)" style="fill:#1af4c7" d="M0 0h90v1H0z"/>
        <path data-name="사각형 3102" transform="translate(535 354)" style="fill:#0dc8ff" d="M0 0h90v1H0z"/>
        <path data-name="사각형 3104" transform="translate(735 245)" style="fill:#78e600" d="M0 0h50v1H0z"/>
    </g>
</svg>
