<svg xmlns="http://www.w3.org/2000/svg" width="48" height="48" viewBox="0 0 48 48">
    <defs>
        <clipPath id="lubjrb543a">
            <path data-name="사각형 239" style="fill:none" d="M0 0h42v34H0z"/>
        </clipPath>
    </defs>
    <g data-name="그룹 7389">
        <g data-name="그룹 213">
            <g data-name="그룹 212" style="clip-path:url(#lubjrb543a)" transform="translate(3 7)">
                <path data-name="패스 6379" d="M10.647 23.353a91.753 91.753 0 0 0 10.009 8.734 4.533 4.533 0 0 0 3.818.76 6.872 6.872 0 0 0 3.007-2l3.088-3.088a1.484 1.484 0 0 0 0-2.093l-4.178-4.179a1.486 1.486 0 0 0-2.095 0l-1.875 1.875a1.716 1.716 0 0 1-2.212.131 41.407 41.407 0 0 1-5.135-4.569 41.407 41.407 0 0 1-4.574-5.131 1.716 1.716 0 0 1 .131-2.212l1.875-1.875a1.486 1.486 0 0 0 0-2.1L8.33 3.433a1.484 1.484 0 0 0-2.093 0L3.149 6.519a6.872 6.872 0 0 0-2 3.007 4.533 4.533 0 0 0 .76 3.818 91.753 91.753 0 0 0 8.738 10.009z" style="stroke-linecap:round;stroke-linejoin:round;stroke-width:2px;stroke:#00148c;fill:none"/>
                <path data-name="패스 6380" d="M31 1c-6.025 0-10 2.43-10 6.588 0 2.981 1.607 4.608 5.247 5.828L27.336 17l2.508-2.867c.38.028.765.043 1.156.043 6.025 0 10-2.429 10-6.588S37.025 1 31 1z" style="stroke:#00c800;stroke-linecap:round;stroke-linejoin:round;stroke-width:2px;fill:none"/>
            </g>
        </g>
        <path data-name="사각형 3012" style="fill:none" d="M0 0h48v48H0z"/>
    </g>
</svg>
