<svg xmlns="http://www.w3.org/2000/svg" width="100" height="100" viewBox="0 0 100 100">
    <defs>
        <clipPath id="h6udlxa0ya">
            <path data-name="사각형 3239" style="fill:none" d="M0 0h69v59H0z"/>
        </clipPath>
    </defs>
    <g data-name="그룹 7599">
        <g data-name="그룹 7598">
            <g data-name="그룹 7597" style="clip-path:url(#h6udlxa0ya)" transform="translate(16 21)">
                <path data-name="패스 12827" d="M58.5 37.5h0a3.009 3.009 0 0 1-3-3v-10a3 3 0 0 1 6 0v10a3.009 3.009 0 0 1-3 3z" style="stroke-linecap:round;stroke-linejoin:round;stroke-width:3px;stroke:#8c00c8;fill:none"/>
                <rect data-name="사각형 3238" width="66" height="56" rx="2" transform="translate(1.5 1.5)" style="stroke:#00148c;stroke-linecap:round;stroke-linejoin:round;stroke-width:3px;fill:none"/>
                <circle data-name="타원 106" cx="16" cy="16" r="16" transform="translate(12.5 13.5)" style="stroke:#00148c;stroke-linecap:round;stroke-linejoin:round;stroke-width:3px;fill:none"/>
                <circle data-name="타원 107" cx="5" cy="5" r="5" transform="translate(23.5 24.5)" style="stroke-linecap:round;stroke-linejoin:round;stroke-width:3px;stroke:#8c00c8;fill:none"/>
                <path data-name="선 4752" transform="translate(28.5 41.5)" style="stroke:#00148c;stroke-linecap:round;stroke-linejoin:round;stroke-width:3px;fill:none" d="M0 4V0"/>
                <path data-name="선 4753" transform="translate(28.5 13.5)" style="stroke:#00148c;stroke-linecap:round;stroke-linejoin:round;stroke-width:3px;fill:none" d="M0 4V0"/>
                <path data-name="선 4754" transform="translate(34.5 39.892)" style="stroke:#00148c;stroke-linecap:round;stroke-linejoin:round;stroke-width:3px;fill:none" d="M2 3.464 0 0"/>
                <path data-name="선 4755" transform="translate(20.5 15.644)" style="stroke:#00148c;stroke-linecap:round;stroke-linejoin:round;stroke-width:3px;fill:none" d="M2 3.464 0 0"/>
                <path data-name="선 4756" transform="translate(38.892 35.5)" style="stroke:#00148c;stroke-linecap:round;stroke-linejoin:round;stroke-width:3px;fill:none" d="M3.464 2 0 0"/>
                <path data-name="선 4757" transform="translate(14.644 21.5)" style="stroke:#00148c;stroke-linecap:round;stroke-linejoin:round;stroke-width:3px;fill:none" d="M3.464 2 0 0"/>
                <path data-name="선 4758" transform="translate(40.5 29.5)" style="stroke:#00148c;stroke-linecap:round;stroke-linejoin:round;stroke-width:3px;fill:none" d="M4 0H0"/>
                <path data-name="선 4759" transform="translate(12.5 29.5)" style="stroke:#00148c;stroke-linecap:round;stroke-linejoin:round;stroke-width:3px;fill:none" d="M4 0H0"/>
                <path data-name="선 4760" transform="translate(38.892 21.5)" style="stroke:#00148c;stroke-linecap:round;stroke-linejoin:round;stroke-width:3px;fill:none" d="M3.464 0 0 2"/>
                <path data-name="선 4761" transform="translate(14.644 35.5)" style="stroke:#00148c;stroke-linecap:round;stroke-linejoin:round;stroke-width:3px;fill:none" d="M3.464 0 0 2"/>
                <path data-name="선 4762" transform="translate(34.5 15.644)" style="stroke:#00148c;stroke-linecap:round;stroke-linejoin:round;stroke-width:3px;fill:none" d="M2 0 0 3.464"/>
                <path data-name="선 4763" transform="translate(20.5 39.892)" style="stroke:#00148c;stroke-linecap:round;stroke-linejoin:round;stroke-width:3px;fill:none" d="M2 0 0 3.464"/>
            </g>
        </g>
        <path data-name="사각형 3240" style="fill:none" d="M0 0h100v100H0z"/>
    </g>
</svg>
