<svg xmlns="http://www.w3.org/2000/svg" width="100" height="100" viewBox="0 0 100 100">
    <defs>
        <clipPath id="3ea28anrxa">
            <path data-name="사각형 3058" style="fill:none" d="M0 0h83v69H0z"/>
        </clipPath>
    </defs>
    <g data-name="그룹 7464">
        <path data-name="사각형 3057" style="fill:none" d="M0 0h100v100H0z"/>
        <g data-name="그룹 7463">
            <g data-name="그룹 7462" style="clip-path:url(#3ea28anrxa)" transform="translate(9 15)">
                <path data-name="패스 12734" d="M43.075 1.991a2.774 2.774 0 0 0-3.15 0L1.5 31.017h10v34.52a1.977 1.977 0 0 0 1.98 1.963h56.04a1.977 1.977 0 0 0 1.98-1.963v-34.52h10z" style="stroke-width:3px;stroke-linecap:round;stroke-linejoin:round;stroke:#00148c;fill:none"/>
                <path data-name="선 4702" transform="translate(41.5 52.144)" style="stroke-width:5px;stroke:#00c800;stroke-linecap:round;stroke-linejoin:round;fill:none" d="M0 0h0"/>
                <path data-name="패스 12735" d="M36.817 46.4a5.991 5.991 0 0 1 9.365 0" style="stroke:#00c800;stroke-width:3px;stroke-linecap:round;stroke-linejoin:round;fill:none"/>
                <path data-name="패스 12736" d="M32.135 42.652a11.982 11.982 0 0 1 18.73 0" style="stroke:#00c800;stroke-width:3px;stroke-linecap:round;stroke-linejoin:round;fill:none"/>
                <path data-name="패스 12737" d="M27.452 38.906a17.973 17.973 0 0 1 28.1 0" style="stroke:#00c800;stroke-width:3px;stroke-linecap:round;stroke-linejoin:round;fill:none"/>
            </g>
        </g>
    </g>
</svg>
