<svg xmlns="http://www.w3.org/2000/svg" width="100" height="100" viewBox="0 0 100 100">
    <defs>
        <clipPath id="qzlbb4umqa">
            <path data-name="사각형 3324" style="fill:none" d="M0 0h65v65H0z"/>
        </clipPath>
    </defs>
    <g data-name="그룹 7704">
        <g data-name="그룹 7703">
            <path data-name="사각형 3307" style="fill:none" d="M0 0h100v100H0z"/>
            <g data-name="그룹 7684" transform="translate(18 18)" style="clip-path:url(#qzlbb4umqa)">
                <path data-name="패스 15810" d="m54.566 49.293-.437 3.023a1.421 1.421 0 0 0 1.694 1.7l3.084-.435" style="stroke-width:3px;stroke-linecap:round;stroke-linejoin:round;stroke:#00148c;fill:none"/>
                <path data-name="패스 15811" d="M54.566 53.581a30.192 30.192 0 0 0-.2-43.069 31.192 31.192 0 0 0-39.14-3.827" style="stroke-width:3px;stroke-linecap:round;stroke-linejoin:round;stroke:#00148c;fill:none"/>
                <path data-name="패스 15812" d="m10.434 15.707.437-3.023a1.421 1.421 0 0 0-1.694-1.7l-3.084.435" style="stroke-width:3px;stroke-linecap:round;stroke-linejoin:round;stroke:#00148c;fill:none"/>
                <path data-name="패스 15813" d="M10.434 11.419a30.192 30.192 0 0 0 .195 43.069 31.192 31.192 0 0 0 39.145 3.827" style="stroke-width:3px;stroke-linecap:round;stroke-linejoin:round;stroke:#00148c;fill:none"/>
                <rect data-name="사각형 3323" width="20" height="16" rx="2" transform="translate(22.5 28.401)" style="stroke:#00c800;stroke-width:3px;stroke-linecap:round;stroke-linejoin:round;fill:none"/>
                <path data-name="선 4809" transform="translate(32.5 35.901)" style="stroke-width:4px;stroke:#00c800;stroke-linecap:round;stroke-linejoin:round;fill:none" d="M0 0h0"/>
                <path data-name="패스 15814" d="M38.5 28.4v-4a6 6 0 1 0-12 0v4" style="stroke:#00c800;stroke-width:3px;stroke-linecap:round;stroke-linejoin:round;fill:none"/>
            </g>
        </g>
    </g>
</svg>
