<svg xmlns="http://www.w3.org/2000/svg" width="180" height="180" viewBox="0 0 180 180">
    <g data-name="그룹 7753">
        <g data-name="그룹 7663" transform="translate(-870 -1255)">
            <circle data-name="타원 17" cx="90" cy="90" r="90" transform="translate(870 1255)" style="opacity:.05"/>
            <g data-name="그룹 39">
                <path data-name="패스 60" d="M17.33 0 0 27.727h34.659z" transform="translate(908.01 1305)" style="fill:#50a0ff"/>
                <path data-name="패스 61" d="M37.329 0 20 27.727h34.659z" transform="translate(922.669 1305)" style="fill:#3c78ff"/>
                <path data-name="패스 62" d="m20 16 17.33 62.387L54.659 16z" transform="translate(922.669 1316.728)" style="fill:#50a0ff"/>
                <path data-name="패스 63" d="M57.331 0 40 27.727h34.66z" transform="translate(937.328 1305)" style="fill:#50a0ff"/>
                <path data-name="패스 64" d="m30 0 17.33 27.727L64.661 0z" transform="translate(929.999 1305)" style="fill:#a0c8ff"/>
                <path data-name="패스 65" d="m10 0 17.33 27.727L44.659 0z" transform="translate(915.34 1305)" style="fill:#a0c8ff"/>
                <path data-name="패스 66" d="m0 16 51.989 62.387L34.659 16z" transform="translate(908.01 1316.728)" style="fill:#a0c8ff"/>
                <path data-name="패스 67" d="M47.329 16 30 78.387 81.99 16z" transform="translate(929.999 1316.728)" style="fill:#3c78ff"/>
            </g>
        </g>
    </g>
</svg>
