<svg xmlns="http://www.w3.org/2000/svg" width="100" height="100" viewBox="0 0 100 100">
    <defs>
        <clipPath id="cavx0713pa">
            <path data-name="사각형 3236" style="fill:none" d="M0 0h71v81H0z"/>
        </clipPath>
    </defs>
    <g data-name="그룹 7596">
        <g data-name="그룹 7595">
            <g data-name="그룹 7594">
                <path data-name="선 4751" transform="translate(50.5 30.5)" style="stroke-width:5px;stroke-linecap:round;stroke-linejoin:round;stroke:#ff4646;fill:none" d="M0 0h0"/>
                <g data-name="그룹 7593">
                    <g data-name="그룹 7592" style="clip-path:url(#cavx0713pa)" transform="translate(15 9)">
                        <path data-name="패스 12821" d="M30.817 15.754a5.991 5.991 0 0 1 9.365 0" style="stroke-width:3px;stroke-linecap:round;stroke-linejoin:round;stroke:#ff4646;fill:none"/>
                        <path data-name="패스 12822" d="M26.135 12.008a11.982 11.982 0 0 1 18.73 0" style="stroke-width:3px;stroke-linecap:round;stroke-linejoin:round;stroke:#ff4646;fill:none"/>
                        <path data-name="패스 12823" d="M21.452 8.262a17.973 17.973 0 0 1 28.1 0" style="stroke-width:3px;stroke-linecap:round;stroke-linejoin:round;stroke:#ff4646;fill:none"/>
                        <path data-name="패스 12824" d="m10.5 46.5 5.648-16.124a3.093 3.093 0 0 1 2.694-1.876h33.316a3.093 3.093 0 0 1 2.694 1.876L60.5 46.5z" style="stroke:#00148c;stroke-width:3px;stroke-linecap:round;stroke-linejoin:round;fill:none"/>
                        <path data-name="패스 12825" d="M63.5 68.5v5a6 6 0 0 1-12 0v-5z" style="stroke:#00148c;stroke-width:3px;stroke-linecap:round;stroke-linejoin:round;fill:none"/>
                        <path data-name="패스 12826" d="M19.5 68.5v5a6 6 0 0 1-12 0v-5z" style="stroke:#00148c;stroke-width:3px;stroke-linecap:round;stroke-linejoin:round;fill:none"/>
                        <rect data-name="사각형 3235" width="68" height="22" rx="6" transform="translate(1.5 46.5)" style="stroke:#00148c;stroke-width:3px;stroke-linecap:round;stroke-linejoin:round;fill:none"/>
                        <circle data-name="타원 104" cx="4" cy="4" r="4" transform="translate(10.5 53.5)" style="stroke-width:3px;stroke-linecap:round;stroke-linejoin:round;stroke:#ff4646;fill:none"/>
                        <circle data-name="타원 105" cx="4" cy="4" r="4" transform="translate(52.5 53.5)" style="stroke-width:3px;stroke-linecap:round;stroke-linejoin:round;stroke:#ff4646;fill:none"/>
                    </g>
                </g>
            </g>
            <path data-name="사각형 3237" style="fill:none" d="M0 0h100v100H0z"/>
        </g>
    </g>
</svg>
