<svg xmlns="http://www.w3.org/2000/svg" width="100" height="100" viewBox="0 0 100 100">
    <defs>
        <clipPath id="rihx6draya">
            <path data-name="사각형 3312" style="fill:none" d="M0 0h77v77H0z"/>
        </clipPath>
    </defs>
    <g data-name="그룹 7695">
        <path data-name="사각형 3313" style="fill:none" d="M0 0h100v100H0z"/>
        <g data-name="그룹 7673">
            <g data-name="그룹 7672" style="clip-path:url(#rihx6draya)" transform="translate(12 12)">
                <path data-name="선 4774" transform="translate(23.5 1.5)" style="stroke-width:3px;stroke-linecap:round;stroke-linejoin:round;stroke:#00148c;fill:none" d="M0 8V0"/>
                <path data-name="선 4775" transform="translate(33.5 1.5)" style="stroke-width:3px;stroke-linecap:round;stroke-linejoin:round;stroke:#00148c;fill:none" d="M0 8V0"/>
                <path data-name="선 4776" transform="translate(43.5 1.5)" style="stroke-width:3px;stroke-linecap:round;stroke-linejoin:round;stroke:#00148c;fill:none" d="M0 8V0"/>
                <path data-name="선 4777" transform="translate(53.5 1.5)" style="stroke-width:3px;stroke-linecap:round;stroke-linejoin:round;stroke:#00148c;fill:none" d="M0 8V0"/>
                <path data-name="선 4778" transform="translate(23.5 67.5)" style="stroke-width:3px;stroke-linecap:round;stroke-linejoin:round;stroke:#00148c;fill:none" d="M0 8V0"/>
                <path data-name="선 4779" transform="translate(33.5 67.5)" style="stroke-width:3px;stroke-linecap:round;stroke-linejoin:round;stroke:#00148c;fill:none" d="M0 8V0"/>
                <path data-name="선 4780" transform="translate(43.5 67.5)" style="stroke-width:3px;stroke-linecap:round;stroke-linejoin:round;stroke:#00148c;fill:none" d="M0 8V0"/>
                <path data-name="선 4781" transform="translate(53.5 67.5)" style="stroke-width:3px;stroke-linecap:round;stroke-linejoin:round;stroke:#00148c;fill:none" d="M0 8V0"/>
                <path data-name="선 4782" transform="translate(1.5 53.5)" style="stroke-width:3px;stroke-linecap:round;stroke-linejoin:round;stroke:#00148c;fill:none" d="M8 0H0"/>
                <path data-name="선 4783" transform="translate(1.5 43.5)" style="stroke-width:3px;stroke-linecap:round;stroke-linejoin:round;stroke:#00148c;fill:none" d="M8 0H0"/>
                <path data-name="선 4784" transform="translate(1.5 33.5)" style="stroke-width:3px;stroke-linecap:round;stroke-linejoin:round;stroke:#00148c;fill:none" d="M8 0H0"/>
                <path data-name="선 4785" transform="translate(1.5 23.5)" style="stroke-width:3px;stroke-linecap:round;stroke-linejoin:round;stroke:#00148c;fill:none" d="M8 0H0"/>
                <path data-name="선 4786" transform="translate(67.5 53.5)" style="stroke-width:3px;stroke-linecap:round;stroke-linejoin:round;stroke:#00148c;fill:none" d="M8 0H0"/>
                <path data-name="선 4787" transform="translate(67.5 43.5)" style="stroke-width:3px;stroke-linecap:round;stroke-linejoin:round;stroke:#00148c;fill:none" d="M8 0H0"/>
                <path data-name="선 4788" transform="translate(67.5 33.5)" style="stroke-width:3px;stroke-linecap:round;stroke-linejoin:round;stroke:#00148c;fill:none" d="M8 0H0"/>
                <path data-name="선 4789" transform="translate(67.5 23.5)" style="stroke-width:3px;stroke-linecap:round;stroke-linejoin:round;stroke:#00148c;fill:none" d="M8 0H0"/>
                <rect data-name="사각형 3310" width="44" height="44" rx="2" transform="translate(16.5 16.5)" style="stroke-width:3px;stroke-linecap:round;stroke-linejoin:round;stroke:#00148c;fill:none"/>
                <rect data-name="사각형 3311" width="20" height="16" rx="2" transform="translate(28.5 34.5)" style="stroke:#00c800;stroke-width:3px;stroke-linecap:round;stroke-linejoin:round;fill:none"/>
                <path data-name="선 4790" transform="translate(38.5 42)" style="stroke-width:4px;stroke:#00c800;stroke-linecap:round;stroke-linejoin:round;fill:none" d="M0 0h0"/>
                <path data-name="패스 15807" d="M44.5 34.5v-4a6 6 0 0 0-12 0v4" style="stroke:#00c800;stroke-width:3px;stroke-linecap:round;stroke-linejoin:round;fill:none"/>
            </g>
        </g>
    </g>
</svg>
