<svg xmlns="http://www.w3.org/2000/svg" width="100" height="100" viewBox="0 0 100 100">
    <defs>
        <clipPath id="qrxsrivlua">
            <path data-name="사각형 3316" style="fill:none" d="M0 0h77v77H0z"/>
        </clipPath>
    </defs>
    <g data-name="그룹 7698">
        <g data-name="그룹 7697">
            <g data-name="그룹 7696">
                <path data-name="사각형 3317" style="fill:none" d="M0 0h100v100H0z"/>
                <g data-name="그룹 7676">
                    <g data-name="그룹 7675" style="clip-path:url(#qrxsrivlua)" transform="translate(12 12)">
                        <path data-name="선 4791" transform="translate(23.5 1.5)" style="stroke-linecap:round;stroke-linejoin:round;stroke-width:3px;stroke:#00148c;fill:none" d="M0 8V0"/>
                        <path data-name="선 4792" transform="translate(33.5 1.5)" style="stroke-linecap:round;stroke-linejoin:round;stroke-width:3px;stroke:#00148c;fill:none" d="M0 8V0"/>
                        <path data-name="선 4793" transform="translate(43.5 1.5)" style="stroke-linecap:round;stroke-linejoin:round;stroke-width:3px;stroke:#00148c;fill:none" d="M0 8V0"/>
                        <path data-name="선 4794" transform="translate(53.5 1.5)" style="stroke-linecap:round;stroke-linejoin:round;stroke-width:3px;stroke:#00148c;fill:none" d="M0 8V0"/>
                        <path data-name="선 4795" transform="translate(23.5 67.5)" style="stroke-linecap:round;stroke-linejoin:round;stroke-width:3px;stroke:#00148c;fill:none" d="M0 8V0"/>
                        <path data-name="선 4796" transform="translate(33.5 67.5)" style="stroke-linecap:round;stroke-linejoin:round;stroke-width:3px;stroke:#00148c;fill:none" d="M0 8V0"/>
                        <path data-name="선 4797" transform="translate(43.5 67.5)" style="stroke-linecap:round;stroke-linejoin:round;stroke-width:3px;stroke:#00148c;fill:none" d="M0 8V0"/>
                        <path data-name="선 4798" transform="translate(53.5 67.5)" style="stroke-linecap:round;stroke-linejoin:round;stroke-width:3px;stroke:#00148c;fill:none" d="M0 8V0"/>
                        <path data-name="선 4799" transform="translate(1.5 53.5)" style="stroke-linecap:round;stroke-linejoin:round;stroke-width:3px;stroke:#00148c;fill:none" d="M8 0H0"/>
                        <path data-name="선 4800" transform="translate(1.5 43.5)" style="stroke-linecap:round;stroke-linejoin:round;stroke-width:3px;stroke:#00148c;fill:none" d="M8 0H0"/>
                        <path data-name="선 4801" transform="translate(1.5 33.5)" style="stroke-linecap:round;stroke-linejoin:round;stroke-width:3px;stroke:#00148c;fill:none" d="M8 0H0"/>
                        <path data-name="선 4802" transform="translate(1.5 23.5)" style="stroke-linecap:round;stroke-linejoin:round;stroke-width:3px;stroke:#00148c;fill:none" d="M8 0H0"/>
                        <path data-name="선 4803" transform="translate(67.5 53.5)" style="stroke-linecap:round;stroke-linejoin:round;stroke-width:3px;stroke:#00148c;fill:none" d="M8 0H0"/>
                        <path data-name="선 4804" transform="translate(67.5 43.5)" style="stroke-linecap:round;stroke-linejoin:round;stroke-width:3px;stroke:#00148c;fill:none" d="M8 0H0"/>
                        <path data-name="선 4805" transform="translate(67.5 33.5)" style="stroke-linecap:round;stroke-linejoin:round;stroke-width:3px;stroke:#00148c;fill:none" d="M8 0H0"/>
                        <path data-name="선 4806" transform="translate(67.5 23.5)" style="stroke-linecap:round;stroke-linejoin:round;stroke-width:3px;stroke:#00148c;fill:none" d="M8 0H0"/>
                        <rect data-name="사각형 3314" width="44" height="44" rx="2" transform="translate(16.5 16.5)" style="stroke-linecap:round;stroke-linejoin:round;stroke-width:3px;stroke:#00148c;fill:none"/>
                        <rect data-name="사각형 3315" width="20" height="20" rx="2" transform="translate(28.5 28.5)" style="stroke:#00c8ff;stroke-linecap:round;stroke-linejoin:round;stroke-width:3px;fill:none"/>
                    </g>
                </g>
            </g>
        </g>
    </g>
</svg>
