<svg xmlns="http://www.w3.org/2000/svg" width="100" height="100" viewBox="0 0 100 100">
    <defs>
        <clipPath id="aftgrsf6ca">
            <path data-name="사각형 3233" style="fill:none" d="M0 0h83v71H0z"/>
        </clipPath>
    </defs>
    <g data-name="그룹 7591">
        <g data-name="그룹 7590">
            <g data-name="그룹 7589">
                <g data-name="그룹 7588" style="clip-path:url(#aftgrsf6ca)" transform="translate(8 15)">
                    <rect data-name="사각형 3231" width="20" height="16" rx="2" transform="translate(31.5 11.5)" style="stroke-width:3px;stroke-linecap:round;stroke-linejoin:round;stroke:#00c800;fill:none"/>
                    <path data-name="선 4750" transform="translate(41.5 19.5)" style="stroke-width:5px;stroke-linecap:round;stroke-linejoin:round;stroke:#00c800;fill:none" d="M0 0h0"/>
                    <path data-name="패스 12818" d="M47.5 11.5v-4a6 6 0 0 0-12 0v4" style="stroke-width:3px;stroke-linecap:round;stroke-linejoin:round;stroke:#00c800;fill:none"/>
                    <path data-name="패스 12819" d="M75.5 43.5h-38v16h10l4-4 4 4 4-4 4 4 4-4 4 4h4l6-8z" style="stroke:#00148c;stroke-width:3px;stroke-linecap:round;stroke-linejoin:round;fill:none"/>
                    <path data-name="패스 12820" d="M10.5 59.5h0a3.009 3.009 0 0 1-3-3v-10a3 3 0 0 1 6 0v10a3.009 3.009 0 0 1-3 3z" style="stroke:#00148c;stroke-width:3px;stroke-linecap:round;stroke-linejoin:round;fill:none"/>
                    <rect data-name="사각형 3232" width="36" height="36" rx="8" transform="translate(1.5 33.5)" style="stroke:#00148c;stroke-width:3px;stroke-linecap:round;stroke-linejoin:round;fill:none"/>
                </g>
            </g>
            <path data-name="사각형 3234" style="fill:none" d="M0 0h100v100H0z"/>
        </g>
    </g>
</svg>
