<svg xmlns="http://www.w3.org/2000/svg" width="144" height="40" viewBox="0 0 144 40">
    <defs>
        <clipPath id="qadgxrx69a">
            <path data-name="사각형 176" style="fill:none" d="M0 0h115.1v23.515H0z"/>
        </clipPath>
    </defs>
    <g data-name="그룹 7373">
        <path data-name="사각형 2993" style="fill:none" d="M0 0h144v40H0z"/>
        <g data-name="그룹 165">
            <path data-name="패스 216" d="m141.759 28.719 1 2.941h2.688v10.485h3.667V31.66h2.686l1-2.941z" transform="translate(-88.275 -12.105)" style="fill:#231815"/>
            <path data-name="사각형 175" transform="translate(64.459 22.844)" style="fill:#231815" d="M0 0h6.613v2.515H0z"/>
            <path data-name="패스 217" d="M226.043 33.595h-5.256V28.72H217.1v13.426h3.689V36.4h5.256v5.746h3.687V28.72h-3.687z" transform="translate(-143.069 -12.106)" style="fill:#231815"/>
            <path data-name="패스 218" d="M278.058 36.709h6.129V33.9h-6.129v-2.26h6.7v-2.921H274.37v13.426h10.474v-2.9h-6.786z" transform="translate(-184.722 -12.105)" style="fill:#231815"/>
            <path data-name="패스 219" d="m322.847 28.72-5.023 13.426h3.537l1.076-3.1h5.315l1.056 3.1h3.616L327.44 28.72zm.528 7.584L325 31.641h.234l1.584 4.663z" transform="translate(-216.326 -12.106)" style="fill:#231815"/>
            <g data-name="그룹 150">
                <g data-name="그룹 149" style="clip-path:url(#qadgxrx69a)" transform="translate(14.825 8.782)">
                    <path data-name="패스 220" d="M381.531 28.72h-5.32v13.426h5.32c4.366 0 7.185-1.529 7.185-6.713 0-5.591-2.819-6.713-7.185-6.713m.191 10.543H380.3v-7.719h1.42c2.522 0 3.582.735 3.582 3.889 0 2.979-1 3.83-3.582 3.83" transform="translate(-273.615 -20.888)" style="fill:#231815"/>
                    <path data-name="패스 221" d="M47.816 20.833a2.673 2.673 0 0 0-.252-.05c-1.093-.17-8.573-1.137-9.91 3.549h13.825s0-2.58-3.662-3.5" transform="translate(-27.385 -14.972)" style="fill:#231815"/>
                    <path data-name="패스 222" d="m44.4 40.242 1.5-1.495-4.837.345z" transform="translate(-29.862 -28.18)" style="fill:#231815"/>
                    <path data-name="패스 223" d="M17.766 0A20.577 20.577 0 0 0 12.3.755a18.639 18.639 0 0 0-9.784 6.239C.283 9.86-.5 13.054.313 15.987c1.144 4.129 5.229 6.884 10.321 7.528a10.957 10.957 0 0 0 1.185-5.307s.284-2.339-3.405-1.417l-2.555-1.984-.993-3.331a14.693 14.693 0 0 0 3.619-2.41s1.083-4.727 8.736-4.727 7.8 2.814 8.5 4.941c.586 1.754.805 4.644 2.062 7.9 2.441-2.855 3.52-6.284 2.627-9.511C29.1 2.931 23.908 0 17.766 0" style="fill:#231815"/>
                </g>
            </g>
        </g>
    </g>
</svg>
