<svg xmlns="http://www.w3.org/2000/svg" width="144" height="40" viewBox="0 0 144 40">
    <defs>
        <clipPath id="rpy8tc9saa">
            <path data-name="사각형 184" style="fill:none" d="M0 0h100.719v16.17H0z"/>
        </clipPath>
    </defs>
    <g data-name="그룹 7380">
        <path data-name="사각형 2998" style="fill:none" d="M0 0h144v40H0z"/>
        <g data-name="그룹 7370">
            <g data-name="그룹 162" transform="translate(21.901 11.786)" style="clip-path:url(#rpy8tc9saa)">
                <path data-name="패스 251" d="M44.534 6.977c-.514 2.162-1.142 4.076-4.448 4.076s-3.025-1.914-2.512-4.076C38.11 4.728 38.78 2.9 42.025 2.9s3.045 1.825 2.508 4.074M42.534 0c-7.369 0-8.551 3.122-9.369 6.977-.756 3.568-1.193 6.979 6.41 6.979 7.542 0 8.627-3.471 9.37-6.979C49.762 3.122 49.778 0 42.534 0" transform="translate(-19.227)" style="fill:#004cac"/>
                <path data-name="패스 252" d="M91.953.949h-4.74a1.037 1.037 0 0 0-.865.5l-4.4 7.566-.892-7.492a.646.646 0 0 0-.644-.572h-4.63a.74.74 0 0 0-.709.562L72.2 13.547a.424.424 0 0 0 .442.561h3.089a.719.719 0 0 0 .709-.561l1.7-7.152c.073-.31.169-.305.215.01l1.024 7.133a.649.649 0 0 0 .659.57H81.7a.938.938 0 0 0 .87-.5l4.27-7.279c.16-.275.231-.245.157.062l-1.7 7.152a.425.425 0 0 0 .444.561h3.079a.741.741 0 0 0 .711-.561L92.4 1.511a.436.436 0 0 0-.445-.562" transform="translate(-42.348 -.557)" style="fill:#004cac"/>
                <path data-name="패스 253" d="M149.472 7.709h-3.85l3.85-5.375zm-9.009 6.4a1.137 1.137 0 0 0 .913-.469l2.25-3.141h5.846v3.034a.544.544 0 0 0 .576.576h2.881l-1.7 2.166c-.2.252-.1.454.219.454h4.524a1.165 1.165 0 0 0 .919-.464l5.709-7.728 1.731 5.072a.786.786 0 0 0 .762.545h3.64a.357.357 0 0 0 .36-.536l-2.639-6.508 4.324-5.7c.193-.254.089-.46-.228-.46h-4.159a1.163 1.163 0 0 0-.918.466l-3.02 4.145-1.315-4.061a.77.77 0 0 0-.753-.548h-3.8a.36.36 0 0 0-.364.537l2.221 5.611-4.766 6.055V1.525a.547.547 0 0 0-.576-.576h-7.064a1.145 1.145 0 0 0-.915.468l-7.91 10.951L139.8 1.51a.435.435 0 0 0-.444-.561h-4.741a1.034 1.034 0 0 0-.864.5l-4.4 7.564-.892-7.492a.648.648 0 0 0-.646-.572h-4.629a.745.745 0 0 0-.71.561l-2.867 12.037a.424.424 0 0 0 .443.56h3.087a.719.719 0 0 0 .71-.56l1.7-7.152c.074-.311.171-.3.216.01l1.026 7.133a.647.647 0 0 0 .658.57h1.65a.932.932 0 0 0 .868-.5l4.272-7.278c.159-.275.229-.245.158.064l-1.7 7.15a.423.423 0 0 0 .441.56z" transform="translate(-70.156 -.557)" style="fill:#004cac"/>
                <path data-name="패스 254" d="M11.878 10.705c-.881.035-2.516.086-3.644.074-1.874-.025-3.091-.632-3.493-1.5a3.353 3.353 0 0 1-.022-2.109 4.4 4.4 0 0 1 1.048-2.084 6.031 6.031 0 0 1 4.158-1.452c1.247-.05 2.853.013 3.7.055a.557.557 0 0 0 .608-.453l.492-2.067A.441.441 0 0 0 14.354.6a30.516 30.516 0 0 0-5.48-.22 10.325 10.325 0 0 0-5.407 1.746A8.5 8.5 0 0 0 .213 7.153a5.546 5.546 0 0 0 .912 5.013 6.457 6.457 0 0 0 4.5 1.892 30.679 30.679 0 0 0 5.527-.231.737.737 0 0 0 .6-.567l.5-2.094a.354.354 0 0 0-.377-.461" transform="translate(0 -.195)" style="fill:#004cac"/>
            </g>
        </g>
    </g>
</svg>
