<svg xmlns="http://www.w3.org/2000/svg" width="290" height="100" viewBox="0 0 290 100">
    <defs>
        <clipPath id="xv7wnm25ya">
            <path data-name="사각형 3371" style="fill:none" d="M0 0h168.42v80H0z"/>
        </clipPath>
    </defs>
    <g data-name="그룹 7874">
        <g data-name="그룹 7876">
            <g data-name="그룹 7875" style="clip-path:url(#xv7wnm25ya)" transform="translate(61 10)">
                <path data-name="패스 15890" d="M39.262 41.472a2.843 2.843 0 0 1-2.53-1.541L21.053 9.555 5.373 39.932a2.845 2.845 0 1 1-5.056-2.61L18.525 2.045a2.845 2.845 0 0 1 5.056 0l18.207 35.277a2.846 2.846 0 0 1-2.526 4.15"/>
                <path data-name="패스 15891" d="M139.486 41.818a2.845 2.845 0 0 0 2.178-4.673L128.4 21.334l13.26-15.81a2.845 2.845 0 1 0-4.359-3.656l-14.789 17.638a2.845 2.845 0 0 0 0 3.656L137.305 40.8a2.839 2.839 0 0 0 2.181 1.017" transform="translate(-49.451 -.345)" style="fill:#00dc78"/>
                <path data-name="패스 15892" d="M87.517 41.818A2.837 2.837 0 0 0 89.7 40.8l14.794-17.639a2.845 2.845 0 0 0 0-3.656L89.7 1.868a2.845 2.845 0 1 0-4.359 3.656L98.6 21.334 85.339 37.145a2.845 2.845 0 0 0 2.178 4.673" transform="translate(-34.365 -.345)" style="fill:#00d2ff"/>
                <path data-name="패스 15893" d="M110.677 41.473a2.845 2.845 0 0 1-2.845-2.845V3.478a2.845 2.845 0 1 1 5.69 0v35.15a2.845 2.845 0 0 1-2.845 2.845"/>
                <path data-name="패스 15894" d="M147.368 0a21.053 21.053 0 1 0 21.049 21.053A21.076 21.076 0 0 0 147.368 0m0 36.415a15.362 15.362 0 1 1 15.362-15.362 15.38 15.38 0 0 1-15.362 15.362"/>
                <path data-name="패스 15895" d="M22.009 120.265a1.462 1.462 0 0 0 1.119-2.4l-6.814-8.125 6.814-8.124a1.462 1.462 0 1 0-2.241-1.879l-7.6 9.064a1.462 1.462 0 0 0 0 1.879l7.6 9.064a1.459 1.459 0 0 0 1.122.523" transform="translate(-5.253 -40.265)" style="fill:#00dc78"/>
                <path data-name="패스 15896" d="M254.266 120.266a1.458 1.458 0 0 0 1.121-.523l7.6-9.064a1.462 1.462 0 0 0 0-1.879l-7.6-9.064a1.462 1.462 0 1 0-2.241 1.879l6.814 8.124-6.814 8.125a1.462 1.462 0 0 0 1.119 2.4" transform="translate(-102.601 -40.266)" style="fill:#00d2ff"/>
                <path data-name="패스 15897" d="M23.691 69.535v-.058a10.3 10.3 0 0 1 10.5-10.527 10.61 10.61 0 0 1 7.967 3.17l-2.3 2.646a8.093 8.093 0 0 0-5.7-2.53c-3.869 0-6.717 3.2-6.717 7.182v.058c0 3.984 2.82 7.212 6.717 7.212a7.951 7.951 0 0 0 5.844-2.617l2.3 2.326a10.5 10.5 0 0 1-8.258 3.606 10.237 10.237 0 0 1-10.353-10.468"/>
                <path data-name="패스 15898" d="M46.055 59.296h9.072a8.2 8.2 0 0 1 5.874 2.035 6.154 6.154 0 0 1 1.687 4.391v.058a6.112 6.112 0 0 1-4.827 6.164l5.5 7.706h-4.25l-5-7.1h-4.48v7.1h-3.576zm8.811 10.09c2.558 0 4.187-1.337 4.187-3.4v-.058c0-2.182-1.57-3.374-4.216-3.374h-5.206v6.833z"/>
                <path data-name="패스 15899" d="m72.345 71.626-8.084-12.33h4.244l5.67 8.985 5.758-8.985h4.1l-8.084 12.242v8.113h-3.604z"/>
                <path data-name="패스 15900" d="M87.178 59.296h8.026c4.769 0 7.735 2.7 7.735 6.8v.058c0 4.565-3.664 6.949-8.142 6.949h-4.046v6.543h-3.577zm7.735 10.585c2.7 0 4.391-1.512 4.391-3.636v-.058c0-2.384-1.715-3.634-4.391-3.634h-4.162v7.328z"/>
                <path data-name="패스 15901" d="M111.607 62.612h-6.455v-3.316h16.517v3.314h-6.456v17.04h-3.605z"/>
                <path data-name="패스 15902" d="M123.444 69.535v-.058a10.644 10.644 0 0 1 21.285-.058v.058a10.644 10.644 0 0 1-21.285.058m17.535 0v-.058a6.974 6.974 0 0 0-6.921-7.24 6.878 6.878 0 0 0-6.862 7.182v.058a6.95 6.95 0 0 0 6.921 7.212 6.853 6.853 0 0 0 6.861-7.154"/>
            </g>
        </g>
        <path data-name="사각형 3383" style="fill:none" d="M0 0h290v100H0z"/>
    </g>
</svg>
