<svg xmlns="http://www.w3.org/2000/svg" width="400" height="100" viewBox="0 0 400 100">
    <defs>
        <clipPath id="2x4m9vuesa">
            <path data-name="사각형 178" style="fill:none" d="M0 0h197.421v25.172H0z"/>
        </clipPath>
    </defs>
    <g data-name="그룹 7401">
        <g data-name="그룹 168">
            <g data-name="그룹 154" transform="translate(101 36.999)" style="clip-path:url(#2x4m9vuesa)">
                <path data-name="패스 230" d="M202.9 11.937A7.126 7.126 0 0 1 208.637.413h13.039l-1.19 3.138h-10.55a2.191 2.191 0 0 0-1.785 3.408c1.623 2.435 4.382 4.166 6.168 6.655a7.118 7.118 0 0 1-5.681 11.47H194.3l1.19-3.138h11.31a2.193 2.193 0 0 0 1.785-3.354c-1.353-2.326-3.9-4.545-5.681-6.655" transform="translate(-89.178 -.189)" style="fill:#737272"/>
                <path data-name="패스 231" d="M61.128 25.084H53.5L62.806.413h7.628z" transform="translate(-24.555 -.189)" style="fill:#d71f27"/>
                <path data-name="패스 232" d="M179.742 25.084H172.6L181.906.413h7.142z" transform="translate(-79.218 -.189)" style="fill:#737272"/>
                <path data-name="패스 233" d="M244 25.084h-7.2L246.106.413h7.2z" transform="translate(-108.684 -.189)" style="fill:#737272"/>
                <path data-name="패스 234" d="M266.757 7.69A13.643 13.643 0 0 1 279.309.007h4.436a6.411 6.411 0 0 1 6.168 5.681 5.32 5.32 0 0 1-.054 1.623 6.733 6.733 0 0 1-.216.866 39.63 39.63 0 0 1-3.517 9.306 13.643 13.643 0 0 1-12.552 7.683h-4.436a6.411 6.411 0 0 1-6.168-5.681 5.248 5.248 0 0 1 .054-1.623 6.728 6.728 0 0 1 .216-.862 43.917 43.917 0 0 1 3.517-9.306m13.526-5.14a6.192 6.192 0 0 0-5.789 3.95l-4.707 12.552a2.829 2.829 0 0 0-.162.974 2.593 2.593 0 0 0 2.435 2.543h.7a6.192 6.192 0 0 0 5.789-3.95L283.2 6.067a2.829 2.829 0 0 0 .162-.974 2.586 2.586 0 0 0-2.381-2.543z" transform="translate(-120.679)" style="fill:#737272"/>
                <path data-name="패스 235" d="M13.255 9.935h9.035L25.861.467h7.574l-8.711 23.1a2.514 2.514 0 0 1-2.218 1.515h-5.951l4.436-11.794h-8.98L7.574 25.084H0L9.306.413h7.574z" transform="translate(0 -.189)" style="fill:#d71f27"/>
                <path data-name="패스 236" d="M90.418 9.665 102.753.413h5.681l-12.66 9.468 8.007 15.149H97.4a2.457 2.457 0 0 1-2.326-1.3l-5.032-9.522-1.894 1.407-3.571 9.468H77L86.306.413h7.574z" transform="translate(-35.341 -.189)" style="fill:#d71f27"/>
                <path data-name="패스 237" d="M147.948 17.3 159.58.367h4.166l-16.231 23.589a2.269 2.269 0 0 1-1.894 1.028H141.4l-2-24.671h7.142z" transform="translate(-63.981 -.143)" style="fill:#737272"/>
                <path data-name="패스 238" d="M318.217 8.42V8.1l-6.438 16.988H308.1L317.46.413h4.653l6.709 16.664L335.151.413h3.679l-9.36 24.671h-3.354a2.427 2.427 0 0 1-2.056-1.407z" transform="translate(-141.409 -.189)" style="fill:#737272"/>
            </g>
        </g>
        <path data-name="사각형 202" style="fill:none" d="M0 0h400v100H0z"/>
    </g>
</svg>
