<svg xmlns="http://www.w3.org/2000/svg" width="400" height="100" viewBox="0 0 400 100">
    <defs>
        <clipPath id="s7lrbwn66a">
            <path data-name="사각형 171" style="fill:none" d="M0 0h129.531v39.427H0z"/>
        </clipPath>
    </defs>
    <g data-name="그룹 7800">
        <g data-name="그룹 164">
            <g data-name="그룹 143" style="clip-path:url(#s7lrbwn66a)" transform="translate(135 30)">
                <path data-name="패스 207" d="M29.238.975h8.683v37.3h-8.683v-3.9a14.324 14.324 0 0 1-11.163 5.051C6.556 39.427 0 29.858 0 19.58 0 7.442 8.328 0 18.163 0a13.6 13.6 0 0 1 11.075 5.316zM8.86 19.758c0 6.468 4.076 11.872 10.366 11.872 5.494 0 10.543-3.987 10.543-11.784C29.77 11.7 24.72 7.8 19.226 7.8c-6.29 0-10.366 5.313-10.366 11.958M48.259.975h8.683v3.366a15.034 15.034 0 0 1 3.633-3.1A10.027 10.027 0 0 1 65.891 0a12.878 12.878 0 0 1 6.822 1.772l-3.544 7.885a7.863 7.863 0 0 0-4.43-1.329 6.765 6.765 0 0 0-5.4 2.038c-2.392 2.57-2.392 6.113-2.392 8.595v19.314h-8.688zm30.061 0H87V4.43A11.494 11.494 0 0 1 96.218 0a10.955 10.955 0 0 1 9.657 5.493A13.211 13.211 0 0 1 116.95 0a11.945 11.945 0 0 1 10.632 5.847c.709 1.24 1.949 3.987 1.949 9.392v23.036h-8.682V17.72c0-4.164-.444-5.847-.8-6.645a4.915 4.915 0 0 0-4.96-3.275 6.416 6.416 0 0 0-5.139 2.747c-1.506 2.126-1.683 5.316-1.683 8.506v19.222h-8.683V17.72c0-4.164-.443-5.847-.8-6.645A4.916 4.916 0 0 0 93.825 7.8a6.414 6.414 0 0 0-5.139 2.747C87.18 12.67 87 15.86 87 19.049v19.226h-8.68z" style="fill:#0091bd"/>
            </g>
        </g>
        <g data-name="그룹 7395">
            <path data-name="사각형 197" style="fill:none" d="M0 0h400v100H0z"/>
        </g>
    </g>
</svg>
