<svg xmlns="http://www.w3.org/2000/svg" width="304" height="100" viewBox="0 0 304 100">
    <defs>
        <clipPath id="481h5f081a">
            <path data-name="사각형 3372" style="fill:none" d="M0 0h168.42v80H0z"/>
        </clipPath>
    </defs>
    <g data-name="그룹 7892">
        <g data-name="그룹 7881">
            <g data-name="그룹 7877" style="clip-path:url(#481h5f081a)" transform="translate(68 10)">
                <path data-name="패스 15903" d="M39.262 41.472a2.843 2.843 0 0 1-2.53-1.541L21.053 9.555 5.373 39.932a2.845 2.845 0 1 1-5.056-2.61L18.525 2.045a2.845 2.845 0 0 1 5.056 0l18.207 35.277a2.846 2.846 0 0 1-2.526 4.15"/>
                <path data-name="패스 15904" d="M139.486 41.818a2.845 2.845 0 0 0 2.178-4.673L128.4 21.334l13.26-15.81a2.845 2.845 0 1 0-4.359-3.656l-14.789 17.638a2.845 2.845 0 0 0 0 3.656L137.305 40.8a2.839 2.839 0 0 0 2.181 1.017" transform="translate(-49.451 -.345)" style="fill:#00dc78"/>
                <path data-name="패스 15905" d="M87.517 41.818A2.837 2.837 0 0 0 89.7 40.8l14.794-17.639a2.845 2.845 0 0 0 0-3.656L89.7 1.868a2.845 2.845 0 1 0-4.359 3.656L98.6 21.334 85.339 37.145a2.845 2.845 0 0 0 2.178 4.673" transform="translate(-34.365 -.345)" style="fill:#00d2ff"/>
                <path data-name="패스 15906" d="M110.677 41.473a2.845 2.845 0 0 1-2.845-2.845V3.478a2.845 2.845 0 1 1 5.69 0v35.15a2.845 2.845 0 0 1-2.845 2.845"/>
                <path data-name="패스 15907" d="M147.368 0a21.053 21.053 0 1 0 21.049 21.053A21.076 21.076 0 0 0 147.368 0m0 36.415a15.362 15.362 0 1 1 15.362-15.362 15.38 15.38 0 0 1-15.362 15.362"/>
                <path data-name="패스 15908" d="M53.554 120.265a1.462 1.462 0 0 0 1.119-2.4l-6.814-8.125 6.814-8.124a1.462 1.462 0 1 0-2.241-1.879l-7.6 9.064a1.462 1.462 0 0 0 0 1.879l7.6 9.064a1.459 1.459 0 0 0 1.121.523" transform="translate(-18.056 -40.265)" style="fill:#00dc78"/>
                <path data-name="패스 15909" d="M222.72 120.266a1.458 1.458 0 0 0 1.121-.523l7.6-9.064a1.462 1.462 0 0 0 0-1.879l-7.6-9.064a1.462 1.462 0 1 0-2.241 1.879l6.814 8.124-6.814 8.125a1.462 1.462 0 0 0 1.119 2.4" transform="translate(-89.798 -40.266)" style="fill:#00d2ff"/>
                <path data-name="패스 15910" d="M43.275 59.296h9.13a7.349 7.349 0 0 1 5.321 1.8 4.558 4.558 0 0 1 1.367 3.373v.058a4.848 4.848 0 0 1-2.908 4.536c2.384.815 4.042 2.181 4.042 4.943v.058c0 3.634-2.995 5.583-7.531 5.583h-9.421zm12.242 5.757c0-1.6-1.28-2.588-3.577-2.588h-5.147v5.409h4.885c2.3 0 3.839-.9 3.839-2.763zm-3.053 5.843h-5.671v5.583h5.932c2.443 0 3.926-.96 3.926-2.792v-.058c0-1.715-1.367-2.733-4.187-2.733"/>
                <path data-name="패스 15911" d="M63.37 69.535v-.058a10.644 10.644 0 0 1 21.285-.058v.058a10.644 10.644 0 0 1-21.285.058m17.535 0v-.058a6.974 6.974 0 0 0-6.921-7.24 6.878 6.878 0 0 0-6.862 7.182v.058a6.95 6.95 0 0 0 6.921 7.212 6.853 6.853 0 0 0 6.862-7.154"/>
                <path data-name="패스 15912" d="M88.091 69.535v-.058a10.644 10.644 0 0 1 21.285-.058v.058a10.644 10.644 0 0 1-21.285.058m17.535 0v-.058a6.974 6.974 0 0 0-6.921-7.24 6.878 6.878 0 0 0-6.862 7.182v.058a6.95 6.95 0 0 0 6.921 7.212 6.853 6.853 0 0 0 6.863-7.154"/>
                <path data-name="패스 15913" d="M117.61 62.612h-6.455v-3.316h16.518v3.314h-6.456v17.04h-3.605z"/>
            </g>
        </g>
        <path data-name="사각형 3386" style="fill:none" d="M0 0h304v100H0z"/>
    </g>
</svg>
