<svg xmlns="http://www.w3.org/2000/svg" width="400" height="100" viewBox="0 0 400 100">
    <defs>
        <clipPath id="uvamefrwda">
            <path data-name="사각형 177" style="fill:none" d="M0 0h169.852v59.91H0z"/>
        </clipPath>
    </defs>
    <g data-name="그룹 7399">
        <g data-name="그룹 167">
            <g data-name="그룹 152" transform="translate(115 20)" style="clip-path:url(#uvamefrwda)">
                <path data-name="패스 224" d="m120.52 76.291-10.382-1.9V73.1h-2.79v1.288l-10.267 1.9v2.315l11.61-2.148 11.83 2.148zm84.582-8.58v-2.828h-11.428v-2.408h5.475v-2.69h-5.475v-2.412h5.475v-1.534h2.68v1.533h6.43v2.413h-6.43v2.69h6.082V69.1l-4.64 2.99 4.988 3.215v3.2l-7.467-4.812-7.465 4.807v-3.2l4.987-3.215-4.64-2.99V65.9l7.118 4.588zM110.2 55.6h-2.8v1.023H96.971v3.189h2.676v-1.061h18.191v1.063h2.79v-3.188H110.2zm18.963.82h-2.791v21.671h8.192a1.3 1.3 0 0 0 1.3-1.3V56.423h-6.7zm10.276 3.38-.5 11.163L137.7 78.5h2.79l1.233-7.533.286-6.361h5.631v11.505h-1.35V78.5h2.845a1.3 1.3 0 0 0 1.3-1.3V62.342h-8.32l.114-2.543h8.545v-2.258h-5.145v-1.7h-2.791v1.7h-5.666V59.8zm-6.374 5.5h-3.906v-6.617h3.906zm-3.906 2.259h3.906v8.153h-3.906zM185.874 78.5h2.845a1.3 1.3 0 0 0 1.3-1.3v-7.228l2.119-.818v-2.688l-2.119.879v-5.373h2.176v-2.407h-2.176v-3.726h-2.79v3.726H185.1v2.407h2.119v6.3l-2.119.828v2.74l2.119-.879v5.152h-1.35zm-27.214 0 .361-12.472h-2.612l-.363 12.472zm9.91-14.129h2.952l3.224 5.455h-2.952zm0-6.794h2.952l3.224 5.455h-2.952zM165.077 78.5h2.613l-.078-2.678c3.168-.6 5.608-1.038 7.973-1.489V78.5h2.676v-4.7c.465-.094.936-.191 1.418-.292v-2.565q-.678.143-1.418.291V56.221h-2.676v15.535c-2.513.48-5.3.989-8.048 1.509l-.21-7.241h-2.613zm2.556-16.715v2.457h-4.4V78.5h-2.681V64.237h-4.549v-2.456h4.549v-3.239l-4.167.194v-2.344l10.927-.553v2.238l-4.079.242v3.462zm-66.086 12.9h-2.79v-2.797h-2.125l3.239-3.068H96.8v-2.125h5.414v-1.064h-4.462v-2h4.462v-1.067h-4.8v-2.01h4.8v-.942H105v.942h7.6v-.942h2.791v.942h4.8v2.009h-4.8v1.063h4.462v2h-4.462v1.063h5.358v2.131h-2.458l2.681 2.716h-2.123v3.145h-2.676v-2.2h-14.62zm.333-4.445h14.287l-1.452-1.416h-11.272zm10.72-3.545v-1.064H105v1.063zm0-3.068v-1.063H105v1.063z" transform="translate(-38.407 -22.1)" style="fill-rule:evenodd"/>
                <path data-name="패스 225" d="M169.259 30.34v-.007l4.211-.92v2.4l-3.037.663a1.313 1.313 0 0 0 .268 2.6h3.962a.36.36 0 0 0 .36-.36v-5.824a1.313 1.313 0 0 0-1.313-1.313h-5.652v-2.242h6.116a3.555 3.555 0 0 1 3.556 3.555v6.491a1.932 1.932 0 0 1-1.932 1.932h-5.559a3.555 3.555 0 0 1-.974-6.974m32.691 6.974h-2.706V25.337h2.706zm8.812 0H208.2l-4.726-11.977h2.805l3.2 8.11 3.2-8.11h2.8zm14.516-5v.006l-4.765 1.041v-2.4l3.592-.785a1.313 1.313 0 0 0-.268-2.6h-3.666a1.313 1.313 0 0 0-1.313 1.313v4.87a1.313 1.313 0 0 0 1.313 1.312h6.743v2.243h-7.21a3.555 3.555 0 0 1-3.555-3.555v-4.868a3.555 3.555 0 0 1 3.555-3.555h4.59a3.555 3.555 0 0 1 .974 6.974m-27.935-4.148h-7.335v-4.757h7.455v-2.242h-8.809a1.327 1.327 0 0 0-1.326 1.326v14.825h2.68v-6.909h7.335zm4.608-6.683h-2.706v2.543h2.706zm-39.404 12.28a1.312 1.312 0 0 0 1.313 1.312h1.53v2.243h-1.994a3.555 3.555 0 0 1-3.555-3.555v-9.753l2.706-.868v2.2h3.642v2.242h-3.642zm19.515-4.867a1.313 1.313 0 0 1 1.313-1.313h2.44v-2.243h-2.9a3.555 3.555 0 0 0-3.554 3.555v8.422h2.705zm-24.793-7.728h-6.958a4.517 4.517 0 0 0-4.366 4.433 3.861 3.861 0 0 0 2.572 3.962l.037.013 5.442 1.562a1.64 1.64 0 0 1 1.234 1.63 2.287 2.287 0 0 1-2.193 2.228h-6.812v2.323h7.438a4.518 4.518 0 0 0 4.367-4.432 3.864 3.864 0 0 0-2.572-3.964l-.037-.011-5.442-1.562a1.639 1.639 0 0 1-1.234-1.63 2.287 2.287 0 0 1 2.193-2.228h6.331z" transform="translate(-58.006 -8.412)" style="fill-rule:evenodd"/>
                <path data-name="패스 226" d="M42.841 43.59c-2.942-1.617-5.925-3.283-8.81-4.893-3.345-1.867-10.782-5.805-14.2-7.674l-.055-.031c-.191-.1-.074 6.366-.074 6.366.364.2 4.177 2.266 4.605 2.5 1.9 1.053 3.781 2.107 5.664 3.162 3.162 1.77 6.43 3.6 9.664 5.364 1.365.745 2.215 1.538 2.182 3.21-.023 1.588-.828 2.346-2.122 3.057a910.75 910.75 0 0 0-7.524 4.189c-3.6 2.02-7.328 4.109-11.025 6.09a4.323 4.323 0 0 0-1.573 1.283 2.617 2.617 0 0 0-.882-.927c-3.948-2.255-7.417-4.183-11.579-6.5L3.3 56.662v3.15c0 .913.007 1.8.037 2.689a1.461 1.461 0 0 0 .723.976c4.291 2.419 8.089 4.534 12.6 7.052l2.88 1.608.163.091s7.268-3.889 10.079-5.459q6.574-3.67 13.155-7.328c2.875-1.595 4.333-4.249 4.333-7.89v-.063c-.016-3.637-1.5-6.294-4.421-7.9" transform="translate(-1.309 -12.317)" style="fill-rule:evenodd"/>
                <path data-name="패스 227" d="M50.4 21.733c4.548 2.535 8.844 4.93 13.178 7.373a1.444 1.444 0 0 1 .686 1.006c.041 1.317.037 2.659.031 4.081v1.883l-3.411-1.906c-4.465-2.5-8.682-4.856-12.916-7.268a1.839 1.839 0 0 1-.774-1.333 49.61 49.61 0 0 1-.045-2.335c0-.454 0-.915.007-1.386 0-.515.007-1.048.007-1.606v-.313z" transform="translate(-18.739 -7.92)" style="fill-rule:evenodd"/>
                <path data-name="패스 228" d="M4.421 28.637c2.943 1.618 5.925 3.283 8.809 4.893 3.345 1.867 10.783 5.805 14.2 7.674l.055.03c.19.1.073-6.366.073-6.366-.363-.205-4.176-2.266-4.6-2.5-1.9-1.054-3.781-2.108-5.664-3.162-3.162-1.77-6.43-3.6-9.664-5.364-1.37-.748-2.22-1.542-2.187-3.213.023-1.588.829-2.347 2.122-3.057a940.756 940.756 0 0 0 7.523-4.189c3.6-2.02 7.329-4.109 11.026-6.09a4.325 4.325 0 0 0 1.572-1.283 2.611 2.611 0 0 0 .881.927c3.948 2.255 7.417 4.183 11.58 6.5l3.815 2.126v-3.15c0-.913-.007-1.8-.037-2.69a1.46 1.46 0 0 0-.723-.975C38.917 6.331 35.12 4.215 30.61 1.7L27.731.091 27.567 0S20.3 3.889 17.488 5.459q-6.574 3.67-13.155 7.328C1.458 14.381 0 17.036 0 20.677v.063c.016 3.637 1.5 6.294 4.421 7.9" style="fill-rule:evenodd"/>
                <path data-name="패스 229" d="M14.555 67.044a3257.693 3257.693 0 0 1-13.178-7.373 1.443 1.443 0 0 1-.687-1.006 116.084 116.084 0 0 1-.031-4.08V52.7l3.406 1.906c4.465 2.5 8.681 4.856 12.916 7.268a1.843 1.843 0 0 1 .774 1.333c.036.764.045 1.538.045 2.336 0 .454 0 .915-.007 1.386 0 .515-.007 1.047-.007 1.606v.313z" transform="translate(-.26 -20.946)" style="fill-rule:evenodd"/>
            </g>
        </g>
        <path data-name="사각형 200" style="fill:none" d="M0 0h400v100H0z"/>
    </g>
</svg>
