<svg xmlns="http://www.w3.org/2000/svg" width="160" height="53.334" viewBox="0 0 160 53.334">
    <defs>
        <clipPath id="79893r4x8a">
            <path data-name="사각형 3369" style="fill:none" d="M0 0h160v53.334H0z"/>
        </clipPath>
    </defs>
    <g data-name="그룹 7871">
        <g data-name="그룹 7870" style="clip-path:url(#79893r4x8a)">
            <path data-name="패스 15861" d="M12.274 73a2.9 2.9 0 0 1-2.867-2.473 49.426 49.426 0 0 1-.352-9.1 33.625 33.625 0 0 1-7.748-3.876A2.9 2.9 0 0 1 4.5 52.7a30.258 30.258 0 0 0 5.3 2.838 19.363 19.363 0 0 1 4.846-9.838 11.851 11.851 0 0 1 3.615-2.428 8.535 8.535 0 0 1 8.882 1.15 8.657 8.657 0 0 1 3.257 5.425 9.217 9.217 0 0 1-2.152 7.063c-2 2.775-6.638 6.087-13.437 5.673a42.365 42.365 0 0 0 .342 7.087 2.9 2.9 0 0 1-2.445 3.3 3 3 0 0 1-.43.032m3.168-16.152a10.613 10.613 0 0 0 8.171-3.45c2.264-2.731-.018-4.383-.018-4.383-.536-.42-2.472-1.608-4.815.752l-.04.04a13.777 13.777 0 0 0-3.3 7.038" transform="translate(0 -19.664)" style="fill:#00c8b4"/>
            <path data-name="패스 15862" d="M60.183.873v18.816h14.934v-4.408h-9.773V12.27H74.2V8.157h-8.856V5.281h9.772V.873z" transform="translate(-27.831 -.404)" style="fill:#00148c"/>
            <path data-name="패스 15863" d="M156.207 43.666v18.816h5.161v-6.934h8.553v-4.113h-8.553v-3.361h9.62v-4.408z" transform="translate(-72.235 -20.193)" style="fill:#00148c"/>
            <path data-name="사각형 3368" transform="translate(106.133 .469)" style="fill:#00148c" d="M0 0h5.161v18.816H0z"/>
            <path data-name="패스 15864" d="m274.815 43.666-4.381 7.049-4.382-7.049h-5.618v18.816h5.166V51.93l4.839 7.111 4.838-7.111v10.552h5.161V43.666z" transform="translate(-120.433 -20.193)" style="fill:#00148c"/>
            <path data-name="패스 15865" d="M122.733 48.075h5.506v14.407h5.161V48.075h5.505v-4.408h-16.172z" transform="translate(-56.756 -20.193)" style="fill:#00148c"/>
            <path data-name="패스 15866" d="m96.35 43.417-7.55 18.95h5.457L95.6 58.98h7.406l1.35 3.387h5.457l-7.553-18.95zm.893 11.451 2.064-5.178 2.064 5.178z" transform="translate(-41.063 -20.078)" style="fill:#00148c"/>
            <path data-name="패스 15867" d="M215.665 19.689h5.161V5.281h5.506V.873h-16.173v4.408h5.506z" transform="translate(-97.184 -.404)" style="fill:#00148c"/>
            <path data-name="패스 15868" d="M248.5 12.646v7.043h5.161v-7.043l7.2-11.772h-5.68l-4.1 6.706-4.1-6.706H241.3l7.2 11.772z" transform="translate(-111.585 -.404)" style="fill:#00148c"/>
            <path data-name="패스 15869" d="M66.346 43.667h-5.161v18.816h14.023v-4.408h-8.862z" transform="translate(-28.294 -20.193)" style="fill:#00148c"/>
            <path data-name="패스 15870" d="M195.326 42.966a9.785 9.785 0 1 0 9.784 9.785 9.784 9.784 0 0 0-9.784-9.785m0 14.865a5.08 5.08 0 1 1 5.08-5.08 5.08 5.08 0 0 1-5.08 5.08" transform="translate(-85.801 -19.869)" style="fill:#00148c"/>
            <path data-name="패스 15871" d="M99.834 19.805a9.774 9.774 0 0 0 8.114-4.314l-3.82-2.763a5.073 5.073 0 0 1-4.294 2.372 4.829 4.829 0 0 1-4.776-5.08 4.829 4.829 0 0 1 4.776-5.08 5.07 5.07 0 0 1 4.112 2.106l3.808-2.754a9.78 9.78 0 1 0-7.92 15.514" transform="translate(-41.642 -.109)" style="fill:#00148c"/>
            <path data-name="패스 15872" d="M143.564.823H138.4v10.9a3.588 3.588 0 0 1-7.177 0V.823h-5.161v10.443a8.749 8.749 0 1 0 17.5 0z" transform="translate(-58.297 -.381)" style="fill:#00148c"/>
            <path data-name="패스 15873" d="M168.243 13.99h1.95l3.9 5.7h5.842l-4.348-6.354A6.554 6.554 0 0 0 172.745.873h-9.663v18.816h5.161zm0-8.709h3.547a2.312 2.312 0 1 1 0 4.624h-3.547z" transform="translate(-75.414 -.404)" style="fill:#00148c"/>
            <path data-name="패스 15874" d="M242.16 50.225a6.559 6.559 0 0 0-6.559-6.558h-9.663v18.816h5.162v-5.7h1.95l3.9 5.7h5.842l-4.348-6.354a6.552 6.552 0 0 0 3.717-5.9M231.1 48.075h3.547a2.312 2.312 0 1 1 0 4.624H231.1z" transform="translate(-104.481 -20.193)" style="fill:#00148c"/>
            <path data-name="패스 15875" d="M35.114 15.631h-.007c-2.348 0-4.912-1.722-6.593-3.07l-3 3.914a15.471 15.471 0 0 0 9.9 3.689h.011c2.891 0 7.091-1.467 7.091-6.355 0-2.479-1.692-5.329-7.664-6.271-1.648-.26-3.044-.879-2.76-1.829.214-1.525 2.78-1.061 2.78-1.061a11.584 11.584 0 0 1 5.003 2.072l2.7-4.03A15.645 15.645 0 0 0 36.3.186c-6.776-1.139-8.68 3.345-8.68 3.345-.112.265-1.356 2.964 0 5.335 1.086 1.894 2.593 2.818 6.592 3.468 3.475.564 3.157 1.915 3.157 1.915s-.027 1.338-2.257 1.382" transform="translate(-11.797)" style="fill:#00148c"/>
        </g>
    </g>
</svg>
