<svg xmlns="http://www.w3.org/2000/svg" width="144" height="40" viewBox="0 0 144 40">
    <defs>
        <clipPath id="zcc2stvcia">
            <path data-name="사각형 171" style="fill:none" d="M0 0h67.376v20.508H0z"/>
        </clipPath>
    </defs>
    <g data-name="그룹 7372">
        <g data-name="그룹 7356">
            <g data-name="그룹 143" style="clip-path:url(#zcc2stvcia)" transform="translate(38.078 10)">
                <path data-name="패스 207" d="M15.208.507h4.516v19.4h-4.516v-2.026A7.451 7.451 0 0 1 9.4 20.508c-5.99 0-9.4-4.977-9.4-10.323C0 3.871 4.332 0 9.447 0a7.073 7.073 0 0 1 5.761 2.765zm-10.6 9.77c0 3.364 2.12 6.175 5.392 6.175 2.857 0 5.484-2.074 5.484-6.129 0-4.24-2.627-6.268-5.484-6.268-3.272 0-5.392 2.765-5.392 6.222M25.1.507h4.516v1.751A7.82 7.82 0 0 1 31.508.645 5.215 5.215 0 0 1 34.273 0a6.7 6.7 0 0 1 3.548.922l-1.843 4.1a4.09 4.09 0 0 0-2.3-.691 3.519 3.519 0 0 0-2.811 1.06c-1.244 1.337-1.244 3.18-1.244 4.47v10.048H25.1zm15.636 0h4.516V2.3A5.979 5.979 0 0 1 50.048 0a5.7 5.7 0 0 1 5.023 2.857A6.872 6.872 0 0 1 60.832 0a6.213 6.213 0 0 1 5.53 3.041 9.56 9.56 0 0 1 1.014 4.885v11.983H62.86V9.217a9 9 0 0 0-.415-3.456 2.557 2.557 0 0 0-2.581-1.705 3.337 3.337 0 0 0-2.673 1.429c-.783 1.106-.876 2.765-.876 4.424v10H51.8V9.217a9 9 0 0 0-.415-3.456A2.557 2.557 0 0 0 48.8 4.055a3.336 3.336 0 0 0-2.67 1.429c-.783 1.106-.876 2.765-.876 4.424v10h-4.516z" style="fill:#0091bd"/>
            </g>
        </g>
        <path data-name="사각형 2990" style="fill:none" d="M0 0h144v40H0z"/>
    </g>
</svg>
