<svg xmlns="http://www.w3.org/2000/svg" width="304" height="100" viewBox="0 0 304 100">
    <defs>
        <clipPath id="8k3gn7u34a">
            <path data-name="사각형 3373" style="fill:none" d="M0 0h168.666v80H0z"/>
        </clipPath>
    </defs>
    <g data-name="그룹 7894">
        <g data-name="그룹 7885">
            <g data-name="그룹 7879" style="clip-path:url(#8k3gn7u34a)" transform="translate(68 10)">
                <path data-name="패스 15914" d="M39.319 41.533a2.847 2.847 0 0 1-2.534-1.543L21.083 9.567 5.381 39.99a2.849 2.849 0 1 1-5.063-2.613L18.552 2.048a2.849 2.849 0 0 1 5.063 0l18.234 35.329a2.85 2.85 0 0 1-2.529 4.156"/>
                <path data-name="패스 15915" d="M139.512 41.878a2.849 2.849 0 0 0 2.181-4.68l-13.28-15.834 13.28-15.833a2.849 2.849 0 1 0-4.366-3.662l-14.814 17.664a2.849 2.849 0 0 0 0 3.662l14.815 17.664a2.843 2.843 0 0 0 2.184 1.019" transform="translate(-49.346 -.345)" style="fill:#00dc78"/>
                <path data-name="패스 15916" d="M87.521 41.878a2.841 2.841 0 0 0 2.184-1.019L104.521 23.2a2.849 2.849 0 0 0 0-3.662L89.705 1.869a2.849 2.849 0 1 0-4.365 3.662l13.28 15.833L85.34 37.2a2.849 2.849 0 0 0 2.181 4.68" transform="translate(-34.291 -.345)" style="fill:#00d2ff"/>
                <path data-name="패스 15917" d="M110.838 41.534a2.849 2.849 0 0 1-2.849-2.849V3.484a2.85 2.85 0 1 1 5.7 0v35.2a2.849 2.849 0 0 1-2.849 2.849"/>
                <path data-name="패스 15918" d="M147.582 0a21.083 21.083 0 1 0 21.083 21.083A21.107 21.107 0 0 0 147.582 0m0 36.468a15.385 15.385 0 1 1 15.385-15.385 15.4 15.4 0 0 1-15.385 15.385"/>
                <path data-name="패스 15919" d="M15.045 120.1a1.464 1.464 0 0 0 1.121-2.405l-6.824-8.137 6.824-8.136a1.464 1.464 0 1 0-2.244-1.881l-7.613 9.077a1.464 1.464 0 0 0 0 1.881l7.613 9.078a1.461 1.461 0 0 0 1.123.524" transform="translate(-2.416 -40.1)" style="fill:#00dc78"/>
                <path data-name="패스 15920" d="M261.244 120.1a1.46 1.46 0 0 0 1.123-.524l7.613-9.078a1.464 1.464 0 0 0 0-1.881l-7.613-9.077a1.464 1.464 0 1 0-2.244 1.881l6.824 8.136-6.824 8.137a1.464 1.464 0 0 0 1.121 2.405" transform="translate(-105.207 -40.1)" style="fill:#00d2ff"/>
                <path data-name="패스 15921" d="M24.351 62.644h-6.464v-3.322h16.538v3.319h-6.462v17.065h-3.612z"/>
                <path data-name="패스 15922" d="M38.217 59.322h3.582v17.123h10.716v3.261h-14.3z"/>
                <path data-name="패스 15923" d="m54.877 76.739 2.155-2.563a9.439 9.439 0 0 0 6.435 2.65c2.214 0 3.611-1.048 3.611-2.562v-.058c0-1.456-.815-2.243-4.6-3.116-4.339-1.048-6.785-2.33-6.785-6.086v-.058c0-3.5 2.911-5.912 6.959-5.912a11.3 11.3 0 0 1 7.4 2.563l-1.922 2.709a9.258 9.258 0 0 0-5.532-2.1c-2.1 0-3.32 1.078-3.32 2.417v.058c0 1.572.932 2.271 4.863 3.2 4.31 1.048 6.523 2.592 6.523 5.969v.058c0 3.815-3 6.086-7.281 6.086a12.557 12.557 0 0 1-8.5-3.261"/>
                <path data-name="패스 15924" d="M75.293 69.487v-.058a4.121 4.121 0 0 1 8.242 0v.058a4.121 4.121 0 0 1-8.242 0"/>
                <path data-name="패스 15925" d="M87.438 59.322h3.96l6.145 15.666 6.115-15.666h3.873l-8.444 20.53h-3.174z"/>
                <path data-name="패스 15926" d="M111.031 59.322h8.037c4.776 0 7.746 2.708 7.746 6.815v.058c0 4.572-3.669 6.959-8.154 6.959h-4.047v6.553h-3.582zm7.746 10.6c2.709 0 4.4-1.514 4.4-3.641v-.059c0-2.388-1.718-3.64-4.4-3.64h-4.164v7.34z"/>
                <path data-name="패스 15927" d="M130.488 59.322h3.319l10.918 14.1v-14.1h3.523v20.384h-3l-11.241-14.5v14.5h-3.519z"/>
            </g>
        </g>
        <path data-name="사각형 3388" style="fill:none" d="M0 0h304v100H0z"/>
    </g>
</svg>
