<svg xmlns="http://www.w3.org/2000/svg" width="400" height="100" viewBox="0 0 400 100">
    <defs>
        <clipPath id="v47cqghkba">
            <path data-name="사각형 174" style="fill:none" d="M0 0h214.984v25.145H0z"/>
        </clipPath>
    </defs>
    <g data-name="그룹 7397">
        <g data-name="그룹 170">
            <g data-name="그룹 147" transform="translate(93 37)" style="clip-path:url(#v47cqghkba)">
                <path data-name="패스 215" d="M60.976 15.607a7.722 7.722 0 0 1-1.292 4.52 8.991 8.991 0 0 1-3.422 2.973 17.067 17.067 0 0 1-4.592 1.569 25.479 25.479 0 0 1-4.913.476 24.772 24.772 0 0 1-6.655-.888 12.215 12.215 0 0 1-5.421-3.041 7.546 7.546 0 0 1-2.181-5.609V4.135h8.1V14a6.819 6.819 0 0 0 .766 3.385 4.59 4.59 0 0 0 2.151 1.956 8.6 8.6 0 0 0 6.426.005 4.647 4.647 0 0 0 2.159-1.952 6.655 6.655 0 0 0 .758-3.352V4.135h8.109zM0 13.013a7.753 7.753 0 0 1 1.289-4.522A9.01 9.01 0 0 1 4.716 5.53a16.556 16.556 0 0 1 4.589-1.564 25.034 25.034 0 0 1 4.91-.489 24.774 24.774 0 0 1 6.657.9A12.106 12.106 0 0 1 26.3 7.423a7.511 7.511 0 0 1 2.174 5.591v11.408h-8.117v-9.8a6.742 6.742 0 0 0-.76-3.382 4.58 4.58 0 0 0-2.146-1.943 7.758 7.758 0 0 0-3.251-.63 7.615 7.615 0 0 0-3.177.62 4.5 4.5 0 0 0-2.156 1.933 6.729 6.729 0 0 0-.763 3.371v9.832H0zm212.809-5.59a7.523 7.523 0 0 1 2.174 5.591v11.409h-8.106v-9.795a6.73 6.73 0 0 0-.765-3.39 4.622 4.622 0 0 0-2.151-1.954 7.855 7.855 0 0 0-3.243-.614 7.642 7.642 0 0 0-3.177.614 4.581 4.581 0 0 0-2.154 1.948 6.6 6.6 0 0 0-.76 3.35v9.84h-8.12V13.015A7.787 7.787 0 0 1 187.8 8.49a9.214 9.214 0 0 1 3.43-2.962 17.03 17.03 0 0 1 4.583-1.568 25.511 25.511 0 0 1 4.911-.473 24.778 24.778 0 0 1 6.662.891 12.1 12.1 0 0 1 5.421 3.047m-97.621 6.924a5.131 5.131 0 0 0-.452-2.159 4.732 4.732 0 0 0-1.343-1.7 6.638 6.638 0 0 0-2.2-1.114 10.082 10.082 0 0 0-3.007-.407 8.03 8.03 0 0 0-5.123 1.476 4.769 4.769 0 0 0-1.866 3.9 4.777 4.777 0 0 0 1.874 3.895 7.985 7.985 0 0 0 5.115 1.481 9.455 9.455 0 0 0 3.791-.68 5.465 5.465 0 0 0 2.4-1.911 4.852 4.852 0 0 0 .813-2.784m8.308 0a9.2 9.2 0 0 1-1.747 5.41 11.56 11.56 0 0 1-5.181 3.922 21.537 21.537 0 0 1-8.38 1.465 20.864 20.864 0 0 1-8.462-1.518 11.581 11.581 0 0 1-5.155-3.991 9.21 9.21 0 0 1 0-10.6 11.424 11.424 0 0 1 5.139-3.965 21.082 21.082 0 0 1 8.478-1.521 23.5 23.5 0 0 1 6.663.867 14.279 14.279 0 0 1 4.812 2.348 10.112 10.112 0 0 1 2.856 3.44 9.283 9.283 0 0 1 .978 4.145m50.651 0a5.17 5.17 0 0 0-.447-2.159 4.5 4.5 0 0 0-1.348-1.7 6.475 6.475 0 0 0-2.2-1.114 10.043 10.043 0 0 0-3.01-.407 8.012 8.012 0 0 0-5.115 1.476 4.758 4.758 0 0 0-1.869 3.9 4.765 4.765 0 0 0 1.885 3.895 7.934 7.934 0 0 0 5.1 1.481 9.572 9.572 0 0 0 3.807-.68 5.418 5.418 0 0 0 2.377-1.911 4.835 4.835 0 0 0 .822-2.784m8.308 0a9.258 9.258 0 0 1-1.744 5.41 11.542 11.542 0 0 1-5.185 3.922 21.516 21.516 0 0 1-8.385 1.465 20.888 20.888 0 0 1-8.46-1.518 11.582 11.582 0 0 1-5.147-3.991 9.226 9.226 0 0 1-.011-10.6 11.474 11.474 0 0 1 5.144-3.964 21.08 21.08 0 0 1 8.473-1.521 23.368 23.368 0 0 1 6.66.867 14.352 14.352 0 0 1 4.82 2.348 10.08 10.08 0 0 1 2.863 3.44 9.311 9.311 0 0 1 .97 4.145m-30.3-12.436A30.242 30.242 0 0 0 146.1.51a54.39 54.39 0 0 0-2.409-.255C141.861.08 139.861 0 137.7 0c-2.191 0-4.2.08-6.035.255a39.2 39.2 0 0 0-4.65.643 23.772 23.772 0 0 0-4.514 1.34V5.3h11.158v19.13h8.1V5.3H152.9V2.212c-.231-.093-.481-.191-.744-.3M75.413 24.429h5.253l12-20.3h-7.493L78.042 16.3 70.9 4.133h-7.475l10.9 18.475z" style="fill:#e7290f"/>
            </g>
        </g>
        <path data-name="사각형 204" style="fill:none" d="M0 0h400v100H0z"/>
    </g>
</svg>
