<svg xmlns="http://www.w3.org/2000/svg" width="400" height="100" viewBox="0 0 400 100">
    <defs>
        <clipPath id="jixihc6caa">
            <path data-name="사각형 184" style="fill:none" d="M0 0h174.849v28.072H0z"/>
        </clipPath>
    </defs>
    <g data-name="그룹 7403">
        <g data-name="그룹 171">
            <g data-name="그룹 162" transform="translate(113 36)" style="clip-path:url(#jixihc6caa)">
                <path data-name="패스 251" d="M53.189 12.111c-.892 3.754-1.982 7.077-7.721 7.077s-5.252-3.323-4.361-7.077c.931-3.9 2.1-7.073 7.728-7.073s5.286 3.169 4.354 7.073M49.717 0C36.925 0 34.873 5.42 33.452 12.111c-1.312 6.195-2.071 12.115 11.128 12.115 13.092 0 14.977-6.025 16.267-12.115C62.265 5.42 62.293 0 49.717 0" transform="translate(-9.256)" style="fill:#004cac"/>
                <path data-name="패스 252" d="M106.5.949h-8.227a1.8 1.8 0 0 0-1.5.866l-7.642 13.134-1.549-13.006a1.122 1.122 0 0 0-1.119-.994h-8.037a1.284 1.284 0 0 0-1.231.976l-4.979 20.894a.737.737 0 0 0 .768.973h5.363a1.248 1.248 0 0 0 1.231-.973L82.534 10.4c.127-.538.294-.53.374.017L84.685 22.8a1.126 1.126 0 0 0 1.144.99h2.865a1.628 1.628 0 0 0 1.51-.86l7.413-12.63c.278-.477.4-.426.272.107l-2.955 12.412a.738.738 0 0 0 .771.973h5.358a1.286 1.286 0 0 0 1.234-.973l4.978-20.894a.757.757 0 0 0-.775-.976" transform="translate(-20.387 -.268)" style="fill:#004cac"/>
                <path data-name="패스 253" d="M171.467 12.684h-6.684l6.684-9.331zm-15.64 11.108a1.974 1.974 0 0 0 1.585-.814l3.907-5.452h10.149v5.267a.945.945 0 0 0 1 1h5l-2.956 3.759c-.344.437-.174.789.38.789h7.853a2.023 2.023 0 0 0 1.6-.806l9.908-13.412 3 8.8a1.364 1.364 0 0 0 1.323.946h6.32a.62.62 0 0 0 .625-.931l-4.574-11.3 7.506-9.9c.335-.441.154-.8-.4-.8h-7.22a2.019 2.019 0 0 0-1.594.809L194 8.954 191.719 1.9a1.337 1.337 0 0 0-1.307-.951h-6.6a.624.624 0 0 0-.632.931l3.859 9.748-8.274 10.512V1.949a.949.949 0 0 0-1-1H165.5a1.988 1.988 0 0 0-1.589.813l-13.732 19.01 4.489-18.849a.755.755 0 0 0-.768-.974h-8.23a1.8 1.8 0 0 0-1.5.868l-7.641 13.132-1.547-13.006a1.125 1.125 0 0 0-1.121-.994h-8.036a1.293 1.293 0 0 0-1.232.974l-4.976 20.9a.737.737 0 0 0 .769.972h5.359a1.249 1.249 0 0 0 1.232-.972l2.955-12.423c.128-.54.3-.529.375.017l1.78 12.383a1.123 1.123 0 0 0 1.142.99h2.865a1.618 1.618 0 0 0 1.508-.861l7.416-12.629c.276-.477.4-.426.274.111l-2.956 12.409a.733.733 0 0 0 .766.972z" transform="translate(-33.774 -.268)" style="fill:#004cac"/>
                <path data-name="패스 254" d="M20.621 18.34c-1.53.061-4.369.149-6.326.129-3.254-.043-5.366-1.1-6.064-2.606a5.821 5.821 0 0 1-.039-3.66 7.632 7.632 0 0 1 1.819-3.617c1.413-1.444 3.813-2.383 7.217-2.522 2.164-.086 4.953.022 6.424.1a.967.967 0 0 0 1.056-.787l.854-3.589A.766.766 0 0 0 24.919.8a52.977 52.977 0 0 0-9.513-.385C11.8.722 8.627 1.526 6.019 3.446A14.75 14.75 0 0 0 .37 12.173c-.8 3.292-.329 6.516 1.584 8.7 1.69 1.927 4.331 2.991 7.811 3.284a53.259 53.259 0 0 0 9.595-.4 1.279 1.279 0 0 0 1.041-.984l.875-3.635a.614.614 0 0 0-.655-.8" transform="translate(0 -.094)" style="fill:#004cac"/>
            </g>
        </g>
        <path data-name="사각형 206" style="fill:none" d="M0 0h400v100H0z"/>
    </g>
</svg>
