<svg xmlns="http://www.w3.org/2000/svg" width="180" height="60" viewBox="0 0 180 60">
    <defs>
        <clipPath id="wd9drhf7xa">
            <path data-name="사각형 2" style="fill:none" d="M0 0h180v60H0z"/>
        </clipPath>
    </defs>
    <g data-name="그룹 2">
        <g data-name="그룹 1" style="clip-path:url(#wd9drhf7xa)">
            <path data-name="패스 1" d="M13.808 76.807a3.265 3.265 0 0 1-3.225-2.782 55.6 55.6 0 0 1-.4-10.242 37.828 37.828 0 0 1-8.713-4.36 3.266 3.266 0 0 1 3.592-5.454 34.04 34.04 0 0 0 5.968 3.2c.877-4.116 2.514-8.169 5.446-11.069a13.333 13.333 0 0 1 4.067-2.731 9.6 9.6 0 0 1 9.993 1.294 9.739 9.739 0 0 1 3.659 6.1 10.369 10.369 0 0 1-2.421 7.945c-2.247 3.122-7.468 6.848-15.116 6.382a47.661 47.661 0 0 0 .385 7.973 3.267 3.267 0 0 1-2.75 3.708 3.377 3.377 0 0 1-.484.036m3.568-18.166a11.94 11.94 0 0 0 9.193-3.878c2.547-3.072-.021-4.931-.021-4.931-.6-.472-2.781-1.809-5.417.845l-.045.045c-1.918 1.894-3.063 4.789-3.71 7.918" transform="translate(0 -16.806)" style="fill:#fff"/>
            <path data-name="패스 2" d="M60.183.873v21.168h16.8v-4.96H65.99v-3.387h9.965V9.068H65.99V5.832h10.994V.873z" transform="translate(-23.787 -.345)" style="fill:#fff"/>
            <path data-name="패스 3" d="M156.207 43.666v21.168h5.806v-7.8h9.622v-4.628h-9.622v-3.781h10.822v-4.959z" transform="translate(-61.739 -17.259)" style="fill:#fff"/>
            <path data-name="사각형 1" transform="translate(119.399 .527)" style="fill:#fff" d="M0 0h5.806v21.168H0z"/>
            <path data-name="패스 4" d="m276.613 43.666-4.929 7.93-4.929-7.93h-6.32v21.168h5.806V52.963l5.443 8 5.443-8v11.87h5.806V43.666z" transform="translate(-102.933 -17.259)" style="fill:#fff"/>
            <path data-name="패스 5" d="M122.733 48.626h6.194v16.208h5.806V48.626h6.193v-4.959h-18.193z" transform="translate(-48.509 -17.259)" style="fill:#fff"/>
            <path data-name="패스 6" d="M97.295 43.417 88.8 64.736h6.139l1.519-3.811h8.332l1.519 3.811h6.14l-8.5-21.319zm1 12.882 2.322-5.826 2.322 5.826z" transform="translate(-35.096 -17.16)" style="fill:#fff"/>
            <path data-name="패스 7" d="M216.353 22.041h5.806V5.832h6.194V.873h-18.194v4.959h6.194z" transform="translate(-83.063 -.345)" style="fill:#fff"/>
            <path data-name="패스 8" d="M249.4 14.118v7.923h5.806v-7.923l8.1-13.244h-6.391l-4.616 7.544-4.607-7.545H241.3l8.1 13.244z" transform="translate(-95.371 -.345)" style="fill:#fff"/>
            <path data-name="패스 9" d="M66.991 43.667h-5.806v21.168H76.96v-4.959h-9.969z" transform="translate(-24.183 -17.259)" style="fill:#fff"/>
            <path data-name="패스 10" d="M196.549 42.966a11.008 11.008 0 1 0 11.007 11.008 11.008 11.008 0 0 0-11.007-11.008m0 16.723a5.715 5.715 0 1 1 5.715-5.715 5.715 5.715 0 0 1-5.715 5.715" transform="translate(-73.333 -16.982)" style="fill:#fff"/>
            <path data-name="패스 11" d="M101.057 22.251a11 11 0 0 0 9.128-4.853l-4.3-3.108a5.707 5.707 0 0 1-4.83 2.669 5.433 5.433 0 0 1-5.373-5.715 5.433 5.433 0 0 1 5.373-5.716 5.7 5.7 0 0 1 4.629 2.372l4.284-3.1a11 11 0 1 0-8.91 17.453" transform="translate(-35.591 -.094)" style="fill:#fff"/>
            <path data-name="패스 12" d="M145.751.823h-5.806v12.262a4.037 4.037 0 0 1-8.074 0V.823h-5.806v11.748a9.843 9.843 0 0 0 19.686 0z" transform="translate(-49.825 -.326)" style="fill:#fff"/>
            <path data-name="패스 13" d="M168.888 15.63h2.194l4.388 6.411h6.572l-4.891-7.148a7.374 7.374 0 0 0-3.2-14.02h-10.869v21.168h5.806zm0-9.8h3.991a2.6 2.6 0 1 1 0 5.2h-3.991z" transform="translate(-64.456 -.345)" style="fill:#fff"/>
            <path data-name="패스 14" d="M244.188 51.045a7.379 7.379 0 0 0-7.379-7.378h-10.871v21.168h5.806v-6.411h2.194l4.388 6.411h6.574l-4.891-7.148a7.371 7.371 0 0 0 4.181-6.642m-12.444-2.419h3.991a2.6 2.6 0 1 1 0 5.2h-3.991z" transform="translate(-89.299 -17.259)" style="fill:#fff"/>
            <path data-name="패스 15" d="M36.314 17.584h-.008c-2.642 0-5.526-1.937-7.417-3.453l-3.378 4.4a17.405 17.405 0 0 0 11.134 4.15h.013c3.252 0 7.977-1.65 7.977-7.15 0-2.789-1.9-6-8.622-7.055-1.854-.293-3.425-.989-3.105-2.057.241-1.715 3.127-1.194 3.127-1.194A13.032 13.032 0 0 1 41.67 7.56l3.043-4.533a17.6 17.6 0 0 0-7.06-2.818c-7.627-1.281-9.77 3.763-9.77 3.763-.126.3-1.526 3.335 0 6 1.222 2.131 2.917 3.171 7.416 3.9 3.91.635 3.551 2.154 3.551 2.154s-.03 1.505-2.539 1.554" transform="translate(-10.083)" style="fill:#fff"/>
        </g>
    </g>
</svg>
