<svg xmlns="http://www.w3.org/2000/svg" width="144" height="40" viewBox="0 0 144 40">
    <defs>
        <clipPath id="c717a2ww8a">
            <path data-name="사각형 173" style="fill:none" d="M0 0h112.603v29.407H0z"/>
        </clipPath>
    </defs>
    <g data-name="그룹 7371">
        <path data-name="사각형 2991" style="fill:none" d="M0 0h144v40H0z"/>
        <g data-name="그룹 7358">
            <g data-name="그룹 145" transform="translate(15.534 6)" style="clip-path:url(#c717a2ww8a)">
                <path data-name="패스 208" d="M154.958 46.666c-5.068 0-9.615-2.758-9.615-6.614s4.547-6.617 9.652-6.617a13.441 13.441 0 0 1 6.546 1.74l-1.589 1.956a11.851 11.851 0 0 0-4.958-1.07c-2.146 0-4.624 1.15-4.624 3.991s2.442 3.99 4.624 3.99a13.184 13.184 0 0 0 5.03-.965l1.591 2.062a14.654 14.654 0 0 1-6.657 1.527" transform="translate(-101.839 -23.427)" style="fill:#1170b8"/>
                <path data-name="패스 209" d="M251.6 46.5c5.1 0 9.652-2.76 9.652-6.614s-4.549-6.618-9.652-6.618-9.654 2.761-9.654 6.618 4.547 6.614 9.654 6.614m4.623-6.614c0 2.839-2.477 3.989-4.623 3.989s-4.623-1.15-4.623-3.989 2.476-3.992 4.623-3.992 4.623 1.151 4.623 3.992" transform="translate(-169.526 -23.311)" style="fill:#1170b8"/>
                <path data-name="패스 210" d="M313.307 45.743h4.768v-7.876a2.369 2.369 0 0 1 2.405-2.323c1.077.009 2.111.714 2.111 1.611l-.009 8.589h4.778v-8.832c0-2.326-2.6-4.268-5.707-4.268h-.181a6.8 6.8 0 0 0-3.5.959c-.009-.034-.276-.878-4.67-.878z" transform="translate(-219.528 -22.873)" style="fill:#1170b8"/>
                <path data-name="사각형 172" transform="translate(36.541 10.281)" style="fill:#1170b8" d="M0 0h4.671v12.589H0z"/>
                <path data-name="패스 211" d="M207.148 46.373h4.671v-7.635c0-1.206 1.478-2.17 3.071-2.17a5.461 5.461 0 0 1 2.122.409v-3.311a12.1 12.1 0 0 0-1.673-.124 7.3 7.3 0 0 0-3.535.932c-.078-.149-.648-.851-4.658-.851z" transform="translate(-145.145 -23.502)" style="fill:#1170b8"/>
                <path data-name="패스 212" d="M81.06 1.335C79.287-1.1 73.78-.111 66.643 3.5a6.585 6.585 0 0 0-.811.447c-.346.227-.145.4.11.308a9.363 9.363 0 0 0 .892-.358c5.352-2.43 9.526-2.868 11.156-1.17 2.486 2.583-2.6 11.053-11.422 17.318-1.176.837-2.993 2.06-4.176 2.74a12.456 12.456 0 0 0-1.046.683c-.219.164-.172.413.213.255a7.09 7.09 0 0 0 .823-.419c.068-.041.137-.077.208-.12 1.328-.774 3.3-2.078 4.651-2.979q1.739-1.166 3.286-2.355v5.018h4.783v-9.161c5.266-5.2 7.448-10.042 5.75-12.372" transform="translate(-42.896)" style="fill:#1170b8"/>
                <path data-name="패스 213" d="M8.938 41.32h4.783v-4.748a76.004 76.004 0 0 0 3.932-2.4 7.252 7.252 0 0 0 .74-.549c.309-.272.086-.411-.154-.29s-.537.292-.851.484C10 38.342 5.013 39.723 3.169 37.328c-1.6-2.08 1.024-6.1 5.768-10.64v10.537a30.508 30.508 0 0 0 4.783-2.117v-9.777l1.051 2.143a6.5 6.5 0 0 0 11.811 0l1.052-2.143v2.494a32.869 32.869 0 0 0 4.28-4.713.478.478 0 0 0 .051-.525 4.68 4.68 0 0 0-8.252-.037l-2 4.066a1.177 1.177 0 0 1-2.069 0l-2-4.066a4.5 4.5 0 0 0-1.7-1.79 41.813 41.813 0 0 1 4.285-2.92 8.907 8.907 0 0 0 .8-.534c.216-.158.177-.41-.21-.255a7.005 7.005 0 0 0-.843.415c-1.43.831-2.892 1.681-4.292 2.6-.17.11-.338.222-.506.334a4.734 4.734 0 0 0-1.656-.3 4.484 4.484 0 0 0-4.582 4.39v.6C2.183 30.862-1.365 36.576.49 39.12c1.361 1.866 4.586 1.434 8.448-.172z" transform="translate(0 -11.913)" style="fill:#1170b8"/>
                <path data-name="패스 214" d="M368.29 33.64h.25c.168 0 .314-.022.314-.219 0-.172-.164-.2-.311-.2h-.253zm-.284-.627h.568c.366 0 .565.122.565.43 0 .25-.149.373-.4.395l.41.641h-.292l-.4-.631h-.171v.631h-.284zm1.54.738a1.021 1.021 0 1 0-1.02 1.043 1.012 1.012 0 0 0 1.02-1.043m-2.371 0a1.351 1.351 0 1 1 1.351 1.294 1.325 1.325 0 0 1-1.351-1.294" transform="translate(-257.272 -22.743)" style="fill:#1170b8"/>
            </g>
        </g>
    </g>
</svg>
