<svg xmlns="http://www.w3.org/2000/svg" width="290" height="100" viewBox="0 0 290 100">
    <defs>
        <clipPath id="b7o8glal4a">
            <path data-name="사각형 3370" style="fill:none" d="M0 0h184.479v80H0z"/>
        </clipPath>
    </defs>
    <g data-name="그룹 7876">
        <g data-name="그룹 7874">
            <g data-name="그룹 7873" style="clip-path:url(#b7o8glal4a)" transform="translate(53 10)">
                <path data-name="패스 15876" d="M47.291 41.472a2.843 2.843 0 0 1-2.53-1.541L29.082 9.555l-15.68 30.377a2.845 2.845 0 1 1-5.056-2.61L26.554 2.045a2.845 2.845 0 0 1 5.056 0l18.205 35.277a2.846 2.846 0 0 1-2.526 4.15"/>
                <path data-name="패스 15877" d="M153 41.818a2.845 2.845 0 0 0 2.178-4.673l-13.26-15.811 13.26-15.81a2.845 2.845 0 1 0-4.359-3.656l-14.793 17.638a2.845 2.845 0 0 0 0 3.656L150.819 40.8A2.839 2.839 0 0 0 153 41.818" transform="translate(-54.936 -.345)" style="fill:#00dc78"/>
                <path data-name="패스 15878" d="M101.031 41.818a2.837 2.837 0 0 0 2.181-1.017l14.794-17.639a2.845 2.845 0 0 0 0-3.656L103.212 1.868a2.845 2.845 0 1 0-4.359 3.656l13.26 15.81-13.26 15.811a2.845 2.845 0 0 0 2.178 4.673" transform="translate(-39.849 -.345)" style="fill:#00d2ff"/>
                <path data-name="패스 15879" d="M118.706 41.473a2.845 2.845 0 0 1-2.848-2.845V3.478a2.845 2.845 0 1 1 5.69 0v35.15a2.845 2.845 0 0 1-2.845 2.845"/>
                <path data-name="패스 15880" d="M155.398 0a21.053 21.053 0 1 0 21.053 21.053A21.076 21.076 0 0 0 155.398 0m0 36.415a15.362 15.362 0 1 1 15.362-15.362 15.38 15.38 0 0 1-15.362 15.362"/>
                <path data-name="패스 15881" d="M9.065 120.265a1.462 1.462 0 0 0 1.119-2.4l-6.814-8.126 6.814-8.124a1.462 1.462 0 1 0-2.241-1.879L.342 108.8a1.462 1.462 0 0 0 0 1.879l7.6 9.064a1.459 1.459 0 0 0 1.121.523" transform="translate(0 -40.265)" style="fill:#00dc78"/>
                <path data-name="패스 15882" d="M294.236 120.266a1.458 1.458 0 0 0 1.121-.523l7.6-9.064a1.462 1.462 0 0 0 0-1.879l-7.6-9.064a1.462 1.462 0 1 0-2.241 1.879l6.814 8.124-6.814 8.125a1.462 1.462 0 0 0 1.119 2.4" transform="translate(-118.822 -40.266)" style="fill:#00d2ff"/>
                <path data-name="패스 15883" d="M16.843 59.296h3.809l6.193 9.625 6.194-9.625h3.81V79.65h-3.578v-14.6l-6.426 9.6h-.116l-6.369-9.538v14.539h-3.517z"/>
                <path data-name="패스 15884" d="M49.298 59.151h3.315l8.956 20.5h-3.781l-2.064-4.914h-9.625l-2.093 4.914h-3.662zm5.118 12.417-3.518-8.142-3.49 8.142z"/>
                <path data-name="패스 15885" d="M65.058 59.296h3.314L79.277 73.37V59.296h3.518V79.65H79.8L68.575 65.169V79.65h-3.517z"/>
                <path data-name="패스 15886" d="M95.248 59.151h3.315l8.956 20.5h-3.781l-2.064-4.914h-9.625l-2.093 4.914h-3.664zm5.118 12.417-3.518-8.142-3.49 8.142z"/>
                <path data-name="패스 15887" d="M108.832 69.535v-.058a10.37 10.37 0 0 1 10.5-10.527 10.992 10.992 0 0 1 7.822 2.763l-2.268 2.7a7.973 7.973 0 0 0-5.7-2.181c-3.751 0-6.6 3.286-6.6 7.182v.058c0 4.187 2.763 7.269 6.921 7.269a8.311 8.311 0 0 0 4.914-1.541v-3.81h-5.2v-3.111h8.666v8.556a12.978 12.978 0 0 1-8.491 3.17 10.1 10.1 0 0 1-10.564-10.47"/>
                <path data-name="패스 15888" d="M132.534 59.296h15.091v3.2H136.11v5.293h10.207v3.2H136.11v5.467h11.659v3.2h-15.235z"/>
                <path data-name="패스 15889" d="M152.02 59.296h9.072a8.2 8.2 0 0 1 5.874 2.035 6.154 6.154 0 0 1 1.686 4.391v.058a6.112 6.112 0 0 1-4.827 6.164l5.5 7.706h-4.245l-5-7.1h-4.479v7.1h-3.576zm8.811 10.09c2.558 0 4.187-1.337 4.187-3.4v-.058c0-2.182-1.57-3.374-4.216-3.374h-5.206v6.833z"/>
            </g>
        </g>
        <path data-name="사각형 3385" style="fill:none" d="M0 0h290v100H0z"/>
    </g>
</svg>
