<svg xmlns="http://www.w3.org/2000/svg" width="144" height="40" viewBox="0 0 144 40">
    <defs>
        <clipPath id="8fyqnlc3ga">
            <path data-name="사각형 174" style="fill:none" d="M0 0h127.377v14.898H0z"/>
        </clipPath>
    </defs>
    <g data-name="그룹 7374">
        <path data-name="사각형 2992" style="fill:none" d="M0 0h144v40H0z"/>
        <g data-name="그룹 7361">
            <g data-name="그룹 147" transform="translate(8 13)" style="clip-path:url(#8fyqnlc3ga)">
                <path data-name="패스 215" d="M36.128 9.247a4.575 4.575 0 0 1-.765 2.678 5.327 5.327 0 0 1-2.027 1.761 10.112 10.112 0 0 1-2.72.93 15.1 15.1 0 0 1-2.916.284 14.677 14.677 0 0 1-3.943-.526 7.237 7.237 0 0 1-3.212-1.8 4.471 4.471 0 0 1-1.29-3.322V2.45h4.8v5.844a4.04 4.04 0 0 0 .454 2.005 2.72 2.72 0 0 0 1.274 1.159 5.1 5.1 0 0 0 3.807 0 2.754 2.754 0 0 0 1.279-1.156 3.943 3.943 0 0 0 .449-1.986V2.45h4.8zM0 7.71a4.593 4.593 0 0 1 .764-2.679 5.338 5.338 0 0 1 2.03-1.755 9.809 9.809 0 0 1 2.719-.926 14.832 14.832 0 0 1 2.909-.29 14.679 14.679 0 0 1 3.945.533A7.173 7.173 0 0 1 15.581 4.4a4.45 4.45 0 0 1 1.288 3.31v6.76h-4.808V8.662a3.994 3.994 0 0 0-.45-2 2.714 2.714 0 0 0-1.271-1.155 4.6 4.6 0 0 0-1.925-.372 4.512 4.512 0 0 0-1.883.365 2.668 2.668 0 0 0-1.277 1.147 3.987 3.987 0 0 0-.452 2v5.823H0zM126.088 4.4a4.458 4.458 0 0 1 1.288 3.313v6.759h-4.8v-5.8a3.987 3.987 0 0 0-.454-2.008 2.738 2.738 0 0 0-1.276-1.164 4.654 4.654 0 0 0-1.922-.364 4.528 4.528 0 0 0-1.882.364 2.714 2.714 0 0 0-1.276 1.154 3.911 3.911 0 0 0-.45 1.985v5.83H110.5V7.711a4.614 4.614 0 0 1 .767-2.681 5.459 5.459 0 0 1 2.033-1.755 10.09 10.09 0 0 1 2.716-.929 15.115 15.115 0 0 1 2.91-.28 14.681 14.681 0 0 1 3.947.528 7.167 7.167 0 0 1 3.215 1.806m-57.84 4.1a3.04 3.04 0 0 0-.268-1.279 2.8 2.8 0 0 0-.8-1.005 3.933 3.933 0 0 0-1.3-.66 5.974 5.974 0 0 0-1.78-.24 4.758 4.758 0 0 0-3.035.874A2.826 2.826 0 0 0 59.96 8.5a2.831 2.831 0 0 0 1.11 2.308 4.731 4.731 0 0 0 3.031.877 5.6 5.6 0 0 0 2.246-.4 3.238 3.238 0 0 0 1.419-1.133 2.875 2.875 0 0 0 .482-1.652m4.923 0a5.452 5.452 0 0 1-1.035 3.206 6.849 6.849 0 0 1-3.07 2.323 12.761 12.761 0 0 1-4.966.871 12.362 12.362 0 0 1-5.014-.9 6.862 6.862 0 0 1-3.054-2.365 5.457 5.457 0 0 1 0-6.282A6.768 6.768 0 0 1 59.078 3a12.491 12.491 0 0 1 5.022-.9 13.92 13.92 0 0 1 3.948.514A8.46 8.46 0 0 1 70.9 4.007a5.991 5.991 0 0 1 1.692 2.038 5.5 5.5 0 0 1 .579 2.455m30.01 0a3.063 3.063 0 0 0-.265-1.279 2.665 2.665 0 0 0-.8-1.005 3.837 3.837 0 0 0-1.3-.66 5.95 5.95 0 0 0-1.783-.241A4.747 4.747 0 0 0 96 6.19a2.819 2.819 0 0 0-1.108 2.31 2.823 2.823 0 0 0 1.117 2.308 4.7 4.7 0 0 0 3.021.877 5.671 5.671 0 0 0 2.256-.4 3.21 3.21 0 0 0 1.408-1.133 2.864 2.864 0 0 0 .487-1.649m4.923 0a5.486 5.486 0 0 1-1.033 3.206A6.839 6.839 0 0 1 104 14.03a12.748 12.748 0 0 1-4.968.868 12.376 12.376 0 0 1-5.012-.9 6.862 6.862 0 0 1-3.049-2.365 5.466 5.466 0 0 1-.006-6.282A6.8 6.8 0 0 1 94.01 3a12.49 12.49 0 0 1 5.02-.9 13.845 13.845 0 0 1 3.946.514 8.5 8.5 0 0 1 2.856 1.391 5.972 5.972 0 0 1 1.7 2.038A5.517 5.517 0 0 1 108.1 8.5M90.154 1.133A17.918 17.918 0 0 0 86.564.3a33.062 33.062 0 0 0-1.427-.151A38.178 38.178 0 0 0 81.588 0c-1.3 0-2.489.047-3.576.151a23.224 23.224 0 0 0-2.755.381 14.085 14.085 0 0 0-2.675.794v1.815h6.611v11.334h4.8V3.141h6.6V1.31c-.137-.055-.285-.113-.441-.178m-45.47 13.342h3.113L54.9 2.449h-4.436L46.24 9.656l-4.232-7.207h-4.43L44.034 13.4z" style="fill:#e7290f"/>
            </g>
        </g>
    </g>
</svg>
