<svg xmlns="http://www.w3.org/2000/svg" width="400" height="100" viewBox="0 0 400 100">
    <defs>
        <clipPath id="p8lhlyu2oa">
            <path data-name="사각형 173" style="fill:none" d="M0 0h216.673v56.586H0z"/>
        </clipPath>
    </defs>
    <g data-name="그룹 7396">
        <g data-name="그룹 166">
            <g data-name="그룹 145" transform="translate(92 22)" style="clip-path:url(#p8lhlyu2oa)">
                <path data-name="패스 208" d="M163.844 58.895c-9.752 0-18.5-5.307-18.5-12.726s8.749-12.733 18.572-12.733a25.863 25.863 0 0 1 12.6 3.348l-3.057 3.764a22.8 22.8 0 0 0-9.54-2.058c-4.128 0-8.9 2.213-8.9 7.679s4.7 7.677 8.9 7.677a25.37 25.37 0 0 0 9.679-1.856l3.061 3.968a28.2 28.2 0 0 1-12.81 2.937" transform="translate(-61.632 -14.178)" style="fill:#1170b8"/>
                <path data-name="패스 209" d="M260.52 58.73c9.818 0 18.572-5.311 18.572-12.726S270.339 33.27 260.52 33.27 241.944 38.582 241.944 46s8.756 12.73 18.576 12.73M269.416 46c0 5.463-4.767 7.676-8.9 7.676s-8.9-2.213-8.9-7.676 4.764-7.682 8.9-7.682 8.9 2.215 8.9 7.682" transform="translate(-102.595 -14.108)" style="fill:#1170b8"/>
                <path data-name="패스 210" d="M313.307 57.85h9.176V42.694a4.559 4.559 0 0 1 4.628-4.47c2.073.017 4.063 1.375 4.063 3.1l-.017 16.527h9.194V40.856c0-4.476-5.009-8.212-10.982-8.212-.059 0-.118.005-.177.007s-.115-.007-.172-.007a13.082 13.082 0 0 0-6.726 1.846c-.018-.066-.532-1.69-8.986-1.69z" transform="translate(-132.856 -13.843)" style="fill:#1170b8"/>
                <path data-name="사각형 172" transform="translate(70.314 19.783)" style="fill:#1170b8" d="M0 0h8.987v24.225H0z"/>
                <path data-name="패스 211" d="M207.148 58.231h8.988V43.54c0-2.32 2.845-4.176 5.909-4.176a10.509 10.509 0 0 1 4.084.787V33.78a23.277 23.277 0 0 0-3.219-.238 14.041 14.041 0 0 0-6.8 1.793c-.149-.287-1.247-1.638-8.963-1.638z" transform="translate(-87.84 -14.224)" style="fill:#1170b8"/>
                <path data-name="패스 212" d="M99.4 2.569c-3.415-4.677-14.012-2.783-27.745 4.17a12.671 12.671 0 0 0-1.56.86c-.666.438-.278.763.213.592a18.015 18.015 0 0 0 1.716-.691c10.3-4.676 18.33-5.519 21.467-2.251 4.783 4.971-5.012 21.268-21.978 33.323-2.264 1.61-5.76 3.964-8.035 5.273a9.958 9.958 0 0 0-.454.275c-.6.375-1.138.724-1.558 1.039s-.331.794.409.491a13.642 13.642 0 0 0 1.583-.806c.131-.079.263-.147.4-.23 2.556-1.489 6.353-4 8.949-5.733q3.347-2.245 6.323-4.531v9.656h9.2V26.375C98.465 16.361 102.663 7.052 99.4 2.569" transform="translate(-25.96)" style="fill:#1170b8"/>
                <path data-name="패스 213" d="M17.2 63.8h9.2v-9.141a143.859 143.859 0 0 0 7.565-4.619 13.955 13.955 0 0 0 1.423-1.056c.595-.524.166-.79-.3-.558s-1.033.563-1.637.931C19.242 58.065 9.645 60.723 6.1 56.115c-3.077-4 1.97-11.74 11.1-20.474v20.275a58.706 58.706 0 0 0 9.2-4.074V33.028l2.022 4.124a12.508 12.508 0 0 0 22.727 0l2.024-4.124v4.8a63.246 63.246 0 0 0 8.236-9.069.919.919 0 0 0 .1-1.011 9.005 9.005 0 0 0-15.878-.072L41.777 35.5a2.264 2.264 0 0 1-3.981 0l-3.851-7.824a8.65 8.65 0 0 0-3.271-3.445 80.457 80.457 0 0 1 8.246-5.619 17.14 17.14 0 0 0 1.54-1.027c.416-.3.342-.789-.4-.491a13.48 13.48 0 0 0-1.622.8c-2.752 1.6-5.565 3.235-8.259 5-.327.211-.65.427-.973.643a9.109 9.109 0 0 0-3.187-.574 8.628 8.628 0 0 0-8.819 8.443v1.162C4.2 43.673-2.627 54.668.942 59.562c2.618 3.591 8.824 2.76 16.256-.331z" transform="translate(0 -7.21)" style="fill:#1170b8"/>
                <path data-name="패스 214" d="M369.321 34.733h.481c.323 0 .6-.042.6-.42 0-.33-.315-.386-.6-.386h-.488zm-.547-1.207h1.093c.7 0 1.087.234 1.087.827 0 .481-.287.717-.769.76l.789 1.233h-.562l-.762-1.214h-.329v1.214h-.547zm2.963 1.419a1.964 1.964 0 1 0-1.963 2.007 1.948 1.948 0 0 0 1.963-2.007m-4.562 0a2.6 2.6 0 1 1 2.6 2.489 2.55 2.55 0 0 1-2.6-2.489" transform="translate(-155.698 -13.764)" style="fill:#1170b8"/>
            </g>
        </g>
        <path data-name="사각형 199" style="fill:none" d="M0 0h400v100H0z"/>
    </g>
</svg>
