<svg xmlns="http://www.w3.org/2000/svg" width="144" height="40" viewBox="0 0 144 40">
    <defs>
        <clipPath id="y3o3zzmcna">
            <path data-name="사각형 178" style="fill:none" d="M0 0h113.565v14.48H0z"/>
        </clipPath>
    </defs>
    <g data-name="그룹 7379">
        <g data-name="그룹 7377">
            <path data-name="사각형 2996" style="fill:none" d="M0 0h144v40H0z"/>
            <g data-name="그룹 7368">
                <g data-name="그룹 154" transform="translate(15.289 13.056)" style="clip-path:url(#y3o3zzmcna)">
                    <path data-name="패스 230" d="M199.248 7.042a4.1 4.1 0 0 1 3.3-6.629h7.5l-.685 1.805h-6.069a1.26 1.26 0 0 0-1.027 1.961c.934 1.4 2.521 2.4 3.548 3.828a4.1 4.1 0 0 1-3.268 6.6H194.3l.685-1.805h6.5a1.262 1.262 0 0 0 1.027-1.93 31.3 31.3 0 0 0-3.268-3.828" transform="translate(-133.829 -.284)" style="fill:#737272"/>
                    <path data-name="패스 231" d="M57.888 14.6H53.5L58.853.413h4.388z" transform="translate(-36.85 -.284)" style="fill:#d71f27"/>
                    <path data-name="패스 232" d="M176.708 14.6H172.6L177.953.413h4.108z" transform="translate(-118.883 -.284)" style="fill:#737272"/>
                    <path data-name="패스 233" d="M240.939 14.6H236.8L242.153.413h4.139z" transform="translate(-163.102 -.284)" style="fill:#737272"/>
                    <path data-name="패스 234" d="M265.133 4.424A7.848 7.848 0 0 1 272.354 0h2.552a3.688 3.688 0 0 1 3.548 3.268 3.061 3.061 0 0 1-.031.934 3.88 3.88 0 0 1-.125.5 22.8 22.8 0 0 1-2.023 5.353 7.848 7.848 0 0 1-7.22 4.419H266.5a3.688 3.688 0 0 1-3.548-3.268 3.019 3.019 0 0 1 .031-.934 3.86 3.86 0 0 1 .124-.5 25.261 25.261 0 0 1 2.023-5.353m7.781-2.957a3.562 3.562 0 0 0-3.33 2.272l-2.708 7.22a1.628 1.628 0 0 0-.093.56 1.491 1.491 0 0 0 1.4 1.463h.4a3.562 3.562 0 0 0 3.33-2.272l2.677-7.22a1.627 1.627 0 0 0 .093-.56 1.488 1.488 0 0 0-1.369-1.463z" transform="translate(-181.103)" style="fill:#737272"/>
                    <path data-name="패스 235" d="M7.625 5.891h5.2L14.876.444h4.357l-5.01 13.289a1.446 1.446 0 0 1-1.276.871H9.523l2.552-6.784H6.909L4.357 14.6H0L5.353.413H9.71z" transform="translate(0 -.284)" style="fill:#d71f27"/>
                    <path data-name="패스 236" d="m84.718 5.735 7.1-5.322h3.268L87.8 5.859l4.606 8.714h-3.673a1.413 1.413 0 0 1-1.338-.747L84.5 8.349l-1.089.809-2.054 5.442H77L82.353.413h4.357z" transform="translate(-53.036 -.284)" style="fill:#d71f27"/>
                    <path data-name="패스 237" d="m144.317 10.085 6.692-9.741h2.4l-9.337 13.569a1.305 1.305 0 0 1-1.089.591h-2.428L139.4.313h4.108z" transform="translate(-96.015 -.215)" style="fill:#737272"/>
                    <path data-name="패스 238" d="M313.92 5.019v-.187l-3.7 9.772h-2.12L313.484.413h2.676L320.02 10l3.641-9.587h2.116L320.393 14.6h-1.93a1.4 1.4 0 0 1-1.183-.809z" transform="translate(-212.212 -.284)" style="fill:#737272"/>
                </g>
            </g>
        </g>
    </g>
</svg>
