<svg xmlns="http://www.w3.org/2000/svg" width="400" height="100" viewBox="0 0 400 100">
    <defs>
        <clipPath id="fyng5jv2wa">
            <path data-name="사각형 176" style="fill:none" d="M0 0h226.75v46.326H0z"/>
        </clipPath>
    </defs>
    <g data-name="그룹 7398">
        <g data-name="그룹 165">
            <path data-name="패스 216" d="m141.759 28.719 1.971 5.794h5.294v20.656h7.224V34.512h5.295l1.97-5.794z" transform="translate(21.4 13.71)" style="fill:#231815"/>
            <path data-name="사각형 175" transform="translate(184.781 54.702)" style="fill:#231815" d="M0 0h13.028v4.954H0z"/>
            <path data-name="패스 217" d="M234.72 38.324h-10.355v-9.6H217.1V55.17h7.267V43.849h10.353V55.17h7.264V28.72h-7.264z" transform="translate(-13.464 13.71)" style="fill:#231815"/>
            <path data-name="패스 218" d="M281.635 44.46h12.075v-5.526h-12.075v-4.46h13.206v-5.755H274.37v26.45H295v-5.716h-13.365z" transform="translate(-39.967 13.71)" style="fill:#231815"/>
            <path data-name="패스 219" d="m327.719 28.72-9.895 26.45h6.968l2.119-6.1h10.471l2.08 6.1h7.123l-9.818-26.45zm1.041 14.94 3.194-9.186h.461l3.12 9.186z" transform="translate(-60.076 13.709)" style="fill:#231815"/>
            <g data-name="그룹 150">
                <g data-name="그룹 149" style="clip-path:url(#fyng5jv2wa)" transform="translate(87 27)">
                    <path data-name="패스 220" d="M386.691 28.72h-10.48v26.449h10.48c8.6 0 14.154-3.011 14.154-13.224 0-11.015-5.554-13.225-14.154-13.225m.376 20.77h-2.8V34.284h2.8c4.968 0 7.057 1.448 7.057 7.661 0 5.869-1.964 7.545-7.057 7.545" transform="translate(-174.095 -13.29)" style="fill:#231815"/>
                    <path data-name="패스 221" d="M57.674 21.073a5.392 5.392 0 0 0-.5-.1c-2.154-.334-16.888-2.241-19.523 6.992h27.238s0-5.082-7.215-6.893" transform="translate(-17.425 -9.526)" style="fill:#231815"/>
                    <path data-name="패스 222" d="m47.64 41.692 2.949-2.945-9.53.68z" transform="translate(-19.001 -17.93)" style="fill:#231815"/>
                    <path data-name="패스 223" d="M35 0a40.538 40.538 0 0 0-10.774 1.488c-7.967 2.2-14.81 6.565-19.271 12.29C.558 19.425-.984 25.717.616 31.495c2.253 8.134 10.3 13.562 20.332 14.831a21.586 21.586 0 0 0 2.334-10.454s.559-4.607-6.709-2.792l-5.032-3.91-1.956-6.561s4.753-2.233 7.129-4.747c0 0 2.134-9.313 17.211-9.313s15.357 5.544 16.754 9.733c1.154 3.455 1.586 9.149 4.063 15.57 4.808-5.625 6.935-12.379 5.175-18.736C57.331 5.774 47.1 0 35 0" style="fill:#231815"/>
                </g>
            </g>
        </g>
        <path data-name="사각형 198" style="fill:none" d="M0 0h400v100H0z"/>
    </g>
</svg>
