<svg xmlns="http://www.w3.org/2000/svg" width="144" height="40" viewBox="0 0 144 40">
    <defs>
        <clipPath id="yjes62dxha">
            <path data-name="사각형 177" style="fill:none" d="M0 0h91.764v32.367H0z"/>
        </clipPath>
    </defs>
    <g data-name="그룹 7375">
        <path data-name="사각형 2994" style="fill:none" d="M0 0h144v40H0z"/>
        <g data-name="그룹 7364">
            <g data-name="그룹 152" transform="translate(26 4)" style="clip-path:url(#yjes62dxha)">
                <path data-name="패스 224" d="m109.538 66.78-5.609-1.026v-.7h-1.508v.7l-5.547 1.026v1.25l6.272-1.16 6.391 1.16zm45.7-4.635v-1.528h-6.178v-1.3h2.958v-1.455h-2.958v-1.3h2.958v-.828h1.448v.828h3.474v1.3h-3.474v1.453h3.286v3.577l-2.507 1.616 2.695 1.737v1.726l-4.034-2.6-4.034 2.6v-1.726l2.694-1.737-2.507-1.616v-1.725l3.846 2.479zM103.96 55.6h-1.508v.552h-5.637v1.723h1.446V57.3h9.828v.574h1.511v-1.719h-5.64zm10.245.443H112.7v11.709h4.426a.7.7 0 0 0 .7-.7V56.046H114.2zm5.554 1.824-.271 6.031-.666 4.07h1.508L121 63.9l.154-3.437h3.042v6.218h-.73v1.288H125a.7.7 0 0 0 .7-.7v-8.025h-4.5l.062-1.374h4.616v-1.22H123.1v-.919h-1.5v.919h-3.061v1.22zm-3.444 2.969H114.2v-3.569h2.11zm-2.11 1.22h2.11v4.4H114.2zm30.641 5.912h1.537a.7.7 0 0 0 .7-.7v-3.9l1.145-.442v-1.454l-1.145.475v-2.9h1.176v-1.3h-1.176v-2.016h-1.508v2.013h-1.145v1.3h1.145v3.405l-1.145.445v1.48l1.145-.475v2.783h-.73zm-14.7 0 .195-6.738h-1.411l-.2 6.738zm5.354-7.633h1.6l1.742 2.947h-1.6zm0-3.67h1.6l1.742 2.947h-1.6zm-1.887 11.3h1.412l-.042-1.447c1.712-.324 3.03-.561 4.308-.8v2.252h1.446v-2.534c.251-.051.506-.1.766-.158v-1.387q-.366.077-.766.157v-8.111h-1.446v8.393c-1.358.259-2.865.535-4.348.815l-.113-3.912h-1.411zm1.381-9.03v1.327h-2.375v7.7h-1.449v-7.7h-2.46v-1.321h2.458v-1.75l-2.251.1v-1.262l5.9-.3v1.211l-2.2.131v1.87zm-35.7 6.969H97.78V64.4h-1.148l1.75-1.658h-1.659V61.6h2.925v-.575h-2.411v-1.087h2.411v-.574h-2.594v-1.086h2.593v-.509h1.508v.509h4.1v-.509h1.508v.509h2.593v1.086h-2.593v.574h2.411v1.083h-2.411v.579h2.895v1.148h-1.328l1.448 1.467h-1.147v1.7h-1.446V64.72h-7.9zm.18-2.4h7.719l-.785-.765h-6.09zm5.789-1.913v-.575h-4.1v.584zm0-1.658v-.574h-4.1v.574z" transform="translate(-65.176 -37.503)" style="fill-rule:evenodd"/>
                <path data-name="패스 225" d="m158.539 26.121 2.275-.5v1.3l-1.641.358a.709.709 0 0 0 .145 1.4h2.14a.2.2 0 0 0 .195-.195v-3.145a.709.709 0 0 0-.709-.709h-3.054v-1.211h3.3a1.921 1.921 0 0 1 1.921 1.921v3.507a1.044 1.044 0 0 1-1.044 1.044h-3a1.921 1.921 0 0 1-.526-3.768m17.659 3.766h-1.462v-6.47h1.462zm4.761 0h-1.383l-2.553-6.471h1.516l1.729 4.382 1.73-4.381h1.515zm7.842-2.7-2.574.563v-1.295l1.94-.424a.709.709 0 0 0-.145-1.4h-1.981a.709.709 0 0 0-.709.709v2.63a.709.709 0 0 0 .709.709h3.643v1.212H185.8a1.921 1.921 0 0 1-1.921-1.921v-2.63a1.921 1.921 0 0 1 1.921-1.921h2.482a1.921 1.921 0 0 1 .526 3.768m-15.092-2.241h-3.963v-2.57h4.028v-1.214h-4.759a.717.717 0 0 0-.716.716v8.009h1.448v-3.732h3.963zm2.489-3.61h-1.462v1.374h1.457zm-21.29 6.634a.709.709 0 0 0 .709.709h.827v1.212h-1.077a1.921 1.921 0 0 1-1.921-1.921V22.7l1.462-.469v1.188h1.968v1.211h-1.968zm10.543-2.63a.709.709 0 0 1 .709-.709h1.318v-1.214h-1.569a1.921 1.921 0 0 0-1.92 1.921v4.55h1.462zm-13.395-4.175H148.3a2.44 2.44 0 0 0-2.359 2.395 2.086 2.086 0 0 0 1.389 2.138l.02.007 2.94.844a.886.886 0 0 1 .667.881 1.236 1.236 0 0 1-1.185 1.2h-3.68v1.255h4.018a2.441 2.441 0 0 0 2.359-2.395 2.087 2.087 0 0 0-1.39-2.141l-.02-.006-2.94-.844a.886.886 0 0 1-.667-.881 1.236 1.236 0 0 1 1.185-1.2h3.42z" transform="translate(-98.433 -14.274)" style="fill-rule:evenodd"/>
                <path data-name="패스 226" d="M24.659 37.8c-1.59-.874-3.2-1.773-4.76-2.644-1.807-1.009-5.825-3.136-7.671-4.146l-.03-.017c-.1-.056-.04 3.44-.04 3.44.2.111 2.257 1.224 2.488 1.353 1.026.569 2.043 1.138 3.06 1.708 1.708.956 3.474 1.946 5.221 2.9a1.814 1.814 0 0 1 .033 3.385 511.493 511.493 0 0 0-4.065 2.263c-1.946 1.091-3.959 2.22-5.956 3.29a2.335 2.335 0 0 0-.85.693 1.414 1.414 0 0 0-.476-.5c-2.133-1.218-4.007-2.26-6.256-3.513L3.3 44.86V46.564c0 .493 0 .974.02 1.453a.789.789 0 0 0 .391.527c2.318 1.307 4.37 2.45 6.806 3.81l1.556.869.088.049s3.927-2.1 5.445-2.949q3.552-1.983 7.107-3.959a4.514 4.514 0 0 0 2.334-4.264v-.034a4.54 4.54 0 0 0-2.388-4.266" transform="translate(-2.221 -20.902)" style="fill-rule:evenodd"/>
                <path data-name="패스 227" d="M48.9 20.9c2.457 1.37 4.778 2.663 7.12 3.983a.78.78 0 0 1 .371.544c.022.712.02 1.437.017 2.2v1.017l-1.84-1.03a856.26 856.26 0 0 1-6.977-3.914.993.993 0 0 1-.418-.72 27.435 27.435 0 0 1-.024-1.262v-1.786z" transform="translate(-31.8 -13.441)" style="fill-rule:evenodd"/>
                <path data-name="패스 228" d="M2.388 15.471c1.59.874 3.2 1.773 4.759 2.644 1.807 1.009 5.826 3.136 7.672 4.146l.03.016c.1.056.039-3.439.039-3.439-.2-.111-2.256-1.224-2.488-1.353-1.025-.569-2.043-1.139-3.06-1.708-1.708-.956-3.474-1.946-5.221-2.9a1.813 1.813 0 0 1-.033-3.385c1.36-.745 2.735-1.516 4.066-2.262 1.947-1.091 3.959-2.22 5.957-3.29a2.337 2.337 0 0 0 .849-.693 1.41 1.41 0 0 0 .476.5c2.133 1.218 4.007 2.26 6.256 3.513l2.061 1.149V6.705c0-.493 0-.974-.02-1.453a.789.789 0 0 0-.391-.527c-2.319-1.307-4.37-2.45-6.807-3.81L14.982.049 14.894 0s-3.927 2.1-5.446 2.949Q5.9 4.932 2.341 6.908A4.513 4.513 0 0 0 0 11.171v.029a4.539 4.539 0 0 0 2.388 4.267" style="fill-rule:evenodd"/>
                <path data-name="패스 229" d="M8.165 60.45c-2.457-1.37-4.778-2.664-7.12-3.983a.779.779 0 0 1-.371-.544 63.503 63.503 0 0 1-.017-2.2V52.7l1.84 1.03c2.412 1.349 4.69 2.624 6.978 3.927a1 1 0 0 1 .418.72c.019.413.024.831.024 1.262v1.786z" transform="translate(-.442 -35.545)" style="fill-rule:evenodd"/>
            </g>
        </g>
    </g>
</svg>
