<svg xmlns="http://www.w3.org/2000/svg" width="119.999" height="40" viewBox="0 0 119.999 40">
    <defs>
        <clipPath id="1cyp70o23a">
            <path data-name="사각형 2" style="fill:#646464" d="M0 0h119.999v40H0z"/>
        </clipPath>
    </defs>
    <g data-name="그룹 7335">
        <g data-name="그룹 1" style="clip-path:url(#1cyp70o23a)">
            <path data-name="패스 1" d="M9.205 65.378a2.176 2.176 0 0 1-2.15-1.855 37.069 37.069 0 0 1-.264-6.823A25.219 25.219 0 0 1 .98 53.789a2.177 2.177 0 0 1 2.395-3.636 22.693 22.693 0 0 0 3.979 2.132 14.523 14.523 0 0 1 3.631-7.379 8.888 8.888 0 0 1 2.715-1.821 6.4 6.4 0 0 1 6.662.862 6.493 6.493 0 0 1 2.438 4.069 6.913 6.913 0 0 1-1.614 5.3A11.48 11.48 0 0 1 11.1 57.567a31.774 31.774 0 0 0 .257 5.315 2.178 2.178 0 0 1-1.834 2.472 2.252 2.252 0 0 1-.323.024m2.379-12.111a7.96 7.96 0 0 0 6.129-2.586c1.7-2.048-.014-3.287-.014-3.287-.4-.315-1.854-1.206-3.611.564l-.03.03a10.332 10.332 0 0 0-2.473 5.279" transform="translate(0 -25.378)" style="fill:#646464"/>
            <path data-name="패스 2" d="M60.183.873v14.111h11.2v-3.306h-7.329V9.42H70.7V6.336h-6.646V4.179h7.329V.873z" transform="translate(-35.919 -.521)" style="fill:#646464"/>
            <path data-name="패스 3" d="M156.207 43.666v14.112h3.871v-5.2h6.415v-3.085h-6.415v-2.521h7.215v-3.306z" transform="translate(-93.229 -26.061)" style="fill:#646464"/>
            <path data-name="사각형 1" transform="translate(79.599 .352)" style="fill:#646464" d="M0 0h3.871v14.112H0z"/>
            <path data-name="패스 4" d="m271.22 43.666-3.286 5.287-3.286-5.287h-4.214v14.112h3.871v-7.914l3.629 5.334 3.629-5.333v7.913h3.871V43.666z" transform="translate(-155.434 -26.061)" style="fill:#646464"/>
            <path data-name="패스 5" d="M122.733 46.973h4.129v10.805h3.871V46.973h4.129v-3.306h-12.129z" transform="translate(-73.25 -26.062)" style="fill:#646464"/>
            <path data-name="패스 6" d="M94.462 43.417 88.8 57.63h4.09l1.013-2.54h5.555l1.012 2.54h4.093L98.9 43.417zm.67 8.583 1.548-3.884L98.228 52z" transform="translate(-52.996 -25.913)" style="fill:#646464"/>
            <path data-name="패스 7" d="M214.288 14.984h3.871V4.179h4.129V.873h-12.129v3.306h4.129z" transform="translate(-125.429 -.521)" style="fill:#646464"/>
            <path data-name="패스 8" d="M246.7 9.7v5.282h3.871V9.7l5.4-8.829h-4.26L248.638 5.9 245.561.873H241.3l5.4 8.827z" transform="translate(-144.015 -.521)" style="fill:#646464"/>
            <path data-name="패스 9" d="M65.056 43.667h-3.871v14.112H71.7v-3.306h-6.644z" transform="translate(-36.517 -26.062)" style="fill:#646464"/>
            <path data-name="패스 10" d="M192.88 42.966a7.338 7.338 0 1 0 7.338 7.339 7.338 7.338 0 0 0-7.338-7.339m0 11.149a3.81 3.81 0 1 1 3.81-3.81 3.81 3.81 0 0 1-3.81 3.81" transform="translate(-110.736 -25.643)" style="fill:#646464"/>
            <path data-name="패스 11" d="M97.388 14.913a7.331 7.331 0 0 0 6.085-3.235L100.608 9.6a3.8 3.8 0 0 1-3.22 1.78 3.622 3.622 0 0 1-3.582-3.81 3.622 3.622 0 0 1 3.582-3.81 3.8 3.8 0 0 1 3.084 1.579l2.856-2.066a7.335 7.335 0 1 0-5.94 11.635" transform="translate(-53.744 -.141)" style="fill:#646464"/>
            <path data-name="패스 12" d="M139.189.823h-3.871V9a2.691 2.691 0 0 1-5.382 0V.823h-3.871v7.832a6.562 6.562 0 1 0 13.124 0z" transform="translate(-75.239 -.491)" style="fill:#646464"/>
            <path data-name="패스 13" d="M166.953 10.711h1.463l2.925 4.274h4.381l-3.261-4.765a4.916 4.916 0 0 0-2.132-9.347h-7.247v14.112h3.871zm0-6.532h2.661a1.734 1.734 0 1 1 0 3.468h-2.661z" transform="translate(-97.332 -.521)" style="fill:#646464"/>
            <path data-name="패스 14" d="M238.1 48.586a4.919 4.919 0 0 0-4.919-4.919h-7.247v14.112h3.871V53.5h1.463l2.925 4.274h4.381l-3.261-4.765a4.914 4.914 0 0 0 2.788-4.428m-8.3-1.613h2.661a1.734 1.734 0 1 1 0 3.468h-2.661z" transform="translate(-134.846 -26.062)" style="fill:#646464"/>
            <path data-name="패스 15" d="M32.713 11.723h-.005c-1.761 0-3.684-1.291-4.945-2.3l-2.252 2.936a11.6 11.6 0 0 0 7.422 2.767h.008c2.168 0 5.318-1.1 5.318-4.766 0-1.859-1.269-4-5.748-4.7-1.236-.2-2.283-.659-2.07-1.372.161-1.143 2.085-.8 2.085-.8a8.688 8.688 0 0 1 3.758 1.552l2.028-3.022A11.734 11.734 0 0 0 33.606.139c-5.085-.854-6.513 2.509-6.513 2.509a4.661 4.661 0 0 0 0 4c.815 1.421 1.945 2.114 4.944 2.6 2.607.423 2.367 1.436 2.367 1.436s-.02 1-1.693 1.036" transform="translate(-15.226)" style="fill:#646464"/>
        </g>
    </g>
</svg>
