<svg xmlns="http://www.w3.org/2000/svg" width="1280" height="369" viewBox="0 0 1280 369">
    <g data-name="그룹 7869" transform="translate(-320 -5937)">
        <rect data-name="사각형 3294" width="620" height="48" rx="24" transform="translate(320 6257)" style="fill:#00c8b4"/>
        <rect data-name="사각형 3295" width="290" height="48" rx="24" transform="translate(980 6258)" style="fill:#00c8b4"/>
        <rect data-name="사각형 3296" width="290" height="48" rx="24" transform="translate(1310 6258)" style="fill:#00c8b4"/>
        <text data-name="Secure Device" transform="translate(630 6288)" font-family="Inter, sans-serif" font-weight="700" style="font-size:20px;fill:#fff"><tspan x="-70.27" y="0">Secure Device</tspan></text>
        <text data-name="Secure Communications" transform="translate(1125 6289)" font-family="Inter, sans-serif" style="font-weight:700;font-size:20px;fill:#fff"><tspan x="-120.05" y="0">Secure Communications</tspan></text>
        <text data-name="Secure Service" transform="translate(1455 6289)" font-family="Inter, sans-serif" style="font-weight:700;font-size:20px;fill:#fff"><tspan x="-73.956" y="0">Secure Service</tspan></text>
        <text data-name="Device(s)" transform="translate(465 6212)" font-family="Inter, sans-serif" style="font-weight:700;font-size:20px;fill:#00c8b4"><tspan x="-47.326" y="0">Device(s)</tspan></text>
        <text transform="translate(795 6212)" font-family="Inter, sans-serif" style="font-weight:700;font-size:20px;fill:#00c8b4"><tspan x="-43.136" y="0">Gateway</tspan></text>
        <text transform="translate(960 6108)" font-family="Inter, sans-serif" style="font-weight:500;font-size:20px;fill:#00c8b4"><tspan x="-55.078" y="0">Connection</tspan></text>
        <text transform="translate(1125 6212)" font-family="Inter, sans-serif" style="font-weight:700;font-size:20px;fill:#00c8b4"><tspan x="-28.949" y="0">Cloud</tspan></text>
        <text data-name="Analytics, Platform" transform="translate(1122 6023)" font-family="Inter, sans-serif"   style="fill:#646464;font-size:16px;font-weight:500"><tspan x="-71.952" y="0">Analytics, Platform</tspan></text>
        <text data-name="CRM, ERP, SCM, PLM" transform="translate(1458 6023)" font-family="Inter, sans-serif"  style="fill:#646464;font-size:16px;font-weight:500"><tspan x="-81.014" y="0">CRM, ERP, SCM, PLM</tspan></text>
        <text transform="translate(1455 6212)" font-family="Inter, sans-serif" style="font-weight:700;font-size:20px;fill:#00c8b4"><tspan x="-61.822" y="0">Applications</tspan></text>
        <path data-name="패스 15837" d="M81.33 53H87a8.024 8.024 0 0 1 8 8v8a8.024 8.024 0 0 1-8 8h-5.67" transform="translate(344 6043)" style="stroke-width:6px;stroke-linecap:round;stroke-linejoin:round;stroke:#00148c;fill:none"/>
        <path data-name="패스 15838" d="M49.364 55A7.755 7.755 0 0 0 43 58.223 7.753 7.753 0 0 0 36.637 55 7.428 7.428 0 0 0 29 62.2C29 69.376 43 79 43 79s14-9.624 14-16.8a7.428 7.428 0 0 0-7.636-7.2z" transform="translate(344 6043)" style="stroke:#00c8b4;stroke-width:6px;stroke-linecap:round;stroke-linejoin:round;fill:none"/>
        <circle data-name="타원 122" cx="40" cy="40" r="40" transform="translate(347 6068)" style="stroke-width:6px;stroke-linecap:round;stroke-linejoin:round;stroke:#00148c;fill:none"/>
        <path data-name="선 4823" transform="translate(359 6062)" style="stroke-width:6px;stroke-linecap:round;stroke-linejoin:round;stroke:#00148c;fill:none" d="M4 0 0 17.438"/>
        <path data-name="선 4824" transform="translate(411 6062)" style="stroke-width:6px;stroke-linecap:round;stroke-linejoin:round;stroke:#00148c;fill:none" d="M4 17.438 0 0"/>
        <path data-name="선 4825" transform="translate(411 6136.562)" style="stroke-width:6px;stroke-linecap:round;stroke-linejoin:round;stroke:#00148c;fill:none" d="M0 17.438 4 0"/>
        <path data-name="선 4826" transform="translate(359 6136.562)" style="stroke-width:6px;stroke-linecap:round;stroke-linejoin:round;stroke:#00148c;fill:none" d="m0 0 4 17.438"/>
        <path data-name="사각형 3342" transform="translate(369 6160)" style="stroke:#00c8b4;stroke-width:6px;stroke-linecap:round;stroke-linejoin:round;fill:none" d="M0 0h36v10H0z"/>
        <path data-name="사각형 3343" transform="translate(369 6046)" style="stroke:#00c8b4;stroke-width:6px;stroke-linecap:round;stroke-linejoin:round;fill:none" d="M0 0h36v10H0z"/>
        <path data-name="사각형 3344" transform="translate(344 6043)" style="fill:none" d="M0 0h98v130H0z"/>
        <path data-name="선 4827" transform="translate(527 6072)" style="stroke:#00c8b4;stroke-width:6px;stroke-linecap:round;stroke-linejoin:round;fill:none" d="M0 0h32"/>
        <path data-name="패스 15842" d="M67 67v44a4.012 4.012 0 0 1-4 4H7a4.012 4.012 0 0 1-4-4V7a4.012 4.012 0 0 1 4-4h56a4.012 4.012 0 0 1 4 4v44" transform="translate(508 6055)" style="stroke-width:6px;stroke-linecap:round;stroke-linejoin:round;stroke:#00148c;fill:none"/>
        <path data-name="패스 15843" d="M91 67H51a8 8 0 0 1 0-16h40a8 8 0 0 1 0 16z" transform="translate(508 6055)" style="stroke-width:6px;stroke-linecap:round;stroke-linejoin:round;stroke:#00148c;fill:none"/>
        <circle data-name="타원 125" cx="8" cy="8" r="8" transform="translate(535 6142)" style="stroke:#00c8b4;stroke-width:6px;stroke-linecap:round;stroke-linejoin:round;fill:none"/>
        <path data-name="사각형 3347" transform="translate(508 6055)" style="fill:none" d="M0 0h102v118H0z"/>
        <path data-name="선 4828" transform="translate(509 5976)" style="stroke-width:9.993px;stroke:#00c8b4;stroke-linecap:round;stroke-linejoin:round;fill:none" d="M0 0h0"/>
        <path data-name="패스 15844" d="M15 25v24a48 48 0 0 0 96 0V25" transform="translate(412 5937)" style="stroke-width:6px;stroke-linecap:round;stroke-linejoin:round;stroke:#00148c;fill:none"/>
        <rect data-name="사각형 3348" width="120" height="22" rx="4" transform="translate(415 5940)" style="stroke-width:6px;stroke-linecap:round;stroke-linejoin:round;stroke:#00148c;fill:none"/>
        <path data-name="패스 15845" d="M35.571 88.382V74.668a27.429 27.429 0 1 1 54.857 0v13.714" transform="translate(412 5937)" style="stroke-width:6px;stroke-linecap:round;stroke-linejoin:round;stroke:#00148c;fill:none"/>
        <path data-name="패스 15846" d="M73.971 73.82A10.972 10.972 0 1 1 63 62.849 10.971 10.971 0 0 1 73.971 73.82z" transform="translate(412 5937)" style="stroke:#00c8b4;stroke-width:6px;stroke-linecap:round;stroke-linejoin:round;fill:none"/>
        <path data-name="사각형 3349" transform="translate(412 5937)" style="fill:none" d="M0 0h126v100H0z"/>
        <path data-name="선 4829" transform="translate(812.837 6145.86)" style="stroke-width:5.996px;stroke:#00c8b4;stroke-linecap:round;stroke-linejoin:round;fill:none" d="M0 0h31.954"/>
        <path data-name="패스 15847" d="M20.194 30.86a10.7 10.7 0 0 1 17.333 0" transform="translate(726 6059)" style="stroke-width:5.72px;stroke:#00c8b4;stroke-linecap:round;stroke-linejoin:round;fill:none"/>
        <path data-name="패스 15848" d="M11.527 23.5a21.707 21.707 0 0 1 17.333-8.854A21.71 21.71 0 0 1 46.194 23.5" transform="translate(726 6059)" style="stroke-width:5.72px;stroke:#00c8b4;stroke-linecap:round;stroke-linejoin:round;fill:none"/>
        <path data-name="패스 15849" d="M2.86 16.143a32.564 32.564 0 0 1 26-13.283 32.564 32.564 0 0 1 26 13.283" transform="translate(726 6059)" style="stroke-width:5.72px;stroke:#00c8b4;stroke-linecap:round;stroke-linejoin:round;fill:none"/>
        <path data-name="패스 15850" d="M100.193 30.86a10.7 10.7 0 0 1 17.333 0" transform="translate(726 6059)" style="stroke-width:5.72px;stroke:#00c8b4;stroke-linecap:round;stroke-linejoin:round;fill:none"/>
        <path data-name="패스 15851" d="M91.527 23.5a21.393 21.393 0 0 1 34.667 0" transform="translate(726 6059)" style="stroke-width:5.72px;stroke:#00c8b4;stroke-linecap:round;stroke-linejoin:round;fill:none"/>
        <path data-name="패스 15852" d="M82.86 16.143a32.088 32.088 0 0 1 52 0" transform="translate(726 6059)" style="stroke-width:5.72px;stroke:#00c8b4;stroke-linecap:round;stroke-linejoin:round;fill:none"/>
        <rect data-name="사각형 3350" width="128" height="36" rx="4" transform="translate(730.86 6133.86)" style="stroke-width:6px;stroke-linecap:round;stroke-linejoin:round;stroke:#00148c;fill:none"/>
        <path data-name="선 4830" transform="translate(744.927 6151.86)" style="stroke-width:9.993px;stroke:#00c8b4;stroke-linecap:round;stroke-linejoin:round;fill:none" d="M0 0h0"/>
        <path data-name="선 4831" transform="translate(760.904 6151.86)" style="stroke-width:9.993px;stroke:#00c8b4;stroke-linecap:round;stroke-linejoin:round;fill:none" d="M0 0h0"/>
        <path data-name="선 4832" transform="translate(776.88 6151.86)" style="stroke-width:9.993px;stroke:#00c8b4;stroke-linecap:round;stroke-linejoin:round;fill:none" d="M0 0h0"/>
        <path data-name="선 4833" transform="translate(812.837 6157.86)" style="stroke-width:5.996px;stroke:#00c8b4;stroke-linecap:round;stroke-linejoin:round;fill:none" d="M0 0h31.954"/>
        <path data-name="패스 15853" d="M24.86 74.86v-28a4 4 0 0 1 8 0v28" transform="translate(726 6059)" style="stroke-width:6px;stroke-linecap:round;stroke-linejoin:round;stroke:#00148c;fill:none"/>
        <path data-name="패스 15854" d="M104.86 74.86v-28a4 4 0 0 1 8 0v28" transform="translate(726 6059)" style="stroke-width:6px;stroke-linecap:round;stroke-linejoin:round;stroke:#00148c;fill:none"/>
        <path data-name="사각형 3351" transform="translate(726 6059)" style="fill:none" d="M0 0h137.72v113.86H0z"/>
        <path data-name="패스 15855" d="M107.5 25.239a47.987 47.987 0 0 0-88.338 21.978A31.985 31.985 0 0 0 35 107h104a24 24 0 0 0 9.749-45.937" transform="translate(1042 6063)" style="stroke-width:6px;stroke-linecap:round;stroke-linejoin:round;stroke:#00148c;fill:none"/>
        <path data-name="패스 15856" d="M104.515 29.52a25.775 25.775 0 0 1 36.451 36.451" transform="translate(1042 6063)" style="stroke-width:6.444px;stroke:#00c8b4;stroke-linecap:round;stroke-linejoin:round;fill:none"/>
        <path data-name="사각형 3352" transform="translate(1042 6063)" style="fill:none" d="M0 0h166v110H0z"/>
        <circle data-name="타원 126" cx="24" cy="24" r="24" transform="translate(1399 6122)" style="stroke:#00c8b4;stroke-width:6px;stroke-linecap:round;stroke-linejoin:round;fill:none"/>
        <path data-name="사각형 3353" transform="translate(1465 6126)" style="stroke-width:6px;stroke-linecap:round;stroke-linejoin:round;stroke:#00148c;fill:none" d="M0 0h40v40H0z"/>
        <path data-name="패스 15857" d="M27 7 3 47h48z" transform="translate(1396 6057)" style="stroke-width:6px;stroke-linecap:round;stroke-linejoin:round;stroke:#00148c;fill:none"/>
        <path data-name="패스 15858" d="M89 42.8 72.931 51 76 33.634l-13-12.3L80.966 18.8 89 3l8.034 15.8L115 21.335l-13 12.3L105.069 51z" transform="translate(1396 6057)" style="stroke:#00c8b4;stroke-width:6px;stroke-linecap:round;stroke-linejoin:round;fill:none"/>
        <path data-name="사각형 3354" transform="translate(1396 6057)" style="fill:none" d="M0 0h118v116H0z"/>
        <path data-name="패스 15859" d="M1.207 16.354h79l-16-16" transform="translate(627 6133.153)" style="stroke-miterlimit:10;stroke:#00c8b4;fill:none"/>
        <path data-name="패스 15860" d="M80.207 23.354h-79l16 16" transform="translate(627 6133.153)" style="stroke-miterlimit:10;stroke:#00c8b4;fill:none"/>
        <path data-name="사각형 3355" transform="translate(627 6133.153)" style="fill:none" d="M0 0h81.414v39.707H0z"/>
        <path data-name="패스 15859" d="M1.207 16.354h79l-16-16" transform="translate(919 6133.153)" style="stroke-miterlimit:10;stroke:#00c8b4;fill:none"/>
        <path data-name="패스 15860" d="M80.207 23.354h-79l16 16" transform="translate(919 6133.153)" style="stroke-miterlimit:10;stroke:#00c8b4;fill:none"/>
        <path data-name="사각형 3355" transform="translate(919 6133.153)" style="fill:none" d="M0 0h81.414v39.707H0z"/>
        <path data-name="패스 15859" d="M1.207 16.354h79l-16-16" transform="translate(1261 6133.153)" style="stroke-miterlimit:10;stroke:#00c8b4;fill:none"/>
        <path data-name="패스 15860" d="M80.207 23.354h-79l16 16" transform="translate(1261 6133.153)" style="stroke-miterlimit:10;stroke:#00c8b4;fill:none"/>
        <path data-name="사각형 3355" transform="translate(1261 6133.153)" style="fill:none" d="M0 0h81.414v39.707H0z"/>
    </g>
</svg>
