<svg height="512pt" viewBox="-42 0 512 512.00112" width="512pt" xmlns="http://www.w3.org/2000/svg"><path d="m28.351562 454.359375-16.460937 19.558594c-6.664063 7.914062-5.648437 19.734375 2.265625 26.394531 7.921875 6.671875 19.742188 5.640625 26.398438-2.265625l17.695312-21.023437zm0 0" fill="#ffcdbf"/><path d="m28.351562 454.359375-16.460937 19.558594c-6.664063 7.914062-5.648437 19.734375 2.265625 26.394531 1.480469 1.246094 3.097656 2.222656 4.792969 2.9375l28.761719-34.21875zm0 0" fill="#ffbeab"/><path d="m277.21875 245.917969h38.335938c-.023438-.382813-.042969-.765625-.042969-1.152344v-.03125c.144531-25.628906-1.851563-51.898437-4.433594-72.316406l-22.144531 25.308593c-3.164063 3.617188-7.582032 5.851563-12.324219 6.304688.945313 12.273438 1.515625 27.324219 1.4375 40.703125zm0 0" fill="#ff6b6b"/><path d="m277.21875 245.917969h24.1875c-.253906-20.125-1.050781-40.9375-2.234375-59.890625l-10.238281 11.699218c-3.164063 3.617188-7.582032 5.851563-12.324219 6.304688.945313 12.273438 1.515625 27.324219 1.4375 40.703125zm0 0" fill="#ee5253"/><path d="m384.445312 494.65625c3.347657 6.402344 9.867188 10.0625 16.621094 10.0625 2.921875 0 5.890625-.6875 8.660156-2.132812 9.167969-4.792969 12.71875-16.113282 7.925782-25.28125l-10.214844-19.554688-32.945312 17.863281zm0 0" fill="#ffcdbf"/><path d="m401.066406 504.71875c2.921875 0 5.890625-.6875 8.660156-2.132812.726563-.378907 1.402344-.816407 2.058594-1.269532l-18.917968-35.664062-18.371094 9.964844 9.953125 19.042968c3.34375 6.398438 9.863281 10.058594 16.617187 10.058594zm0 0" fill="#ffbeab"/><path d="m347.144531 342.390625-30.679687-91.664063c-.644532-1.917968-.960938-3.933593-.953125-5.960937v-.03125h-37.460938l-46.535156 66.226563 29.464844 9.355468c2.585937.824219 5.035156 1.996094 7.285156 3.457032l22.496094-31.789063 21.324219 63.710937c.316406.941407.703124 1.855469 1.164062 2.734376l62.082031 118.792968 33.160157-17.453125zm0 0" fill="#313f4c"/><path d="m393.835938 467.484375-58.796876-110.832031c-2.507812-4.726563-4.617187-9.65625-6.308593-14.730469l-14.25-42.816406c-2.035157-6.117188-8.242188-9.824219-14.59375-8.714844l-9.125 1.59375 21.324219 63.710937c.316406.941407.703124 1.855469 1.164062 2.730469l62.082031 118.796875zm0 0" fill="#28353f"/><path d="m278.050781 244.734375-46.535156 66.226563 21.046875 6.683593 48.175781-70.75c.433594-.636719.660157-1.390625.652344-2.160156zm0 0" fill="#28353f"/><path d="m248.265625 169.65625 11.625-19.683594 8.730469-3.253906c.929687 4.941406 1.929687 10.65625 2.917968 16.988281l37.121094-42.425781h.027344v.003906c4.199219-4.710937 10.667969-7.203125 17.328125-5.992187l78.382813 14.246093c1.828124.332032 3.539062.925782 5.117187 1.722657-.035156-.015625-.066406-.039063-.101563-.054688l-73.847656-36.855469c-9.167968-4.574218-19.9375-5.144531-29.539062-1.5625l-59.34375 22.121094c-7.9375 2.960938-14.683594 8.609375-18.992188 15.902344l-22.945312 38.84375zm0 0" fill="#ff6b6b"/><path d="m275.980469 103.988281-29.296875 10.921875c-7.9375 2.960938-14.683594 8.605469-18.992188 15.902344l-22.945312 38.84375h43.519531l11.625-19.683594 8.730469-3.253906c.929687 4.941406 1.925781 10.65625 2.914062 16.988281l23.335938-26.664062c-4.480469-22.390625-12.128906-30.59375-18.890625-33.054688zm0 0" fill="#ee5253"/><path d="m204.292969 465.082031-33.5-11.589843-9.613281 25.742187c-3.644532 9.769531 1.316406 20.640625 11.082031 24.289063 2.175781.8125 4.40625 1.199218 6.601562 1.199218 7.652344 0 14.851563-4.6875 17.6875-12.28125l1.597657-4.285156c-.355469-2.855469-.078126-5.832031.964843-8.726562zm0 0" fill="#ffcdbf"/><path d="m174.773438 504.25 16.328124-43.730469-20.308593-7.027343-9.613281 25.742187c-3.644532 9.769531 1.316406 20.640625 11.082031 24.289063.832031.308593 1.671875.539062 2.511719.726562zm0 0" fill="#ffbeab"/><path d="m203.925781 466.097656 41.304688-114.460937-32.546875-10.339844-42.269532 113.207031zm0 0" fill="#313f4c"/><path d="m233.183594 347.808594-20.5-6.511719-42.269532 113.207031 20.308594 7.027344zm0 0" fill="#28353f"/><path d="m206.054688 456.792969-8.238282 22.828125c-3.511718 9.734375 1.53125 20.46875 11.261719 23.984375 2.101563.757812 4.25 1.113281 6.359375 1.113281 7.671875 0 14.867188-4.746094 17.621094-12.378906l9.183594-25.4375zm0 0" fill="#ffcdbf"/><path d="m206.054688 456.792969-8.238282 22.828125c-3.511718 9.734375 1.53125 20.46875 11.261719 23.984375 1.335937.480469 2.6875.78125 4.035156.953125l15.414063-41.488282zm0 0" fill="#ffbeab"/><path d="m304.234375 129.375c.636719-3.515625 2.238281-6.605469 4.453125-9.09375h-.027344l-42.328125 48.375h-12.464843v37.46875h20.96875c5.402343 0 10.539062-2.332031 14.097656-6.398438l40.835937-46.667968-10.453125-1.902344c-10.179687-1.847656-16.933594-11.601562-15.082031-21.78125zm0 0" fill="#ffcdbf"/><path d="m241.75 468.261719 39.59375-109.710938c2.785156-7.722656 2.300781-16.375-1.332031-23.738281-3.632813-7.363281-10.207031-13.011719-18.03125-15.496094l-69.773438-21.519531-2.039062 15.542969c-.464844 3.550781-1.9375 6.890625-4.242188 9.628906l-8.066406 9.582031 65.726563 20.238281-38.015626 105.351563zm0 0" fill="#576574"/><path d="m255.503906 335.628906-65.699218-20.386718c-.671876 2.835937-1.992188 5.484374-3.878907 7.726562l-8.066406 9.582031 65.730469 20.238281-38.019532 105.351563 22.457032 6.28125 39.082031-105.199219c3.617187-9.734375-1.683594-20.511718-11.605469-23.59375zm0 0" fill="#3e4b5a"/><path d="m194.351562 168.65625c-11.96875 0-22.171874 8.949219-23.726562 20.820312-1.476562 11.234376-13.121094 100.042969-14.449219 110.152344l37.246094 4.15625 12.804687-97.660156h48.640626v-37.46875zm0 0" fill="#feca57"/><path d="m195.242188 190.375c1.625-12.382812 12.265624-21.71875 24.753906-21.71875h-25.644532c-11.96875 0-22.171874 8.949219-23.726562 20.820312-1.476562 11.238282-13.121094 100.042969-14.449219 110.15625l24.382813 2.71875c2.492187-19.003906 13.242187-100.992187 14.683594-111.976562zm0 0" fill="#f4b537"/><path d="m155.730469 303.035156-128.078125 152.152344 29.871094 22.699219 130.402343-154.917969c2.304688-2.738281 3.777344-6.078125 4.242188-9.628906l1.960937-14.953125-37.953125 1.242187zm0 0" fill="#576574"/><path d="m156.175781 299.628906-.445312 3.40625-128.078125 152.152344 19.339844 14.695312 128.777343-153.203124c2.199219-2.617188 3.613281-5.808594 4.074219-9.199219l1.175781-8.664063zm0 0" fill="#3e4b5a"/><path d="m400.925781 165.910156c-1.121093 0-2.257812-.101562-3.398437-.308594l-79-14.355468c-10.257813-1.863282-17.0625-11.691406-15.199219-21.953125 1.863281-10.257813 11.695313-17.0625 21.953125-15.199219l78.996094 14.355469c10.261718 1.863281 17.066406 11.691406 15.203125 21.953125-1.65625 9.117187-9.605469 15.507812-18.554688 15.507812zm0 0" fill="#ffcdbf"/><path d="m345.277344 138.777344c-10.257813-1.867188-17.0625-11.695313-15.199219-21.953125.109375-.609375.253906-1.199219.417969-1.78125l-5.214844-.949219c-10.257812-1.863281-20.089844 4.941406-21.953125 15.199219-1.863281 10.261719 4.941406 20.089843 15.199219 21.953125l79 14.355468c1.140625.207032 2.277344.308594 3.398437.308594 8.351563 0 15.828125-5.570312 18.136719-13.726562zm0 0" fill="#ffbeab"/><path d="m206.71875 107.5c0 25.371094-20.570312 45.941406-45.941406 45.941406s-45.941406-20.570312-45.941406-45.941406c0-25.375 20.570312-45.941406 45.941406-45.941406s45.941406 20.566406 45.941406 45.941406zm0 0" fill="#ffcdbf"/><path d="m206.71875 107.5c0 25.371094-20.570312 45.941406-45.941406 45.941406s-45.941406-20.570312-45.941406-45.941406c0-25.375 20.570312-45.941406 45.941406-45.941406s45.941406 20.566406 45.941406 45.941406zm0 0" fill="#ffcdbf"/><path d="m142.902344 107.5c0-20.476562 13.402344-37.816406 31.910156-43.75-4.425781-1.417969-9.140625-2.191406-14.035156-2.191406-25.371094 0-45.941406 20.570312-45.941406 45.941406s20.570312 45.941406 45.941406 45.941406c4.894531 0 9.609375-.773437 14.035156-2.191406-18.507812-5.933594-31.910156-23.273438-31.910156-43.75zm0 0" fill="#ffbeab"/><path d="m311.976562 53.222656c0 25.371094-20.570312 45.9375-45.941406 45.9375s-45.941406-20.566406-45.941406-45.9375c0-25.375 20.570312-45.941406 45.941406-45.941406s45.941406 20.566406 45.941406 45.941406zm0 0" fill="#ffcdbf"/><path d="m311.976562 53.222656c0 25.371094-20.570312 45.9375-45.941406 45.9375s-45.941406-20.566406-45.941406-45.9375c0-25.375 20.570312-45.941406 45.941406-45.941406s45.941406 20.566406 45.941406 45.941406zm0 0" fill="#ffcdbf"/><path d="m248.164062 53.21875c0-20.476562 13.398438-37.816406 31.90625-43.746094-4.425781-1.417968-9.140624-2.191406-14.035156-2.191406-25.371094 0-45.941406 20.566406-45.941406 45.941406 0 25.371094 20.570312 45.9375 45.941406 45.9375 4.898438 0 9.609375-.773437 14.035156-2.191406-18.507812-5.929688-31.90625-23.273438-31.90625-43.75zm0 0" fill="#ffbeab"/><path d="m180.703125 259.109375h-22.246094c-10.34375 0-18.730469-8.390625-18.730469-18.734375 0-10.347656 8.386719-18.734375 18.730469-18.734375h22.246094c10.34375 0 18.734375 8.386719 18.734375 18.734375 0 10.34375-8.390625 18.734375-18.734375 18.734375zm0 0" fill="#ffcdbf"/><path d="m169.582031 240.375c0-9.042969 6.40625-16.589844 14.925781-18.347656-1.230468-.253906-2.5-.386719-3.804687-.386719h-22.246094c-10.34375 0-18.730469 8.386719-18.730469 18.734375 0 10.34375 8.386719 18.734375 18.730469 18.734375h22.246094c1.304687 0 2.574219-.136719 3.804687-.390625-8.519531-1.757812-14.925781-9.304688-14.925781-18.34375zm0 0" fill="#ffbeab"/><path d="m107.800781 107.277344c0 29.222656 23.773438 52.996094 52.996094 52.996094s52.996094-23.773438 52.996094-52.996094-23.773438-53-52.996094-53-52.996094 23.777344-52.996094 53zm90.992188 0c0 20.949218-17.046875 37.996094-37.996094 37.996094-20.953125 0-37.996094-17.046876-37.996094-37.996094 0-20.953125 17.042969-38 37.996094-38 20.949219 0 37.996094 17.046875 37.996094 38zm0 0"/><path d="m9.347656 505.828125c11.050782 9.304687 27.609375 7.933594 36.964844-3.175781l136.078125-161.65625 19.128906 6.074218c-1.84375 4.941407-46.511719 124.574219-48.355469 129.511719-5.058593 13.550781 1.851563 28.695313 15.402344 33.753907 9.917969 3.699218 20.796875 1.066406 28.015625-6.371094 2.699219 2.808594 6.0625 5.058594 9.96875 6.46875 13.746094 4.964844 28.726563-2.304688 33.585938-15.769532l24.511719-67.921874c1.40625-3.898438-.613282-8.195313-4.511719-9.601563-3.894531-1.40625-8.191407.609375-9.601563 4.507813l-13.453125 37.289062-21.699219-6.066406 35.277344-97.757813c1.453125-4.019531-.742187-8.410156-4.78125-9.695312l-53.035156-16.839844c3.550781-4.226563 5.980469-8.390625 6.78125-14.480469l.875-6.664062c8.0625 2.5625-9.519531-3.019532 59.230469 18.8125 12.195312 3.875 19.015625 17.230468 14.578125 29.535156l-11.785156 32.65625c-1.40625 3.898438.609374 8.195312 4.507812 9.601562 3.894531 1.410157 8.195312-.609374 9.601562-4.507812l11.785157-32.660156c4.714843-13.0625 2.085937-28.78125-8.996094-39.730469l8.976563-12.863281 16.59375 49.578125c.441406 1.3125.988281 2.601562 1.628906 3.824219l71.199218 136.234374c6.75 12.917969 22.617188 17.777344 35.398438 11.097657 12.820312-6.703125 17.800781-22.582031 11.101562-35.402344-1.898437-3.632813-67.984374-130.078125-70.234374-134.382813-3.609376-10.789062-28.042969-83.78125-31.0625-92.800781.234374-23.496093-1.316407-46.875-4.085938-69.796875l13.695312-15.652344 13.746094 2.5c4.074219.742188 7.980469-1.964843 8.722656-6.039062.742188-4.074219-1.964843-7.980469-6.039062-8.722656l-28.386719-5.15625c-5.855469-1.066406-9.960937-6.59375-9.097656-12.636719.898437-6.292969 6.878906-10.605469 13.117187-9.46875 84.4375 15.34375 79.277344 14.183594 81.449219 15.28125 4.929688 2.6875 6.789063 7.542969 5.976563 12.023437-1.105469 6.074219-6.898438 10.164063-13.0625 9.042969l-15.519532-2.820312c-4.074218-.738281-7.980468 1.960937-8.722656 6.039062-.742187 4.074219 1.964844 7.980469 6.039063 8.71875l15.519531 2.824219c14.328125 2.601562 27.921875-6.90625 30.503906-21.121094 2.1875-12.039062-4.179687-23.464844-14.511718-28.371094l-73.433594-36.648437c-8.984375-4.484375-19.246094-5.765625-28.984375-3.757813 5.742187-8.46875 9.101562-18.679687 9.101562-29.664062.003907-29.226562-23.769531-53-52.996093-53-29.222657 0-52.996094 23.773438-52.996094 52.996094 0 24.148437 16.238281 44.558594 38.363281 50.929687l-7.335937 2.734375c-9.542969 3.558594-17.652344 10.347656-22.828126 19.113282l-20.769531 35.160156h-6.117187c-15.722656 0-29.117188 11.753906-31.164063 27.34375l-3.359375 25.636718c-17.320312 0-27.601562 12.820313-27.601562 26.234376 0 12.601562 8.929687 23.152343 20.792968 25.664062l-3.882812 29.589844-.558594 4.257812c-4.574218 5.4375-134.855468 160.210938-142.425781 169.203125-9.339844 11.09375-7.917969 27.625 3.175781 36.964844zm181.4375-28.976563c-1.144531 3.164063-1.703125 6.640626-1.527344 10.179688l-.988281 2.65625c-2.109375 5.652344-8.5 8.816406-14.453125 6.59375-5.804687-2.164062-8.761718-8.648438-6.597656-14.453125l6.605469-17.683594 19.15625 6.625zm41.191406-3.765624-5.949218 16.484374c-1.605469 4.441407-5.851563 7.425782-10.566406 7.425782-7.804688 0-13.183594-7.800782-10.566407-15.050782l5.386719-14.929687zm1.929688-115.730469c-3.527344 9.773437-32.382812 89.738281-35.835938 99.300781l-19-6.570312 36.765626-98.46875zm-46.945312-62.066407-22.332032-2.488281 3.464844-26.417969h12.628906c3.394532 0 6.914063-.671874 10.304688-2.109374zm42.585937 5.628907-27.066406-8.59375 10.351562-78.921875h56.796875c.617188 9.804687.941406 18.753906.941406 28.75zm181.480469 179.636719c2.867187 5.488281.734375 12.289062-4.753906 15.160156-5.527344 2.886718-12.292969.730468-15.160157-4.753906l-5.648437-10.808594 19.882812-10.460938zm-80.859375-165.535157 9.882812 29.53125c.128907.375.28125.742188.46875 1.09375l57.878907 110.75-19.882813 10.464844-58.601563-112.128906c-.273437-.523438-.507812-1.074219-.695312-1.636719l-21.324219-63.714844c-1.953125-5.832031-9.734375-6.96875-13.261719-1.910156l-17.746093 25.417969c-1.738281-.699219-1.632813-.628907-22.363281-7.210938l37.457031-53.664062h27.101562zm-45.609375-103.476562c7.300781-2.894531 9.710937-6.726563 20.976562-19.601563 1.441406 14.792969 2.324219 30.453125 2.472656 45.070313h-22.464843c-.058594-5.234375-.246094-10.902344-.449219-15.503907-.304688-6.746093-.476562-8.851562-.535156-9.964843zm30.96875-53.800781c-26.195313 29.941406 10.078125-11.515626-32.21875 36.824218-2.15625 2.460938-5.351563 3.832032-8.453125 3.832032h-12.46875v-22.464844h3.96875c2.164062 0 4.21875-.933594 5.644531-2.5625.429688-.492188 3.8125-4.355469 26.617188-30.417969 3.019531 6.925781 9.164062 12.613281 16.910156 14.789063zm-54.101563 3.191406 1.792969-3.039063c.128906.765625.25 1.535157.375 2.304688l-.644531.734375zm-33.367187-107.9375c0-20.949219 17.046875-37.996094 37.996094-37.996094 20.953124 0 38 17.046875 38 37.996094 0 20.953125-17.046876 38-38 38-20.949219 0-37.996094-17.046875-37.996094-38zm6.113281 80.40625c3.4375-5.820313 8.820313-10.324219 15.152344-12.6875l59.34375-22.125c7.660156-2.851563 16.253906-2.398438 23.570312 1.25l24.367188 12.164062-29.226563-5.3125c-9.128906-1.65625-18.328125 1.652344-24.304687 8.390625-.011719.011719-.023438.027344-.039063.039063l-26.730468 30.550781c-.097657-.519531-.191407-1.039063-.289063-1.558594-.859375-4.5625-5.625-7.265625-9.992187-5.644531l-8.730469 3.257812c-1.609375.597657-2.964844 1.734376-3.839844 3.210938l-9.449219 15.996094h-26.09375zm-56.089844 56.824218c1.066407-8.148437 8.070313-14.292968 16.289063-14.292968h53.015625v22.464844h-41.136719c-3.757812 0-6.945312 2.78125-7.4375 6.527343l-1.914062 14.585938c-4.511719-3.542969-10.160157-5.589844-16.152344-5.59375-.007813 0-.015625-.003907-.027344-.003907h-5.746094zm-30.835937 49.925782c0-6.195313 5.039062-11.234375 11.234375-11.234375h22.242187c6.191406 0 11.230469 5.039062 11.230469 11.234375 0 6.191406-5.039063 11.230468-11.230469 11.230468-18.570312 0-21.1875 0-22.242187 0-6.195313 0-11.234375-5.039062-11.234375-11.230468zm14.242187 67.488281c.027344-.027344.050781-.058594.074219-.085937l23.449219 2.613281c-.265625 2.011719-.347657 4.832031-2.804688 7.75-6.640625 7.890625-120.527343 143.183593-125.808593 149.457031l-17.910157-13.609375zm-143.839843 170.882813 11.167968-13.265626 17.910156 13.609376-11.890624 14.125c-3.945313 4.6875-11.023438 5.410156-15.828126 1.359374-4.75-3.996093-5.359374-11.078124-1.359374-15.828124zm0 0"/></svg>