<svg xmlns="http://www.w3.org/2000/svg" width="254.499" height="237.75" viewBox="0 0 254.499 237.75">
    <defs>
        <clipPath id="b69yscmy8a">
            <path data-name="사각형 3005" d="M0 0h166.997v237.75H0z"/>
        </clipPath>
    </defs>
    <g data-name="그룹 7802" transform="translate(-58 -1099)">
        <g data-name="그룹 7382" style="opacity:.15">
            <g data-name="그룹 7381" style="clip-path:url(#b69yscmy8a)" transform="translate(145.502 1099)">
                <path data-name="패스 11646" d="M17.33 58.375a3.114 3.114 0 1 1-3.114-3.114 3.116 3.116 0 0 1 3.114 3.114" transform="translate(6.636 33.03)" style="fill-rule:evenodd"/>
                <path data-name="패스 11647" d="M22.911 58.375a3.113 3.113 0 1 1-3.111-3.114 3.115 3.115 0 0 1 3.112 3.114" transform="translate(9.973 33.03)" style="fill-rule:evenodd"/>
                <path data-name="패스 11648" d="M28.544 58.375a3.114 3.114 0 1 1-3.117-3.114 3.117 3.117 0 0 1 3.117 3.114" transform="translate(13.339 33.03)" style="fill-rule:evenodd"/>
                <path data-name="패스 11649" d="M11.794 53.074a3.112 3.112 0 1 1-3.113-3.114 3.114 3.114 0 0 1 3.112 3.114" transform="translate(3.329 29.862)" style="fill-rule:evenodd"/>
                <path data-name="패스 11650" d="M17.33 53.074a3.114 3.114 0 1 1-3.114-3.114 3.116 3.116 0 0 1 3.114 3.114" transform="translate(6.636 29.862)" style="fill-rule:evenodd"/>
                <path data-name="패스 11651" d="M22.911 53.074A3.113 3.113 0 1 1 19.8 49.96a3.115 3.115 0 0 1 3.112 3.114" transform="translate(9.973 29.862)" style="fill-rule:evenodd"/>
                <path data-name="패스 11652" d="M6.228 47.453a3.114 3.114 0 1 1-3.112-3.114 3.114 3.114 0 0 1 3.112 3.114" transform="translate(0 26.502)" style="fill-rule:evenodd"/>
                <path data-name="패스 11653" d="M11.794 47.453a3.112 3.112 0 1 1-3.112-3.114 3.113 3.113 0 0 1 3.112 3.114" transform="translate(3.329 26.502)" style="fill-rule:evenodd"/>
                <path data-name="패스 11654" d="M17.33 47.453a3.114 3.114 0 1 1-3.114-3.114 3.115 3.115 0 0 1 3.114 3.114" transform="translate(6.636 26.502)" style="fill-rule:evenodd"/>
                <path data-name="패스 11655" d="M22.911 47.453a3.113 3.113 0 1 1-3.111-3.114 3.114 3.114 0 0 1 3.112 3.114" transform="translate(9.973 26.502)" style="fill-rule:evenodd"/>
                <path data-name="패스 11656" d="M17.423 86.418a3.115 3.115 0 1 1-3.111-3.118 3.114 3.114 0 0 1 3.111 3.114" transform="translate(6.69 49.792)" style="fill-rule:evenodd"/>
                <path data-name="패스 11657" d="M17.423 92.05a3.115 3.115 0 1 1-3.111-3.114 3.115 3.115 0 0 1 3.111 3.114" transform="translate(6.69 53.159)" style="fill-rule:evenodd"/>
                <path data-name="패스 11658" d="M22.955 86.418A3.113 3.113 0 1 1 19.84 83.3a3.116 3.116 0 0 1 3.116 3.114" transform="translate(9.999 49.792)" style="fill-rule:evenodd"/>
                <path data-name="패스 11659" d="M22.955 92.05a3.113 3.113 0 1 1-3.116-3.114 3.117 3.117 0 0 1 3.116 3.114" transform="translate(9.999 53.159)" style="fill-rule:evenodd"/>
                <path data-name="패스 11660" d="M28.54 86.418a3.116 3.116 0 1 1-3.114-3.118 3.115 3.115 0 0 1 3.114 3.114" transform="translate(13.335 49.792)" style="fill-rule:evenodd"/>
                <path data-name="패스 11661" d="M28.54 92.05a3.116 3.116 0 1 1-3.114-3.114 3.115 3.115 0 0 1 3.114 3.114" transform="translate(13.335 53.159)" style="fill-rule:evenodd"/>
                <path data-name="패스 11662" d="M34.169 86.418a3.114 3.114 0 1 1-3.114-3.118 3.116 3.116 0 0 1 3.114 3.114" transform="translate(16.701 49.792)" style="fill-rule:evenodd"/>
                <path data-name="패스 11663" d="M34.169 92.05a3.114 3.114 0 1 1-3.114-3.114 3.116 3.116 0 0 1 3.114 3.114" transform="translate(16.701 53.159)" style="fill-rule:evenodd"/>
                <path data-name="패스 11664" d="M39.7 86.418a3.114 3.114 0 1 1-3.112-3.118 3.118 3.118 0 0 1 3.112 3.118" transform="translate(20.01 49.792)" style="fill-rule:evenodd"/>
                <path data-name="패스 11665" d="M39.7 92.05a3.114 3.114 0 1 1-3.117-3.114A3.118 3.118 0 0 1 39.7 92.05" transform="translate(20.01 53.159)" style="fill-rule:evenodd"/>
                <path data-name="패스 11666" d="M17.423 97.679a3.115 3.115 0 1 1-3.111-3.112 3.111 3.111 0 0 1 3.111 3.112" transform="translate(6.69 56.524)" style="fill-rule:evenodd"/>
                <path data-name="패스 11667" d="M17.423 103.314a3.115 3.115 0 1 1-3.111-3.119 3.11 3.11 0 0 1 3.111 3.119" transform="translate(6.69 59.888)" style="fill-rule:evenodd"/>
                <path data-name="패스 11668" d="M22.955 97.679a3.113 3.113 0 1 1-3.116-3.112 3.113 3.113 0 0 1 3.116 3.112" transform="translate(9.999 56.524)" style="fill-rule:evenodd"/>
                <path data-name="패스 11669" d="M22.955 103.314a3.113 3.113 0 1 1-3.115-3.114 3.112 3.112 0 0 1 3.116 3.119" transform="translate(9.999 59.888)" style="fill-rule:evenodd"/>
                <path data-name="패스 11670" d="M28.54 97.679a3.116 3.116 0 1 1-3.114-3.112 3.112 3.112 0 0 1 3.114 3.112" transform="translate(13.335 56.524)" style="fill-rule:evenodd"/>
                <path data-name="패스 11671" d="M28.54 103.314a3.116 3.116 0 1 1-3.114-3.119 3.111 3.111 0 0 1 3.114 3.119" transform="translate(13.335 59.888)" style="fill-rule:evenodd"/>
                <path data-name="패스 11672" d="M34.169 97.679a3.114 3.114 0 1 1-3.114-3.112 3.113 3.113 0 0 1 3.114 3.112" transform="translate(16.701 56.524)" style="fill-rule:evenodd"/>
                <path data-name="패스 11673" d="M34.169 103.314a3.114 3.114 0 1 1-3.114-3.119 3.112 3.112 0 0 1 3.114 3.119" transform="translate(16.701 59.888)" style="fill-rule:evenodd"/>
                <path data-name="패스 11674" d="M39.7 97.679a3.114 3.114 0 1 1-3.117-3.112 3.115 3.115 0 0 1 3.117 3.112" transform="translate(20.01 56.524)" style="fill-rule:evenodd"/>
                <path data-name="패스 11675" d="M39.7 103.314a3.114 3.114 0 1 1-3.117-3.119 3.114 3.114 0 0 1 3.117 3.119" transform="translate(20.01 59.888)" style="fill-rule:evenodd"/>
                <path data-name="패스 11676" d="M17.423 108.648a3.115 3.115 0 1 1-3.111-3.114 3.113 3.113 0 0 1 3.111 3.114" transform="translate(6.69 63.08)" style="fill-rule:evenodd"/>
                <path data-name="패스 11677" d="M17.423 114.276a3.115 3.115 0 1 1-3.111-3.112 3.115 3.115 0 0 1 3.111 3.112" transform="translate(6.69 66.445)" style="fill-rule:evenodd"/>
                <path data-name="패스 11678" d="M22.955 108.648a3.113 3.113 0 1 1-3.116-3.114 3.115 3.115 0 0 1 3.116 3.114" transform="translate(9.999 63.08)" style="fill-rule:evenodd"/>
                <path data-name="패스 11679" d="M22.955 114.276a3.113 3.113 0 1 1-3.116-3.112 3.117 3.117 0 0 1 3.116 3.112" transform="translate(9.999 66.445)" style="fill-rule:evenodd"/>
                <path data-name="패스 11680" d="M28.54 108.648a3.116 3.116 0 1 1-3.114-3.114 3.114 3.114 0 0 1 3.114 3.114" transform="translate(13.335 63.08)" style="fill-rule:evenodd"/>
                <path data-name="패스 11681" d="M28.54 114.276a3.116 3.116 0 1 1-3.114-3.112 3.115 3.115 0 0 1 3.114 3.112" transform="translate(13.335 66.445)" style="fill-rule:evenodd"/>
                <path data-name="패스 11682" d="M34.169 108.648a3.114 3.114 0 1 1-3.114-3.114 3.115 3.115 0 0 1 3.114 3.114" transform="translate(16.701 63.08)" style="fill-rule:evenodd"/>
                <path data-name="패스 11683" d="M39.7 108.648a3.114 3.114 0 1 1-3.117-3.114 3.117 3.117 0 0 1 3.117 3.114" transform="translate(20.01 63.08)" style="fill-rule:evenodd"/>
                <path data-name="패스 11684" d="M17.423 119.907a3.115 3.115 0 1 1-3.111-3.111 3.113 3.113 0 0 1 3.111 3.111" transform="translate(6.69 69.811)" style="fill-rule:evenodd"/>
                <path data-name="패스 11685" d="M11.856 92.05a3.115 3.115 0 1 1-3.116-3.114 3.117 3.117 0 0 1 3.116 3.114" transform="translate(3.363 53.159)" style="fill-rule:evenodd"/>
                <path data-name="패스 11686" d="M6.321 103.314A3.115 3.115 0 1 1 3.2 100.2a3.111 3.111 0 0 1 3.116 3.119" transform="translate(.054 59.888)" style="fill-rule:evenodd"/>
                <path data-name="패스 11687" d="M11.856 97.679a3.115 3.115 0 1 1-3.116-3.112 3.113 3.113 0 0 1 3.116 3.112" transform="translate(3.363 56.524)" style="fill-rule:evenodd"/>
                <path data-name="패스 11688" d="M11.856 103.314A3.115 3.115 0 1 1 8.74 100.2a3.112 3.112 0 0 1 3.116 3.119" transform="translate(3.363 59.888)" style="fill-rule:evenodd"/>
                <path data-name="패스 11689" d="M6.321 108.648a3.115 3.115 0 1 1-3.121-3.114 3.114 3.114 0 0 1 3.116 3.114" transform="translate(.054 63.08)" style="fill-rule:evenodd"/>
                <path data-name="패스 11690" d="M6.321 114.276a3.115 3.115 0 1 1-3.121-3.112 3.116 3.116 0 0 1 3.116 3.112" transform="translate(.054 66.445)" style="fill-rule:evenodd"/>
                <path data-name="패스 11691" d="M11.856 108.648a3.115 3.115 0 1 1-3.116-3.114 3.115 3.115 0 0 1 3.116 3.114" transform="translate(3.363 63.08)" style="fill-rule:evenodd"/>
                <path data-name="패스 11692" d="M11.856 114.276a3.115 3.115 0 1 1-3.116-3.112 3.117 3.117 0 0 1 3.116 3.112" transform="translate(3.363 66.445)" style="fill-rule:evenodd"/>
                <path data-name="패스 11693" d="M11.856 119.907A3.115 3.115 0 1 1 8.74 116.8a3.115 3.115 0 0 1 3.116 3.111" transform="translate(3.363 69.811)" style="fill-rule:evenodd"/>
                <path data-name="패스 11694" d="M17.423 142.394a3.115 3.115 0 1 1-3.111-3.116 3.115 3.115 0 0 1 3.111 3.116" transform="translate(6.69 83.249)" style="fill-rule:evenodd"/>
                <path data-name="패스 11695" d="M17.423 148.024a3.115 3.115 0 1 1-3.111-3.114 3.112 3.112 0 0 1 3.111 3.114" transform="translate(6.69 86.615)" style="fill-rule:evenodd"/>
                <path data-name="패스 11696" d="M22.955 142.394a3.113 3.113 0 1 1-3.116-3.116 3.117 3.117 0 0 1 3.116 3.116" transform="translate(9.999 83.249)" style="fill-rule:evenodd"/>
                <path data-name="패스 11697" d="M22.955 148.024a3.113 3.113 0 1 1-3.116-3.114 3.114 3.114 0 0 1 3.116 3.114" transform="translate(9.999 86.615)" style="fill-rule:evenodd"/>
                <path data-name="패스 11698" d="M6.3 148.024a3.115 3.115 0 1 1-3.116-3.114 3.114 3.114 0 0 1 3.116 3.114" transform="translate(.041 86.615)" style="fill-rule:evenodd"/>
                <path data-name="패스 11699" d="M11.927 142.394a3.114 3.114 0 1 1-3.114-3.116 3.114 3.114 0 0 1 3.114 3.116" transform="translate(3.406 83.249)" style="fill-rule:evenodd"/>
                <path data-name="패스 11700" d="M11.927 148.024a3.114 3.114 0 1 1-3.114-3.114 3.111 3.111 0 0 1 3.114 3.114" transform="translate(3.406 86.615)" style="fill-rule:evenodd"/>
                <path data-name="패스 11701" d="M45.268 86.418a3.112 3.112 0 1 1-3.111-3.118 3.112 3.112 0 0 1 3.111 3.114" transform="translate(23.337 49.792)" style="fill-rule:evenodd"/>
                <path data-name="패스 11702" d="M45.268 92.05a3.112 3.112 0 1 1-3.111-3.114 3.113 3.113 0 0 1 3.111 3.114" transform="translate(23.337 53.159)" style="fill-rule:evenodd"/>
                <path data-name="패스 11703" d="M50.806 86.418A3.114 3.114 0 1 1 47.69 83.3a3.114 3.114 0 0 1 3.116 3.114" transform="translate(26.645 49.792)" style="fill-rule:evenodd"/>
                <path data-name="패스 11704" d="M50.806 92.05a3.114 3.114 0 1 1-3.116-3.114 3.115 3.115 0 0 1 3.116 3.114" transform="translate(26.645 53.159)" style="fill-rule:evenodd"/>
                <path data-name="패스 11705" d="M56.387 86.418a3.112 3.112 0 1 1-3.114-3.118 3.114 3.114 0 0 1 3.114 3.114" transform="translate(29.983 49.792)" style="fill-rule:evenodd"/>
                <path data-name="패스 11706" d="M56.387 92.05a3.112 3.112 0 1 1-3.114-3.114 3.114 3.114 0 0 1 3.114 3.114" transform="translate(29.983 53.159)" style="fill-rule:evenodd"/>
                <path data-name="패스 11707" d="M62.018 86.418A3.114 3.114 0 1 1 58.9 83.3a3.115 3.115 0 0 1 3.114 3.114" transform="translate(33.347 49.792)" style="fill-rule:evenodd"/>
                <path data-name="패스 11708" d="M62.018 92.05a3.114 3.114 0 1 1-3.118-3.114 3.115 3.115 0 0 1 3.114 3.114" transform="translate(33.347 53.159)" style="fill-rule:evenodd"/>
                <path data-name="패스 11709" d="M45.268 97.679a3.112 3.112 0 1 1-3.111-3.112 3.109 3.109 0 0 1 3.111 3.112" transform="translate(23.337 56.524)" style="fill-rule:evenodd"/>
                <path data-name="패스 11710" d="M45.268 103.314a3.112 3.112 0 1 1-3.111-3.119 3.108 3.108 0 0 1 3.111 3.119" transform="translate(23.337 59.888)" style="fill-rule:evenodd"/>
                <path data-name="패스 11711" d="M50.806 97.679a3.114 3.114 0 1 1-3.116-3.112 3.111 3.111 0 0 1 3.116 3.112" transform="translate(26.645 56.524)" style="fill-rule:evenodd"/>
                <path data-name="패스 11712" d="M50.806 103.314a3.114 3.114 0 1 1-3.116-3.114 3.11 3.11 0 0 1 3.116 3.119" transform="translate(26.645 59.888)" style="fill-rule:evenodd"/>
                <path data-name="패스 11713" d="M56.387 97.679a3.112 3.112 0 1 1-3.114-3.112 3.111 3.111 0 0 1 3.114 3.112" transform="translate(29.983 56.524)" style="fill-rule:evenodd"/>
                <path data-name="패스 11714" d="M56.387 103.314a3.112 3.112 0 1 1-3.114-3.119 3.11 3.11 0 0 1 3.114 3.119" transform="translate(29.983 59.888)" style="fill-rule:evenodd"/>
                <path data-name="패스 11715" d="M62.018 97.679a3.114 3.114 0 1 1-3.118-3.112 3.112 3.112 0 0 1 3.114 3.112" transform="translate(33.347 56.524)" style="fill-rule:evenodd"/>
                <path data-name="패스 11716" d="M62.018 103.314A3.114 3.114 0 1 1 58.9 100.2a3.111 3.111 0 0 1 3.114 3.119" transform="translate(33.347 59.888)" style="fill-rule:evenodd"/>
                <path data-name="패스 11717" d="M45.268 108.648a3.112 3.112 0 1 1-3.111-3.114 3.111 3.111 0 0 1 3.111 3.114" transform="translate(23.337 63.08)" style="fill-rule:evenodd"/>
                <path data-name="패스 11718" d="M62.018 108.648a3.114 3.114 0 1 1-3.114-3.114 3.114 3.114 0 0 1 3.114 3.114" transform="translate(33.347 63.08)" style="fill-rule:evenodd"/>
                <path data-name="패스 11719" d="M17.423 75.431a3.115 3.115 0 1 1-3.111-3.111 3.112 3.112 0 0 1 3.111 3.111" transform="translate(6.69 43.227)" style="fill-rule:evenodd"/>
                <path data-name="패스 11720" d="M17.423 81.068a3.115 3.115 0 1 1-3.111-3.12 3.113 3.113 0 0 1 3.111 3.12" transform="translate(6.69 46.591)" style="fill-rule:evenodd"/>
                <path data-name="패스 11721" d="M22.955 75.431a3.113 3.113 0 1 1-3.115-3.111 3.114 3.114 0 0 1 3.116 3.111" transform="translate(9.999 43.227)" style="fill-rule:evenodd"/>
                <path data-name="패스 11722" d="M22.955 81.068a3.113 3.113 0 1 1-3.116-3.12 3.115 3.115 0 0 1 3.116 3.12" transform="translate(9.999 46.591)" style="fill-rule:evenodd"/>
                <path data-name="패스 11723" d="M28.54 75.431a3.116 3.116 0 1 1-3.114-3.111 3.113 3.113 0 0 1 3.114 3.111" transform="translate(13.335 43.227)" style="fill-rule:evenodd"/>
                <path data-name="패스 11724" d="M28.54 81.068a3.116 3.116 0 1 1-3.114-3.12 3.114 3.114 0 0 1 3.114 3.12" transform="translate(13.335 46.591)" style="fill-rule:evenodd"/>
                <path data-name="패스 11725" d="M34.169 75.431a3.114 3.114 0 1 1-3.114-3.111 3.114 3.114 0 0 1 3.114 3.111" transform="translate(16.701 43.227)" style="fill-rule:evenodd"/>
                <path data-name="패스 11726" d="M34.169 81.068a3.114 3.114 0 1 1-3.114-3.12 3.115 3.115 0 0 1 3.114 3.12" transform="translate(16.701 46.591)" style="fill-rule:evenodd"/>
                <path data-name="패스 11727" d="M39.7 75.431a3.114 3.114 0 1 1-3.117-3.111 3.115 3.115 0 0 1 3.117 3.111" transform="translate(20.01 43.227)" style="fill-rule:evenodd"/>
                <path data-name="패스 11728" d="M39.7 81.068a3.114 3.114 0 1 1-3.117-3.12 3.117 3.117 0 0 1 3.117 3.12" transform="translate(20.01 46.591)" style="fill-rule:evenodd"/>
                <path data-name="패스 11729" d="M45.268 75.431a3.112 3.112 0 1 1-3.111-3.111 3.11 3.11 0 0 1 3.111 3.111" transform="translate(23.337 43.227)" style="fill-rule:evenodd"/>
                <path data-name="패스 11730" d="M45.268 81.068a3.112 3.112 0 1 1-3.111-3.12 3.111 3.111 0 0 1 3.111 3.12" transform="translate(23.337 46.591)" style="fill-rule:evenodd"/>
                <path data-name="패스 11731" d="M50.806 75.431a3.114 3.114 0 1 1-3.116-3.111 3.112 3.112 0 0 1 3.116 3.111" transform="translate(26.645 43.227)" style="fill-rule:evenodd"/>
                <path data-name="패스 11732" d="M50.806 81.068a3.114 3.114 0 1 1-3.116-3.12 3.113 3.113 0 0 1 3.116 3.12" transform="translate(26.645 46.591)" style="fill-rule:evenodd"/>
                <path data-name="패스 11733" d="M56.387 75.431a3.112 3.112 0 1 1-3.114-3.111 3.112 3.112 0 0 1 3.114 3.111" transform="translate(29.983 43.227)" style="fill-rule:evenodd"/>
                <path data-name="패스 11734" d="M56.387 81.068a3.112 3.112 0 1 1-3.114-3.12 3.113 3.113 0 0 1 3.114 3.12" transform="translate(29.983 46.591)" style="fill-rule:evenodd"/>
                <path data-name="패스 11735" d="M62.018 75.431A3.114 3.114 0 1 1 58.9 72.32a3.113 3.113 0 0 1 3.114 3.111" transform="translate(33.347 43.227)" style="fill-rule:evenodd"/>
                <path data-name="패스 11736" d="M62.018 81.068a3.114 3.114 0 1 1-3.114-3.12 3.114 3.114 0 0 1 3.114 3.12" transform="translate(33.347 46.591)" style="fill-rule:evenodd"/>
                <path data-name="패스 11737" d="M17.423 63.933a3.115 3.115 0 1 1-3.111-3.111 3.116 3.116 0 0 1 3.111 3.111" transform="translate(6.69 36.354)" style="fill-rule:evenodd"/>
                <path data-name="패스 11738" d="M17.423 69.564a3.115 3.115 0 1 1-3.111-3.112 3.115 3.115 0 0 1 3.111 3.112" transform="translate(6.69 39.72)" style="fill-rule:evenodd"/>
                <path data-name="패스 11739" d="M22.955 63.933a3.113 3.113 0 1 1-3.116-3.111 3.118 3.118 0 0 1 3.116 3.111" transform="translate(9.999 36.354)" style="fill-rule:evenodd"/>
                <path data-name="패스 11740" d="M22.955 69.564a3.113 3.113 0 1 1-3.116-3.112 3.118 3.118 0 0 1 3.116 3.112" transform="translate(9.999 39.72)" style="fill-rule:evenodd"/>
                <path data-name="패스 11741" d="M28.54 63.933a3.116 3.116 0 1 1-3.114-3.111 3.116 3.116 0 0 1 3.114 3.111" transform="translate(13.335 36.354)" style="fill-rule:evenodd"/>
                <path data-name="패스 11742" d="M28.54 69.564a3.116 3.116 0 1 1-3.114-3.112 3.116 3.116 0 0 1 3.114 3.112" transform="translate(13.335 39.72)" style="fill-rule:evenodd"/>
                <path data-name="패스 11743" d="M34.169 63.933a3.114 3.114 0 1 1-3.114-3.111 3.118 3.118 0 0 1 3.114 3.111" transform="translate(16.701 36.354)" style="fill-rule:evenodd"/>
                <path data-name="패스 11744" d="M34.169 69.564a3.114 3.114 0 1 1-3.114-3.112 3.117 3.117 0 0 1 3.114 3.112" transform="translate(16.701 39.72)" style="fill-rule:evenodd"/>
                <path data-name="패스 11745" d="M39.7 63.933a3.114 3.114 0 1 1-3.117-3.111 3.119 3.119 0 0 1 3.117 3.111" transform="translate(20.01 36.354)" style="fill-rule:evenodd"/>
                <path data-name="패스 11746" d="M39.7 69.564a3.114 3.114 0 1 1-3.117-3.112 3.119 3.119 0 0 1 3.117 3.112" transform="translate(20.01 39.72)" style="fill-rule:evenodd"/>
                <path data-name="패스 11747" d="M22.955 36.46a3.113 3.113 0 1 1-3.116-3.114 3.116 3.116 0 0 1 3.116 3.114" transform="translate(9.999 19.931)" style="fill-rule:evenodd"/>
                <path data-name="패스 11748" d="M22.955 42.093a3.113 3.113 0 1 1-3.116-3.116 3.116 3.116 0 0 1 3.116 3.116" transform="translate(9.999 23.297)" style="fill-rule:evenodd"/>
                <path data-name="패스 11749" d="M17.423 25.472a3.115 3.115 0 1 1-3.111-3.112 3.113 3.113 0 0 1 3.111 3.112" transform="translate(6.69 13.365)" style="fill-rule:evenodd"/>
                <path data-name="패스 11750" d="M17.423 31.1a3.115 3.115 0 1 1-3.111-3.116 3.114 3.114 0 0 1 3.111 3.116" transform="translate(6.69 16.73)" style="fill-rule:evenodd"/>
                <path data-name="패스 11751" d="M22.955 25.472a3.113 3.113 0 1 1-3.115-3.112 3.115 3.115 0 0 1 3.116 3.112" transform="translate(9.999 13.365)" style="fill-rule:evenodd"/>
                <path data-name="패스 11752" d="M22.955 31.1a3.113 3.113 0 1 1-3.116-3.116 3.116 3.116 0 0 1 3.116 3.116" transform="translate(9.999 16.73)" style="fill-rule:evenodd"/>
                <path data-name="패스 11753" d="M11.856 25.472A3.115 3.115 0 1 1 8.74 22.36a3.115 3.115 0 0 1 3.116 3.112" transform="translate(3.363 13.365)" style="fill-rule:evenodd"/>
                <path data-name="패스 11754" d="M17.423 19.605a3.115 3.115 0 1 1-3.111-3.112 3.111 3.111 0 0 1 3.111 3.112" transform="translate(6.69 9.858)" style="fill-rule:evenodd"/>
                <path data-name="패스 11755" d="M22.955 13.974a3.113 3.113 0 1 1-3.116-3.112 3.116 3.116 0 0 1 3.116 3.112" transform="translate(9.999 6.492)" style="fill-rule:evenodd"/>
                <path data-name="패스 11756" d="M22.955 19.605a3.113 3.113 0 1 1-3.116-3.112 3.113 3.113 0 0 1 3.116 3.112" transform="translate(9.999 9.858)" style="fill-rule:evenodd"/>
                <path data-name="패스 11757" d="M11.856 19.605a3.115 3.115 0 1 1-3.116-3.112 3.113 3.113 0 0 1 3.116 3.112" transform="translate(3.363 9.858)" style="fill-rule:evenodd"/>
                <path data-name="패스 11758" d="M39.732 53.074a3.113 3.113 0 1 1-3.112-3.114 3.115 3.115 0 0 1 3.112 3.114" transform="translate(20.027 29.862)" style="fill-rule:evenodd"/>
                <path data-name="패스 11759" d="M45.266 53.074a3.112 3.112 0 1 1-3.112-3.114 3.116 3.116 0 0 1 3.112 3.114" transform="translate(23.336 29.862)" style="fill-rule:evenodd"/>
                <path data-name="패스 11760" d="M50.851 53.074a3.114 3.114 0 1 1-3.116-3.114 3.119 3.119 0 0 1 3.116 3.114" transform="translate(26.672 29.862)" style="fill-rule:evenodd"/>
                <path data-name="패스 11761" d="M56.481 53.074a3.114 3.114 0 1 1-3.114-3.114 3.115 3.115 0 0 1 3.114 3.114" transform="translate(30.037 29.862)" style="fill-rule:evenodd"/>
                <path data-name="패스 11762" d="M62.012 53.074A3.112 3.112 0 1 1 58.9 49.96a3.114 3.114 0 0 1 3.112 3.114" transform="translate(33.346 29.862)" style="fill-rule:evenodd"/>
                <path data-name="패스 11763" d="M67.581 53.074a3.112 3.112 0 1 1-3.114-3.114 3.113 3.113 0 0 1 3.114 3.114" transform="translate(36.674 29.862)" style="fill-rule:evenodd"/>
                <path data-name="패스 11764" d="M73.117 53.074A3.114 3.114 0 1 1 70 49.96a3.115 3.115 0 0 1 3.114 3.114" transform="translate(39.981 29.862)" style="fill-rule:evenodd"/>
                <path data-name="패스 11765" d="M78.7 53.074a3.114 3.114 0 1 1-3.117-3.114 3.117 3.117 0 0 1 3.117 3.114" transform="translate(43.318 29.862)" style="fill-rule:evenodd"/>
                <path data-name="패스 11766" d="M39.732 47.453a3.113 3.113 0 1 1-3.112-3.114 3.114 3.114 0 0 1 3.112 3.114" transform="translate(20.027 26.502)" style="fill-rule:evenodd"/>
                <path data-name="패스 11767" d="M45.266 47.453a3.112 3.112 0 1 1-3.112-3.114 3.115 3.115 0 0 1 3.112 3.114" transform="translate(23.336 26.502)" style="fill-rule:evenodd"/>
                <path data-name="패스 11768" d="M28.7 53.074a3.113 3.113 0 1 1-3.116-3.114 3.114 3.114 0 0 1 3.116 3.114" transform="translate(13.435 29.862)" style="fill-rule:evenodd"/>
                <path data-name="패스 11769" d="M34.24 53.074a3.115 3.115 0 1 1-3.116-3.114 3.118 3.118 0 0 1 3.116 3.114" transform="translate(16.742 29.862)" style="fill-rule:evenodd"/>
                <path data-name="패스 11770" d="M39.732 58.694a3.113 3.113 0 1 1-3.112-3.114 3.115 3.115 0 0 1 3.112 3.114" transform="translate(20.027 33.221)" style="fill-rule:evenodd"/>
                <path data-name="패스 11771" d="M45.266 58.694a3.112 3.112 0 1 1-3.112-3.114 3.116 3.116 0 0 1 3.112 3.114" transform="translate(23.336 33.221)" style="fill-rule:evenodd"/>
                <path data-name="패스 11772" d="M50.851 58.694a3.114 3.114 0 1 1-3.116-3.114 3.119 3.119 0 0 1 3.116 3.114" transform="translate(26.672 33.221)" style="fill-rule:evenodd"/>
                <path data-name="패스 11773" d="M56.481 58.694a3.114 3.114 0 1 1-3.114-3.114 3.115 3.115 0 0 1 3.114 3.114" transform="translate(30.037 33.221)" style="fill-rule:evenodd"/>
                <path data-name="패스 11774" d="M62.012 58.694A3.112 3.112 0 1 1 58.9 55.58a3.114 3.114 0 0 1 3.112 3.114" transform="translate(33.346 33.221)" style="fill-rule:evenodd"/>
                <path data-name="패스 11775" d="M34.24 58.694a3.115 3.115 0 1 1-3.116-3.114 3.118 3.118 0 0 1 3.116 3.114" transform="translate(16.742 33.221)" style="fill-rule:evenodd"/>
                <path data-name="패스 11776" d="M28.7 47.453a3.113 3.113 0 1 1-3.116-3.114 3.113 3.113 0 0 1 3.116 3.114" transform="translate(13.435 26.502)" style="fill-rule:evenodd"/>
                <path data-name="패스 11777" d="M34.24 47.453a3.115 3.115 0 1 1-3.116-3.114 3.116 3.116 0 0 1 3.116 3.114" transform="translate(16.742 26.502)" style="fill-rule:evenodd"/>
                <path data-name="패스 11778" d="M50.851 47.453a3.114 3.114 0 1 1-3.116-3.114 3.118 3.118 0 0 1 3.116 3.114" transform="translate(26.672 26.502)" style="fill-rule:evenodd"/>
                <path data-name="패스 11779" d="M56.481 47.453a3.114 3.114 0 1 1-3.114-3.114 3.114 3.114 0 0 1 3.114 3.114" transform="translate(30.037 26.502)" style="fill-rule:evenodd"/>
                <path data-name="패스 11780" d="M62.012 47.453a3.112 3.112 0 1 1-3.112-3.114 3.113 3.113 0 0 1 3.112 3.114" transform="translate(33.346 26.502)" style="fill-rule:evenodd"/>
                <path data-name="패스 11781" d="M67.581 47.453a3.112 3.112 0 1 1-3.114-3.114 3.112 3.112 0 0 1 3.114 3.114" transform="translate(36.674 26.502)" style="fill-rule:evenodd"/>
                <path data-name="패스 11782" d="M73.117 47.453A3.114 3.114 0 1 1 70 44.339a3.114 3.114 0 0 1 3.114 3.114" transform="translate(39.981 26.502)" style="fill-rule:evenodd"/>
                <path data-name="패스 11783" d="M78.7 47.453a3.114 3.114 0 1 1-3.117-3.114 3.116 3.116 0 0 1 3.117 3.114" transform="translate(43.318 26.502)" style="fill-rule:evenodd"/>
                <path data-name="패스 11784" d="M39.732 8.416A3.113 3.113 0 1 1 36.62 5.3a3.113 3.113 0 0 1 3.112 3.114" transform="translate(20.027 3.169)" style="fill-rule:evenodd"/>
                <path data-name="패스 11785" d="M45.266 8.416A3.112 3.112 0 1 1 42.153 5.3a3.114 3.114 0 0 1 3.112 3.114" transform="translate(23.336 3.169)" style="fill-rule:evenodd"/>
                <path data-name="패스 11786" d="M50.851 8.416A3.114 3.114 0 1 1 47.735 5.3a3.117 3.117 0 0 1 3.116 3.114" transform="translate(26.672 3.169)" style="fill-rule:evenodd"/>
                <path data-name="패스 11787" d="M56.481 8.416A3.114 3.114 0 1 1 53.367 5.3a3.114 3.114 0 0 1 3.114 3.114" transform="translate(30.037 3.169)" style="fill-rule:evenodd"/>
                <path data-name="패스 11788" d="M62.012 8.416A3.112 3.112 0 1 1 58.9 5.3a3.112 3.112 0 0 1 3.112 3.114" transform="translate(33.346 3.169)" style="fill-rule:evenodd"/>
                <path data-name="패스 11789" d="M56.481 3.115A3.114 3.114 0 1 1 53.367 0a3.113 3.113 0 0 1 3.114 3.114" transform="translate(30.037 .001)" style="fill-rule:evenodd"/>
                <path data-name="패스 11790" d="M34.24 8.416A3.115 3.115 0 1 1 31.124 5.3a3.116 3.116 0 0 1 3.116 3.116" transform="translate(16.742 3.169)" style="fill-rule:evenodd"/>
                <path data-name="패스 11791" d="M73.21 36.46a3.114 3.114 0 1 1-3.11-3.114 3.115 3.115 0 0 1 3.11 3.114" transform="translate(40.036 19.931)" style="fill-rule:evenodd"/>
                <path data-name="패스 11792" d="M73.21 42.093a3.114 3.114 0 1 1-3.11-3.116 3.114 3.114 0 0 1 3.114 3.116" transform="translate(40.036 23.297)" style="fill-rule:evenodd"/>
                <path data-name="패스 11793" d="M78.745 36.46a3.115 3.115 0 1 1-3.114-3.114 3.116 3.116 0 0 1 3.114 3.114" transform="translate(43.344 19.931)" style="fill-rule:evenodd"/>
                <path data-name="패스 11794" d="M78.745 42.093a3.115 3.115 0 1 1-3.114-3.116 3.115 3.115 0 0 1 3.114 3.116" transform="translate(43.344 23.297)" style="fill-rule:evenodd"/>
                <path data-name="패스 11795" d="M45.361 36.46a3.115 3.115 0 1 1-3.112-3.114 3.114 3.114 0 0 1 3.112 3.114" transform="translate(23.389 19.931)" style="fill-rule:evenodd"/>
                <path data-name="패스 11796" d="M45.361 42.093a3.115 3.115 0 1 1-3.112-3.116 3.114 3.114 0 0 1 3.112 3.116" transform="translate(23.389 23.297)" style="fill-rule:evenodd"/>
                <path data-name="패스 11797" d="M50.894 36.46a3.114 3.114 0 1 1-3.116-3.114 3.114 3.114 0 0 1 3.116 3.114" transform="translate(26.698 19.931)" style="fill-rule:evenodd"/>
                <path data-name="패스 11798" d="M50.894 42.093a3.114 3.114 0 1 1-3.116-3.116 3.114 3.114 0 0 1 3.116 3.116" transform="translate(26.698 23.297)" style="fill-rule:evenodd"/>
                <path data-name="패스 11799" d="M56.475 36.46a3.112 3.112 0 1 1-3.114-3.114 3.115 3.115 0 0 1 3.114 3.114" transform="translate(30.035 19.931)" style="fill-rule:evenodd"/>
                <path data-name="패스 11800" d="M56.475 42.093a3.112 3.112 0 1 1-3.114-3.116 3.114 3.114 0 0 1 3.114 3.116" transform="translate(30.035 23.297)" style="fill-rule:evenodd"/>
                <path data-name="패스 11801" d="M62.106 36.46a3.114 3.114 0 1 1-3.112-3.114 3.112 3.112 0 0 1 3.112 3.114" transform="translate(33.399 19.931)" style="fill-rule:evenodd"/>
                <path data-name="패스 11802" d="M62.106 42.093a3.114 3.114 0 1 1-3.112-3.116 3.112 3.112 0 0 1 3.112 3.116" transform="translate(33.399 23.297)" style="fill-rule:evenodd"/>
                <path data-name="패스 11803" d="M67.643 36.46a3.116 3.116 0 1 1-3.112-3.114 3.114 3.114 0 0 1 3.112 3.114" transform="translate(36.707 19.931)" style="fill-rule:evenodd"/>
                <path data-name="패스 11804" d="M67.643 42.093a3.116 3.116 0 1 1-3.112-3.116 3.114 3.114 0 0 1 3.112 3.116" transform="translate(36.707 23.297)" style="fill-rule:evenodd"/>
                <path data-name="패스 11805" d="M28.5 36.46a3.113 3.113 0 1 1-3.116-3.114A3.114 3.114 0 0 1 28.5 36.46" transform="translate(13.311 19.931)" style="fill-rule:evenodd"/>
                <path data-name="패스 11806" d="M28.5 42.093a3.113 3.113 0 1 1-3.116-3.116 3.114 3.114 0 0 1 3.116 3.116" transform="translate(13.311 23.297)" style="fill-rule:evenodd"/>
                <path data-name="패스 11807" d="M34.033 36.46a3.115 3.115 0 1 1-3.116-3.114 3.116 3.116 0 0 1 3.116 3.114" transform="translate(16.618 19.931)" style="fill-rule:evenodd"/>
                <path data-name="패스 11808" d="M34.033 42.093a3.115 3.115 0 1 1-3.116-3.116 3.116 3.116 0 0 1 3.116 3.116" transform="translate(16.618 23.297)" style="fill-rule:evenodd"/>
                <path data-name="패스 11809" d="M39.613 36.46a3.114 3.114 0 1 1-3.113-3.114 3.114 3.114 0 0 1 3.114 3.114" transform="translate(19.955 19.931)" style="fill-rule:evenodd"/>
                <path data-name="패스 11810" d="M39.613 42.093a3.114 3.114 0 1 1-3.113-3.116 3.113 3.113 0 0 1 3.114 3.116" transform="translate(19.955 23.297)" style="fill-rule:evenodd"/>
                <path data-name="패스 11811" d="M73.21 25.472a3.114 3.114 0 1 1-3.11-3.112 3.114 3.114 0 0 1 3.114 3.112" transform="translate(40.036 13.365)" style="fill-rule:evenodd"/>
                <path data-name="패스 11812" d="M73.21 31.1a3.114 3.114 0 1 1-3.11-3.111 3.115 3.115 0 0 1 3.11 3.111" transform="translate(40.036 16.73)" style="fill-rule:evenodd"/>
                <path data-name="패스 11813" d="M78.745 31.1a3.115 3.115 0 1 1-3.114-3.116 3.116 3.116 0 0 1 3.114 3.116" transform="translate(43.344 16.73)" style="fill-rule:evenodd"/>
                <path data-name="패스 11814" d="M45.361 25.472a3.115 3.115 0 1 1-3.112-3.112 3.113 3.113 0 0 1 3.112 3.112" transform="translate(23.389 13.365)" style="fill-rule:evenodd"/>
                <path data-name="패스 11815" d="M45.361 31.1a3.115 3.115 0 1 1-3.112-3.116 3.114 3.114 0 0 1 3.112 3.116" transform="translate(23.389 16.73)" style="fill-rule:evenodd"/>
                <path data-name="패스 11816" d="M50.894 25.472a3.114 3.114 0 1 1-3.116-3.112 3.113 3.113 0 0 1 3.116 3.112" transform="translate(26.698 13.365)" style="fill-rule:evenodd"/>
                <path data-name="패스 11817" d="M50.894 31.1a3.114 3.114 0 1 1-3.116-3.116 3.114 3.114 0 0 1 3.116 3.116" transform="translate(26.698 16.73)" style="fill-rule:evenodd"/>
                <path data-name="패스 11818" d="M56.475 25.472a3.112 3.112 0 1 1-3.114-3.112 3.114 3.114 0 0 1 3.114 3.112" transform="translate(30.035 13.365)" style="fill-rule:evenodd"/>
                <path data-name="패스 11819" d="M56.475 31.1a3.112 3.112 0 1 1-3.114-3.116 3.115 3.115 0 0 1 3.114 3.116" transform="translate(30.035 16.73)" style="fill-rule:evenodd"/>
                <path data-name="패스 11820" d="M62.106 25.472a3.114 3.114 0 1 1-3.112-3.112 3.111 3.111 0 0 1 3.112 3.112" transform="translate(33.399 13.365)" style="fill-rule:evenodd"/>
                <path data-name="패스 11821" d="M62.106 31.1a3.114 3.114 0 1 1-3.112-3.116 3.112 3.112 0 0 1 3.112 3.116" transform="translate(33.399 16.73)" style="fill-rule:evenodd"/>
                <path data-name="패스 11822" d="M67.643 25.472a3.116 3.116 0 1 1-3.112-3.112 3.113 3.113 0 0 1 3.112 3.112" transform="translate(36.707 13.365)" style="fill-rule:evenodd"/>
                <path data-name="패스 11823" d="M67.643 31.1a3.116 3.116 0 1 1-3.112-3.116 3.114 3.114 0 0 1 3.112 3.116" transform="translate(36.707 16.73)" style="fill-rule:evenodd"/>
                <path data-name="패스 11824" d="M28.5 25.472a3.113 3.113 0 1 1-3.116-3.112 3.113 3.113 0 0 1 3.116 3.112" transform="translate(13.311 13.365)" style="fill-rule:evenodd"/>
                <path data-name="패스 11825" d="M28.5 31.1a3.113 3.113 0 1 1-3.116-3.116A3.114 3.114 0 0 1 28.5 31.1" transform="translate(13.311 16.73)" style="fill-rule:evenodd"/>
                <path data-name="패스 11826" d="M34.033 25.472a3.115 3.115 0 1 1-3.116-3.112 3.115 3.115 0 0 1 3.116 3.112" transform="translate(16.618 13.365)" style="fill-rule:evenodd"/>
                <path data-name="패스 11827" d="M34.033 31.1a3.115 3.115 0 1 1-3.116-3.116 3.116 3.116 0 0 1 3.116 3.116" transform="translate(16.618 16.73)" style="fill-rule:evenodd"/>
                <path data-name="패스 11828" d="M39.613 25.472A3.114 3.114 0 1 1 36.5 22.36a3.113 3.113 0 0 1 3.114 3.112" transform="translate(19.955 13.365)" style="fill-rule:evenodd"/>
                <path data-name="패스 11829" d="M39.613 31.1a3.114 3.114 0 1 1-3.113-3.111 3.114 3.114 0 0 1 3.113 3.111" transform="translate(19.955 16.73)" style="fill-rule:evenodd"/>
                <path data-name="패스 11830" d="M45.361 13.974a3.115 3.115 0 1 1-3.112-3.112 3.114 3.114 0 0 1 3.112 3.112" transform="translate(23.389 6.492)" style="fill-rule:evenodd"/>
                <path data-name="패스 11831" d="M45.361 19.605a3.115 3.115 0 1 1-3.112-3.112 3.111 3.111 0 0 1 3.112 3.112" transform="translate(23.389 9.858)" style="fill-rule:evenodd"/>
                <path data-name="패스 11832" d="M50.894 13.974a3.114 3.114 0 1 1-3.116-3.112 3.114 3.114 0 0 1 3.116 3.112" transform="translate(26.698 6.492)" style="fill-rule:evenodd"/>
                <path data-name="패스 11833" d="M50.894 19.605a3.114 3.114 0 1 1-3.116-3.112 3.111 3.111 0 0 1 3.116 3.112" transform="translate(26.698 9.858)" style="fill-rule:evenodd"/>
                <path data-name="패스 11834" d="M56.475 13.974a3.112 3.112 0 1 1-3.114-3.112 3.115 3.115 0 0 1 3.114 3.112" transform="translate(30.035 6.492)" style="fill-rule:evenodd"/>
                <path data-name="패스 11835" d="M56.475 19.605a3.112 3.112 0 1 1-3.114-3.112 3.111 3.111 0 0 1 3.114 3.112" transform="translate(30.035 9.858)" style="fill-rule:evenodd"/>
                <path data-name="패스 11836" d="M62.106 13.974a3.114 3.114 0 1 1-3.112-3.112 3.112 3.112 0 0 1 3.112 3.112" transform="translate(33.399 6.492)" style="fill-rule:evenodd"/>
                <path data-name="패스 11837" d="M62.106 19.605a3.114 3.114 0 1 1-3.112-3.112 3.109 3.109 0 0 1 3.112 3.112" transform="translate(33.399 9.858)" style="fill-rule:evenodd"/>
                <path data-name="패스 11838" d="M67.643 19.605a3.116 3.116 0 1 1-3.112-3.112 3.111 3.111 0 0 1 3.112 3.112" transform="translate(36.707 9.858)" style="fill-rule:evenodd"/>
                <path data-name="패스 11839" d="M28.5 13.974a3.113 3.113 0 1 1-3.116-3.112 3.114 3.114 0 0 1 3.116 3.112" transform="translate(13.311 6.492)" style="fill-rule:evenodd"/>
                <path data-name="패스 11840" d="M28.5 19.605a3.113 3.113 0 1 1-3.116-3.112 3.111 3.111 0 0 1 3.116 3.112" transform="translate(13.311 9.858)" style="fill-rule:evenodd"/>
                <path data-name="패스 11841" d="M34.033 13.974a3.115 3.115 0 1 1-3.116-3.112 3.116 3.116 0 0 1 3.116 3.112" transform="translate(16.618 6.492)" style="fill-rule:evenodd"/>
                <path data-name="패스 11842" d="M34.033 19.605a3.115 3.115 0 1 1-3.116-3.112 3.113 3.113 0 0 1 3.116 3.112" transform="translate(16.618 9.858)" style="fill-rule:evenodd"/>
                <path data-name="패스 11843" d="M39.613 13.974a3.114 3.114 0 1 1-3.113-3.112 3.114 3.114 0 0 1 3.114 3.112" transform="translate(19.955 6.492)" style="fill-rule:evenodd"/>
                <path data-name="패스 11844" d="M39.613 19.605a3.114 3.114 0 1 1-3.113-3.112 3.11 3.11 0 0 1 3.114 3.112" transform="translate(19.955 9.858)" style="fill-rule:evenodd"/>
                <path data-name="패스 11845" d="M84.615 53.074A3.114 3.114 0 1 1 81.5 49.96a3.116 3.116 0 0 1 3.114 3.114" transform="translate(46.853 29.862)" style="fill-rule:evenodd"/>
                <path data-name="패스 11846" d="M84.615 47.453a3.114 3.114 0 1 1-3.115-3.114 3.115 3.115 0 0 1 3.114 3.114" transform="translate(46.853 26.502)" style="fill-rule:evenodd"/>
                <path data-name="패스 11847" d="M67.581 69.519a3.112 3.112 0 1 1-3.114-3.119 3.11 3.11 0 0 1 3.114 3.114" transform="translate(36.674 39.691)" style="fill-rule:evenodd"/>
                <path data-name="패스 11848" d="M73.117 69.519A3.114 3.114 0 1 1 70 66.4a3.112 3.112 0 0 1 3.114 3.114" transform="translate(39.981 39.691)" style="fill-rule:evenodd"/>
                <path data-name="패스 11849" d="M78.7 69.519a3.114 3.114 0 1 1-3.116-3.119 3.114 3.114 0 0 1 3.116 3.119" transform="translate(43.318 39.691)" style="fill-rule:evenodd"/>
                <path data-name="패스 11850" d="M67.581 63.9a3.112 3.112 0 1 1-3.114-3.112 3.112 3.112 0 0 1 3.114 3.112" transform="translate(36.674 36.332)" style="fill-rule:evenodd"/>
                <path data-name="패스 11851" d="M73.117 63.9A3.114 3.114 0 1 1 70 60.784a3.114 3.114 0 0 1 3.117 3.116" transform="translate(39.981 36.332)" style="fill-rule:evenodd"/>
                <path data-name="패스 11852" d="M78.7 63.9a3.114 3.114 0 1 1-3.117-3.112A3.115 3.115 0 0 1 78.7 63.9" transform="translate(43.318 36.332)" style="fill-rule:evenodd"/>
                <path data-name="패스 11853" d="M73.21 58.534a3.114 3.114 0 1 1-3.11-3.112 3.114 3.114 0 0 1 3.114 3.112" transform="translate(40.036 33.127)" style="fill-rule:evenodd"/>
                <path data-name="패스 11854" d="M78.745 58.534a3.115 3.115 0 1 1-3.114-3.112 3.115 3.115 0 0 1 3.114 3.112" transform="translate(43.344 33.127)" style="fill-rule:evenodd"/>
                <path data-name="패스 11855" d="M67.643 58.534a3.116 3.116 0 1 1-3.112-3.112 3.114 3.114 0 0 1 3.112 3.112" transform="translate(36.707 33.127)" style="fill-rule:evenodd"/>
                <path data-name="패스 11856" d="M84.615 69.519A3.114 3.114 0 1 1 81.5 66.4a3.113 3.113 0 0 1 3.114 3.114" transform="translate(46.853 39.691)" style="fill-rule:evenodd"/>
                <path data-name="패스 11857" d="M67.581 81.025a3.112 3.112 0 1 1-3.114-3.112 3.114 3.114 0 0 1 3.114 3.112" transform="translate(36.674 46.57)" style="fill-rule:evenodd"/>
                <path data-name="패스 11858" d="M73.117 81.025A3.114 3.114 0 1 1 70 77.913a3.116 3.116 0 0 1 3.114 3.112" transform="translate(39.981 46.57)" style="fill-rule:evenodd"/>
                <path data-name="패스 11859" d="M78.7 81.025a3.114 3.114 0 1 1-3.117-3.112 3.118 3.118 0 0 1 3.117 3.112" transform="translate(43.318 46.57)" style="fill-rule:evenodd"/>
                <path data-name="패스 11860" d="M67.581 75.4a3.112 3.112 0 1 1-3.114-3.112 3.112 3.112 0 0 1 3.114 3.112" transform="translate(36.674 43.21)" style="fill-rule:evenodd"/>
                <path data-name="패스 11861" d="M73.117 75.4A3.114 3.114 0 1 1 70 72.292a3.114 3.114 0 0 1 3.117 3.108" transform="translate(39.981 43.21)" style="fill-rule:evenodd"/>
                <path data-name="패스 11862" d="M78.7 75.4a3.114 3.114 0 1 1-3.117-3.112A3.116 3.116 0 0 1 78.7 75.4" transform="translate(43.318 43.21)" style="fill-rule:evenodd"/>
                <path data-name="패스 11863" d="M84.615 81.025a3.114 3.114 0 1 1-3.115-3.112 3.117 3.117 0 0 1 3.114 3.112" transform="translate(46.853 46.57)" style="fill-rule:evenodd"/>
                <path data-name="패스 11864" d="M84.615 75.4a3.114 3.114 0 1 1-3.115-3.108 3.115 3.115 0 0 1 3.115 3.108" transform="translate(46.853 43.21)" style="fill-rule:evenodd"/>
                <path data-name="패스 11865" d="M67.581 92.266a3.112 3.112 0 1 1-3.114-3.114 3.112 3.112 0 0 1 3.114 3.114" transform="translate(36.674 53.288)" style="fill-rule:evenodd"/>
                <path data-name="패스 11866" d="M73.117 92.266A3.114 3.114 0 1 1 70 89.152a3.114 3.114 0 0 1 3.114 3.114" transform="translate(39.981 53.288)" style="fill-rule:evenodd"/>
                <path data-name="패스 11867" d="M78.7 92.266a3.114 3.114 0 1 1-3.117-3.114 3.116 3.116 0 0 1 3.117 3.114" transform="translate(43.318 53.288)" style="fill-rule:evenodd"/>
                <path data-name="패스 11868" d="M67.581 86.646a3.112 3.112 0 1 1-3.114-3.114 3.113 3.113 0 0 1 3.114 3.114" transform="translate(36.674 49.929)" style="fill-rule:evenodd"/>
                <path data-name="패스 11869" d="M73.117 86.646A3.114 3.114 0 1 1 70 83.532a3.115 3.115 0 0 1 3.114 3.114" transform="translate(39.981 49.929)" style="fill-rule:evenodd"/>
                <path data-name="패스 11870" d="M78.7 86.646a3.114 3.114 0 1 1-3.117-3.114 3.117 3.117 0 0 1 3.117 3.114" transform="translate(43.318 49.929)" style="fill-rule:evenodd"/>
                <path data-name="패스 11871" d="M84.615 86.646a3.114 3.114 0 1 1-3.115-3.114 3.116 3.116 0 0 1 3.114 3.114" transform="translate(46.853 49.929)" style="fill-rule:evenodd"/>
                <path data-name="패스 11872" d="M67.581 103.241a3.112 3.112 0 1 1-3.114-3.114 3.111 3.111 0 0 1 3.114 3.114" transform="translate(36.674 59.848)" style="fill-rule:evenodd"/>
                <path data-name="패스 11873" d="M67.581 97.618a3.112 3.112 0 1 1-3.114-3.111 3.111 3.111 0 0 1 3.114 3.111" transform="translate(36.674 56.488)" style="fill-rule:evenodd"/>
                <path data-name="패스 11874" d="M73.117 97.618A3.114 3.114 0 1 1 70 94.507a3.113 3.113 0 0 1 3.114 3.111" transform="translate(39.981 56.488)" style="fill-rule:evenodd"/>
                <path data-name="패스 11875" d="M106.851 31.1a3.114 3.114 0 1 1-3.112-3.112 3.111 3.111 0 0 1 3.112 3.112" transform="translate(60.144 16.731)" style="fill-rule:evenodd"/>
                <path data-name="패스 11876" d="M45.268 63.933a3.112 3.112 0 1 1-3.111-3.111 3.114 3.114 0 0 1 3.111 3.111" transform="translate(23.337 36.354)" style="fill-rule:evenodd"/>
                <path data-name="패스 11877" d="M45.268 69.564a3.112 3.112 0 1 1-3.111-3.112 3.113 3.113 0 0 1 3.111 3.112" transform="translate(23.337 39.72)" style="fill-rule:evenodd"/>
                <path data-name="패스 11878" d="M50.806 63.933a3.114 3.114 0 1 1-3.116-3.111 3.116 3.116 0 0 1 3.116 3.111" transform="translate(26.645 36.354)" style="fill-rule:evenodd"/>
                <path data-name="패스 11879" d="M50.806 69.564a3.114 3.114 0 1 1-3.116-3.112 3.115 3.115 0 0 1 3.116 3.112" transform="translate(26.645 39.72)" style="fill-rule:evenodd"/>
                <path data-name="패스 11880" d="M56.387 63.933a3.112 3.112 0 1 1-3.114-3.111 3.115 3.115 0 0 1 3.114 3.111" transform="translate(29.983 36.354)" style="fill-rule:evenodd"/>
                <path data-name="패스 11881" d="M56.387 69.564a3.112 3.112 0 1 1-3.114-3.112 3.115 3.115 0 0 1 3.114 3.112" transform="translate(29.983 39.72)" style="fill-rule:evenodd"/>
                <path data-name="패스 11882" d="M62.018 63.933a3.114 3.114 0 1 1-3.118-3.111 3.116 3.116 0 0 1 3.114 3.111" transform="translate(33.347 36.354)" style="fill-rule:evenodd"/>
                <path data-name="패스 11883" d="M62.018 69.564a3.114 3.114 0 1 1-3.118-3.112 3.116 3.116 0 0 1 3.114 3.112" transform="translate(33.347 39.72)" style="fill-rule:evenodd"/>
            </g>
        </g>
        <text data-name="Headquarters R&amp;D office" transform="translate(164 1177)"  font-family="Inter, sans-serif" style="font-size:16px;font-weight:500;fill:#00148c"><tspan x="-105.523" y="0">Headquarters</tspan><tspan x="-80.426" y="20">R&amp;D office</tspan></text>
        <text transform="translate(164 1158)" font-family="Inter, sans-serif" style="font-size:18px;font-weight:700;fill:#00148c"><tspan x="-62.054" y="0">KOREA</tspan></text>
        <circle data-name="타원 41" cx="10" cy="10" r="10" transform="translate(168 1141)" style="fill:#00148c"/>
    </g>
</svg>
