<svg xmlns="http://www.w3.org/2000/svg" width="246.445" height="148.562" viewBox="0 0 246.445 148.562">
    <defs>
        <clipPath id="0pwjxh8iva">
            <path data-name="사각형 3006" d="M0 0h246.445v148.562H0z"/>
        </clipPath>
    </defs>
    <g data-name="그룹 7803" transform="translate(-64 -1498.036)">
        <g data-name="그룹 7384" style="opacity:.15">
            <g data-name="그룹 7383" transform="translate(64 1498.036)" style="clip-path:url(#0pwjxh8iva)">
                <path data-name="패스 11884" d="M6.228 41.929a3.114 3.114 0 1 1-3.116-3.114 3.118 3.118 0 0 1 3.116 3.114" transform="translate(0 23.201)" style="fill-rule:evenodd"/>
                <path data-name="패스 11885" d="M11.86 41.929a3.115 3.115 0 1 1-3.116-3.114 3.117 3.117 0 0 1 3.116 3.114" transform="translate(3.365 23.201)" style="fill-rule:evenodd"/>
                <path data-name="패스 11886" d="M17.391 41.929a3.112 3.112 0 1 1-3.112-3.114 3.115 3.115 0 0 1 3.112 3.114" transform="translate(6.674 23.201)" style="fill-rule:evenodd"/>
                <path data-name="패스 11887" d="M22.962 41.929a3.115 3.115 0 1 1-3.114-3.114 3.116 3.116 0 0 1 3.114 3.114" transform="translate(10.001 23.201)" style="fill-rule:evenodd"/>
                <path data-name="패스 11888" d="M28.492 41.929a3.113 3.113 0 1 1-3.111-3.114 3.114 3.114 0 0 1 3.111 3.114" transform="translate(13.309 23.201)" style="fill-rule:evenodd"/>
                <path data-name="패스 11889" d="M34.079 41.929a3.115 3.115 0 1 1-3.119-3.114 3.12 3.12 0 0 1 3.119 3.114" transform="translate(16.646 23.201)" style="fill-rule:evenodd"/>
                <path data-name="패스 11890" d="M39.7 41.929a3.112 3.112 0 1 1-3.112-3.114 3.113 3.113 0 0 1 3.112 3.114" transform="translate(20.012 23.201)" style="fill-rule:evenodd"/>
                <path data-name="패스 11891" d="M6.228 36.627a3.114 3.114 0 1 1-3.116-3.114 3.118 3.118 0 0 1 3.116 3.114" transform="translate(0 20.031)" style="fill-rule:evenodd"/>
                <path data-name="패스 11892" d="M11.86 36.627a3.115 3.115 0 1 1-3.116-3.114 3.116 3.116 0 0 1 3.116 3.114" transform="translate(3.365 20.031)" style="fill-rule:evenodd"/>
                <path data-name="패스 11893" d="M17.391 36.627a3.112 3.112 0 1 1-3.112-3.114 3.115 3.115 0 0 1 3.112 3.114" transform="translate(6.674 20.031)" style="fill-rule:evenodd"/>
                <path data-name="패스 11894" d="M22.962 36.627a3.115 3.115 0 1 1-3.114-3.114 3.116 3.116 0 0 1 3.114 3.114" transform="translate(10.001 20.031)" style="fill-rule:evenodd"/>
                <path data-name="패스 11895" d="M28.492 36.627a3.113 3.113 0 1 1-3.111-3.114 3.113 3.113 0 0 1 3.111 3.114" transform="translate(13.309 20.031)" style="fill-rule:evenodd"/>
                <path data-name="패스 11896" d="M34.079 36.627a3.115 3.115 0 1 1-3.119-3.114 3.119 3.119 0 0 1 3.119 3.114" transform="translate(16.646 20.031)" style="fill-rule:evenodd"/>
                <path data-name="패스 11897" d="M6.228 31.008a3.114 3.114 0 1 1-3.116-3.116 3.116 3.116 0 0 1 3.116 3.116" transform="translate(0 16.672)" style="fill-rule:evenodd"/>
                <path data-name="패스 11898" d="M11.86 31.008a3.115 3.115 0 1 1-3.116-3.116 3.115 3.115 0 0 1 3.116 3.116" transform="translate(3.365 16.672)" style="fill-rule:evenodd"/>
                <path data-name="패스 11899" d="M17.391 31.008a3.112 3.112 0 1 1-3.112-3.116 3.113 3.113 0 0 1 3.112 3.116" transform="translate(6.674 16.672)" style="fill-rule:evenodd"/>
                <path data-name="패스 11900" d="M22.962 31.008a3.115 3.115 0 1 1-3.114-3.116 3.115 3.115 0 0 1 3.114 3.116" transform="translate(10.001 16.672)" style="fill-rule:evenodd"/>
                <path data-name="패스 11901" d="M28.492 31.008a3.113 3.113 0 1 1-3.111-3.116 3.112 3.112 0 0 1 3.111 3.116" transform="translate(13.309 16.672)" style="fill-rule:evenodd"/>
                <path data-name="패스 11902" d="M34.079 31.008a3.115 3.115 0 1 1-3.119-3.116 3.118 3.118 0 0 1 3.119 3.116" transform="translate(16.646 16.672)" style="fill-rule:evenodd"/>
                <path data-name="패스 11903" d="M6.228 25.622a3.114 3.114 0 1 1-3.116-3.112 3.116 3.116 0 0 1 3.116 3.112" transform="translate(0 13.455)" style="fill-rule:evenodd"/>
                <path data-name="패스 11904" d="M11.86 25.622a3.115 3.115 0 1 1-3.116-3.112 3.115 3.115 0 0 1 3.116 3.112" transform="translate(3.365 13.455)" style="fill-rule:evenodd"/>
                <path data-name="패스 11905" d="M17.391 25.622a3.112 3.112 0 1 1-3.112-3.112 3.114 3.114 0 0 1 3.112 3.112" transform="translate(6.674 13.455)" style="fill-rule:evenodd"/>
                <path data-name="패스 11906" d="M22.962 25.622a3.115 3.115 0 1 1-3.114-3.112 3.115 3.115 0 0 1 3.114 3.112" transform="translate(10.001 13.455)" style="fill-rule:evenodd"/>
                <path data-name="패스 11907" d="M28.492 25.622a3.113 3.113 0 1 1-3.111-3.112 3.112 3.112 0 0 1 3.111 3.112" transform="translate(13.309 13.455)" style="fill-rule:evenodd"/>
                <path data-name="패스 11908" d="M34.079 25.622a3.115 3.115 0 1 1-3.119-3.112 3.118 3.118 0 0 1 3.119 3.112" transform="translate(16.646 13.455)" style="fill-rule:evenodd"/>
                <path data-name="패스 11909" d="M39.7 25.622a3.112 3.112 0 1 1-3.112-3.112 3.112 3.112 0 0 1 3.112 3.112" transform="translate(20.012 13.455)" style="fill-rule:evenodd"/>
                <path data-name="패스 11910" d="M11.86 20.322a3.115 3.115 0 1 1-3.116-3.114 3.114 3.114 0 0 1 3.116 3.114" transform="translate(3.365 10.286)" style="fill-rule:evenodd"/>
                <path data-name="패스 11911" d="M17.391 20.322a3.112 3.112 0 1 1-3.112-3.114 3.112 3.112 0 0 1 3.112 3.114" transform="translate(6.674 10.286)" style="fill-rule:evenodd"/>
                <path data-name="패스 11912" d="M22.962 20.322a3.115 3.115 0 1 1-3.114-3.114 3.114 3.114 0 0 1 3.114 3.114" transform="translate(10.001 10.286)" style="fill-rule:evenodd"/>
                <path data-name="패스 11913" d="M28.492 20.322a3.113 3.113 0 1 1-3.111-3.114 3.111 3.111 0 0 1 3.111 3.114" transform="translate(13.309 10.286)" style="fill-rule:evenodd"/>
                <path data-name="패스 11914" d="M34.079 20.322a3.115 3.115 0 1 1-3.119-3.114 3.117 3.117 0 0 1 3.119 3.114" transform="translate(16.646 10.286)" style="fill-rule:evenodd"/>
                <path data-name="패스 11915" d="M11.86 14.7a3.115 3.115 0 1 1-3.116-3.114A3.114 3.114 0 0 1 11.86 14.7" transform="translate(3.365 6.927)" style="fill-rule:evenodd"/>
                <path data-name="패스 11916" d="M17.391 14.7a3.112 3.112 0 1 1-3.112-3.114 3.112 3.112 0 0 1 3.112 3.114" transform="translate(6.674 6.927)" style="fill-rule:evenodd"/>
                <path data-name="패스 11917" d="M22.962 14.7a3.115 3.115 0 1 1-3.114-3.114 3.113 3.113 0 0 1 3.114 3.114" transform="translate(10.001 6.927)" style="fill-rule:evenodd"/>
                <path data-name="패스 11918" d="M28.492 14.7a3.113 3.113 0 1 1-3.111-3.114 3.111 3.111 0 0 1 3.111 3.114" transform="translate(13.309 6.927)" style="fill-rule:evenodd"/>
                <path data-name="패스 11919" d="M34.079 14.7a3.115 3.115 0 1 1-3.119-3.114 3.116 3.116 0 0 1 3.119 3.114" transform="translate(16.646 6.927)" style="fill-rule:evenodd"/>
                <path data-name="패스 11920" d="M11.86 8.736A3.115 3.115 0 1 1 8.744 5.62a3.116 3.116 0 0 1 3.116 3.116" transform="translate(3.365 3.359)" style="fill-rule:evenodd"/>
                <path data-name="패스 11921" d="M17.391 8.736a3.112 3.112 0 1 1-3.113-3.116 3.114 3.114 0 0 1 3.112 3.116" transform="translate(6.674 3.359)" style="fill-rule:evenodd"/>
                <path data-name="패스 11922" d="M22.962 8.736a3.115 3.115 0 1 1-3.114-3.116 3.116 3.116 0 0 1 3.114 3.116" transform="translate(10.001 3.359)" style="fill-rule:evenodd"/>
                <path data-name="패스 11923" d="M28.492 8.736a3.113 3.113 0 1 1-3.11-3.116 3.113 3.113 0 0 1 3.111 3.116" transform="translate(13.309 3.359)" style="fill-rule:evenodd"/>
                <path data-name="패스 11924" d="M34.079 8.736A3.115 3.115 0 1 1 30.96 5.62a3.119 3.119 0 0 1 3.119 3.116" transform="translate(16.646 3.359)" style="fill-rule:evenodd"/>
                <path data-name="패스 11925" d="M11.86 3.112A3.115 3.115 0 1 1 8.744 0a3.115 3.115 0 0 1 3.116 3.112" transform="translate(3.365)" style="fill-rule:evenodd"/>
                <path data-name="패스 11926" d="M17.391 3.112A3.112 3.112 0 1 1 14.278 0a3.114 3.114 0 0 1 3.112 3.112" transform="translate(6.674)" style="fill-rule:evenodd"/>
                <path data-name="패스 11927" d="M22.962 3.112A3.115 3.115 0 1 1 19.848 0a3.115 3.115 0 0 1 3.114 3.112" transform="translate(10.001)" style="fill-rule:evenodd"/>
                <path data-name="패스 11928" d="M56.117 41.929A3.113 3.113 0 1 1 53 38.815a3.115 3.115 0 0 1 3.112 3.114" transform="translate(29.821 23.201)" style="fill-rule:evenodd"/>
                <path data-name="패스 11929" d="M61.655 41.929a3.115 3.115 0 1 1-3.116-3.114 3.118 3.118 0 0 1 3.116 3.114" transform="translate(33.129 23.201)" style="fill-rule:evenodd"/>
                <path data-name="패스 11930" d="M67.236 41.929a3.114 3.114 0 1 1-3.116-3.114 3.116 3.116 0 0 1 3.116 3.114" transform="translate(36.466 23.201)" style="fill-rule:evenodd"/>
                <path data-name="패스 11931" d="M72.866 41.929a3.113 3.113 0 1 1-3.116-3.114 3.117 3.117 0 0 1 3.116 3.114" transform="translate(39.832 23.201)" style="fill-rule:evenodd"/>
                <path data-name="패스 11932" d="M78.4 41.929a3.114 3.114 0 1 1-3.112-3.114 3.115 3.115 0 0 1 3.112 3.114" transform="translate(43.139 23.201)" style="fill-rule:evenodd"/>
                <path data-name="패스 11933" d="M83.967 41.929a3.112 3.112 0 1 1-3.112-3.114 3.114 3.114 0 0 1 3.112 3.114" transform="translate(46.468 23.201)" style="fill-rule:evenodd"/>
                <path data-name="패스 11934" d="M89.5 41.929a3.114 3.114 0 1 1-3.114-3.114 3.116 3.116 0 0 1 3.114 3.114" transform="translate(49.775 23.201)" style="fill-rule:evenodd"/>
                <path data-name="패스 11935" d="M95.084 41.929a3.113 3.113 0 1 1-3.112-3.114 3.115 3.115 0 0 1 3.112 3.114" transform="translate(53.112 23.201)" style="fill-rule:evenodd"/>
                <path data-name="패스 11936" d="M100.717 41.929a3.114 3.114 0 1 1-3.117-3.114 3.117 3.117 0 0 1 3.117 3.114" transform="translate(56.478 23.201)" style="fill-rule:evenodd"/>
                <path data-name="패스 11937" d="M56.117 36.627A3.113 3.113 0 1 1 53 33.513a3.115 3.115 0 0 1 3.112 3.114" transform="translate(29.821 20.031)" style="fill-rule:evenodd"/>
                <path data-name="패스 11938" d="M61.655 36.627a3.115 3.115 0 1 1-3.116-3.114 3.118 3.118 0 0 1 3.116 3.114" transform="translate(33.129 20.031)" style="fill-rule:evenodd"/>
                <path data-name="패스 11939" d="M67.236 36.627a3.114 3.114 0 1 1-3.116-3.114 3.115 3.115 0 0 1 3.116 3.114" transform="translate(36.466 20.031)" style="fill-rule:evenodd"/>
                <path data-name="패스 11940" d="M72.866 36.627a3.113 3.113 0 1 1-3.116-3.114 3.116 3.116 0 0 1 3.116 3.114" transform="translate(39.832 20.031)" style="fill-rule:evenodd"/>
                <path data-name="패스 11941" d="M78.4 36.627a3.114 3.114 0 1 1-3.112-3.114 3.115 3.115 0 0 1 3.112 3.114" transform="translate(43.139 20.031)" style="fill-rule:evenodd"/>
                <path data-name="패스 11942" d="M83.967 36.627a3.112 3.112 0 1 1-3.112-3.114 3.114 3.114 0 0 1 3.112 3.114" transform="translate(46.468 20.031)" style="fill-rule:evenodd"/>
                <path data-name="패스 11943" d="M89.5 36.627a3.114 3.114 0 1 1-3.114-3.114 3.116 3.116 0 0 1 3.114 3.114" transform="translate(49.775 20.031)" style="fill-rule:evenodd"/>
                <path data-name="패스 11944" d="M95.084 36.627a3.113 3.113 0 1 1-3.112-3.114 3.115 3.115 0 0 1 3.112 3.114" transform="translate(53.112 20.031)" style="fill-rule:evenodd"/>
                <path data-name="패스 11945" d="M56.117 31.008A3.113 3.113 0 1 1 53 27.892a3.113 3.113 0 0 1 3.112 3.116" transform="translate(29.821 16.672)" style="fill-rule:evenodd"/>
                <path data-name="패스 11946" d="M61.655 31.008a3.115 3.115 0 1 1-3.116-3.116 3.116 3.116 0 0 1 3.116 3.116" transform="translate(33.129 16.672)" style="fill-rule:evenodd"/>
                <path data-name="패스 11947" d="M45.089 41.929a3.113 3.113 0 1 1-3.114-3.114 3.115 3.115 0 0 1 3.114 3.114" transform="translate(23.229 23.201)" style="fill-rule:evenodd"/>
                <path data-name="패스 11948" d="M50.626 41.929a3.115 3.115 0 1 1-3.116-3.114 3.118 3.118 0 0 1 3.116 3.114" transform="translate(26.536 23.201)" style="fill-rule:evenodd"/>
                <path data-name="패스 11949" d="M44.865 36.419a2.95 2.95 0 1 1-2.953-2.951 2.95 2.95 0 0 1 2.953 2.951" transform="translate(23.29 20.005)" style="fill-rule:evenodd"/>
                <path data-name="패스 11950" d="M50.626 36.627a3.115 3.115 0 1 1-3.116-3.114 3.118 3.118 0 0 1 3.116 3.114" transform="translate(26.536 20.031)" style="fill-rule:evenodd"/>
                <path data-name="패스 11951" d="M44.865 31.093a2.95 2.95 0 1 1-2.953-2.949 2.951 2.951 0 0 1 2.953 2.949" transform="translate(23.29 16.822)" style="fill-rule:evenodd"/>
                <path data-name="패스 11952" d="M39.137 36.419a2.948 2.948 0 1 1-2.949-2.951 2.949 2.949 0 0 1 2.949 2.951" transform="translate(19.869 20.005)" style="fill-rule:evenodd"/>
                <path data-name="패스 11953" d="M39.137 31.093a2.948 2.948 0 1 1-2.949-2.949 2.949 2.949 0 0 1 2.949 2.949" transform="translate(19.869 16.822)" style="fill-rule:evenodd"/>
                <path data-name="패스 11954" d="M50.626 31.008a3.115 3.115 0 1 1-3.116-3.116 3.116 3.116 0 0 1 3.116 3.116" transform="translate(26.536 16.672)" style="fill-rule:evenodd"/>
                <path data-name="패스 11955" d="M67.236 31.008a3.114 3.114 0 1 1-3.116-3.116 3.114 3.114 0 0 1 3.116 3.116" transform="translate(36.466 16.672)" style="fill-rule:evenodd"/>
                <path data-name="패스 11956" d="M72.866 31.008a3.113 3.113 0 1 1-3.116-3.116 3.115 3.115 0 0 1 3.116 3.116" transform="translate(39.832 16.672)" style="fill-rule:evenodd"/>
                <path data-name="패스 11957" d="M78.4 31.008a3.114 3.114 0 1 1-3.112-3.116 3.113 3.113 0 0 1 3.112 3.116" transform="translate(43.139 16.672)" style="fill-rule:evenodd"/>
                <path data-name="패스 11958" d="M83.967 31.008a3.112 3.112 0 1 1-3.112-3.116 3.112 3.112 0 0 1 3.112 3.116" transform="translate(46.468 16.672)" style="fill-rule:evenodd"/>
                <path data-name="패스 11959" d="M89.5 31.008a3.114 3.114 0 1 1-3.114-3.116 3.115 3.115 0 0 1 3.114 3.116" transform="translate(49.775 16.672)" style="fill-rule:evenodd"/>
                <path data-name="패스 11960" d="M95.084 31.008a3.113 3.113 0 1 1-3.112-3.116 3.113 3.113 0 0 1 3.112 3.116" transform="translate(53.112 16.672)" style="fill-rule:evenodd"/>
                <path data-name="패스 11961" d="M89.6 69.972a3.115 3.115 0 1 1-3.111-3.114 3.114 3.114 0 0 1 3.111 3.114" transform="translate(49.829 39.962)" style="fill-rule:evenodd"/>
                <path data-name="패스 11962" d="M89.6 75.6a3.115 3.115 0 1 1-3.111-3.114A3.115 3.115 0 0 1 89.6 75.6" transform="translate(49.829 43.329)" style="fill-rule:evenodd"/>
                <path data-name="패스 11963" d="M95.128 69.972a3.113 3.113 0 1 1-3.116-3.114 3.116 3.116 0 0 1 3.116 3.114" transform="translate(53.138 39.962)" style="fill-rule:evenodd"/>
                <path data-name="패스 11964" d="M95.128 75.6a3.113 3.113 0 1 1-3.116-3.114 3.117 3.117 0 0 1 3.116 3.114" transform="translate(53.138 43.329)" style="fill-rule:evenodd"/>
                <path data-name="패스 11965" d="M100.713 69.972a3.116 3.116 0 1 1-3.113-3.114 3.115 3.115 0 0 1 3.114 3.114" transform="translate(56.474 39.962)" style="fill-rule:evenodd"/>
                <path data-name="패스 11966" d="M100.713 75.6a3.116 3.116 0 1 1-3.113-3.11 3.115 3.115 0 0 1 3.114 3.114" transform="translate(56.474 43.329)" style="fill-rule:evenodd"/>
                <path data-name="패스 11967" d="M106.341 69.972a3.113 3.113 0 1 1-3.114-3.114 3.116 3.116 0 0 1 3.114 3.114" transform="translate(59.841 39.962)" style="fill-rule:evenodd"/>
                <path data-name="패스 11968" d="M106.341 75.6a3.113 3.113 0 1 1-3.114-3.114 3.116 3.116 0 0 1 3.114 3.114" transform="translate(59.841 43.329)" style="fill-rule:evenodd"/>
                <path data-name="패스 11969" d="M111.878 69.972a3.114 3.114 0 1 1-3.117-3.114 3.118 3.118 0 0 1 3.117 3.114" transform="translate(63.149 39.962)" style="fill-rule:evenodd"/>
                <path data-name="패스 11970" d="M111.878 75.6a3.114 3.114 0 1 1-3.117-3.114 3.118 3.118 0 0 1 3.117 3.114" transform="translate(63.149 43.329)" style="fill-rule:evenodd"/>
                <path data-name="패스 11971" d="M89.6 81.233a3.115 3.115 0 1 1-3.111-3.112 3.111 3.111 0 0 1 3.111 3.112" transform="translate(49.829 46.694)" style="fill-rule:evenodd"/>
                <path data-name="패스 11972" d="M95.128 81.233a3.113 3.113 0 1 1-3.116-3.112 3.113 3.113 0 0 1 3.116 3.112" transform="translate(53.138 46.694)" style="fill-rule:evenodd"/>
                <path data-name="패스 11973" d="M100.713 81.233a3.116 3.116 0 1 1-3.113-3.112 3.112 3.112 0 0 1 3.114 3.112" transform="translate(56.474 46.694)" style="fill-rule:evenodd"/>
                <path data-name="패스 11974" d="M61.744 69.972a3.114 3.114 0 1 1-3.111-3.114 3.114 3.114 0 0 1 3.111 3.114" transform="translate(33.183 39.962)" style="fill-rule:evenodd"/>
                <path data-name="패스 11975" d="M61.744 75.6a3.114 3.114 0 1 1-3.111-3.114 3.115 3.115 0 0 1 3.111 3.114" transform="translate(33.183 43.329)" style="fill-rule:evenodd"/>
                <path data-name="패스 11976" d="M67.278 69.972a3.113 3.113 0 1 1-3.116-3.114 3.115 3.115 0 0 1 3.116 3.114" transform="translate(36.492 39.962)" style="fill-rule:evenodd"/>
                <path data-name="패스 11977" d="M67.278 75.6a3.113 3.113 0 1 1-3.116-3.114 3.116 3.116 0 0 1 3.116 3.114" transform="translate(36.492 43.329)" style="fill-rule:evenodd"/>
                <path data-name="패스 11978" d="M72.862 69.972a3.114 3.114 0 1 1-3.116-3.114 3.115 3.115 0 0 1 3.116 3.114" transform="translate(39.828 39.962)" style="fill-rule:evenodd"/>
                <path data-name="패스 11979" d="M72.862 75.6a3.114 3.114 0 1 1-3.116-3.114 3.116 3.116 0 0 1 3.116 3.114" transform="translate(39.828 43.329)" style="fill-rule:evenodd"/>
                <path data-name="패스 11980" d="M78.494 69.972a3.115 3.115 0 1 1-3.116-3.114 3.115 3.115 0 0 1 3.116 3.114" transform="translate(43.194 39.962)" style="fill-rule:evenodd"/>
                <path data-name="패스 11981" d="M78.494 75.6a3.115 3.115 0 1 1-3.116-3.114 3.116 3.116 0 0 1 3.116 3.114" transform="translate(43.194 43.329)" style="fill-rule:evenodd"/>
                <path data-name="패스 11982" d="M84.029 69.972a3.115 3.115 0 1 1-3.116-3.114 3.116 3.116 0 0 1 3.116 3.114" transform="translate(46.502 39.962)" style="fill-rule:evenodd"/>
                <path data-name="패스 11983" d="M84.029 75.6a3.115 3.115 0 1 1-3.116-3.114 3.117 3.117 0 0 1 3.116 3.114" transform="translate(46.502 43.329)" style="fill-rule:evenodd"/>
                <path data-name="패스 11984" d="M61.744 81.233a3.114 3.114 0 1 1-3.111-3.112 3.111 3.111 0 0 1 3.111 3.112" transform="translate(33.183 46.694)" style="fill-rule:evenodd"/>
                <path data-name="패스 11985" d="M67.278 81.233a3.113 3.113 0 1 1-3.116-3.112 3.112 3.112 0 0 1 3.116 3.112" transform="translate(36.492 46.694)" style="fill-rule:evenodd"/>
                <path data-name="패스 11986" d="M72.862 81.233a3.114 3.114 0 1 1-3.116-3.112 3.112 3.112 0 0 1 3.116 3.112" transform="translate(39.828 46.694)" style="fill-rule:evenodd"/>
                <path data-name="패스 11987" d="M72.862 86.868a3.114 3.114 0 1 1-3.116-3.119 3.111 3.111 0 0 1 3.116 3.119" transform="translate(39.828 50.058)" style="fill-rule:evenodd"/>
                <path data-name="패스 11988" d="M78.494 81.233a3.115 3.115 0 1 1-3.116-3.112 3.112 3.112 0 0 1 3.116 3.112" transform="translate(43.194 46.694)" style="fill-rule:evenodd"/>
                <path data-name="패스 11989" d="M78.494 86.868a3.115 3.115 0 1 1-3.116-3.119 3.111 3.111 0 0 1 3.116 3.119" transform="translate(43.194 50.058)" style="fill-rule:evenodd"/>
                <path data-name="패스 11990" d="M84.029 81.233a3.115 3.115 0 1 1-3.116-3.112 3.113 3.113 0 0 1 3.116 3.112" transform="translate(46.502 46.694)" style="fill-rule:evenodd"/>
                <path data-name="패스 11991" d="M72.862 92.2a3.114 3.114 0 1 1-3.116-3.114 3.114 3.114 0 0 1 3.116 3.114" transform="translate(39.828 53.25)" style="fill-rule:evenodd"/>
                <path data-name="패스 11992" d="M78.494 92.2a3.115 3.115 0 1 1-3.116-3.114 3.114 3.114 0 0 1 3.116 3.114" transform="translate(43.194 53.25)" style="fill-rule:evenodd"/>
                <path data-name="패스 11993" d="M44.884 69.972a3.116 3.116 0 1 1-3.116-3.114 3.115 3.115 0 0 1 3.116 3.114" transform="translate(23.104 39.962)" style="fill-rule:evenodd"/>
                <path data-name="패스 11994" d="M50.417 69.972a3.114 3.114 0 1 1-3.117-3.114 3.114 3.114 0 0 1 3.116 3.114" transform="translate(26.413 39.962)" style="fill-rule:evenodd"/>
                <path data-name="패스 11995" d="M56 69.972a3.112 3.112 0 1 1-3.111-3.114A3.113 3.113 0 0 1 56 69.972" transform="translate(29.75 39.962)" style="fill-rule:evenodd"/>
                <path data-name="패스 11996" d="M56 75.6a3.112 3.112 0 1 1-3.111-3.114A3.114 3.114 0 0 1 56 75.6" transform="translate(29.75 43.329)" style="fill-rule:evenodd"/>
                <path data-name="패스 11997" d="M56 81.233a3.112 3.112 0 1 1-3.111-3.112A3.11 3.11 0 0 1 56 81.233" transform="translate(29.75 46.694)" style="fill-rule:evenodd"/>
                <path data-name="패스 11998" d="M33.779 69.972a3.114 3.114 0 1 1-3.111-3.114 3.111 3.111 0 0 1 3.111 3.114" transform="translate(16.468 39.962)" style="fill-rule:evenodd"/>
                <path data-name="패스 11999" d="M39.313 69.972a3.113 3.113 0 1 1-3.113-3.114 3.115 3.115 0 0 1 3.112 3.114" transform="translate(19.777 39.962)" style="fill-rule:evenodd"/>
                <path data-name="패스 12000" d="M117.441 69.972a3.112 3.112 0 1 1-3.111-3.114 3.112 3.112 0 0 1 3.111 3.114" transform="translate(66.476 39.962)" style="fill-rule:evenodd"/>
                <path data-name="패스 12001" d="M117.441 75.6a3.112 3.112 0 1 1-3.111-3.114 3.113 3.113 0 0 1 3.111 3.114" transform="translate(66.476 43.329)" style="fill-rule:evenodd"/>
                <path data-name="패스 12002" d="M122.978 69.972a3.114 3.114 0 1 1-3.116-3.114 3.114 3.114 0 0 1 3.116 3.114" transform="translate(69.784 39.962)" style="fill-rule:evenodd"/>
                <path data-name="패스 12003" d="M122.978 75.6a3.114 3.114 0 1 1-3.116-3.114 3.115 3.115 0 0 1 3.116 3.114" transform="translate(69.784 43.329)" style="fill-rule:evenodd"/>
                <path data-name="패스 12004" d="M128.559 69.972a3.112 3.112 0 1 1-3.114-3.114 3.114 3.114 0 0 1 3.114 3.114" transform="translate(73.121 39.962)" style="fill-rule:evenodd"/>
                <path data-name="패스 12005" d="M128.559 75.6a3.112 3.112 0 1 1-3.114-3.114 3.114 3.114 0 0 1 3.114 3.114" transform="translate(73.121 43.329)" style="fill-rule:evenodd"/>
                <path data-name="패스 12006" d="M122.978 81.233a3.114 3.114 0 1 1-3.116-3.112 3.111 3.111 0 0 1 3.116 3.112" transform="translate(69.784 46.694)" style="fill-rule:evenodd"/>
                <path data-name="패스 12007" d="M128.559 81.233a3.112 3.112 0 1 1-3.114-3.112 3.111 3.111 0 0 1 3.114 3.112" transform="translate(73.121 46.694)" style="fill-rule:evenodd"/>
                <path data-name="패스 12008" d="M128.559 86.868a3.112 3.112 0 1 1-3.114-3.119 3.11 3.11 0 0 1 3.114 3.119" transform="translate(73.121 50.058)" style="fill-rule:evenodd"/>
                <path data-name="패스 12009" d="M134.191 86.868a3.114 3.114 0 1 1-3.114-3.119 3.111 3.111 0 0 1 3.114 3.119" transform="translate(76.486 50.058)" style="fill-rule:evenodd"/>
                <path data-name="패스 12010" d="M128.559 92.2a3.112 3.112 0 1 1-3.114-3.114 3.113 3.113 0 0 1 3.114 3.114" transform="translate(73.121 53.25)" style="fill-rule:evenodd"/>
                <path data-name="패스 12011" d="M134.191 92.2a3.114 3.114 0 1 1-3.114-3.114 3.114 3.114 0 0 1 3.114 3.114" transform="translate(76.486 53.25)" style="fill-rule:evenodd"/>
                <path data-name="패스 12012" d="M89.6 58.985a3.115 3.115 0 1 1-3.111-3.111 3.112 3.112 0 0 1 3.111 3.111" transform="translate(49.829 33.397)" style="fill-rule:evenodd"/>
                <path data-name="패스 12013" d="M89.6 64.622a3.115 3.115 0 1 1-3.111-3.12 3.113 3.113 0 0 1 3.111 3.12" transform="translate(49.829 36.761)" style="fill-rule:evenodd"/>
                <path data-name="패스 12014" d="M95.128 58.985a3.113 3.113 0 1 1-3.116-3.111 3.114 3.114 0 0 1 3.116 3.111" transform="translate(53.138 33.397)" style="fill-rule:evenodd"/>
                <path data-name="패스 12015" d="M95.128 64.622a3.113 3.113 0 1 1-3.116-3.12 3.115 3.115 0 0 1 3.116 3.12" transform="translate(53.138 36.761)" style="fill-rule:evenodd"/>
                <path data-name="패스 12016" d="M100.713 58.985a3.116 3.116 0 1 1-3.113-3.111 3.113 3.113 0 0 1 3.114 3.111" transform="translate(56.474 33.397)" style="fill-rule:evenodd"/>
                <path data-name="패스 12017" d="M100.713 64.622A3.116 3.116 0 1 1 97.6 61.5a3.114 3.114 0 0 1 3.114 3.12" transform="translate(56.474 36.761)" style="fill-rule:evenodd"/>
                <path data-name="패스 12018" d="M106.341 58.985a3.113 3.113 0 1 1-3.114-3.111 3.114 3.114 0 0 1 3.114 3.111" transform="translate(59.841 33.397)" style="fill-rule:evenodd"/>
                <path data-name="패스 12019" d="M106.341 64.622a3.113 3.113 0 1 1-3.114-3.12 3.115 3.115 0 0 1 3.114 3.12" transform="translate(59.841 36.761)" style="fill-rule:evenodd"/>
                <path data-name="패스 12020" d="M111.878 58.985a3.114 3.114 0 1 1-3.117-3.111 3.115 3.115 0 0 1 3.117 3.111" transform="translate(63.149 33.397)" style="fill-rule:evenodd"/>
                <path data-name="패스 12021" d="M111.878 64.622a3.114 3.114 0 1 1-3.117-3.12 3.117 3.117 0 0 1 3.117 3.12" transform="translate(63.149 36.761)" style="fill-rule:evenodd"/>
                <path data-name="패스 12022" d="M61.744 58.985a3.114 3.114 0 1 1-3.111-3.111 3.112 3.112 0 0 1 3.111 3.111" transform="translate(33.183 33.397)" style="fill-rule:evenodd"/>
                <path data-name="패스 12023" d="M61.744 64.622a3.114 3.114 0 1 1-3.111-3.12 3.113 3.113 0 0 1 3.111 3.12" transform="translate(33.183 36.761)" style="fill-rule:evenodd"/>
                <path data-name="패스 12024" d="M67.278 58.985a3.113 3.113 0 1 1-3.116-3.111 3.113 3.113 0 0 1 3.116 3.111" transform="translate(36.492 33.397)" style="fill-rule:evenodd"/>
                <path data-name="패스 12025" d="M67.278 64.622a3.113 3.113 0 1 1-3.116-3.12 3.114 3.114 0 0 1 3.116 3.12" transform="translate(36.492 36.761)" style="fill-rule:evenodd"/>
                <path data-name="패스 12026" d="M72.862 58.985a3.114 3.114 0 1 1-3.116-3.111 3.113 3.113 0 0 1 3.116 3.111" transform="translate(39.828 33.397)" style="fill-rule:evenodd"/>
                <path data-name="패스 12027" d="M72.862 64.622a3.114 3.114 0 1 1-3.116-3.12 3.114 3.114 0 0 1 3.116 3.12" transform="translate(39.828 36.761)" style="fill-rule:evenodd"/>
                <path data-name="패스 12028" d="M78.494 58.985a3.115 3.115 0 1 1-3.116-3.111 3.113 3.113 0 0 1 3.116 3.111" transform="translate(43.194 33.397)" style="fill-rule:evenodd"/>
                <path data-name="패스 12029" d="M78.494 64.622a3.115 3.115 0 1 1-3.116-3.12 3.114 3.114 0 0 1 3.116 3.12" transform="translate(43.194 36.761)" style="fill-rule:evenodd"/>
                <path data-name="패스 12030" d="M84.029 58.985a3.115 3.115 0 1 1-3.116-3.111 3.114 3.114 0 0 1 3.116 3.111" transform="translate(46.502 33.397)" style="fill-rule:evenodd"/>
                <path data-name="패스 12031" d="M84.029 64.622a3.115 3.115 0 1 1-3.116-3.12 3.115 3.115 0 0 1 3.116 3.12" transform="translate(46.502 36.761)" style="fill-rule:evenodd"/>
                <path data-name="패스 12032" d="M44.884 58.985a3.116 3.116 0 1 1-3.116-3.111 3.113 3.113 0 0 1 3.116 3.111" transform="translate(23.104 33.397)" style="fill-rule:evenodd"/>
                <path data-name="패스 12033" d="M44.884 64.622a3.116 3.116 0 1 1-3.116-3.12 3.114 3.114 0 0 1 3.116 3.12" transform="translate(23.104 36.761)" style="fill-rule:evenodd"/>
                <path data-name="패스 12034" d="M50.417 58.985a3.114 3.114 0 1 1-3.117-3.111 3.112 3.112 0 0 1 3.116 3.111" transform="translate(26.413 33.397)" style="fill-rule:evenodd"/>
                <path data-name="패스 12035" d="M50.417 64.622A3.114 3.114 0 1 1 47.3 61.5a3.113 3.113 0 0 1 3.116 3.12" transform="translate(26.413 36.761)" style="fill-rule:evenodd"/>
                <path data-name="패스 12036" d="M56 58.985a3.112 3.112 0 1 1-3.111-3.111A3.111 3.111 0 0 1 56 58.985" transform="translate(29.75 33.397)" style="fill-rule:evenodd"/>
                <path data-name="패스 12037" d="M56 64.622a3.112 3.112 0 1 1-3.111-3.12A3.112 3.112 0 0 1 56 64.622" transform="translate(29.75 36.761)" style="fill-rule:evenodd"/>
                <path data-name="패스 12038" d="M17.035 58.985a3.115 3.115 0 1 1-3.116-3.111 3.113 3.113 0 0 1 3.116 3.111" transform="translate(6.458 33.397)" style="fill-rule:evenodd"/>
                <path data-name="패스 12039" d="M22.566 58.985a3.114 3.114 0 1 1-3.111-3.111 3.111 3.111 0 0 1 3.111 3.111" transform="translate(9.766 33.397)" style="fill-rule:evenodd"/>
                <path data-name="패스 12040" d="M22.566 64.622a3.114 3.114 0 1 1-3.111-3.12 3.112 3.112 0 0 1 3.111 3.12" transform="translate(9.766 36.761)" style="fill-rule:evenodd"/>
                <path data-name="패스 12041" d="M28.148 58.985a3.113 3.113 0 1 1-3.114-3.111 3.113 3.113 0 0 1 3.114 3.111" transform="translate(13.103 33.397)" style="fill-rule:evenodd"/>
                <path data-name="패스 12042" d="M28.148 64.622a3.113 3.113 0 1 1-3.114-3.12 3.114 3.114 0 0 1 3.114 3.12" transform="translate(13.103 36.761)" style="fill-rule:evenodd"/>
                <path data-name="패스 12043" d="M33.779 58.985a3.114 3.114 0 1 1-3.111-3.111 3.109 3.109 0 0 1 3.111 3.111" transform="translate(16.468 33.397)" style="fill-rule:evenodd"/>
                <path data-name="패스 12044" d="M33.779 64.622a3.114 3.114 0 1 1-3.111-3.12 3.11 3.11 0 0 1 3.111 3.12" transform="translate(16.468 36.761)" style="fill-rule:evenodd"/>
                <path data-name="패스 12045" d="M39.313 58.985a3.113 3.113 0 1 1-3.113-3.111 3.112 3.112 0 0 1 3.112 3.111" transform="translate(19.777 33.397)" style="fill-rule:evenodd"/>
                <path data-name="패스 12046" d="M39.313 64.622A3.113 3.113 0 1 1 36.2 61.5a3.114 3.114 0 0 1 3.112 3.12" transform="translate(19.777 36.761)" style="fill-rule:evenodd"/>
                <path data-name="패스 12047" d="M117.441 58.985a3.112 3.112 0 1 1-3.111-3.111 3.11 3.11 0 0 1 3.111 3.111" transform="translate(66.476 33.397)" style="fill-rule:evenodd"/>
                <path data-name="패스 12048" d="M117.441 64.622a3.112 3.112 0 1 1-3.111-3.12 3.111 3.111 0 0 1 3.111 3.12" transform="translate(66.476 36.761)" style="fill-rule:evenodd"/>
                <path data-name="패스 12049" d="M122.978 58.985a3.114 3.114 0 1 1-3.116-3.111 3.112 3.112 0 0 1 3.116 3.111" transform="translate(69.784 33.397)" style="fill-rule:evenodd"/>
                <path data-name="패스 12050" d="M122.978 64.622a3.114 3.114 0 1 1-3.116-3.12 3.113 3.113 0 0 1 3.116 3.12" transform="translate(69.784 36.761)" style="fill-rule:evenodd"/>
                <path data-name="패스 12051" d="M128.559 58.985a3.112 3.112 0 1 1-3.114-3.111 3.112 3.112 0 0 1 3.114 3.111" transform="translate(73.121 33.397)" style="fill-rule:evenodd"/>
                <path data-name="패스 12052" d="M128.559 64.622a3.112 3.112 0 1 1-3.114-3.12 3.113 3.113 0 0 1 3.114 3.12" transform="translate(73.121 36.761)" style="fill-rule:evenodd"/>
                <path data-name="패스 12053" d="M134.191 58.985a3.114 3.114 0 1 1-3.114-3.111 3.113 3.113 0 0 1 3.114 3.111" transform="translate(76.486 33.397)" style="fill-rule:evenodd"/>
                <path data-name="패스 12054" d="M134.191 64.622a3.114 3.114 0 1 1-3.114-3.12 3.114 3.114 0 0 1 3.114 3.12" transform="translate(76.486 36.761)" style="fill-rule:evenodd"/>
                <path data-name="패스 12055" d="M89.6 47.487a3.115 3.115 0 1 1-3.111-3.111 3.116 3.116 0 0 1 3.111 3.111" transform="translate(49.829 26.524)" style="fill-rule:evenodd"/>
                <path data-name="패스 12056" d="M89.6 53.118a3.115 3.115 0 1 1-3.111-3.112 3.115 3.115 0 0 1 3.111 3.112" transform="translate(49.829 29.89)" style="fill-rule:evenodd"/>
                <path data-name="패스 12057" d="M95.128 47.487a3.113 3.113 0 1 1-3.116-3.111 3.118 3.118 0 0 1 3.116 3.111" transform="translate(53.138 26.524)" style="fill-rule:evenodd"/>
                <path data-name="패스 12058" d="M95.128 53.118a3.113 3.113 0 1 1-3.116-3.112 3.118 3.118 0 0 1 3.116 3.112" transform="translate(53.138 29.89)" style="fill-rule:evenodd"/>
                <path data-name="패스 12059" d="M100.713 47.487a3.116 3.116 0 1 1-3.113-3.111 3.116 3.116 0 0 1 3.114 3.111" transform="translate(56.474 26.524)" style="fill-rule:evenodd"/>
                <path data-name="패스 12060" d="M100.713 53.118a3.116 3.116 0 1 1-3.113-3.112 3.116 3.116 0 0 1 3.114 3.112" transform="translate(56.474 29.89)" style="fill-rule:evenodd"/>
                <path data-name="패스 12061" d="M106.341 47.487a3.113 3.113 0 1 1-3.114-3.111 3.118 3.118 0 0 1 3.114 3.111" transform="translate(59.841 26.524)" style="fill-rule:evenodd"/>
                <path data-name="패스 12062" d="M106.341 53.118a3.113 3.113 0 1 1-3.114-3.112 3.117 3.117 0 0 1 3.114 3.112" transform="translate(59.841 29.89)" style="fill-rule:evenodd"/>
                <path data-name="패스 12063" d="M111.878 47.487a3.114 3.114 0 1 1-3.117-3.111 3.119 3.119 0 0 1 3.117 3.111" transform="translate(63.149 26.524)" style="fill-rule:evenodd"/>
                <path data-name="패스 12064" d="M111.878 53.118a3.114 3.114 0 1 1-3.117-3.112 3.119 3.119 0 0 1 3.117 3.112" transform="translate(63.149 29.89)" style="fill-rule:evenodd"/>
                <path data-name="패스 12065" d="M61.744 47.487a3.114 3.114 0 1 1-3.111-3.111 3.116 3.116 0 0 1 3.111 3.111" transform="translate(33.183 26.524)" style="fill-rule:evenodd"/>
                <path data-name="패스 12066" d="M61.744 53.118a3.114 3.114 0 1 1-3.111-3.112 3.115 3.115 0 0 1 3.111 3.112" transform="translate(33.183 29.89)" style="fill-rule:evenodd"/>
                <path data-name="패스 12067" d="M67.278 47.487a3.113 3.113 0 1 1-3.116-3.111 3.117 3.117 0 0 1 3.116 3.111" transform="translate(36.492 26.524)" style="fill-rule:evenodd"/>
                <path data-name="패스 12068" d="M67.278 53.118a3.113 3.113 0 1 1-3.116-3.112 3.116 3.116 0 0 1 3.116 3.112" transform="translate(36.492 29.89)" style="fill-rule:evenodd"/>
                <path data-name="패스 12069" d="M72.862 47.487a3.114 3.114 0 1 1-3.116-3.111 3.117 3.117 0 0 1 3.116 3.111" transform="translate(39.828 26.524)" style="fill-rule:evenodd"/>
                <path data-name="패스 12070" d="M72.862 53.118a3.114 3.114 0 1 1-3.116-3.112 3.116 3.116 0 0 1 3.116 3.112" transform="translate(39.828 29.89)" style="fill-rule:evenodd"/>
                <path data-name="패스 12071" d="M78.494 47.487a3.115 3.115 0 1 1-3.116-3.111 3.117 3.117 0 0 1 3.116 3.111" transform="translate(43.194 26.524)" style="fill-rule:evenodd"/>
                <path data-name="패스 12072" d="M78.494 53.118a3.115 3.115 0 1 1-3.116-3.112 3.116 3.116 0 0 1 3.116 3.112" transform="translate(43.194 29.89)" style="fill-rule:evenodd"/>
                <path data-name="패스 12073" d="M84.029 47.487a3.115 3.115 0 1 1-3.116-3.111 3.118 3.118 0 0 1 3.116 3.111" transform="translate(46.502 26.524)" style="fill-rule:evenodd"/>
                <path data-name="패스 12074" d="M84.029 53.118a3.115 3.115 0 1 1-3.116-3.112 3.118 3.118 0 0 1 3.116 3.112" transform="translate(46.502 29.89)" style="fill-rule:evenodd"/>
                <path data-name="패스 12075" d="M44.884 47.487a3.116 3.116 0 1 1-3.116-3.111 3.117 3.117 0 0 1 3.116 3.111" transform="translate(23.104 26.524)" style="fill-rule:evenodd"/>
                <path data-name="패스 12076" d="M44.884 53.118a3.116 3.116 0 1 1-3.116-3.112 3.116 3.116 0 0 1 3.116 3.112" transform="translate(23.104 29.89)" style="fill-rule:evenodd"/>
                <path data-name="패스 12077" d="M50.417 47.487a3.114 3.114 0 1 1-3.117-3.111 3.116 3.116 0 0 1 3.116 3.111" transform="translate(26.413 26.524)" style="fill-rule:evenodd"/>
                <path data-name="패스 12078" d="M50.417 53.118a3.114 3.114 0 1 1-3.117-3.112 3.115 3.115 0 0 1 3.116 3.112" transform="translate(26.413 29.89)" style="fill-rule:evenodd"/>
                <path data-name="패스 12079" d="M56 47.487a3.112 3.112 0 1 1-3.111-3.111A3.115 3.115 0 0 1 56 47.487" transform="translate(29.75 26.524)" style="fill-rule:evenodd"/>
                <path data-name="패스 12080" d="M56 53.118a3.112 3.112 0 1 1-3.111-3.112A3.114 3.114 0 0 1 56 53.118" transform="translate(29.75 29.89)" style="fill-rule:evenodd"/>
                <path data-name="패스 12081" d="M89.6 20.014a3.115 3.115 0 1 1-3.115-3.114 3.114 3.114 0 0 1 3.115 3.114" transform="translate(49.829 10.102)" style="fill-rule:evenodd"/>
                <path data-name="패스 12082" d="M89.6 25.647a3.115 3.115 0 1 1-3.111-3.116 3.114 3.114 0 0 1 3.111 3.116" transform="translate(49.829 13.467)" style="fill-rule:evenodd"/>
                <path data-name="패스 12083" d="M95.128 20.014a3.113 3.113 0 1 1-3.115-3.114 3.116 3.116 0 0 1 3.116 3.114" transform="translate(53.138 10.102)" style="fill-rule:evenodd"/>
                <path data-name="패스 12084" d="M95.128 25.647a3.113 3.113 0 1 1-3.116-3.116 3.116 3.116 0 0 1 3.116 3.116" transform="translate(53.138 13.467)" style="fill-rule:evenodd"/>
                <path data-name="패스 12085" d="M61.744 20.014a3.114 3.114 0 1 1-3.111-3.114 3.114 3.114 0 0 1 3.111 3.114" transform="translate(33.183 10.102)" style="fill-rule:evenodd"/>
                <path data-name="패스 12086" d="M61.744 25.647a3.114 3.114 0 1 1-3.111-3.116 3.114 3.114 0 0 1 3.111 3.116" transform="translate(33.183 13.467)" style="fill-rule:evenodd"/>
                <path data-name="패스 12087" d="M67.278 20.014a3.113 3.113 0 1 1-3.115-3.114 3.115 3.115 0 0 1 3.116 3.114" transform="translate(36.492 10.102)" style="fill-rule:evenodd"/>
                <path data-name="패스 12088" d="M67.278 25.647a3.113 3.113 0 1 1-3.116-3.116 3.115 3.115 0 0 1 3.116 3.116" transform="translate(36.492 13.467)" style="fill-rule:evenodd"/>
                <path data-name="패스 12089" d="M72.862 20.014a3.114 3.114 0 1 1-3.116-3.114 3.115 3.115 0 0 1 3.116 3.114" transform="translate(39.828 10.102)" style="fill-rule:evenodd"/>
                <path data-name="패스 12090" d="M72.862 25.647a3.114 3.114 0 1 1-3.116-3.116 3.115 3.115 0 0 1 3.116 3.116" transform="translate(39.828 13.467)" style="fill-rule:evenodd"/>
                <path data-name="패스 12091" d="M78.494 20.014a3.115 3.115 0 1 1-3.116-3.114 3.115 3.115 0 0 1 3.116 3.114" transform="translate(43.194 10.102)" style="fill-rule:evenodd"/>
                <path data-name="패스 12092" d="M78.494 25.647a3.115 3.115 0 1 1-3.116-3.116 3.115 3.115 0 0 1 3.116 3.116" transform="translate(43.194 13.467)" style="fill-rule:evenodd"/>
                <path data-name="패스 12093" d="M84.029 20.014a3.115 3.115 0 1 1-3.116-3.114 3.116 3.116 0 0 1 3.116 3.114" transform="translate(46.502 10.102)" style="fill-rule:evenodd"/>
                <path data-name="패스 12094" d="M84.029 25.647a3.115 3.115 0 1 1-3.116-3.116 3.116 3.116 0 0 1 3.116 3.116" transform="translate(46.502 13.467)" style="fill-rule:evenodd"/>
                <path data-name="패스 12095" d="M44.884 20.014a3.116 3.116 0 1 1-3.115-3.114 3.115 3.115 0 0 1 3.116 3.114" transform="translate(23.104 10.102)" style="fill-rule:evenodd"/>
                <path data-name="패스 12096" d="M44.884 25.647a3.116 3.116 0 1 1-3.116-3.116 3.115 3.115 0 0 1 3.116 3.116" transform="translate(23.104 13.467)" style="fill-rule:evenodd"/>
                <path data-name="패스 12097" d="M50.417 20.014A3.114 3.114 0 1 1 47.3 16.9a3.114 3.114 0 0 1 3.116 3.114" transform="translate(26.413 10.102)" style="fill-rule:evenodd"/>
                <path data-name="패스 12098" d="M50.417 25.647a3.114 3.114 0 1 1-3.117-3.116 3.114 3.114 0 0 1 3.116 3.116" transform="translate(26.413 13.467)" style="fill-rule:evenodd"/>
                <path data-name="패스 12099" d="M56 20.014a3.112 3.112 0 1 1-3.114-3.114A3.113 3.113 0 0 1 56 20.014" transform="translate(29.75 10.102)" style="fill-rule:evenodd"/>
                <path data-name="패스 12100" d="M56 25.647a3.112 3.112 0 1 1-3.111-3.116A3.113 3.113 0 0 1 56 25.647" transform="translate(29.75 13.467)" style="fill-rule:evenodd"/>
                <path data-name="패스 12101" d="M89.6 14.659a3.115 3.115 0 1 1-3.111-3.116 3.114 3.114 0 0 1 3.111 3.116" transform="translate(49.829 6.9)" style="fill-rule:evenodd"/>
                <path data-name="패스 12102" d="M95.128 14.659a3.113 3.113 0 1 1-3.116-3.116 3.116 3.116 0 0 1 3.116 3.116" transform="translate(53.138 6.9)" style="fill-rule:evenodd"/>
                <path data-name="패스 12103" d="M61.744 14.659a3.114 3.114 0 1 1-3.111-3.116 3.114 3.114 0 0 1 3.111 3.116" transform="translate(33.183 6.9)" style="fill-rule:evenodd"/>
                <path data-name="패스 12104" d="M67.278 14.659a3.113 3.113 0 1 1-3.116-3.116 3.115 3.115 0 0 1 3.116 3.116" transform="translate(36.492 6.9)" style="fill-rule:evenodd"/>
                <path data-name="패스 12105" d="M72.862 14.659a3.114 3.114 0 1 1-3.116-3.116 3.115 3.115 0 0 1 3.116 3.116" transform="translate(39.828 6.9)" style="fill-rule:evenodd"/>
                <path data-name="패스 12106" d="M78.494 14.659a3.115 3.115 0 1 1-3.116-3.116 3.115 3.115 0 0 1 3.116 3.116" transform="translate(43.194 6.9)" style="fill-rule:evenodd"/>
                <path data-name="패스 12107" d="M84.029 14.659a3.115 3.115 0 1 1-3.116-3.116 3.116 3.116 0 0 1 3.116 3.116" transform="translate(46.502 6.9)" style="fill-rule:evenodd"/>
                <path data-name="패스 12108" d="M44.884 9.026a3.116 3.116 0 1 1-3.116-3.112 3.114 3.114 0 0 1 3.116 3.112" transform="translate(23.104 3.535)" style="fill-rule:evenodd"/>
                <path data-name="패스 12109" d="M44.884 14.659a3.116 3.116 0 1 1-3.116-3.116 3.115 3.115 0 0 1 3.116 3.116" transform="translate(23.104 6.9)" style="fill-rule:evenodd"/>
                <path data-name="패스 12110" d="M50.417 14.659a3.114 3.114 0 1 1-3.117-3.116 3.114 3.114 0 0 1 3.116 3.116" transform="translate(26.413 6.9)" style="fill-rule:evenodd"/>
                <path data-name="패스 12111" d="M56 14.659a3.112 3.112 0 1 1-3.111-3.116A3.113 3.113 0 0 1 56 14.659" transform="translate(29.75 6.9)" style="fill-rule:evenodd"/>
                <path data-name="패스 12112" d="M39.6 20.014a3.116 3.116 0 1 1-3.121-3.114 3.116 3.116 0 0 1 3.121 3.114" transform="translate(19.943 10.102)" style="fill-rule:evenodd"/>
                <path data-name="패스 12113" d="M39.6 9.026a3.116 3.116 0 1 1-3.117-3.112A3.115 3.115 0 0 1 39.6 9.026" transform="translate(19.943 3.535)" style="fill-rule:evenodd"/>
                <path data-name="패스 12114" d="M39.6 14.659a3.116 3.116 0 1 1-3.117-3.116 3.116 3.116 0 0 1 3.117 3.116" transform="translate(19.943 6.9)" style="fill-rule:evenodd"/>
                <path data-name="패스 12115" d="M111.905 36.627a3.113 3.113 0 1 1-3.112-3.114 3.115 3.115 0 0 1 3.112 3.114" transform="translate(63.166 20.031)" style="fill-rule:evenodd"/>
                <path data-name="패스 12116" d="M117.438 36.627a3.112 3.112 0 1 1-3.111-3.114 3.114 3.114 0 0 1 3.111 3.114" transform="translate(66.474 20.031)" style="fill-rule:evenodd"/>
                <path data-name="패스 12117" d="M123.024 36.627a3.114 3.114 0 1 1-3.116-3.114 3.119 3.119 0 0 1 3.116 3.114" transform="translate(69.811 20.031)" style="fill-rule:evenodd"/>
                <path data-name="패스 12118" d="M128.653 36.627a3.113 3.113 0 1 1-3.114-3.114 3.115 3.115 0 0 1 3.114 3.114" transform="translate(73.177 20.031)" style="fill-rule:evenodd"/>
                <path data-name="패스 12119" d="M134.185 36.627a3.112 3.112 0 1 1-3.114-3.114 3.114 3.114 0 0 1 3.114 3.114" transform="translate(76.485 20.031)" style="fill-rule:evenodd"/>
                <path data-name="패스 12120" d="M139.754 36.627a3.112 3.112 0 1 1-3.114-3.114 3.113 3.113 0 0 1 3.114 3.114" transform="translate(79.813 20.031)" style="fill-rule:evenodd"/>
                <path data-name="패스 12121" d="M111.905 31.008a3.113 3.113 0 1 1-3.112-3.116 3.113 3.113 0 0 1 3.112 3.116" transform="translate(63.166 16.672)" style="fill-rule:evenodd"/>
                <path data-name="패스 12122" d="M117.438 31.008a3.112 3.112 0 1 1-3.111-3.116 3.113 3.113 0 0 1 3.111 3.116" transform="translate(66.474 16.672)" style="fill-rule:evenodd"/>
                <path data-name="패스 12123" d="M100.876 36.627a3.113 3.113 0 1 1-3.116-3.114 3.114 3.114 0 0 1 3.116 3.114" transform="translate(56.574 20.031)" style="fill-rule:evenodd"/>
                <path data-name="패스 12124" d="M106.413 36.627a3.115 3.115 0 1 1-3.116-3.114 3.118 3.118 0 0 1 3.116 3.114" transform="translate(59.881 20.031)" style="fill-rule:evenodd"/>
                <path data-name="패스 12125" d="M111.905 42.248a3.113 3.113 0 1 1-3.112-3.114 3.115 3.115 0 0 1 3.112 3.114" transform="translate(63.166 23.391)" style="fill-rule:evenodd"/>
                <path data-name="패스 12126" d="M117.438 42.248a3.112 3.112 0 1 1-3.111-3.114 3.115 3.115 0 0 1 3.111 3.114" transform="translate(66.474 23.391)" style="fill-rule:evenodd"/>
                <path data-name="패스 12127" d="M123.024 42.248a3.114 3.114 0 1 1-3.116-3.114 3.119 3.119 0 0 1 3.116 3.114" transform="translate(69.811 23.391)" style="fill-rule:evenodd"/>
                <path data-name="패스 12128" d="M128.653 42.248a3.113 3.113 0 1 1-3.114-3.114 3.115 3.115 0 0 1 3.114 3.114" transform="translate(73.177 23.391)" style="fill-rule:evenodd"/>
                <path data-name="패스 12129" d="M134.185 42.248a3.112 3.112 0 1 1-3.114-3.114 3.114 3.114 0 0 1 3.114 3.114" transform="translate(76.485 23.391)" style="fill-rule:evenodd"/>
                <path data-name="패스 12130" d="M106.413 42.248a3.115 3.115 0 1 1-3.116-3.114 3.118 3.118 0 0 1 3.116 3.114" transform="translate(59.881 23.391)" style="fill-rule:evenodd"/>
                <path data-name="패스 12131" d="M100.876 31.008a3.113 3.113 0 1 1-3.116-3.116 3.113 3.113 0 0 1 3.116 3.116" transform="translate(56.574 16.672)" style="fill-rule:evenodd"/>
                <path data-name="패스 12132" d="M106.413 31.008a3.115 3.115 0 1 1-3.116-3.116 3.116 3.116 0 0 1 3.116 3.116" transform="translate(59.881 16.672)" style="fill-rule:evenodd"/>
                <path data-name="패스 12133" d="M128.653 31.008a3.113 3.113 0 1 1-3.114-3.116 3.114 3.114 0 0 1 3.114 3.116" transform="translate(73.177 16.672)" style="fill-rule:evenodd"/>
                <path data-name="패스 12134" d="M134.185 31.008a3.112 3.112 0 1 1-3.114-3.116 3.113 3.113 0 0 1 3.114 3.116" transform="translate(76.485 16.672)" style="fill-rule:evenodd"/>
                <path data-name="패스 12135" d="M139.754 31.008a3.112 3.112 0 1 1-3.114-3.116 3.112 3.112 0 0 1 3.114 3.116" transform="translate(79.813 16.672)" style="fill-rule:evenodd"/>
                <path data-name="패스 12136" d="M145.29 31.008a3.114 3.114 0 1 1-3.114-3.116 3.114 3.114 0 0 1 3.114 3.116" transform="translate(83.12 16.672)" style="fill-rule:evenodd"/>
                <path data-name="패스 12137" d="M150.874 31.008a3.114 3.114 0 1 1-3.117-3.116 3.115 3.115 0 0 1 3.117 3.116" transform="translate(86.458 16.672)" style="fill-rule:evenodd"/>
                <path data-name="패스 12138" d="M145.383 20.014a3.114 3.114 0 1 1-3.114-3.114 3.115 3.115 0 0 1 3.114 3.114" transform="translate(83.176 10.102)" style="fill-rule:evenodd"/>
                <path data-name="패스 12139" d="M145.383 25.647a3.114 3.114 0 1 1-3.114-3.116 3.114 3.114 0 0 1 3.114 3.116" transform="translate(83.176 13.467)" style="fill-rule:evenodd"/>
                <path data-name="패스 12140" d="M150.918 20.014A3.115 3.115 0 1 1 147.8 16.9a3.116 3.116 0 0 1 3.114 3.114" transform="translate(86.483 10.102)" style="fill-rule:evenodd"/>
                <path data-name="패스 12141" d="M150.918 25.647a3.115 3.115 0 1 1-3.114-3.116 3.115 3.115 0 0 1 3.114 3.116" transform="translate(86.483 13.467)" style="fill-rule:evenodd"/>
                <path data-name="패스 12142" d="M117.534 25.647a3.115 3.115 0 1 1-3.112-3.116 3.114 3.114 0 0 1 3.112 3.116" transform="translate(66.528 13.467)" style="fill-rule:evenodd"/>
                <path data-name="패스 12143" d="M134.279 25.647a3.114 3.114 0 1 1-3.112-3.116 3.112 3.112 0 0 1 3.112 3.116" transform="translate(76.538 13.467)" style="fill-rule:evenodd"/>
                <path data-name="패스 12144" d="M139.814 20.014A3.115 3.115 0 1 1 136.7 16.9a3.113 3.113 0 0 1 3.111 3.114" transform="translate(79.846 10.102)" style="fill-rule:evenodd"/>
                <path data-name="패스 12145" d="M139.814 25.647a3.115 3.115 0 1 1-3.111-3.116 3.113 3.113 0 0 1 3.111 3.116" transform="translate(79.846 13.467)" style="fill-rule:evenodd"/>
                <path data-name="패스 12146" d="M100.669 20.014a3.113 3.113 0 1 1-3.115-3.114 3.114 3.114 0 0 1 3.116 3.114" transform="translate(56.45 10.102)" style="fill-rule:evenodd"/>
                <path data-name="패스 12147" d="M100.669 25.647a3.113 3.113 0 1 1-3.116-3.116 3.114 3.114 0 0 1 3.116 3.116" transform="translate(56.45 13.467)" style="fill-rule:evenodd"/>
                <path data-name="패스 12148" d="M106.206 20.014a3.115 3.115 0 1 1-3.116-3.114 3.116 3.116 0 0 1 3.116 3.114" transform="translate(59.758 10.102)" style="fill-rule:evenodd"/>
                <path data-name="패스 12149" d="M106.206 25.647a3.115 3.115 0 1 1-3.116-3.116 3.116 3.116 0 0 1 3.116 3.116" transform="translate(59.758 13.467)" style="fill-rule:evenodd"/>
                <path data-name="패스 12150" d="M111.786 20.014a3.114 3.114 0 1 1-3.114-3.114 3.114 3.114 0 0 1 3.114 3.114" transform="translate(63.094 10.102)" style="fill-rule:evenodd"/>
                <path data-name="패스 12151" d="M111.786 25.647a3.114 3.114 0 1 1-3.114-3.116 3.113 3.113 0 0 1 3.114 3.116" transform="translate(63.094 13.467)" style="fill-rule:evenodd"/>
                <path data-name="패스 12152" d="M150.918 9.026a3.115 3.115 0 1 1-3.118-3.112 3.115 3.115 0 0 1 3.114 3.112" transform="translate(86.483 3.535)" style="fill-rule:evenodd"/>
                <path data-name="패스 12153" d="M150.918 14.659a3.115 3.115 0 1 1-3.114-3.116 3.116 3.116 0 0 1 3.114 3.116" transform="translate(86.483 6.9)" style="fill-rule:evenodd"/>
                <path data-name="패스 12154" d="M100.669 14.659a3.113 3.113 0 1 1-3.116-3.116 3.114 3.114 0 0 1 3.116 3.116" transform="translate(56.45 6.9)" style="fill-rule:evenodd"/>
                <path data-name="패스 12155" d="M139.754 53.073a3.112 3.112 0 1 1-3.114-3.114 3.11 3.11 0 0 1 3.114 3.114" transform="translate(79.813 29.862)" style="fill-rule:evenodd"/>
                <path data-name="패스 12156" d="M139.754 47.45a3.112 3.112 0 1 1-3.114-3.112 3.112 3.112 0 0 1 3.114 3.112" transform="translate(79.813 26.502)" style="fill-rule:evenodd"/>
                <path data-name="패스 12157" d="M139.814 42.089a3.115 3.115 0 1 1-3.111-3.114 3.112 3.112 0 0 1 3.111 3.114" transform="translate(79.846 23.296)" style="fill-rule:evenodd"/>
                <path data-name="패스 12158" d="M139.754 58.957a3.112 3.112 0 1 1-3.114-3.112 3.112 3.112 0 0 1 3.114 3.112" transform="translate(79.813 33.38)" style="fill-rule:evenodd"/>
                <path data-name="패스 12159" d="M156.576 14.659a3.112 3.112 0 1 1-3.111-3.116 3.112 3.112 0 0 1 3.111 3.116" transform="translate(89.869 6.9)" style="fill-rule:evenodd"/>
                <path data-name="패스 12160" d="M17.035 47.487a3.115 3.115 0 1 1-3.116-3.111 3.117 3.117 0 0 1 3.116 3.111" transform="translate(6.458 26.524)" style="fill-rule:evenodd"/>
                <path data-name="패스 12161" d="M11.656 47.487a3.113 3.113 0 1 1-3.116-3.111 3.116 3.116 0 0 1 3.116 3.111" transform="translate(3.246 26.524)" style="fill-rule:evenodd"/>
                <path data-name="패스 12162" d="M17.035 53.118a3.115 3.115 0 1 1-3.116-3.112 3.116 3.116 0 0 1 3.116 3.112" transform="translate(6.458 29.89)" style="fill-rule:evenodd"/>
                <path data-name="패스 12163" d="M22.566 47.487a3.114 3.114 0 1 1-3.111-3.111 3.115 3.115 0 0 1 3.111 3.111" transform="translate(9.766 26.524)" style="fill-rule:evenodd"/>
                <path data-name="패스 12164" d="M22.566 53.118a3.114 3.114 0 1 1-3.111-3.112 3.114 3.114 0 0 1 3.111 3.112" transform="translate(9.766 29.89)" style="fill-rule:evenodd"/>
                <path data-name="패스 12165" d="M28.148 47.487a3.113 3.113 0 1 1-3.114-3.111 3.116 3.116 0 0 1 3.114 3.111" transform="translate(13.103 26.524)" style="fill-rule:evenodd"/>
                <path data-name="패스 12166" d="M28.148 53.118a3.113 3.113 0 1 1-3.114-3.112 3.116 3.116 0 0 1 3.114 3.112" transform="translate(13.103 29.89)" style="fill-rule:evenodd"/>
                <path data-name="패스 12167" d="M33.779 47.487a3.114 3.114 0 1 1-3.111-3.111 3.113 3.113 0 0 1 3.111 3.111" transform="translate(16.468 26.524)" style="fill-rule:evenodd"/>
                <path data-name="패스 12168" d="M33.779 53.118a3.114 3.114 0 1 1-3.111-3.112 3.112 3.112 0 0 1 3.111 3.112" transform="translate(16.468 29.89)" style="fill-rule:evenodd"/>
                <path data-name="패스 12169" d="M39.313 47.487a3.113 3.113 0 1 1-3.113-3.111 3.116 3.116 0 0 1 3.112 3.111" transform="translate(19.777 26.524)" style="fill-rule:evenodd"/>
                <path data-name="패스 12170" d="M39.313 53.118a3.113 3.113 0 1 1-3.113-3.112 3.116 3.116 0 0 1 3.112 3.112" transform="translate(19.777 29.89)" style="fill-rule:evenodd"/>
                <path data-name="패스 12171" d="M11.791 53.118a3.112 3.112 0 1 1-3.111-3.112 3.113 3.113 0 0 1 3.111 3.112" transform="translate(3.327 29.89)" style="fill-rule:evenodd"/>
                <path data-name="패스 12172" d="M117.441 47.487a3.112 3.112 0 1 1-3.111-3.111 3.114 3.114 0 0 1 3.111 3.111" transform="translate(66.476 26.524)" style="fill-rule:evenodd"/>
                <path data-name="패스 12173" d="M117.441 53.118a3.112 3.112 0 1 1-3.111-3.112 3.113 3.113 0 0 1 3.111 3.112" transform="translate(66.476 29.89)" style="fill-rule:evenodd"/>
                <path data-name="패스 12174" d="M122.978 47.487a3.114 3.114 0 1 1-3.116-3.111 3.116 3.116 0 0 1 3.116 3.111" transform="translate(69.784 26.524)" style="fill-rule:evenodd"/>
                <path data-name="패스 12175" d="M122.978 53.118a3.114 3.114 0 1 1-3.116-3.112 3.115 3.115 0 0 1 3.116 3.112" transform="translate(69.784 29.89)" style="fill-rule:evenodd"/>
                <path data-name="패스 12176" d="M128.559 47.487a3.112 3.112 0 1 1-3.114-3.111 3.115 3.115 0 0 1 3.114 3.111" transform="translate(73.121 26.524)" style="fill-rule:evenodd"/>
                <path data-name="패스 12177" d="M128.559 53.118a3.112 3.112 0 1 1-3.114-3.112 3.115 3.115 0 0 1 3.114 3.112" transform="translate(73.121 29.89)" style="fill-rule:evenodd"/>
                <path data-name="패스 12178" d="M134.191 47.487a3.114 3.114 0 1 1-3.114-3.111 3.116 3.116 0 0 1 3.114 3.111" transform="translate(76.486 26.524)" style="fill-rule:evenodd"/>
                <path data-name="패스 12179" d="M134.191 53.118a3.114 3.114 0 1 1-3.114-3.112 3.116 3.116 0 0 1 3.114 3.112" transform="translate(76.486 29.89)" style="fill-rule:evenodd"/>
            </g>
        </g>
        <text data-name="Sales &amp; marketing" transform="translate(94 1603)" style="font-size:16px;font-family:Inter-Medium,Inter;font-weight:500;fill:#00148c"><tspan x="0" y="0">Sales &amp; marketing</tspan></text>
        <circle data-name="타원 42" cx="10" cy="10" r="10" transform="translate(70 1567)" style="fill:#00148c"/>
        <text data-name="SAN JOSE" transform="translate(94 1584)" style="font-size:18px;font-family:Inter-Bold,Inter;font-weight:700;fill:#00148c"><tspan x="0" y="0">SAN JOSE</tspan></text>
    </g>
</svg>
