<svg xmlns="http://www.w3.org/2000/svg" width="264.547" height="164.054" viewBox="0 0 264.547 164.054">
    <defs>
        <clipPath id="xzrq60z02a">
            <path data-name="사각형 3007" d="M0 0h264.547v157.842H0z"/>
        </clipPath>
    </defs>
    <g data-name="그룹 7804" transform="translate(-55.227 -1808)">
        <g data-name="그룹 7386" style="opacity:.15">
            <g data-name="그룹 7385" transform="translate(55.227 1808)" style="clip-path:url(#xzrq60z02a)">
                <path data-name="패스 12180" d="M6.23 53.073a3.115 3.115 0 1 1-3.119-3.114 3.12 3.12 0 0 1 3.119 3.114" transform="translate(0 29.861)" style="fill-rule:evenodd"/>
                <path data-name="패스 12181" d="M11.855 53.073a3.112 3.112 0 1 1-3.112-3.114 3.113 3.113 0 0 1 3.112 3.114" transform="translate(3.366 29.861)" style="fill-rule:evenodd"/>
                <path data-name="패스 12182" d="M6.23 47.772a3.115 3.115 0 1 1-3.119-3.114 3.119 3.119 0 0 1 3.119 3.114" transform="translate(0 26.693)" style="fill-rule:evenodd"/>
                <path data-name="패스 12183" d="M28.268 53.073a3.113 3.113 0 1 1-3.112-3.114 3.115 3.115 0 0 1 3.112 3.114" transform="translate(13.175 29.861)" style="fill-rule:evenodd"/>
                <path data-name="패스 12184" d="M33.807 53.073a3.115 3.115 0 1 1-3.116-3.114 3.118 3.118 0 0 1 3.116 3.114" transform="translate(16.483 29.861)" style="fill-rule:evenodd"/>
                <path data-name="패스 12185" d="M39.388 53.073a3.114 3.114 0 1 1-3.116-3.114 3.116 3.116 0 0 1 3.116 3.114" transform="translate(19.82 29.861)" style="fill-rule:evenodd"/>
                <path data-name="패스 12186" d="M45.018 53.073a3.114 3.114 0 1 1-3.118-3.114 3.117 3.117 0 0 1 3.116 3.114" transform="translate(23.186 29.861)" style="fill-rule:evenodd"/>
                <path data-name="패스 12187" d="M50.551 53.073a3.113 3.113 0 1 1-3.112-3.114 3.115 3.115 0 0 1 3.112 3.114" transform="translate(26.494 29.861)" style="fill-rule:evenodd"/>
                <path data-name="패스 12188" d="M56.118 53.073a3.112 3.112 0 1 1-3.112-3.114 3.114 3.114 0 0 1 3.112 3.114" transform="translate(29.822 29.861)" style="fill-rule:evenodd"/>
                <path data-name="패스 12189" d="M61.653 53.073a3.113 3.113 0 1 1-3.114-3.114 3.116 3.116 0 0 1 3.114 3.114" transform="translate(33.13 29.861)" style="fill-rule:evenodd"/>
                <path data-name="패스 12190" d="M67.235 53.073a3.113 3.113 0 1 1-3.112-3.114 3.115 3.115 0 0 1 3.112 3.114" transform="translate(36.466 29.861)" style="fill-rule:evenodd"/>
                <path data-name="패스 12191" d="M72.868 53.073a3.114 3.114 0 1 1-3.117-3.114 3.117 3.117 0 0 1 3.117 3.114" transform="translate(39.832 29.861)" style="fill-rule:evenodd"/>
                <path data-name="패스 12192" d="M28.268 47.772a3.113 3.113 0 1 1-3.112-3.114 3.115 3.115 0 0 1 3.112 3.114" transform="translate(13.175 26.693)" style="fill-rule:evenodd"/>
                <path data-name="패스 12193" d="M33.807 47.772a3.115 3.115 0 1 1-3.116-3.114 3.118 3.118 0 0 1 3.116 3.114" transform="translate(16.483 26.693)" style="fill-rule:evenodd"/>
                <path data-name="패스 12194" d="M39.388 47.772a3.114 3.114 0 1 1-3.116-3.114 3.115 3.115 0 0 1 3.116 3.114" transform="translate(19.82 26.693)" style="fill-rule:evenodd"/>
                <path data-name="패스 12195" d="M45.018 47.772a3.114 3.114 0 1 1-3.118-3.114 3.116 3.116 0 0 1 3.116 3.114" transform="translate(23.186 26.693)" style="fill-rule:evenodd"/>
                <path data-name="패스 12196" d="M50.551 47.772a3.113 3.113 0 1 1-3.112-3.114 3.115 3.115 0 0 1 3.112 3.114" transform="translate(26.494 26.693)" style="fill-rule:evenodd"/>
                <path data-name="패스 12197" d="M56.118 47.772a3.112 3.112 0 1 1-3.112-3.114 3.114 3.114 0 0 1 3.112 3.114" transform="translate(29.822 26.693)" style="fill-rule:evenodd"/>
                <path data-name="패스 12198" d="M61.653 47.772a3.113 3.113 0 1 1-3.114-3.114 3.116 3.116 0 0 1 3.114 3.114" transform="translate(33.13 26.693)" style="fill-rule:evenodd"/>
                <path data-name="패스 12199" d="M67.235 47.772a3.113 3.113 0 1 1-3.112-3.114 3.115 3.115 0 0 1 3.112 3.114" transform="translate(36.466 26.693)" style="fill-rule:evenodd"/>
                <path data-name="패스 12200" d="M28.268 42.152a3.113 3.113 0 1 1-3.112-3.116 3.113 3.113 0 0 1 3.112 3.116" transform="translate(13.175 23.332)" style="fill-rule:evenodd"/>
                <path data-name="패스 12201" d="M33.807 42.152a3.115 3.115 0 1 1-3.116-3.116 3.116 3.116 0 0 1 3.116 3.116" transform="translate(16.483 23.332)" style="fill-rule:evenodd"/>
                <path data-name="패스 12202" d="M17.24 53.073a3.113 3.113 0 1 1-3.114-3.114 3.115 3.115 0 0 1 3.114 3.114" transform="translate(6.583 29.861)" style="fill-rule:evenodd"/>
                <path data-name="패스 12203" d="M22.777 53.073a3.115 3.115 0 1 1-3.116-3.114 3.118 3.118 0 0 1 3.116 3.114" transform="translate(9.89 29.861)" style="fill-rule:evenodd"/>
                <path data-name="패스 12204" d="M17.016 47.563a2.95 2.95 0 1 1-2.953-2.951 2.95 2.95 0 0 1 2.953 2.951" transform="translate(6.644 26.665)" style="fill-rule:evenodd"/>
                <path data-name="패스 12205" d="M22.777 47.772a3.115 3.115 0 1 1-3.116-3.114 3.118 3.118 0 0 1 3.116 3.114" transform="translate(9.89 26.693)" style="fill-rule:evenodd"/>
                <path data-name="패스 12206" d="M17.016 42.237a2.95 2.95 0 1 1-2.953-2.949 2.951 2.951 0 0 1 2.953 2.949" transform="translate(6.644 23.483)" style="fill-rule:evenodd"/>
                <path data-name="패스 12207" d="M11.288 47.563a2.948 2.948 0 1 1-2.949-2.951 2.949 2.949 0 0 1 2.949 2.951" transform="translate(3.223 26.665)" style="fill-rule:evenodd"/>
                <path data-name="패스 12208" d="M22.777 42.152a3.115 3.115 0 1 1-3.116-3.116 3.116 3.116 0 0 1 3.116 3.116" transform="translate(9.89 23.332)" style="fill-rule:evenodd"/>
                <path data-name="패스 12209" d="M39.388 42.152a3.114 3.114 0 1 1-3.116-3.116 3.114 3.114 0 0 1 3.116 3.116" transform="translate(19.82 23.332)" style="fill-rule:evenodd"/>
                <path data-name="패스 12210" d="M45.018 42.152a3.114 3.114 0 1 1-3.118-3.116 3.115 3.115 0 0 1 3.116 3.116" transform="translate(23.186 23.332)" style="fill-rule:evenodd"/>
                <path data-name="패스 12211" d="M50.551 42.152a3.113 3.113 0 1 1-3.112-3.116 3.113 3.113 0 0 1 3.112 3.116" transform="translate(26.494 23.332)" style="fill-rule:evenodd"/>
                <path data-name="패스 12212" d="M56.118 42.152a3.112 3.112 0 1 1-3.112-3.116 3.112 3.112 0 0 1 3.112 3.116" transform="translate(29.822 23.332)" style="fill-rule:evenodd"/>
                <path data-name="패스 12213" d="M61.653 42.152a3.113 3.113 0 1 1-3.114-3.116 3.115 3.115 0 0 1 3.114 3.116" transform="translate(33.13 23.332)" style="fill-rule:evenodd"/>
                <path data-name="패스 12214" d="M67.235 42.152a3.113 3.113 0 1 1-3.112-3.116 3.113 3.113 0 0 1 3.112 3.116" transform="translate(36.466 23.332)" style="fill-rule:evenodd"/>
                <path data-name="패스 12215" d="M72.864 81.116A3.116 3.116 0 1 1 69.75 78a3.115 3.115 0 0 1 3.114 3.114" transform="translate(39.828 46.623)" style="fill-rule:evenodd"/>
                <path data-name="패스 12216" d="M72.864 86.748a3.116 3.116 0 1 1-3.114-3.114 3.115 3.115 0 0 1 3.114 3.114" transform="translate(39.828 49.99)" style="fill-rule:evenodd"/>
                <path data-name="패스 12217" d="M78.493 81.116A3.114 3.114 0 1 1 75.379 78a3.116 3.116 0 0 1 3.114 3.114" transform="translate(43.194 46.623)" style="fill-rule:evenodd"/>
                <path data-name="패스 12218" d="M78.493 86.748a3.114 3.114 0 1 1-3.114-3.114 3.116 3.116 0 0 1 3.114 3.114" transform="translate(43.194 49.99)" style="fill-rule:evenodd"/>
                <path data-name="패스 12219" d="M84.029 81.116A3.114 3.114 0 1 1 80.912 78a3.118 3.118 0 0 1 3.117 3.114" transform="translate(46.503 46.623)" style="fill-rule:evenodd"/>
                <path data-name="패스 12220" d="M84.029 86.748a3.114 3.114 0 1 1-3.117-3.114 3.118 3.118 0 0 1 3.117 3.114" transform="translate(46.503 49.99)" style="fill-rule:evenodd"/>
                <path data-name="패스 12221" d="M67.28 92.377a3.114 3.114 0 1 1-3.116-3.112 3.113 3.113 0 0 1 3.116 3.112" transform="translate(36.492 53.355)" style="fill-rule:evenodd"/>
                <path data-name="패스 12222" d="M72.864 92.377a3.116 3.116 0 1 1-3.114-3.112 3.112 3.112 0 0 1 3.114 3.112" transform="translate(39.828 53.355)" style="fill-rule:evenodd"/>
                <path data-name="패스 12223" d="M72.864 98.012a3.116 3.116 0 1 1-3.114-3.119 3.111 3.111 0 0 1 3.114 3.119" transform="translate(39.828 56.719)" style="fill-rule:evenodd"/>
                <path data-name="패스 12224" d="M78.493 92.377a3.114 3.114 0 1 1-3.114-3.112 3.113 3.113 0 0 1 3.114 3.112" transform="translate(43.194 53.355)" style="fill-rule:evenodd"/>
                <path data-name="패스 12225" d="M78.493 98.012a3.114 3.114 0 1 1-3.114-3.119 3.112 3.112 0 0 1 3.114 3.119" transform="translate(43.194 56.719)" style="fill-rule:evenodd"/>
                <path data-name="패스 12226" d="M84.029 92.377a3.114 3.114 0 1 1-3.117-3.112 3.115 3.115 0 0 1 3.117 3.112" transform="translate(46.503 53.355)" style="fill-rule:evenodd"/>
                <path data-name="패스 12227" d="M84.029 98.012a3.114 3.114 0 1 1-3.117-3.119 3.114 3.114 0 0 1 3.117 3.119" transform="translate(46.503 56.719)" style="fill-rule:evenodd"/>
                <path data-name="패스 12228" d="M39.431 81.116A3.114 3.114 0 1 1 36.315 78a3.115 3.115 0 0 1 3.116 3.114" transform="translate(19.846 46.623)" style="fill-rule:evenodd"/>
                <path data-name="패스 12229" d="M45.014 81.116A3.114 3.114 0 1 1 41.9 78a3.115 3.115 0 0 1 3.116 3.114" transform="translate(23.183 46.623)" style="fill-rule:evenodd"/>
                <path data-name="패스 12230" d="M50.645 81.116A3.115 3.115 0 1 1 47.529 78a3.115 3.115 0 0 1 3.116 3.114" transform="translate(26.548 46.623)" style="fill-rule:evenodd"/>
                <path data-name="패스 12231" d="M56.181 81.116A3.115 3.115 0 1 1 53.065 78a3.116 3.116 0 0 1 3.116 3.114" transform="translate(29.857 46.623)" style="fill-rule:evenodd"/>
                <path data-name="패스 12232" d="M89.593 81.116A3.112 3.112 0 1 1 86.482 78a3.112 3.112 0 0 1 3.111 3.114" transform="translate(49.831 46.623)" style="fill-rule:evenodd"/>
                <path data-name="패스 12233" d="M89.593 86.748a3.112 3.112 0 1 1-3.111-3.114 3.113 3.113 0 0 1 3.111 3.114" transform="translate(49.831 49.99)" style="fill-rule:evenodd"/>
                <path data-name="패스 12234" d="M95.13 81.116A3.114 3.114 0 1 1 92.014 78a3.114 3.114 0 0 1 3.116 3.114" transform="translate(53.138 46.623)" style="fill-rule:evenodd"/>
                <path data-name="패스 12235" d="M95.13 86.748a3.114 3.114 0 1 1-3.116-3.114 3.115 3.115 0 0 1 3.116 3.114" transform="translate(53.138 49.99)" style="fill-rule:evenodd"/>
                <path data-name="패스 12236" d="M100.711 81.116A3.112 3.112 0 1 1 97.6 78a3.114 3.114 0 0 1 3.114 3.114" transform="translate(56.476 46.623)" style="fill-rule:evenodd"/>
                <path data-name="패스 12237" d="M100.711 86.748a3.112 3.112 0 1 1-3.111-3.114 3.114 3.114 0 0 1 3.114 3.114" transform="translate(56.476 49.99)" style="fill-rule:evenodd"/>
                <path data-name="패스 12238" d="M106.343 81.116A3.114 3.114 0 1 1 103.229 78a3.115 3.115 0 0 1 3.114 3.114" transform="translate(59.841 46.623)" style="fill-rule:evenodd"/>
                <path data-name="패스 12239" d="M106.343 86.748a3.114 3.114 0 1 1-3.114-3.114 3.115 3.115 0 0 1 3.114 3.114" transform="translate(59.841 49.99)" style="fill-rule:evenodd"/>
                <path data-name="패스 12240" d="M89.593 92.377a3.112 3.112 0 1 1-3.111-3.112 3.109 3.109 0 0 1 3.111 3.112" transform="translate(49.831 53.355)" style="fill-rule:evenodd"/>
                <path data-name="패스 12241" d="M95.13 92.377a3.114 3.114 0 1 1-3.116-3.112 3.111 3.111 0 0 1 3.116 3.112" transform="translate(53.138 53.355)" style="fill-rule:evenodd"/>
                <path data-name="패스 12242" d="M95.13 98.012a3.114 3.114 0 1 1-3.116-3.119 3.11 3.11 0 0 1 3.116 3.119" transform="translate(53.138 56.719)" style="fill-rule:evenodd"/>
                <path data-name="패스 12243" d="M100.711 92.377a3.112 3.112 0 1 1-3.111-3.112 3.111 3.111 0 0 1 3.114 3.112" transform="translate(56.476 53.355)" style="fill-rule:evenodd"/>
                <path data-name="패스 12244" d="M100.711 98.012a3.112 3.112 0 1 1-3.111-3.119 3.11 3.11 0 0 1 3.114 3.119" transform="translate(56.476 56.719)" style="fill-rule:evenodd"/>
                <path data-name="패스 12245" d="M106.343 92.377a3.114 3.114 0 1 1-3.114-3.112 3.112 3.112 0 0 1 3.114 3.112" transform="translate(59.841 53.355)" style="fill-rule:evenodd"/>
                <path data-name="패스 12246" d="M106.343 98.012a3.114 3.114 0 1 1-3.114-3.119 3.111 3.111 0 0 1 3.114 3.119" transform="translate(59.841 56.719)" style="fill-rule:evenodd"/>
                <path data-name="패스 12247" d="M61.747 70.129a3.115 3.115 0 1 1-3.111-3.111 3.112 3.112 0 0 1 3.111 3.111" transform="translate(33.184 40.058)" style="fill-rule:evenodd"/>
                <path data-name="패스 12248" d="M61.747 75.766a3.115 3.115 0 1 1-3.111-3.12 3.113 3.113 0 0 1 3.111 3.12" transform="translate(33.184 43.422)" style="fill-rule:evenodd"/>
                <path data-name="패스 12249" d="M67.28 70.129a3.114 3.114 0 1 1-3.116-3.111 3.114 3.114 0 0 1 3.116 3.111" transform="translate(36.492 40.058)" style="fill-rule:evenodd"/>
                <path data-name="패스 12250" d="M67.28 75.766a3.114 3.114 0 1 1-3.116-3.12 3.115 3.115 0 0 1 3.116 3.12" transform="translate(36.492 43.422)" style="fill-rule:evenodd"/>
                <path data-name="패스 12251" d="M72.864 70.129a3.116 3.116 0 1 1-3.114-3.111 3.113 3.113 0 0 1 3.114 3.111" transform="translate(39.828 40.058)" style="fill-rule:evenodd"/>
                <path data-name="패스 12252" d="M72.864 75.766a3.116 3.116 0 1 1-3.114-3.12 3.114 3.114 0 0 1 3.114 3.12" transform="translate(39.828 43.422)" style="fill-rule:evenodd"/>
                <path data-name="패스 12253" d="M78.493 70.129a3.114 3.114 0 1 1-3.114-3.111 3.114 3.114 0 0 1 3.114 3.111" transform="translate(43.194 40.058)" style="fill-rule:evenodd"/>
                <path data-name="패스 12254" d="M78.493 75.766a3.114 3.114 0 1 1-3.114-3.12 3.115 3.115 0 0 1 3.114 3.12" transform="translate(43.194 43.422)" style="fill-rule:evenodd"/>
                <path data-name="패스 12255" d="M84.029 70.129a3.114 3.114 0 1 1-3.117-3.111 3.115 3.115 0 0 1 3.117 3.111" transform="translate(46.503 40.058)" style="fill-rule:evenodd"/>
                <path data-name="패스 12256" d="M84.029 75.766a3.114 3.114 0 1 1-3.117-3.12 3.117 3.117 0 0 1 3.117 3.12" transform="translate(46.503 43.422)" style="fill-rule:evenodd"/>
                <path data-name="패스 12257" d="M33.895 70.129a3.114 3.114 0 1 1-3.111-3.111 3.112 3.112 0 0 1 3.111 3.111" transform="translate(16.537 40.058)" style="fill-rule:evenodd"/>
                <path data-name="패스 12258" d="M33.895 75.766a3.114 3.114 0 1 1-3.111-3.12 3.113 3.113 0 0 1 3.111 3.12" transform="translate(16.537 43.422)" style="fill-rule:evenodd"/>
                <path data-name="패스 12259" d="M39.431 70.129a3.114 3.114 0 1 1-3.116-3.111 3.113 3.113 0 0 1 3.116 3.111" transform="translate(19.846 40.058)" style="fill-rule:evenodd"/>
                <path data-name="패스 12260" d="M39.431 75.766a3.114 3.114 0 1 1-3.116-3.12 3.114 3.114 0 0 1 3.116 3.12" transform="translate(19.846 43.422)" style="fill-rule:evenodd"/>
                <path data-name="패스 12261" d="M45.014 70.129a3.114 3.114 0 1 1-3.114-3.111 3.113 3.113 0 0 1 3.116 3.111" transform="translate(23.183 40.058)" style="fill-rule:evenodd"/>
                <path data-name="패스 12262" d="M45.014 75.766a3.114 3.114 0 1 1-3.116-3.12 3.114 3.114 0 0 1 3.116 3.12" transform="translate(23.183 43.422)" style="fill-rule:evenodd"/>
                <path data-name="패스 12263" d="M50.645 70.129a3.115 3.115 0 1 1-3.116-3.111 3.113 3.113 0 0 1 3.116 3.111" transform="translate(26.548 40.058)" style="fill-rule:evenodd"/>
                <path data-name="패스 12264" d="M50.645 75.766a3.115 3.115 0 1 1-3.116-3.12 3.114 3.114 0 0 1 3.116 3.12" transform="translate(26.548 43.422)" style="fill-rule:evenodd"/>
                <path data-name="패스 12265" d="M56.181 70.129a3.115 3.115 0 1 1-3.116-3.111 3.114 3.114 0 0 1 3.116 3.111" transform="translate(29.857 40.058)" style="fill-rule:evenodd"/>
                <path data-name="패스 12266" d="M56.181 75.766a3.115 3.115 0 1 1-3.116-3.12 3.115 3.115 0 0 1 3.116 3.12" transform="translate(29.857 43.422)" style="fill-rule:evenodd"/>
                <path data-name="패스 12267" d="M22.568 70.129a3.114 3.114 0 1 1-3.116-3.111 3.112 3.112 0 0 1 3.116 3.111" transform="translate(9.767 40.058)" style="fill-rule:evenodd"/>
                <path data-name="패스 12268" d="M28.148 70.129a3.112 3.112 0 1 1-3.111-3.111 3.111 3.111 0 0 1 3.111 3.111" transform="translate(13.104 40.058)" style="fill-rule:evenodd"/>
                <path data-name="패스 12269" d="M28.148 75.766a3.112 3.112 0 1 1-3.111-3.12 3.112 3.112 0 0 1 3.111 3.12" transform="translate(13.104 43.422)" style="fill-rule:evenodd"/>
                <path data-name="패스 12270" d="M89.593 70.129a3.112 3.112 0 1 1-3.111-3.111 3.11 3.11 0 0 1 3.111 3.111" transform="translate(49.831 40.058)" style="fill-rule:evenodd"/>
                <path data-name="패스 12271" d="M89.593 75.766a3.112 3.112 0 1 1-3.111-3.12 3.111 3.111 0 0 1 3.111 3.12" transform="translate(49.831 43.422)" style="fill-rule:evenodd"/>
                <path data-name="패스 12272" d="M95.13 70.129a3.114 3.114 0 1 1-3.116-3.111 3.112 3.112 0 0 1 3.116 3.111" transform="translate(53.138 40.058)" style="fill-rule:evenodd"/>
                <path data-name="패스 12273" d="M95.13 75.766a3.114 3.114 0 1 1-3.116-3.12 3.113 3.113 0 0 1 3.116 3.12" transform="translate(53.138 43.422)" style="fill-rule:evenodd"/>
                <path data-name="패스 12274" d="M100.711 70.129a3.112 3.112 0 1 1-3.111-3.111 3.112 3.112 0 0 1 3.114 3.111" transform="translate(56.476 40.058)" style="fill-rule:evenodd"/>
                <path data-name="패스 12275" d="M100.711 75.766a3.112 3.112 0 1 1-3.114-3.12 3.113 3.113 0 0 1 3.114 3.12" transform="translate(56.476 43.422)" style="fill-rule:evenodd"/>
                <path data-name="패스 12276" d="M106.343 70.129a3.114 3.114 0 1 1-3.114-3.111 3.113 3.113 0 0 1 3.114 3.111" transform="translate(59.841 40.058)" style="fill-rule:evenodd"/>
                <path data-name="패스 12277" d="M106.343 75.766a3.114 3.114 0 1 1-3.114-3.12 3.114 3.114 0 0 1 3.114 3.12" transform="translate(59.841 43.422)" style="fill-rule:evenodd"/>
                <path data-name="패스 12278" d="M61.747 58.631a3.115 3.115 0 1 1-3.111-3.111 3.116 3.116 0 0 1 3.111 3.111" transform="translate(33.184 33.185)" style="fill-rule:evenodd"/>
                <path data-name="패스 12279" d="M61.747 64.262a3.115 3.115 0 1 1-3.111-3.112 3.115 3.115 0 0 1 3.111 3.112" transform="translate(33.184 36.55)" style="fill-rule:evenodd"/>
                <path data-name="패스 12280" d="M67.28 58.631a3.114 3.114 0 1 1-3.116-3.111 3.118 3.118 0 0 1 3.116 3.111" transform="translate(36.492 33.185)" style="fill-rule:evenodd"/>
                <path data-name="패스 12281" d="M67.28 64.262a3.114 3.114 0 1 1-3.116-3.112 3.117 3.117 0 0 1 3.116 3.112" transform="translate(36.492 36.55)" style="fill-rule:evenodd"/>
                <path data-name="패스 12282" d="M72.864 58.631a3.116 3.116 0 1 1-3.114-3.111 3.116 3.116 0 0 1 3.114 3.111" transform="translate(39.828 33.185)" style="fill-rule:evenodd"/>
                <path data-name="패스 12283" d="M72.864 64.262a3.116 3.116 0 1 1-3.114-3.112 3.116 3.116 0 0 1 3.114 3.112" transform="translate(39.828 36.55)" style="fill-rule:evenodd"/>
                <path data-name="패스 12284" d="M78.493 58.631a3.114 3.114 0 1 1-3.114-3.111 3.118 3.118 0 0 1 3.114 3.111" transform="translate(43.194 33.185)" style="fill-rule:evenodd"/>
                <path data-name="패스 12285" d="M78.493 64.262a3.114 3.114 0 1 1-3.114-3.112 3.117 3.117 0 0 1 3.114 3.112" transform="translate(43.194 36.55)" style="fill-rule:evenodd"/>
                <path data-name="패스 12286" d="M84.029 58.631a3.114 3.114 0 1 1-3.117-3.111 3.119 3.119 0 0 1 3.117 3.111" transform="translate(46.503 33.185)" style="fill-rule:evenodd"/>
                <path data-name="패스 12287" d="M84.029 64.262a3.114 3.114 0 1 1-3.117-3.112 3.119 3.119 0 0 1 3.117 3.112" transform="translate(46.503 36.55)" style="fill-rule:evenodd"/>
                <path data-name="패스 12288" d="M33.895 58.631a3.114 3.114 0 1 1-3.111-3.111 3.116 3.116 0 0 1 3.111 3.111" transform="translate(16.537 33.185)" style="fill-rule:evenodd"/>
                <path data-name="패스 12289" d="M33.895 64.262a3.114 3.114 0 1 1-3.111-3.112 3.115 3.115 0 0 1 3.111 3.112" transform="translate(16.537 36.55)" style="fill-rule:evenodd"/>
                <path data-name="패스 12290" d="M39.431 58.631a3.114 3.114 0 1 1-3.116-3.111 3.117 3.117 0 0 1 3.116 3.111" transform="translate(19.846 33.185)" style="fill-rule:evenodd"/>
                <path data-name="패스 12291" d="M39.431 64.262a3.114 3.114 0 1 1-3.116-3.112 3.116 3.116 0 0 1 3.116 3.112" transform="translate(19.846 36.55)" style="fill-rule:evenodd"/>
                <path data-name="패스 12292" d="M45.014 58.631A3.114 3.114 0 1 1 41.9 55.52a3.117 3.117 0 0 1 3.116 3.111" transform="translate(23.183 33.185)" style="fill-rule:evenodd"/>
                <path data-name="패스 12293" d="M45.014 64.262A3.114 3.114 0 1 1 41.9 61.15a3.116 3.116 0 0 1 3.116 3.112" transform="translate(23.183 36.55)" style="fill-rule:evenodd"/>
                <path data-name="패스 12294" d="M50.645 58.631a3.115 3.115 0 1 1-3.116-3.111 3.117 3.117 0 0 1 3.116 3.111" transform="translate(26.548 33.185)" style="fill-rule:evenodd"/>
                <path data-name="패스 12295" d="M50.645 64.262a3.115 3.115 0 1 1-3.116-3.112 3.116 3.116 0 0 1 3.116 3.112" transform="translate(26.548 36.55)" style="fill-rule:evenodd"/>
                <path data-name="패스 12296" d="M56.181 58.631a3.115 3.115 0 1 1-3.116-3.111 3.118 3.118 0 0 1 3.116 3.111" transform="translate(29.857 33.185)" style="fill-rule:evenodd"/>
                <path data-name="패스 12297" d="M56.181 64.262a3.115 3.115 0 1 1-3.116-3.112 3.117 3.117 0 0 1 3.116 3.112" transform="translate(29.857 36.55)" style="fill-rule:evenodd"/>
                <path data-name="패스 12298" d="M17.035 58.631a3.116 3.116 0 1 1-3.115-3.111 3.117 3.117 0 0 1 3.116 3.111" transform="translate(6.458 33.185)" style="fill-rule:evenodd"/>
                <path data-name="패스 12299" d="M17.035 64.262a3.116 3.116 0 1 1-3.115-3.112 3.116 3.116 0 0 1 3.116 3.112" transform="translate(6.458 36.55)" style="fill-rule:evenodd"/>
                <path data-name="패스 12300" d="M22.568 58.631a3.114 3.114 0 1 1-3.116-3.111 3.116 3.116 0 0 1 3.116 3.111" transform="translate(9.767 33.185)" style="fill-rule:evenodd"/>
                <path data-name="패스 12301" d="M22.568 64.262a3.114 3.114 0 1 1-3.116-3.112 3.115 3.115 0 0 1 3.116 3.112" transform="translate(9.767 36.55)" style="fill-rule:evenodd"/>
                <path data-name="패스 12302" d="M28.148 58.631a3.112 3.112 0 1 1-3.111-3.111 3.115 3.115 0 0 1 3.111 3.111" transform="translate(13.104 33.185)" style="fill-rule:evenodd"/>
                <path data-name="패스 12303" d="M28.148 64.262a3.112 3.112 0 1 1-3.111-3.112 3.114 3.114 0 0 1 3.111 3.112" transform="translate(13.104 36.55)" style="fill-rule:evenodd"/>
                <path data-name="패스 12304" d="M61.747 36.791a3.115 3.115 0 1 1-3.111-3.116 3.114 3.114 0 0 1 3.111 3.116" transform="translate(33.184 20.128)" style="fill-rule:evenodd"/>
                <path data-name="패스 12305" d="M67.28 36.791a3.114 3.114 0 1 1-3.116-3.116 3.116 3.116 0 0 1 3.116 3.116" transform="translate(36.492 20.128)" style="fill-rule:evenodd"/>
                <path data-name="패스 12306" d="M33.895 31.158a3.114 3.114 0 1 1-3.111-3.114 3.114 3.114 0 0 1 3.111 3.114" transform="translate(16.537 16.762)" style="fill-rule:evenodd"/>
                <path data-name="패스 12307" d="M33.895 36.791a3.114 3.114 0 1 1-3.111-3.116 3.114 3.114 0 0 1 3.111 3.116" transform="translate(16.537 20.128)" style="fill-rule:evenodd"/>
                <path data-name="패스 12308" d="M39.431 31.158a3.114 3.114 0 1 1-3.116-3.114 3.115 3.115 0 0 1 3.116 3.114" transform="translate(19.846 16.762)" style="fill-rule:evenodd"/>
                <path data-name="패스 12309" d="M39.431 36.791a3.114 3.114 0 1 1-3.116-3.116 3.115 3.115 0 0 1 3.116 3.116" transform="translate(19.846 20.128)" style="fill-rule:evenodd"/>
                <path data-name="패스 12310" d="M45.014 31.158a3.114 3.114 0 1 1-3.114-3.114 3.115 3.115 0 0 1 3.116 3.114" transform="translate(23.183 16.762)" style="fill-rule:evenodd"/>
                <path data-name="패스 12311" d="M45.014 36.791a3.114 3.114 0 1 1-3.114-3.116 3.115 3.115 0 0 1 3.116 3.116" transform="translate(23.183 20.128)" style="fill-rule:evenodd"/>
                <path data-name="패스 12312" d="M50.645 31.158a3.115 3.115 0 1 1-3.116-3.114 3.115 3.115 0 0 1 3.116 3.114" transform="translate(26.548 16.762)" style="fill-rule:evenodd"/>
                <path data-name="패스 12313" d="M50.645 36.791a3.115 3.115 0 1 1-3.116-3.116 3.115 3.115 0 0 1 3.116 3.116" transform="translate(26.548 20.128)" style="fill-rule:evenodd"/>
                <path data-name="패스 12314" d="M56.181 31.158a3.115 3.115 0 1 1-3.116-3.114 3.116 3.116 0 0 1 3.116 3.114" transform="translate(29.857 16.762)" style="fill-rule:evenodd"/>
                <path data-name="패스 12315" d="M56.181 36.791a3.115 3.115 0 1 1-3.116-3.116 3.116 3.116 0 0 1 3.116 3.116" transform="translate(29.857 20.128)" style="fill-rule:evenodd"/>
                <path data-name="패스 12316" d="M22.568 31.158a3.114 3.114 0 1 1-3.116-3.114 3.114 3.114 0 0 1 3.116 3.114" transform="translate(9.767 16.762)" style="fill-rule:evenodd"/>
                <path data-name="패스 12317" d="M22.568 36.791a3.114 3.114 0 1 1-3.116-3.116 3.114 3.114 0 0 1 3.116 3.116" transform="translate(9.767 20.128)" style="fill-rule:evenodd"/>
                <path data-name="패스 12318" d="M28.148 31.158a3.112 3.112 0 1 1-3.111-3.114 3.113 3.113 0 0 1 3.111 3.114" transform="translate(13.104 16.762)" style="fill-rule:evenodd"/>
                <path data-name="패스 12319" d="M28.148 36.791a3.112 3.112 0 1 1-3.111-3.116 3.113 3.113 0 0 1 3.111 3.116" transform="translate(13.104 20.128)" style="fill-rule:evenodd"/>
                <path data-name="패스 12320" d="M33.895 20.17a3.114 3.114 0 1 1-3.111-3.112 3.113 3.113 0 0 1 3.111 3.112" transform="translate(16.537 10.196)" style="fill-rule:evenodd"/>
                <path data-name="패스 12321" d="M33.895 25.8a3.114 3.114 0 1 1-3.111-3.116 3.114 3.114 0 0 1 3.111 3.116" transform="translate(16.537 13.56)" style="fill-rule:evenodd"/>
                <path data-name="패스 12322" d="M39.431 20.17a3.114 3.114 0 1 1-3.116-3.112 3.114 3.114 0 0 1 3.116 3.112" transform="translate(19.846 10.196)" style="fill-rule:evenodd"/>
                <path data-name="패스 12323" d="M39.431 25.8a3.114 3.114 0 1 1-3.116-3.116 3.115 3.115 0 0 1 3.116 3.116" transform="translate(19.846 13.56)" style="fill-rule:evenodd"/>
                <path data-name="패스 12324" d="M45.014 20.17a3.114 3.114 0 1 1-3.114-3.112 3.114 3.114 0 0 1 3.116 3.112" transform="translate(23.183 10.196)" style="fill-rule:evenodd"/>
                <path data-name="패스 12325" d="M45.014 25.8a3.114 3.114 0 1 1-3.114-3.113 3.115 3.115 0 0 1 3.114 3.113" transform="translate(23.183 13.56)" style="fill-rule:evenodd"/>
                <path data-name="패스 12326" d="M50.645 25.8a3.115 3.115 0 1 1-3.116-3.116 3.115 3.115 0 0 1 3.116 3.116" transform="translate(26.548 13.56)" style="fill-rule:evenodd"/>
                <path data-name="패스 12327" d="M28.148 25.8a3.112 3.112 0 1 1-3.111-3.116 3.113 3.113 0 0 1 3.111 3.116" transform="translate(13.104 13.56)" style="fill-rule:evenodd"/>
                <path data-name="패스 12328" d="M39.431 14.3a3.114 3.114 0 1 1-3.116-3.112 3.112 3.112 0 0 1 3.116 3.112" transform="translate(19.846 6.689)" style="fill-rule:evenodd"/>
                <path data-name="패스 12329" d="M84.058 47.772a3.114 3.114 0 1 1-3.114-3.114 3.116 3.116 0 0 1 3.114 3.114" transform="translate(46.52 26.693)" style="fill-rule:evenodd"/>
                <path data-name="패스 12330" d="M89.59 47.772a3.112 3.112 0 1 1-3.111-3.114 3.114 3.114 0 0 1 3.111 3.114" transform="translate(49.829 26.693)" style="fill-rule:evenodd"/>
                <path data-name="패스 12331" d="M95.176 47.772a3.114 3.114 0 1 1-3.116-3.114 3.119 3.119 0 0 1 3.116 3.114" transform="translate(53.166 26.693)" style="fill-rule:evenodd"/>
                <path data-name="패스 12332" d="M100.806 47.772a3.114 3.114 0 1 1-3.114-3.114 3.115 3.115 0 0 1 3.114 3.114" transform="translate(56.531 26.693)" style="fill-rule:evenodd"/>
                <path data-name="패스 12333" d="M106.336 47.772a3.112 3.112 0 1 1-3.112-3.114 3.114 3.114 0 0 1 3.112 3.114" transform="translate(59.839 26.693)" style="fill-rule:evenodd"/>
                <path data-name="패스 12334" d="M111.9 47.772a3.112 3.112 0 1 1-3.114-3.114 3.113 3.113 0 0 1 3.114 3.114" transform="translate(63.167 26.693)" style="fill-rule:evenodd"/>
                <path data-name="패스 12335" d="M117.441 47.772a3.114 3.114 0 1 1-3.114-3.114 3.115 3.115 0 0 1 3.114 3.114" transform="translate(66.474 26.693)" style="fill-rule:evenodd"/>
                <path data-name="패스 12336" d="M123.025 47.772a3.114 3.114 0 1 1-3.117-3.114 3.117 3.117 0 0 1 3.117 3.114" transform="translate(69.812 26.693)" style="fill-rule:evenodd"/>
                <path data-name="패스 12337" d="M134.432 47.772a3.114 3.114 0 1 1-3.117-3.114 3.117 3.117 0 0 1 3.117 3.114" transform="translate(76.63 26.693)" style="fill-rule:evenodd"/>
                <path data-name="패스 12338" d="M84.058 42.152a3.114 3.114 0 1 1-3.114-3.116 3.115 3.115 0 0 1 3.114 3.116" transform="translate(46.52 23.332)" style="fill-rule:evenodd"/>
                <path data-name="패스 12339" d="M89.59 42.152a3.112 3.112 0 1 1-3.111-3.116 3.113 3.113 0 0 1 3.111 3.116" transform="translate(49.829 23.332)" style="fill-rule:evenodd"/>
                <path data-name="패스 12340" d="M73.027 47.772a3.113 3.113 0 1 1-3.116-3.114 3.114 3.114 0 0 1 3.116 3.114" transform="translate(39.928 26.693)" style="fill-rule:evenodd"/>
                <path data-name="패스 12341" d="M78.564 47.772a3.115 3.115 0 1 1-3.116-3.114 3.118 3.118 0 0 1 3.116 3.114" transform="translate(43.235 26.693)" style="fill-rule:evenodd"/>
                <path data-name="패스 12342" d="M84.058 53.392a3.114 3.114 0 1 1-3.114-3.114 3.116 3.116 0 0 1 3.114 3.114" transform="translate(46.52 30.052)" style="fill-rule:evenodd"/>
                <path data-name="패스 12343" d="M89.59 53.392a3.112 3.112 0 1 1-3.111-3.114 3.115 3.115 0 0 1 3.111 3.114" transform="translate(49.829 30.052)" style="fill-rule:evenodd"/>
                <path data-name="패스 12344" d="M95.176 53.392a3.114 3.114 0 1 1-3.116-3.114 3.119 3.119 0 0 1 3.116 3.114" transform="translate(53.166 30.052)" style="fill-rule:evenodd"/>
                <path data-name="패스 12345" d="M100.806 53.392a3.114 3.114 0 1 1-3.114-3.114 3.115 3.115 0 0 1 3.114 3.114" transform="translate(56.531 30.052)" style="fill-rule:evenodd"/>
                <path data-name="패스 12346" d="M106.336 53.392a3.112 3.112 0 1 1-3.112-3.114 3.114 3.114 0 0 1 3.112 3.114" transform="translate(59.839 30.052)" style="fill-rule:evenodd"/>
                <path data-name="패스 12347" d="M78.564 53.392a3.115 3.115 0 1 1-3.116-3.114 3.118 3.118 0 0 1 3.116 3.114" transform="translate(43.235 30.052)" style="fill-rule:evenodd"/>
                <path data-name="패스 12348" d="M73.027 42.152a3.113 3.113 0 1 1-3.116-3.116 3.113 3.113 0 0 1 3.116 3.116" transform="translate(39.928 23.332)" style="fill-rule:evenodd"/>
                <path data-name="패스 12349" d="M78.564 42.152a3.115 3.115 0 1 1-3.116-3.116 3.116 3.116 0 0 1 3.116 3.116" transform="translate(43.235 23.332)" style="fill-rule:evenodd"/>
                <path data-name="패스 12350" d="M95.176 42.152a3.114 3.114 0 1 1-3.116-3.116 3.117 3.117 0 0 1 3.116 3.116" transform="translate(53.166 23.332)" style="fill-rule:evenodd"/>
                <path data-name="패스 12351" d="M100.806 42.152a3.114 3.114 0 1 1-3.114-3.116 3.114 3.114 0 0 1 3.114 3.116" transform="translate(56.531 23.332)" style="fill-rule:evenodd"/>
                <path data-name="패스 12352" d="M106.336 42.152a3.112 3.112 0 1 1-3.112-3.116 3.112 3.112 0 0 1 3.112 3.116" transform="translate(59.839 23.332)" style="fill-rule:evenodd"/>
                <path data-name="패스 12353" d="M111.9 42.152a3.112 3.112 0 1 1-3.114-3.116 3.112 3.112 0 0 1 3.114 3.116" transform="translate(63.167 23.332)" style="fill-rule:evenodd"/>
                <path data-name="패스 12354" d="M117.441 42.152a3.114 3.114 0 1 1-3.114-3.116 3.114 3.114 0 0 1 3.114 3.116" transform="translate(66.474 23.332)" style="fill-rule:evenodd"/>
                <path data-name="패스 12355" d="M123.025 42.152a3.114 3.114 0 1 1-3.117-3.116 3.115 3.115 0 0 1 3.117 3.116" transform="translate(69.812 23.332)" style="fill-rule:evenodd"/>
                <path data-name="패스 12356" d="M117.534 31.158a3.114 3.114 0 1 1-3.114-3.114 3.115 3.115 0 0 1 3.114 3.114" transform="translate(66.53 16.762)" style="fill-rule:evenodd"/>
                <path data-name="패스 12357" d="M117.534 36.791a3.114 3.114 0 1 1-3.114-3.116 3.114 3.114 0 0 1 3.114 3.116" transform="translate(66.53 20.128)" style="fill-rule:evenodd"/>
                <path data-name="패스 12358" d="M123.069 31.158a3.116 3.116 0 1 1-3.114-3.114 3.116 3.116 0 0 1 3.114 3.114" transform="translate(69.836 16.762)" style="fill-rule:evenodd"/>
                <path data-name="패스 12359" d="M123.069 36.791a3.116 3.116 0 1 1-3.114-3.116 3.115 3.115 0 0 1 3.114 3.116" transform="translate(69.836 20.128)" style="fill-rule:evenodd"/>
                <path data-name="패스 12360" d="M100.8 36.791a3.112 3.112 0 1 1-3.112-3.116 3.113 3.113 0 0 1 3.112 3.116" transform="translate(56.529 20.128)" style="fill-rule:evenodd"/>
                <path data-name="패스 12361" d="M106.431 36.791a3.114 3.114 0 1 1-3.112-3.116 3.112 3.112 0 0 1 3.112 3.116" transform="translate(59.893 20.128)" style="fill-rule:evenodd"/>
                <path data-name="패스 12362" d="M111.967 31.158a3.115 3.115 0 1 1-3.111-3.114 3.113 3.113 0 0 1 3.111 3.114" transform="translate(63.201 16.762)" style="fill-rule:evenodd"/>
                <path data-name="패스 12363" d="M111.967 36.791a3.115 3.115 0 1 1-3.111-3.116 3.113 3.113 0 0 1 3.111 3.116" transform="translate(63.201 20.128)" style="fill-rule:evenodd"/>
                <path data-name="패스 12364" d="M72.82 36.791a3.113 3.113 0 1 1-3.12-3.116 3.114 3.114 0 0 1 3.116 3.116" transform="translate(39.804 20.128)" style="fill-rule:evenodd"/>
                <path data-name="패스 12365" d="M78.357 36.791a3.115 3.115 0 1 1-3.116-3.116 3.116 3.116 0 0 1 3.116 3.116" transform="translate(43.112 20.128)" style="fill-rule:evenodd"/>
                <path data-name="패스 12366" d="M117.534 25.8a3.114 3.114 0 1 1-3.114-3.116 3.115 3.115 0 0 1 3.114 3.116" transform="translate(66.53 13.56)" style="fill-rule:evenodd"/>
                <path data-name="패스 12367" d="M123.069 25.8a3.116 3.116 0 1 1-3.114-3.116 3.116 3.116 0 0 1 3.114 3.116" transform="translate(69.836 13.56)" style="fill-rule:evenodd"/>
                <path data-name="패스 12368" d="M117.534 14.3a3.114 3.114 0 1 1-3.114-3.112 3.111 3.111 0 0 1 3.114 3.112" transform="translate(66.53 6.689)" style="fill-rule:evenodd"/>
                <path data-name="패스 12369" d="M123.069 14.3a3.116 3.116 0 1 1-3.114-3.112 3.112 3.112 0 0 1 3.114 3.112" transform="translate(69.836 6.689)" style="fill-rule:evenodd"/>
                <path data-name="패스 12370" d="M134.431 42.152a3.113 3.113 0 1 1-3.112-3.116 3.114 3.114 0 0 1 3.112 3.116" transform="translate(76.631 23.332)" style="fill-rule:evenodd"/>
                <path data-name="패스 12371" d="M139.969 42.152a3.114 3.114 0 1 1-3.116-3.116 3.116 3.116 0 0 1 3.116 3.116" transform="translate(79.94 23.332)" style="fill-rule:evenodd"/>
                <path data-name="패스 12372" d="M128.939 42.152a3.114 3.114 0 1 1-3.114-3.116 3.115 3.115 0 0 1 3.114 3.116" transform="translate(73.347 23.332)" style="fill-rule:evenodd"/>
                <path data-name="패스 12373" d="M145.55 42.152a3.114 3.114 0 1 1-3.111-3.116 3.113 3.113 0 0 1 3.111 3.116" transform="translate(83.275 23.332)" style="fill-rule:evenodd"/>
                <path data-name="패스 12374" d="M134.431 3.114A3.113 3.113 0 1 1 131.319 0a3.114 3.114 0 0 1 3.112 3.114" transform="translate(76.631)" style="fill-rule:evenodd"/>
                <path data-name="패스 12375" d="M139.969 3.114A3.114 3.114 0 1 1 136.853 0a3.116 3.116 0 0 1 3.116 3.114" transform="translate(79.94)" style="fill-rule:evenodd"/>
                <path data-name="패스 12376" d="M145.55 3.114A3.114 3.114 0 1 1 142.439 0a3.113 3.113 0 0 1 3.111 3.114" transform="translate(83.275)" style="fill-rule:evenodd"/>
                <path data-name="패스 12377" d="M128.939 3.114A3.114 3.114 0 1 1 125.825 0a3.115 3.115 0 0 1 3.114 3.114" transform="translate(73.347)" style="fill-rule:evenodd"/>
                <path data-name="패스 12378" d="M140.06 31.158a3.115 3.115 0 1 1-3.116-3.114 3.117 3.117 0 0 1 3.116 3.114" transform="translate(79.993 16.762)" style="fill-rule:evenodd"/>
                <path data-name="패스 12379" d="M140.06 36.791a3.115 3.115 0 1 1-3.116-3.116 3.117 3.117 0 0 1 3.116 3.116" transform="translate(79.993 20.128)" style="fill-rule:evenodd"/>
                <path data-name="패스 12380" d="M145.6 31.158a3.115 3.115 0 1 1-3.117-3.114 3.116 3.116 0 0 1 3.117 3.114" transform="translate(83.302 16.762)" style="fill-rule:evenodd"/>
                <path data-name="패스 12381" d="M145.6 36.791a3.115 3.115 0 1 1-3.117-3.116 3.116 3.116 0 0 1 3.117 3.116" transform="translate(83.302 20.128)" style="fill-rule:evenodd"/>
                <path data-name="패스 12382" d="M151.175 31.158a3.113 3.113 0 1 1-3.112-3.114 3.112 3.112 0 0 1 3.112 3.114" transform="translate(86.639 16.762)" style="fill-rule:evenodd"/>
                <path data-name="패스 12383" d="M151.175 36.791a3.113 3.113 0 1 1-3.112-3.116 3.112 3.112 0 0 1 3.112 3.116" transform="translate(86.639 20.128)" style="fill-rule:evenodd"/>
                <path data-name="패스 12384" d="M156.808 31.158a3.115 3.115 0 1 1-3.116-3.114 3.116 3.116 0 0 1 3.116 3.114" transform="translate(90.003 16.762)" style="fill-rule:evenodd"/>
                <path data-name="패스 12385" d="M162.34 31.158a3.113 3.113 0 1 1-3.114-3.114 3.115 3.115 0 0 1 3.114 3.114" transform="translate(93.312 16.762)" style="fill-rule:evenodd"/>
                <path data-name="패스 12386" d="M128.728 31.158a3.112 3.112 0 1 1-3.111-3.114 3.112 3.112 0 0 1 3.111 3.114" transform="translate(73.222 16.762)" style="fill-rule:evenodd"/>
                <path data-name="패스 12387" d="M128.728 36.791a3.112 3.112 0 1 1-3.111-3.116 3.112 3.112 0 0 1 3.111 3.116" transform="translate(73.222 20.128)" style="fill-rule:evenodd"/>
                <path data-name="패스 12388" d="M134.313 31.158a3.114 3.114 0 1 1-3.116-3.114 3.116 3.116 0 0 1 3.116 3.114" transform="translate(76.559 16.762)" style="fill-rule:evenodd"/>
                <path data-name="패스 12389" d="M134.313 36.791a3.114 3.114 0 1 1-3.116-3.116 3.116 3.116 0 0 1 3.116 3.116" transform="translate(76.559 20.128)" style="fill-rule:evenodd"/>
                <path data-name="패스 12390" d="M111.9 64.217a3.112 3.112 0 1 1-3.114-3.114 3.11 3.11 0 0 1 3.114 3.114" transform="translate(63.167 36.522)" style="fill-rule:evenodd"/>
                <path data-name="패스 12391" d="M117.441 64.217a3.114 3.114 0 1 1-3.114-3.114 3.112 3.112 0 0 1 3.114 3.114" transform="translate(66.474 36.522)" style="fill-rule:evenodd"/>
                <path data-name="패스 12392" d="M123.025 64.217a3.114 3.114 0 1 1-3.117-3.114 3.114 3.114 0 0 1 3.117 3.114" transform="translate(69.812 36.522)" style="fill-rule:evenodd"/>
                <path data-name="패스 12393" d="M111.9 58.594a3.112 3.112 0 1 1-3.114-3.112 3.112 3.112 0 0 1 3.114 3.112" transform="translate(63.167 33.163)" style="fill-rule:evenodd"/>
                <path data-name="패스 12394" d="M117.441 58.594a3.114 3.114 0 1 1-3.114-3.112 3.114 3.114 0 0 1 3.114 3.112" transform="translate(66.474 33.163)" style="fill-rule:evenodd"/>
                <path data-name="패스 12395" d="M123.025 58.594a3.114 3.114 0 1 1-3.117-3.112 3.115 3.115 0 0 1 3.117 3.112" transform="translate(69.812 33.163)" style="fill-rule:evenodd"/>
                <path data-name="패스 12396" d="M117.534 53.233a3.114 3.114 0 1 1-3.114-3.114 3.114 3.114 0 0 1 3.114 3.114" transform="translate(66.53 29.957)" style="fill-rule:evenodd"/>
                <path data-name="패스 12397" d="M123.069 53.233a3.116 3.116 0 1 1-3.114-3.114 3.115 3.115 0 0 1 3.114 3.114" transform="translate(69.836 29.957)" style="fill-rule:evenodd"/>
                <path data-name="패스 12398" d="M111.967 53.233a3.115 3.115 0 1 1-3.111-3.114 3.112 3.112 0 0 1 3.111 3.114" transform="translate(63.201 29.957)" style="fill-rule:evenodd"/>
                <path data-name="패스 12399" d="M128.939 64.217a3.114 3.114 0 1 1-3.114-3.114 3.113 3.113 0 0 1 3.114 3.114" transform="translate(73.347 36.522)" style="fill-rule:evenodd"/>
                <path data-name="패스 12400" d="M128.939 58.594a3.114 3.114 0 1 1-3.114-3.112 3.115 3.115 0 0 1 3.114 3.112" transform="translate(73.347 33.163)" style="fill-rule:evenodd"/>
                <path data-name="패스 12401" d="M134.432 58.594a3.114 3.114 0 1 1-3.114-3.112 3.115 3.115 0 0 1 3.114 3.112" transform="translate(76.63 33.163)" style="fill-rule:evenodd"/>
                <path data-name="패스 12402" d="M111.9 75.723a3.112 3.112 0 1 1-3.114-3.112 3.114 3.114 0 0 1 3.114 3.112" transform="translate(63.167 43.401)" style="fill-rule:evenodd"/>
                <path data-name="패스 12403" d="M117.441 75.723a3.114 3.114 0 1 1-3.114-3.112 3.116 3.116 0 0 1 3.114 3.112" transform="translate(66.474 43.401)" style="fill-rule:evenodd"/>
                <path data-name="패스 12404" d="M123.025 75.723a3.114 3.114 0 1 1-3.117-3.112 3.118 3.118 0 0 1 3.117 3.112" transform="translate(69.812 43.401)" style="fill-rule:evenodd"/>
                <path data-name="패스 12405" d="M111.9 70.1a3.112 3.112 0 1 1-3.114-3.112A3.112 3.112 0 0 1 111.9 70.1" transform="translate(63.167 40.041)" style="fill-rule:evenodd"/>
                <path data-name="패스 12406" d="M117.441 70.1a3.114 3.114 0 1 1-3.114-3.112 3.114 3.114 0 0 1 3.114 3.112" transform="translate(66.474 40.041)" style="fill-rule:evenodd"/>
                <path data-name="패스 12407" d="M123.025 70.1a3.114 3.114 0 1 1-3.117-3.112 3.116 3.116 0 0 1 3.117 3.112" transform="translate(69.812 40.041)" style="fill-rule:evenodd"/>
                <path data-name="패스 12408" d="M128.939 75.723a3.114 3.114 0 1 1-3.114-3.112 3.117 3.117 0 0 1 3.114 3.112" transform="translate(73.347 43.401)" style="fill-rule:evenodd"/>
                <path data-name="패스 12409" d="M128.939 70.1a3.114 3.114 0 1 1-3.114-3.112 3.115 3.115 0 0 1 3.114 3.112" transform="translate(73.347 40.041)" style="fill-rule:evenodd"/>
                <path data-name="패스 12410" d="M111.9 86.964a3.112 3.112 0 1 1-3.114-3.114 3.112 3.112 0 0 1 3.114 3.114" transform="translate(63.167 50.119)" style="fill-rule:evenodd"/>
                <path data-name="패스 12411" d="M117.441 86.964a3.114 3.114 0 1 1-3.114-3.114 3.114 3.114 0 0 1 3.114 3.114" transform="translate(66.474 50.119)" style="fill-rule:evenodd"/>
                <path data-name="패스 12412" d="M123.025 86.964a3.114 3.114 0 1 1-3.117-3.114 3.116 3.116 0 0 1 3.117 3.114" transform="translate(69.812 50.119)" style="fill-rule:evenodd"/>
                <path data-name="패스 12413" d="M111.9 81.344a3.112 3.112 0 1 1-3.114-3.114 3.113 3.113 0 0 1 3.114 3.114" transform="translate(63.167 46.759)" style="fill-rule:evenodd"/>
                <path data-name="패스 12414" d="M117.441 81.344a3.114 3.114 0 1 1-3.114-3.114 3.115 3.115 0 0 1 3.114 3.114" transform="translate(66.474 46.759)" style="fill-rule:evenodd"/>
                <path data-name="패스 12415" d="M123.025 81.344a3.114 3.114 0 1 1-3.117-3.114 3.117 3.117 0 0 1 3.117 3.114" transform="translate(69.812 46.759)" style="fill-rule:evenodd"/>
                <path data-name="패스 12416" d="M128.939 81.344a3.114 3.114 0 1 1-3.114-3.114 3.116 3.116 0 0 1 3.114 3.114" transform="translate(73.347 46.759)" style="fill-rule:evenodd"/>
                <path data-name="패스 12417" d="M111.9 97.94a3.112 3.112 0 1 1-3.114-3.116 3.111 3.111 0 0 1 3.114 3.116" transform="translate(63.167 56.678)" style="fill-rule:evenodd"/>
                <path data-name="패스 12418" d="M111.9 92.316a3.112 3.112 0 1 1-3.114-3.112 3.112 3.112 0 0 1 3.114 3.112" transform="translate(63.167 53.319)" style="fill-rule:evenodd"/>
                <path data-name="패스 12419" d="M117.441 92.316a3.114 3.114 0 1 1-3.114-3.112 3.114 3.114 0 0 1 3.114 3.112" transform="translate(66.474 53.319)" style="fill-rule:evenodd"/>
                <path data-name="패스 12420" d="M123.025 92.316a3.114 3.114 0 1 1-3.117-3.112 3.116 3.116 0 0 1 3.117 3.112" transform="translate(69.812 53.319)" style="fill-rule:evenodd"/>
                <path data-name="패스 12421" d="M167.908 20.17a3.114 3.114 0 1 1-3.112-3.112 3.114 3.114 0 0 1 3.112 3.112" transform="translate(96.639 10.196)" style="fill-rule:evenodd"/>
                <path data-name="패스 12422" d="M167.908 25.8a3.114 3.114 0 1 1-3.112-3.116 3.115 3.115 0 0 1 3.112 3.116" transform="translate(96.639 13.56)" style="fill-rule:evenodd"/>
                <path data-name="패스 12423" d="M140.06 20.17a3.115 3.115 0 1 1-3.116-3.112 3.116 3.116 0 0 1 3.116 3.112" transform="translate(79.993 10.196)" style="fill-rule:evenodd"/>
                <path data-name="패스 12424" d="M140.06 25.8a3.115 3.115 0 1 1-3.116-3.116 3.117 3.117 0 0 1 3.116 3.116" transform="translate(79.993 13.56)" style="fill-rule:evenodd"/>
                <path data-name="패스 12425" d="M145.6 20.17a3.115 3.115 0 1 1-3.117-3.112 3.115 3.115 0 0 1 3.117 3.112" transform="translate(83.302 10.196)" style="fill-rule:evenodd"/>
                <path data-name="패스 12426" d="M145.6 25.8a3.115 3.115 0 1 1-3.117-3.116A3.116 3.116 0 0 1 145.6 25.8" transform="translate(83.302 13.56)" style="fill-rule:evenodd"/>
                <path data-name="패스 12427" d="M151.175 20.17a3.113 3.113 0 1 1-3.112-3.112 3.111 3.111 0 0 1 3.112 3.112" transform="translate(86.639 10.196)" style="fill-rule:evenodd"/>
                <path data-name="패스 12428" d="M151.175 25.8a3.113 3.113 0 1 1-3.112-3.116 3.112 3.112 0 0 1 3.112 3.116" transform="translate(86.639 13.56)" style="fill-rule:evenodd"/>
                <path data-name="패스 12429" d="M156.808 20.17a3.115 3.115 0 1 1-3.116-3.112 3.115 3.115 0 0 1 3.116 3.112" transform="translate(90.003 10.196)" style="fill-rule:evenodd"/>
                <path data-name="패스 12430" d="M156.808 25.8a3.115 3.115 0 1 1-3.116-3.116 3.116 3.116 0 0 1 3.116 3.116" transform="translate(90.003 13.56)" style="fill-rule:evenodd"/>
                <path data-name="패스 12431" d="M162.34 20.17a3.113 3.113 0 1 1-3.114-3.112 3.114 3.114 0 0 1 3.114 3.112" transform="translate(93.312 10.196)" style="fill-rule:evenodd"/>
                <path data-name="패스 12432" d="M162.34 25.8a3.113 3.113 0 1 1-3.114-3.116 3.115 3.115 0 0 1 3.114 3.116" transform="translate(93.312 13.56)" style="fill-rule:evenodd"/>
                <path data-name="패스 12433" d="M128.728 20.17a3.112 3.112 0 1 1-3.111-3.112 3.111 3.111 0 0 1 3.111 3.112" transform="translate(73.222 10.196)" style="fill-rule:evenodd"/>
                <path data-name="패스 12434" d="M128.728 25.8a3.112 3.112 0 1 1-3.111-3.116 3.112 3.112 0 0 1 3.111 3.116" transform="translate(73.222 13.56)" style="fill-rule:evenodd"/>
                <path data-name="패스 12435" d="M134.313 20.17a3.114 3.114 0 1 1-3.116-3.112 3.115 3.115 0 0 1 3.116 3.112" transform="translate(76.559 10.196)" style="fill-rule:evenodd"/>
                <path data-name="패스 12436" d="M134.313 25.8a3.114 3.114 0 1 1-3.116-3.116 3.116 3.116 0 0 1 3.116 3.116" transform="translate(76.559 13.56)" style="fill-rule:evenodd"/>
                <path data-name="패스 12437" d="M140.06 8.672a3.115 3.115 0 1 1-3.116-3.112 3.117 3.117 0 0 1 3.116 3.112" transform="translate(79.993 3.323)" style="fill-rule:evenodd"/>
                <path data-name="패스 12438" d="M140.06 14.3a3.115 3.115 0 1 1-3.116-3.112 3.114 3.114 0 0 1 3.116 3.112" transform="translate(79.993 6.689)" style="fill-rule:evenodd"/>
                <path data-name="패스 12439" d="M145.6 8.672a3.115 3.115 0 1 1-3.117-3.112 3.116 3.116 0 0 1 3.117 3.112" transform="translate(83.302 3.323)" style="fill-rule:evenodd"/>
                <path data-name="패스 12440" d="M145.6 14.3a3.115 3.115 0 1 1-3.117-3.112A3.113 3.113 0 0 1 145.6 14.3" transform="translate(83.302 6.689)" style="fill-rule:evenodd"/>
                <path data-name="패스 12441" d="M151.175 14.3a3.113 3.113 0 1 1-3.112-3.112 3.109 3.109 0 0 1 3.112 3.112" transform="translate(86.639 6.689)" style="fill-rule:evenodd"/>
                <path data-name="패스 12442" d="M128.728 8.672a3.112 3.112 0 1 1-3.111-3.112 3.112 3.112 0 0 1 3.111 3.112" transform="translate(73.222 3.323)" style="fill-rule:evenodd"/>
                <path data-name="패스 12443" d="M128.728 14.3a3.112 3.112 0 1 1-3.111-3.112 3.109 3.109 0 0 1 3.111 3.112" transform="translate(73.222 6.689)" style="fill-rule:evenodd"/>
                <path data-name="패스 12444" d="M134.313 8.672A3.114 3.114 0 1 1 131.2 5.56a3.116 3.116 0 0 1 3.116 3.112" transform="translate(76.559 3.323)" style="fill-rule:evenodd"/>
                <path data-name="패스 12445" d="M134.313 14.3a3.114 3.114 0 1 1-3.116-3.112 3.113 3.113 0 0 1 3.116 3.112" transform="translate(76.559 6.689)" style="fill-rule:evenodd"/>
                <path data-name="패스 12446" d="M11.465 58.631a3.113 3.113 0 1 1-3.112-3.111 3.116 3.116 0 0 1 3.112 3.111" transform="translate(3.131 33.185)" style="fill-rule:evenodd"/>
                <path data-name="패스 12447" d="M89.593 58.631a3.112 3.112 0 1 1-3.111-3.111 3.114 3.114 0 0 1 3.111 3.111" transform="translate(49.831 33.185)" style="fill-rule:evenodd"/>
                <path data-name="패스 12448" d="M89.593 64.262a3.112 3.112 0 1 1-3.111-3.112 3.113 3.113 0 0 1 3.111 3.112" transform="translate(49.831 36.55)" style="fill-rule:evenodd"/>
                <path data-name="패스 12449" d="M95.13 58.631a3.114 3.114 0 1 1-3.116-3.111 3.116 3.116 0 0 1 3.116 3.111" transform="translate(53.138 33.185)" style="fill-rule:evenodd"/>
                <path data-name="패스 12450" d="M95.13 64.262a3.114 3.114 0 1 1-3.116-3.112 3.115 3.115 0 0 1 3.116 3.112" transform="translate(53.138 36.55)" style="fill-rule:evenodd"/>
                <path data-name="패스 12451" d="M100.711 58.631A3.112 3.112 0 1 1 97.6 55.52a3.115 3.115 0 0 1 3.114 3.111" transform="translate(56.476 33.185)" style="fill-rule:evenodd"/>
                <path data-name="패스 12452" d="M100.711 64.262A3.112 3.112 0 1 1 97.6 61.15a3.115 3.115 0 0 1 3.114 3.112" transform="translate(56.476 36.55)" style="fill-rule:evenodd"/>
                <path data-name="패스 12453" d="M106.343 58.631a3.114 3.114 0 1 1-3.114-3.111 3.116 3.116 0 0 1 3.114 3.111" transform="translate(59.841 33.185)" style="fill-rule:evenodd"/>
                <path data-name="패스 12454" d="M106.343 64.262a3.114 3.114 0 1 1-3.114-3.112 3.116 3.116 0 0 1 3.114 3.112" transform="translate(59.841 36.55)" style="fill-rule:evenodd"/>
            </g>
        </g>
        <circle data-name="타원 43" cx="10" cy="10" r="10" transform="translate(249 1912.054)" style="fill:#00148c"/>
        <text data-name="Expansion of RISC-V ARM China business" transform="translate(245 1948.054)" style="font-size:16px;font-family:Inter-Medium,Inter;font-weight:500;fill:#00148c"><tspan x="-157.42" y="0">Expansion of RISC-V</tspan><tspan x="-156.585" y="20">ARM China business</tspan></text>
        <text transform="translate(245 1929.054)" style="font-size:18px;font-family:Inter-Bold,Inter;font-weight:700;fill:#00148c"><tspan x="-97.543" y="0">SHANGHAI</tspan></text>
    </g>
</svg>
