<svg xmlns="http://www.w3.org/2000/svg" width="158.155" height="196.339" viewBox="0 0 158.155 196.339">
    <defs>
        <clipPath id="zkw742kdia">
            <path data-name="사각형 3008" d="M0 0h95.312v193.642H0z"/>
        </clipPath>
    </defs>
    <g data-name="그룹 7835">
        <g data-name="그룹 7805" transform="translate(-119.845 -2133)">
            <g data-name="그룹 7388" style="opacity:.15">
                <g data-name="그룹 7387" transform="translate(119.845 2135.697)" style="clip-path:url(#zkw742kdia)">
                    <path data-name="패스 12455" d="M34.135 14.1a3.113 3.113 0 1 1-3.116-3.112 3.112 3.112 0 0 1 3.116 3.112" transform="translate(16.682 6.567)" style="fill-rule:evenodd"/>
                    <path data-name="패스 12456" d="M34.135 19.732a3.113 3.113 0 1 1-3.116-3.114 3.115 3.115 0 0 1 3.116 3.114" transform="translate(16.682 9.933)" style="fill-rule:evenodd"/>
                    <path data-name="패스 12457" d="M22.97 30.993a3.114 3.114 0 1 1-3.112-3.116 3.113 3.113 0 0 1 3.112 3.116" transform="translate(10.007 16.663)" style="fill-rule:evenodd"/>
                    <path data-name="패스 12458" d="M28.6 25.359a3.115 3.115 0 1 1-3.112-3.111 3.113 3.113 0 0 1 3.112 3.111" transform="translate(13.372 13.298)" style="fill-rule:evenodd"/>
                    <path data-name="패스 12459" d="M28.6 30.993a3.115 3.115 0 1 1-3.112-3.116 3.113 3.113 0 0 1 3.112 3.116" transform="translate(13.372 16.663)" style="fill-rule:evenodd"/>
                    <path data-name="패스 12460" d="M34.135 25.359a3.113 3.113 0 1 1-3.116-3.111 3.114 3.114 0 0 1 3.116 3.111" transform="translate(16.682 13.298)" style="fill-rule:evenodd"/>
                    <path data-name="패스 12461" d="M34.135 30.993a3.113 3.113 0 1 1-3.116-3.116 3.115 3.115 0 0 1 3.116 3.116" transform="translate(16.682 16.663)" style="fill-rule:evenodd"/>
                    <path data-name="패스 12462" d="M17.389 41.962a3.114 3.114 0 1 1-3.116-3.12 3.115 3.115 0 0 1 3.116 3.12" transform="translate(6.671 23.217)" style="fill-rule:evenodd"/>
                    <path data-name="패스 12463" d="M22.97 36.328a3.114 3.114 0 1 1-3.112-3.112 3.113 3.113 0 0 1 3.112 3.112" transform="translate(10.007 19.854)" style="fill-rule:evenodd"/>
                    <path data-name="패스 12464" d="M22.97 41.962a3.114 3.114 0 1 1-3.112-3.12 3.112 3.112 0 0 1 3.112 3.12" transform="translate(10.007 23.217)" style="fill-rule:evenodd"/>
                    <path data-name="패스 12465" d="M28.6 36.328a3.115 3.115 0 1 1-3.112-3.112 3.113 3.113 0 0 1 3.112 3.112" transform="translate(13.372 19.854)" style="fill-rule:evenodd"/>
                    <path data-name="패스 12466" d="M28.6 41.962a3.115 3.115 0 1 1-3.112-3.12 3.112 3.112 0 0 1 3.112 3.12" transform="translate(13.372 23.217)" style="fill-rule:evenodd"/>
                    <path data-name="패스 12467" d="M34.135 36.328a3.113 3.113 0 1 1-3.116-3.112 3.115 3.115 0 0 1 3.116 3.112" transform="translate(16.682 19.854)" style="fill-rule:evenodd"/>
                    <path data-name="패스 12468" d="M34.135 41.962a3.113 3.113 0 1 1-3.116-3.12 3.114 3.114 0 0 1 3.116 3.12" transform="translate(16.682 23.217)" style="fill-rule:evenodd"/>
                    <path data-name="패스 12469" d="M11.852 47.587a3.113 3.113 0 1 1-3.114-3.112 3.116 3.116 0 0 1 3.114 3.112" transform="translate(3.363 26.583)" style="fill-rule:evenodd"/>
                    <path data-name="패스 12470" d="M11.852 53.221A3.113 3.113 0 1 1 8.738 50.1a3.115 3.115 0 0 1 3.114 3.116" transform="translate(3.363 29.949)" style="fill-rule:evenodd"/>
                    <path data-name="패스 12471" d="M17.389 47.587a3.114 3.114 0 1 1-3.116-3.112 3.118 3.118 0 0 1 3.116 3.112" transform="translate(6.671 26.583)" style="fill-rule:evenodd"/>
                    <path data-name="패스 12472" d="M17.389 53.221a3.114 3.114 0 1 1-3.116-3.121 3.118 3.118 0 0 1 3.116 3.116" transform="translate(6.671 29.949)" style="fill-rule:evenodd"/>
                    <path data-name="패스 12473" d="M22.97 47.587a3.114 3.114 0 1 1-3.112-3.112 3.115 3.115 0 0 1 3.112 3.112" transform="translate(10.007 26.583)" style="fill-rule:evenodd"/>
                    <path data-name="패스 12474" d="M22.97 53.221a3.114 3.114 0 1 1-3.112-3.121 3.115 3.115 0 0 1 3.112 3.116" transform="translate(10.007 29.949)" style="fill-rule:evenodd"/>
                    <path data-name="패스 12475" d="M28.6 47.587a3.115 3.115 0 1 1-3.112-3.112 3.115 3.115 0 0 1 3.112 3.112" transform="translate(13.372 26.583)" style="fill-rule:evenodd"/>
                    <path data-name="패스 12476" d="M28.6 53.221a3.115 3.115 0 1 1-3.111-3.121 3.115 3.115 0 0 1 3.111 3.121" transform="translate(13.372 29.949)" style="fill-rule:evenodd"/>
                    <path data-name="패스 12477" d="M34.135 47.587a3.113 3.113 0 1 1-3.116-3.112 3.117 3.117 0 0 1 3.116 3.112" transform="translate(16.682 26.583)" style="fill-rule:evenodd"/>
                    <path data-name="패스 12478" d="M34.135 53.221A3.113 3.113 0 1 1 31.02 50.1a3.117 3.117 0 0 1 3.116 3.116" transform="translate(16.682 29.949)" style="fill-rule:evenodd"/>
                    <path data-name="패스 12479" d="M11.852 58.809A3.113 3.113 0 1 1 8.738 55.7a3.114 3.114 0 0 1 3.114 3.109" transform="translate(3.363 33.293)" style="fill-rule:evenodd"/>
                    <path data-name="패스 12480" d="M11.852 64.445a3.113 3.113 0 1 1-3.114-3.116 3.113 3.113 0 0 1 3.114 3.116" transform="translate(3.363 36.657)" style="fill-rule:evenodd"/>
                    <path data-name="패스 12481" d="M17.389 58.809a3.114 3.114 0 1 1-3.116-3.109 3.116 3.116 0 0 1 3.116 3.109" transform="translate(6.671 33.293)" style="fill-rule:evenodd"/>
                    <path data-name="패스 12482" d="M17.389 64.445a3.114 3.114 0 1 1-3.116-3.116 3.115 3.115 0 0 1 3.116 3.116" transform="translate(6.671 36.657)" style="fill-rule:evenodd"/>
                    <path data-name="패스 12483" d="M22.97 58.809a3.114 3.114 0 1 1-3.112-3.109 3.114 3.114 0 0 1 3.112 3.109" transform="translate(10.007 33.293)" style="fill-rule:evenodd"/>
                    <path data-name="패스 12484" d="M22.97 64.445a3.114 3.114 0 1 1-3.112-3.116 3.113 3.113 0 0 1 3.112 3.116" transform="translate(10.007 36.657)" style="fill-rule:evenodd"/>
                    <path data-name="패스 12485" d="M28.6 58.809a3.115 3.115 0 1 1-3.111-3.109 3.114 3.114 0 0 1 3.111 3.109" transform="translate(13.372 33.293)" style="fill-rule:evenodd"/>
                    <path data-name="패스 12486" d="M28.6 64.445a3.115 3.115 0 1 1-3.112-3.116 3.113 3.113 0 0 1 3.112 3.116" transform="translate(13.372 36.657)" style="fill-rule:evenodd"/>
                    <path data-name="패스 12487" d="M34.135 58.809A3.113 3.113 0 1 1 31.02 55.7a3.115 3.115 0 0 1 3.116 3.109" transform="translate(16.682 33.293)" style="fill-rule:evenodd"/>
                    <path data-name="패스 12488" d="M34.135 64.445a3.113 3.113 0 1 1-3.116-3.116 3.114 3.114 0 0 1 3.116 3.116" transform="translate(16.682 36.657)" style="fill-rule:evenodd"/>
                    <path data-name="패스 12489" d="M11.852 70.071a3.113 3.113 0 1 1-3.114-3.111 3.116 3.116 0 0 1 3.114 3.111" transform="translate(3.363 40.023)" style="fill-rule:evenodd"/>
                    <path data-name="패스 12490" d="M11.852 75.7a3.113 3.113 0 1 1-3.114-3.108 3.113 3.113 0 0 1 3.114 3.108" transform="translate(3.363 43.389)" style="fill-rule:evenodd"/>
                    <path data-name="패스 12491" d="M17.389 70.071a3.114 3.114 0 1 1-3.116-3.111 3.118 3.118 0 0 1 3.116 3.111" transform="translate(6.671 40.023)" style="fill-rule:evenodd"/>
                    <path data-name="패스 12492" d="M17.389 75.7a3.114 3.114 0 1 1-3.116-3.108 3.116 3.116 0 0 1 3.116 3.108" transform="translate(6.671 43.389)" style="fill-rule:evenodd"/>
                    <path data-name="패스 12493" d="M22.97 70.071a3.114 3.114 0 1 1-3.112-3.111 3.115 3.115 0 0 1 3.112 3.111" transform="translate(10.007 40.023)" style="fill-rule:evenodd"/>
                    <path data-name="패스 12494" d="M22.97 75.7a3.114 3.114 0 1 1-3.112-3.108A3.113 3.113 0 0 1 22.97 75.7" transform="translate(10.007 43.389)" style="fill-rule:evenodd"/>
                    <path data-name="패스 12495" d="M28.6 70.071a3.115 3.115 0 1 1-3.112-3.111 3.115 3.115 0 0 1 3.112 3.111" transform="translate(13.372 40.023)" style="fill-rule:evenodd"/>
                    <path data-name="패스 12496" d="M28.6 75.7a3.115 3.115 0 1 1-3.112-3.108A3.113 3.113 0 0 1 28.6 75.7" transform="translate(13.372 43.389)" style="fill-rule:evenodd"/>
                    <path data-name="패스 12497" d="M6.359 58.809A3.114 3.114 0 1 1 3.245 55.7a3.116 3.116 0 0 1 3.114 3.109" transform="translate(.078 33.293)" style="fill-rule:evenodd"/>
                    <path data-name="패스 12498" d="M6.359 64.445a3.114 3.114 0 1 1-3.114-3.116 3.115 3.115 0 0 1 3.114 3.116" transform="translate(.078 36.657)" style="fill-rule:evenodd"/>
                    <path data-name="패스 12499" d="M6.359 70.071a3.114 3.114 0 1 1-3.114-3.111 3.118 3.118 0 0 1 3.114 3.111" transform="translate(.078 40.023)" style="fill-rule:evenodd"/>
                    <path data-name="패스 12500" d="M6.359 75.7a3.114 3.114 0 1 1-3.114-3.108A3.115 3.115 0 0 1 6.359 75.7" transform="translate(.078 43.389)" style="fill-rule:evenodd"/>
                    <path data-name="패스 12501" d="M34.135 70.071a3.113 3.113 0 1 1-3.115-3.111 3.117 3.117 0 0 1 3.116 3.111" transform="translate(16.682 40.023)" style="fill-rule:evenodd"/>
                    <path data-name="패스 12502" d="M34.135 75.7a3.113 3.113 0 1 1-3.116-3.108 3.115 3.115 0 0 1 3.116 3.108" transform="translate(16.682 43.389)" style="fill-rule:evenodd"/>
                    <path data-name="패스 12503" d="M39.707 14.1a3.116 3.116 0 1 1-3.117-3.112 3.115 3.115 0 0 1 3.117 3.112" transform="translate(20.008 6.567)" style="fill-rule:evenodd"/>
                    <path data-name="패스 12504" d="M39.707 19.732a3.116 3.116 0 1 1-3.117-3.114 3.117 3.117 0 0 1 3.117 3.114" transform="translate(20.008 9.933)" style="fill-rule:evenodd"/>
                    <path data-name="패스 12505" d="M45.235 14.1a3.112 3.112 0 1 1-3.111-3.112 3.109 3.109 0 0 1 3.111 3.112" transform="translate(23.317 6.567)" style="fill-rule:evenodd"/>
                    <path data-name="패스 12506" d="M45.235 19.732a3.112 3.112 0 1 1-3.111-3.114 3.112 3.112 0 0 1 3.111 3.114" transform="translate(23.317 9.933)" style="fill-rule:evenodd"/>
                    <path data-name="패스 12507" d="M50.819 14.1a3.112 3.112 0 1 1-3.119-3.113 3.112 3.112 0 0 1 3.119 3.113" transform="translate(26.655 6.567)" style="fill-rule:evenodd"/>
                    <path data-name="패스 12508" d="M50.819 19.732a3.112 3.112 0 1 1-3.119-3.114 3.114 3.114 0 0 1 3.114 3.114" transform="translate(26.655 9.933)" style="fill-rule:evenodd"/>
                    <path data-name="패스 12509" d="M56.45 14.1a3.114 3.114 0 1 1-3.111-3.112A3.111 3.111 0 0 1 56.45 14.1" transform="translate(30.019 6.567)" style="fill-rule:evenodd"/>
                    <path data-name="패스 12510" d="M56.45 19.732a3.114 3.114 0 1 1-3.111-3.114 3.114 3.114 0 0 1 3.111 3.114" transform="translate(30.019 9.933)" style="fill-rule:evenodd"/>
                    <path data-name="패스 12511" d="M61.984 14.1a3.113 3.113 0 1 1-3.114-3.112 3.111 3.111 0 0 1 3.114 3.112" transform="translate(33.328 6.567)" style="fill-rule:evenodd"/>
                    <path data-name="패스 12512" d="M61.984 19.732a3.113 3.113 0 1 1-3.114-3.114 3.113 3.113 0 0 1 3.114 3.114" transform="translate(33.328 9.933)" style="fill-rule:evenodd"/>
                    <path data-name="패스 12513" d="M39.707 25.359a3.116 3.116 0 1 1-3.117-3.111 3.117 3.117 0 0 1 3.117 3.111" transform="translate(20.008 13.298)" style="fill-rule:evenodd"/>
                    <path data-name="패스 12514" d="M39.707 30.993a3.116 3.116 0 1 1-3.117-3.116 3.118 3.118 0 0 1 3.117 3.116" transform="translate(20.008 16.663)" style="fill-rule:evenodd"/>
                    <path data-name="패스 12515" d="M45.235 25.359a3.112 3.112 0 1 1-3.111-3.111 3.111 3.111 0 0 1 3.111 3.111" transform="translate(23.317 13.298)" style="fill-rule:evenodd"/>
                    <path data-name="패스 12516" d="M45.235 30.993a3.112 3.112 0 1 1-3.111-3.116 3.112 3.112 0 0 1 3.111 3.116" transform="translate(23.317 16.663)" style="fill-rule:evenodd"/>
                    <path data-name="패스 12517" d="M50.819 25.359a3.112 3.112 0 1 1-3.119-3.111 3.114 3.114 0 0 1 3.114 3.111" transform="translate(26.655 13.298)" style="fill-rule:evenodd"/>
                    <path data-name="패스 12518" d="M50.819 30.993a3.112 3.112 0 1 1-3.119-3.116 3.115 3.115 0 0 1 3.114 3.116" transform="translate(26.655 16.663)" style="fill-rule:evenodd"/>
                    <path data-name="패스 12519" d="M56.45 25.359a3.114 3.114 0 1 1-3.111-3.111 3.113 3.113 0 0 1 3.111 3.111" transform="translate(30.019 13.298)" style="fill-rule:evenodd"/>
                    <path data-name="패스 12520" d="M56.45 30.993a3.114 3.114 0 1 1-3.111-3.116 3.114 3.114 0 0 1 3.111 3.116" transform="translate(30.019 16.663)" style="fill-rule:evenodd"/>
                    <path data-name="패스 12521" d="M61.984 25.359a3.113 3.113 0 1 1-3.114-3.111 3.113 3.113 0 0 1 3.114 3.111" transform="translate(33.328 13.298)" style="fill-rule:evenodd"/>
                    <path data-name="패스 12522" d="M61.984 30.993a3.113 3.113 0 1 1-3.114-3.116 3.114 3.114 0 0 1 3.114 3.116" transform="translate(33.328 16.663)" style="fill-rule:evenodd"/>
                    <path data-name="패스 12523" d="M39.707 36.328a3.116 3.116 0 1 1-3.117-3.112 3.117 3.117 0 0 1 3.117 3.112" transform="translate(20.008 19.854)" style="fill-rule:evenodd"/>
                    <path data-name="패스 12524" d="M39.707 41.962a3.116 3.116 0 1 1-3.117-3.12 3.116 3.116 0 0 1 3.117 3.12" transform="translate(20.008 23.217)" style="fill-rule:evenodd"/>
                    <path data-name="패스 12525" d="M45.235 36.328a3.112 3.112 0 1 1-3.111-3.112 3.112 3.112 0 0 1 3.111 3.112" transform="translate(23.317 19.854)" style="fill-rule:evenodd"/>
                    <path data-name="패스 12526" d="M45.235 41.962a3.112 3.112 0 1 1-3.111-3.12 3.111 3.111 0 0 1 3.111 3.12" transform="translate(23.317 23.217)" style="fill-rule:evenodd"/>
                    <path data-name="패스 12527" d="M50.819 36.328a3.112 3.112 0 1 1-3.119-3.112 3.114 3.114 0 0 1 3.114 3.112" transform="translate(26.655 19.854)" style="fill-rule:evenodd"/>
                    <path data-name="패스 12528" d="M50.819 41.962a3.112 3.112 0 1 1-3.114-3.12 3.113 3.113 0 0 1 3.114 3.12" transform="translate(26.655 23.217)" style="fill-rule:evenodd"/>
                    <path data-name="패스 12529" d="M56.45 36.328a3.114 3.114 0 1 1-3.111-3.112 3.114 3.114 0 0 1 3.111 3.112" transform="translate(30.019 19.854)" style="fill-rule:evenodd"/>
                    <path data-name="패스 12530" d="M56.45 41.962a3.114 3.114 0 1 1-3.111-3.12 3.113 3.113 0 0 1 3.111 3.12" transform="translate(30.019 23.217)" style="fill-rule:evenodd"/>
                    <path data-name="패스 12531" d="M39.707 47.587a3.116 3.116 0 1 1-3.117-3.112 3.12 3.12 0 0 1 3.117 3.112" transform="translate(20.008 26.583)" style="fill-rule:evenodd"/>
                    <path data-name="패스 12532" d="M39.707 53.221A3.116 3.116 0 1 1 36.59 50.1a3.119 3.119 0 0 1 3.117 3.116" transform="translate(20.008 29.949)" style="fill-rule:evenodd"/>
                    <path data-name="패스 12533" d="M45.235 47.587a3.112 3.112 0 1 1-3.111-3.112 3.114 3.114 0 0 1 3.111 3.112" transform="translate(23.317 26.583)" style="fill-rule:evenodd"/>
                    <path data-name="패스 12534" d="M45.235 53.221a3.112 3.112 0 1 1-3.111-3.121 3.114 3.114 0 0 1 3.111 3.116" transform="translate(23.317 29.949)" style="fill-rule:evenodd"/>
                    <path data-name="패스 12535" d="M50.819 47.587a3.112 3.112 0 1 1-3.119-3.112 3.117 3.117 0 0 1 3.114 3.112" transform="translate(26.655 26.583)" style="fill-rule:evenodd"/>
                    <path data-name="패스 12536" d="M50.819 53.221A3.112 3.112 0 1 1 47.7 50.1a3.116 3.116 0 0 1 3.114 3.116" transform="translate(26.655 29.949)" style="fill-rule:evenodd"/>
                    <path data-name="패스 12537" d="M56.45 47.587a3.114 3.114 0 1 1-3.111-3.112 3.116 3.116 0 0 1 3.111 3.112" transform="translate(30.019 26.583)" style="fill-rule:evenodd"/>
                    <path data-name="패스 12538" d="M39.707 58.809A3.116 3.116 0 1 1 36.59 55.7a3.118 3.118 0 0 1 3.117 3.109" transform="translate(20.008 33.293)" style="fill-rule:evenodd"/>
                    <path data-name="패스 12539" d="M39.707 64.445a3.116 3.116 0 1 1-3.117-3.116 3.117 3.117 0 0 1 3.117 3.116" transform="translate(20.008 36.657)" style="fill-rule:evenodd"/>
                    <path data-name="패스 12540" d="M45.235 58.809a3.112 3.112 0 1 1-3.111-3.109 3.112 3.112 0 0 1 3.111 3.109" transform="translate(23.317 33.293)" style="fill-rule:evenodd"/>
                    <path data-name="패스 12541" d="M45.235 64.445a3.112 3.112 0 1 1-3.111-3.116 3.111 3.111 0 0 1 3.111 3.116" transform="translate(23.317 36.657)" style="fill-rule:evenodd"/>
                    <path data-name="패스 12542" d="M50.819 58.809A3.112 3.112 0 1 1 47.7 55.7a3.115 3.115 0 0 1 3.114 3.109" transform="translate(26.655 33.293)" style="fill-rule:evenodd"/>
                    <path data-name="패스 12543" d="M50.819 64.445a3.112 3.112 0 1 1-3.119-3.116 3.114 3.114 0 0 1 3.114 3.116" transform="translate(26.655 36.657)" style="fill-rule:evenodd"/>
                    <path data-name="패스 12544" d="M39.707 70.071a3.116 3.116 0 1 1-3.117-3.111 3.12 3.12 0 0 1 3.117 3.111" transform="translate(20.008 40.023)" style="fill-rule:evenodd"/>
                    <path data-name="패스 12545" d="M39.707 75.7a3.116 3.116 0 1 1-3.117-3.108 3.117 3.117 0 0 1 3.117 3.108" transform="translate(20.008 43.389)" style="fill-rule:evenodd"/>
                    <path data-name="패스 12546" d="M45.235 70.071a3.112 3.112 0 1 1-3.111-3.111 3.114 3.114 0 0 1 3.111 3.111" transform="translate(23.317 40.023)" style="fill-rule:evenodd"/>
                    <path data-name="패스 12547" d="M45.235 75.7a3.112 3.112 0 1 1-3.111-3.108 3.112 3.112 0 0 1 3.111 3.108" transform="translate(23.317 43.389)" style="fill-rule:evenodd"/>
                    <path data-name="패스 12548" d="M50.819 70.071A3.112 3.112 0 1 1 47.7 66.96a3.117 3.117 0 0 1 3.114 3.111" transform="translate(26.655 40.023)" style="fill-rule:evenodd"/>
                    <path data-name="패스 12549" d="M39.707 81.294a3.116 3.116 0 1 1-3.117-3.111 3.115 3.115 0 0 1 3.117 3.111" transform="translate(20.008 46.731)" style="fill-rule:evenodd"/>
                    <path data-name="패스 12550" d="M39.707 86.928a3.116 3.116 0 1 1-3.117-3.114 3.116 3.116 0 0 1 3.117 3.114" transform="translate(20.008 50.097)" style="fill-rule:evenodd"/>
                    <path data-name="패스 12551" d="M45.235 81.294a3.112 3.112 0 1 1-3.111-3.111 3.11 3.11 0 0 1 3.111 3.111" transform="translate(23.317 46.731)" style="fill-rule:evenodd"/>
                    <path data-name="패스 12552" d="M45.235 86.928a3.112 3.112 0 1 1-3.111-3.114 3.111 3.111 0 0 1 3.111 3.114" transform="translate(23.317 50.097)" style="fill-rule:evenodd"/>
                    <path data-name="패스 12553" d="M39.707 92.56a3.116 3.116 0 1 1-3.117-3.117 3.114 3.114 0 0 1 3.117 3.117" transform="translate(20.008 53.462)" style="fill-rule:evenodd"/>
                    <path data-name="패스 12554" d="M39.707 8.745a3.116 3.116 0 1 1-3.117-3.114 3.117 3.117 0 0 1 3.117 3.114" transform="translate(20.008 3.366)" style="fill-rule:evenodd"/>
                    <path data-name="패스 12555" d="M45.235 8.745a3.112 3.112 0 1 1-3.111-3.114 3.111 3.111 0 0 1 3.111 3.114" transform="translate(23.317 3.366)" style="fill-rule:evenodd"/>
                    <path data-name="패스 12556" d="M50.819 3.114A3.112 3.112 0 1 1 47.7 0a3.117 3.117 0 0 1 3.114 3.114" transform="translate(26.655)" style="fill-rule:evenodd"/>
                    <path data-name="패스 12557" d="M50.819 8.745A3.112 3.112 0 1 1 47.7 5.631a3.114 3.114 0 0 1 3.114 3.114" transform="translate(26.655 3.366)" style="fill-rule:evenodd"/>
                    <path data-name="패스 12558" d="M56.45 3.114A3.114 3.114 0 1 1 53.339 0a3.116 3.116 0 0 1 3.111 3.114" transform="translate(30.019)" style="fill-rule:evenodd"/>
                    <path data-name="패스 12559" d="M56.45 8.745a3.114 3.114 0 1 1-3.111-3.114 3.113 3.113 0 0 1 3.111 3.114" transform="translate(30.019 3.366)" style="fill-rule:evenodd"/>
                    <path data-name="패스 12560" d="M61.984 3.114A3.113 3.113 0 1 1 58.87 0a3.116 3.116 0 0 1 3.114 3.114" transform="translate(33.328)" style="fill-rule:evenodd"/>
                    <path data-name="패스 12561" d="M61.984 8.745a3.113 3.113 0 1 1-3.114-3.114 3.113 3.113 0 0 1 3.114 3.114" transform="translate(33.328 3.366)" style="fill-rule:evenodd"/>
                    <path data-name="패스 12562" d="M22.84 81.294a3.114 3.114 0 1 1-3.114-3.111 3.113 3.113 0 0 1 3.114 3.111" transform="translate(9.929 46.731)" style="fill-rule:evenodd"/>
                    <path data-name="패스 12563" d="M22.84 86.928a3.114 3.114 0 1 1-3.114-3.114 3.113 3.113 0 0 1 3.114 3.114" transform="translate(9.929 50.097)" style="fill-rule:evenodd"/>
                    <path data-name="패스 12564" d="M28.376 81.294a3.115 3.115 0 1 1-3.116-3.111 3.113 3.113 0 0 1 3.116 3.111" transform="translate(13.237 46.731)" style="fill-rule:evenodd"/>
                    <path data-name="패스 12565" d="M28.376 86.928a3.115 3.115 0 1 1-3.116-3.114 3.114 3.114 0 0 1 3.116 3.114" transform="translate(13.237 50.097)" style="fill-rule:evenodd"/>
                    <path data-name="패스 12566" d="M33.957 81.294a3.114 3.114 0 1 1-3.114-3.111 3.113 3.113 0 0 1 3.114 3.111" transform="translate(16.574 46.731)" style="fill-rule:evenodd"/>
                    <path data-name="패스 12567" d="M6.228 81.294a3.114 3.114 0 1 1-3.114-3.111 3.112 3.112 0 0 1 3.114 3.111" transform="translate(0 46.731)" style="fill-rule:evenodd"/>
                    <path data-name="패스 12568" d="M11.763 81.294a3.114 3.114 0 1 1-3.114-3.111 3.113 3.113 0 0 1 3.114 3.111" transform="translate(3.308 46.731)" style="fill-rule:evenodd"/>
                    <path data-name="패스 12569" d="M17.344 81.294a3.113 3.113 0 1 1-3.112-3.111 3.111 3.111 0 0 1 3.112 3.111" transform="translate(6.645 46.731)" style="fill-rule:evenodd"/>
                    <path data-name="패스 12570" d="M33.957 86.928a3.114 3.114 0 1 1-3.114-3.114 3.113 3.113 0 0 1 3.114 3.114" transform="translate(16.574 50.097)" style="fill-rule:evenodd"/>
                    <path data-name="패스 12571" d="M22.84 92.56a3.114 3.114 0 1 1-3.114-3.117 3.112 3.112 0 0 1 3.114 3.117" transform="translate(9.929 53.462)" style="fill-rule:evenodd"/>
                    <path data-name="패스 12572" d="M22.84 98.191a3.114 3.114 0 1 1-3.114-3.119 3.115 3.115 0 0 1 3.114 3.119" transform="translate(9.929 56.826)" style="fill-rule:evenodd"/>
                    <path data-name="패스 12573" d="M28.376 92.56a3.115 3.115 0 1 1-3.116-3.117 3.112 3.112 0 0 1 3.116 3.117" transform="translate(13.237 53.462)" style="fill-rule:evenodd"/>
                    <path data-name="패스 12574" d="M28.376 98.191a3.115 3.115 0 1 1-3.116-3.119 3.116 3.116 0 0 1 3.116 3.119" transform="translate(13.237 56.826)" style="fill-rule:evenodd"/>
                    <path data-name="패스 12575" d="M33.957 92.56a3.114 3.114 0 1 1-3.114-3.117 3.112 3.112 0 0 1 3.114 3.117" transform="translate(16.574 53.462)" style="fill-rule:evenodd"/>
                    <path data-name="패스 12576" d="M33.957 98.191a3.114 3.114 0 1 1-3.114-3.119 3.115 3.115 0 0 1 3.114 3.119" transform="translate(16.574 56.826)" style="fill-rule:evenodd"/>
                    <path data-name="패스 12577" d="M22.84 103.526a3.114 3.114 0 1 1-3.114-3.116 3.116 3.116 0 0 1 3.114 3.116" transform="translate(9.929 60.017)" style="fill-rule:evenodd"/>
                    <path data-name="패스 12578" d="M22.84 109.153a3.114 3.114 0 1 1-3.114-3.112 3.114 3.114 0 0 1 3.114 3.112" transform="translate(9.929 63.383)" style="fill-rule:evenodd"/>
                    <path data-name="패스 12579" d="M28.376 103.526a3.115 3.115 0 1 1-3.116-3.116 3.116 3.116 0 0 1 3.116 3.116" transform="translate(13.237 60.017)" style="fill-rule:evenodd"/>
                    <path data-name="패스 12580" d="M28.376 109.153a3.115 3.115 0 1 1-3.116-3.112 3.114 3.114 0 0 1 3.116 3.112" transform="translate(13.237 63.383)" style="fill-rule:evenodd"/>
                    <path data-name="패스 12581" d="M33.957 103.526a3.114 3.114 0 1 1-3.114-3.116 3.116 3.116 0 0 1 3.114 3.116" transform="translate(16.574 60.017)" style="fill-rule:evenodd"/>
                    <path data-name="패스 12582" d="M28.376 114.783a3.115 3.115 0 1 1-3.116-3.112 3.113 3.113 0 0 1 3.116 3.112" transform="translate(13.237 66.748)" style="fill-rule:evenodd"/>
                    <path data-name="패스 12583" d="M28.376 120.415a3.115 3.115 0 1 1-3.116-3.115 3.114 3.114 0 0 1 3.116 3.111" transform="translate(13.237 70.115)" style="fill-rule:evenodd"/>
                    <path data-name="패스 12584" d="M6.234 86.928a3.115 3.115 0 1 1-3.116-3.114 3.114 3.114 0 0 1 3.116 3.114" transform="translate(.002 50.097)" style="fill-rule:evenodd"/>
                    <path data-name="패스 12585" d="M11.768 86.928a3.115 3.115 0 1 1-3.112-3.114 3.113 3.113 0 0 1 3.112 3.114" transform="translate(3.31 50.097)" style="fill-rule:evenodd"/>
                    <path data-name="패스 12586" d="M17.348 86.928a3.113 3.113 0 1 1-3.114-3.114 3.112 3.112 0 0 1 3.114 3.114" transform="translate(6.648 50.097)" style="fill-rule:evenodd"/>
                    <path data-name="패스 12587" d="M11.768 92.56a3.115 3.115 0 1 1-3.112-3.117 3.111 3.111 0 0 1 3.112 3.117" transform="translate(3.31 53.462)" style="fill-rule:evenodd"/>
                    <path data-name="패스 12588" d="M11.768 98.191a3.115 3.115 0 1 1-3.112-3.119 3.115 3.115 0 0 1 3.112 3.119" transform="translate(3.31 56.826)" style="fill-rule:evenodd"/>
                    <path data-name="패스 12589" d="M17.348 92.56a3.113 3.113 0 1 1-3.114-3.117 3.111 3.111 0 0 1 3.114 3.117" transform="translate(6.648 53.462)" style="fill-rule:evenodd"/>
                    <path data-name="패스 12590" d="M17.348 98.191a3.113 3.113 0 1 1-3.114-3.119 3.114 3.114 0 0 1 3.114 3.119" transform="translate(6.648 56.826)" style="fill-rule:evenodd"/>
                    <path data-name="패스 12591" d="M17.348 103.526a3.113 3.113 0 1 1-3.114-3.116 3.115 3.115 0 0 1 3.114 3.116" transform="translate(6.648 60.017)" style="fill-rule:evenodd"/>
                </g>
            </g>
            <circle data-name="타원 44" cx="10" cy="10" r="10" transform="translate(189 2133)" style="fill:#00148c"/>
            <text transform="translate(213 2149)" style="font-family:Inter-Bold,Inter;font-weight:700;fill:#00c8b4;font-size:16px"><tspan x="0" y="0">TAIPEI</tspan></text>
            <text data-name="(Expect)" transform="translate(213 2168)" style="font-family:Inter-Medium,Inter;font-weight:500;fill:#00c8b4;font-size:16px"><tspan x="0" y="0">(Expect)</tspan></text>
        </g>
    </g>
</svg>
